<?xml version="1.0" encoding="utf-8"?>
<!-- Generator: Adobe Illustrator 26.4.1, SVG Export Plug-In . SVG Version: 6.00 Build 0)  -->
<svg version="1.1" id="Livello_1" xmlns="http://www.w3.org/2000/svg" xmlns:xlink="http://www.w3.org/1999/xlink" x="0px" y="0px"
	 viewBox="0 0 541 485" style="enable-background:new 0 0 541 485;" xml:space="preserve">
<style type="text/css">
	.st0{fill:#E2E2E2;}
	.st1{fill:#E2DAD9;}
	.st2{fill:#C9363F;}
	.st3{fill:#1D1D1D;}
</style>
<g>
	<rect x="79" class="st0" width="462" height="399"/>
	<g>
		<path class="st1" d="M283.4,317.2c16.4-29.6,24-74.4,24.4-114.4l-41.2-6c0,0.5-0.1,1.1-0.1,1.6c-2.1,36.5-10.1,79.1-24.3,102.8
			L283.4,317.2z"/>
		<path class="st1" d="M457.8,207.6l-47.2-10.8c-7.6,33-22.6,77.5-36.2,106c-2.6-11.2-4.9-22.8-6.8-34.7
			c4.2-47.5,4.4-100.4,4.6-158.4h-44.4c-0.3,127.2,2.5,223.7-44.6,289.4h53c5.3-10.8,9.8-22.2,13.6-34.1c4.1,12,8.6,23.4,13.7,34.1
			h50.4c-18.2-26.2-30.6-58.9-39.3-95.7l40.1,11.1C428.2,287.2,444.2,245.6,457.8,207.6z"/>
		<path class="st1" d="M198.6,271.2V266h49.6v-44h-49.6v-58c1.3-0.3,2.6-0.6,3.9-0.9l0,0c1-0.3,2.1-0.5,3.1-0.8
			c1.9-0.5,3.8-0.9,5.7-1.4c0.3-0.1,0.5-0.1,0.8-0.2c2-0.5,4.1-1.1,6.1-1.6c0.3-0.1,0.5-0.1,0.8-0.2c1.5-0.4,2.9-0.8,4.3-1.2
			c0.2-0.1,0.5-0.1,0.8-0.2c0.9-0.2,1.8-0.5,2.8-0.8c1.2-0.3,2.4-0.7,3.6-1c7.2-2.2,14.2-4.4,20.9-6.8l-3.8-4.7l-0.7-0.9l-2.1-2.7
			l-0.9-1.1l-1.8-2.2l-0.6-0.8l-9.1-11.4l-0.5-0.6l-2.4-3.1l-0.5-0.7l-0.1-0.2l-0.6-0.8l-7.2-9c-5.6,2.3-11.7,4.5-18.2,6.6l0,0
			c-0.2,0.1-0.5,0.2-0.8,0.2l0,0c-0.4,0.1-0.8,0.2-1.2,0.4c-0.2,0.1-0.5,0.2-0.7,0.2c-0.8,0.3-1.6,0.5-2.5,0.8
			c-0.2,0.1-0.5,0.2-0.8,0.2c-2.2,0.7-4.5,1.4-6.7,2.1c-0.3,0.1-0.5,0.2-0.8,0.2c-0.7,0.2-1.4,0.4-2.1,0.6c-0.3,0.1-0.6,0.2-0.9,0.3
			c-1.4,0.4-2.7,0.8-4.1,1.2c-0.3,0.1-0.5,0.1-0.8,0.2c-0.7,0.2-1.4,0.4-2.1,0.6c-0.7,0.2-1.4,0.4-2.1,0.6l0,0
			c-15.6,4.2-32.4,8.2-49.5,11.6c-0.3,0-0.5,0.1-0.8,0.2c-1.5,0.3-2.9,0.6-4.4,0.9c-0.3,0.1-0.5,0.1-0.8,0.2
			c-1.3,0.2-2.5,0.5-3.8,0.7c-0.3,0.1-0.5,0.1-0.8,0.2c-0.8,0.2-1.7,0.3-2.5,0.5c-0.3,0-0.5,0.1-0.8,0.2c-1.5,0.3-2.9,0.5-4.4,0.8
			c-0.3,0-0.5,0.1-0.8,0.1c-0.8,0.1-1.5,0.3-2.3,0.4c-0.3,0-0.5,0.1-0.8,0.1c-1.4,0.2-2.7,0.5-4.1,0.7c-0.3,0-0.6,0.1-0.8,0.1
			c-4.3,0.8-8.6,1.5-12.9,2.1c4.8,9.2,10.5,23.7,13,34.1c0.2,0.9,0.4,1.8,0.6,2.7l0,0c0,0,0,0,0,0.1l0,0c0.3,0,0.6-0.1,0.9-0.1
			c1.8-0.2,3.6-0.4,5.4-0.7c0.3,0,0.5-0.1,0.8-0.1c1.5-0.2,3.1-0.4,4.7-0.6c0.3,0,0.6-0.1,0.8-0.1c0.7-0.1,1.4-0.2,2.1-0.3
			c0.3,0,0.5-0.1,0.8-0.1c0.7-0.1,1.3-0.2,2-0.3c0.3,0,0.5-0.1,0.8-0.1c1.7-0.2,3.3-0.5,5-0.7c0.3,0,0.5-0.1,0.8-0.1
			c0.7-0.1,1.4-0.2,2.1-0.3c0.3,0,0.6-0.1,0.9-0.1c2.8-0.4,5.6-0.8,8.5-1.3c0.3,0,0.5-0.1,0.8-0.1c0.9-0.1,1.7-0.3,2.6-0.4
			c0.2,0,0.5-0.1,0.7-0.1s0.5-0.1,0.7-0.1c1-0.2,2-0.3,3.1-0.5c2.3-0.4,4.6-0.8,6.9-1.2V222H88.6v44h53.3
			c-15.2,39-39.2,82.1-62.9,108.4c3.9,6.6,8.9,15.6,13.4,24.6h27c11.6-18.5,22.6-40.4,32.3-63.3V399h46.8v-75.9
			c9.7,15.6,19.5,32.2,24.8,43.3l26.4-39.2C242.6,318,208.2,280.4,198.6,271.2z"/>
	</g>
	<path class="st2" d="M120.6,40.2h-8.7L104,66h7.2l1.2-5.5h7.8l1.2,5.5h7.1L120.6,40.2z M113.7,55.4l1.4-5.2
		c0.1-0.5,0.3-1.1,0.4-1.7c0.2-0.7,0.3-1.3,0.4-2s0.3-1.4,0.4-2c0.1,0.6,0.2,1.3,0.4,2c0.2,0.7,0.3,1.3,0.4,2
		c0.2,0.6,0.3,1.2,0.4,1.7l1.4,5.2H113.7z"/>
	<path class="st2" d="M151.7,56.4c0,2-0.4,3.7-1.2,5.2s-1.9,2.7-3.5,3.5c-1.5,0.8-3.5,1.3-5.8,1.3c-3.3,0-5.9-0.9-7.7-2.7
		s-2.6-4.2-2.6-7.3V40.3h6.6v15.4c0,2,0.3,3.4,1,4.2s1.6,1.3,2.8,1.3c0.9,0,1.6-0.2,2.2-0.6c0.6-0.4,1-1,1.3-1.8s0.4-1.9,0.4-3.1
		V40.3h6.5V56.4z"/>
	<path class="st2" d="M167.4,66h-6.5V45.4H155v-5.1h18.3v5.1h-5.9L167.4,66L167.4,66z"/>
	<path class="st2" d="M197.3,56.4c0,2-0.4,3.7-1.2,5.2s-1.9,2.7-3.5,3.5c-1.5,0.8-3.5,1.3-5.8,1.3c-3.3,0-5.9-0.9-7.7-2.7
		s-2.6-4.2-2.6-7.3V40.3h6.6v15.4c0,2,0.3,3.4,1,4.2c0.6,0.8,1.6,1.3,2.8,1.3c0.9,0,1.6-0.2,2.2-0.6c0.6-0.4,1-1,1.3-1.8
		s0.4-1.9,0.4-3.1V40.3h6.5V56.4z"/>
	<path class="st2" d="M225.4,66h-8.5L208,47.2h-0.1c0,0.3,0,0.8,0,1.3s0.1,1.1,0.1,1.7c0,0.6,0.1,1.3,0.1,2s0,1.3,0.1,1.9V66h-5.8
		V40.3h8.5l8.8,18.6h0.1c0-0.3,0-0.7,0-1.2s-0.1-1.1-0.1-1.7c0-0.6,0-1.3-0.1-1.9c0-0.6,0-1.3,0-1.9V40.3h5.8L225.4,66L225.4,66z"/>
	<path class="st2" d="M253.6,66h-8.5l-8.9-18.8h-0.1c0,0.3,0,0.8,0,1.3s0.1,1.1,0.1,1.7c0,0.6,0.1,1.3,0.1,2s0,1.3,0.1,1.9V66h-5.8
		V40.3h8.5l8.8,18.6h0.1c0-0.3,0-0.7,0-1.2s-0.1-1.1-0.1-1.7c0-0.6,0-1.3-0.1-1.9s0-1.3,0-1.9V40.3h5.8L253.6,66L253.6,66z"/>
	<path class="st2" d="M280.2,46.2c-0.8-2-2-3.5-3.8-4.6c-1.7-1.1-3.9-1.7-6.7-1.7c-2.7,0-4.9,0.6-6.7,1.7c-1.7,1.1-3,2.6-3.9,4.6
		c-0.8,2-1.2,4.3-1.2,7c0,2,0.2,3.8,0.7,5.4c0.5,1.6,1.2,3,2.1,4.2c1,1.1,2.2,2,3.6,2.7c1.5,0.6,3.3,0.9,5.3,0.9
		c2.1,0,3.9-0.3,5.3-0.9c1.5-0.6,2.7-1.5,3.6-2.7c1-1.2,1.7-2.6,2.1-4.2c0.4-1.6,0.7-3.4,0.7-5.4C281.5,50.4,281,48.1,280.2,46.2z
		 M274.1,57.5c-0.3,1.2-0.8,2.1-1.5,2.8c-0.7,0.6-1.6,1-2.8,1c-1.2,0-2.1-0.3-2.8-1c-0.7-0.6-1.2-1.6-1.6-2.8
		c-0.3-1.2-0.5-2.7-0.5-4.3c0-1.7,0.2-3.1,0.5-4.3s0.9-2.2,1.6-2.8c0.8-0.7,1.7-1,2.9-1c1.8,0,3,0.7,3.8,2.2c0.7,1.4,1.1,3.4,1.1,6
		C274.6,54.8,274.5,56.2,274.1,57.5z"/>
	<path class="st3" d="M101.4,106V96h0.8v9.3h4.7v0.7H101.4z"/>
	<path class="st3" d="M107.9,96l-0.2,3.6h-0.5L107,96H107.9z"/>
	<path class="st3" d="M114,99c-0.4-0.4-1-0.6-1.9-0.6c-0.4,0-0.9,0.1-1.3,0.2s-0.8,0.3-1.1,0.4l0.2,0.6c0.4-0.2,0.7-0.3,1-0.4
		c0.4-0.1,0.7-0.2,1.1-0.2c0.6,0,1,0.2,1.3,0.5s0.5,0.8,0.5,1.6v0.5l-1.4,0.1c-1.2,0-2,0.3-2.6,0.7c-0.6,0.4-0.9,0.9-0.9,1.7
		c0,0.4,0.1,0.8,0.3,1.1c0.2,0.3,0.5,0.6,0.8,0.7c0.3,0.2,0.8,0.2,1.2,0.2c0.5,0,0.9,0,1.2-0.2c0.3-0.1,0.6-0.3,0.8-0.5
		c0.2-0.2,0.4-0.5,0.6-0.8l0,0l0.1,1.3h0.6v-5C114.7,100.1,114.5,99.5,114,99z M113.9,103c0,0.8-0.2,1.4-0.7,1.8
		c-0.4,0.4-1,0.7-1.8,0.7c-0.5,0-0.9-0.1-1.2-0.3c-0.3-0.2-0.4-0.6-0.4-1.1c0-0.6,0.2-1,0.7-1.3s1.2-0.5,2.1-0.5h1.3V103z"/>
	<path class="st3" d="M122.9,98.6v7.4h-0.7l-0.1-1.3l0,0c-0.1,0.3-0.3,0.5-0.6,0.7c-0.2,0.2-0.5,0.4-0.8,0.5s-0.7,0.2-1.1,0.2
		c-0.6,0-1.1-0.1-1.5-0.3c-0.4-0.2-0.7-0.5-0.9-0.9c-0.2-0.4-0.3-0.9-0.3-1.5v-4.9h0.8v4.8c0,0.7,0.2,1.2,0.5,1.6
		c0.3,0.3,0.8,0.5,1.4,0.5s1-0.1,1.4-0.3c0.4-0.2,0.6-0.5,0.8-1c0.2-0.4,0.3-0.9,0.3-1.6v-4.1h0.8V98.6z"/>
	<path class="st3" d="M127.5,105.5c0.2,0,0.4,0,0.6,0c0.2,0,0.4-0.1,0.5-0.1v0.6c-0.1,0.1-0.3,0.1-0.5,0.1s-0.4,0.1-0.7,0.1
		c-0.4,0-0.8-0.1-1-0.2c-0.3-0.2-0.5-0.4-0.7-0.7c-0.1-0.3-0.2-0.7-0.2-1.3v-4.7h-1.1v-0.4l1.1-0.3l0.3-1.7h0.5v1.8h2.3v0.6h-2.3
		v4.7c0,0.5,0.1,0.9,0.3,1.2C126.7,105.3,127,105.5,127.5,105.5z"/>
	<path class="st3" d="M136,98.6v7.4h-0.7l-0.1-1.3l0,0c-0.1,0.3-0.3,0.5-0.6,0.7c-0.2,0.2-0.5,0.4-0.8,0.5s-0.7,0.2-1.1,0.2
		c-0.6,0-1.1-0.1-1.5-0.3c-0.4-0.2-0.7-0.5-0.9-0.9s-0.3-0.9-0.3-1.5v-4.9h0.8v4.8c0,0.7,0.2,1.2,0.5,1.6c0.3,0.3,0.8,0.5,1.4,0.5
		c0.5,0,1-0.1,1.4-0.3c0.4-0.2,0.6-0.5,0.8-1c0.2-0.4,0.3-0.9,0.3-1.6v-4.1h0.8V98.6z"/>
	<path class="st3" d="M141.8,98.4c0.8,0,1.5,0.2,1.9,0.7c0.4,0.4,0.7,1.1,0.7,2.1v4.9h-0.8v-4.8c0-0.7-0.2-1.2-0.5-1.6
		c-0.3-0.3-0.8-0.5-1.4-0.5c-0.8,0-1.4,0.2-1.8,0.7c-0.4,0.5-0.6,1.2-0.6,2.1v4.1h-0.8v-7.4h0.6l0.1,1.3l0,0
		c0.1-0.3,0.3-0.5,0.6-0.7c0.2-0.2,0.5-0.4,0.8-0.5C141,98.5,141.4,98.4,141.8,98.4z"/>
	<path class="st3" d="M150.1,98.4c0.8,0,1.5,0.2,1.9,0.7s0.7,1.1,0.7,2.1v4.9h-0.8v-4.8c0-0.7-0.2-1.2-0.5-1.6
		c-0.3-0.3-0.8-0.5-1.4-0.5c-0.8,0-1.4,0.2-1.8,0.7c-0.4,0.5-0.6,1.2-0.6,2.1v4.1h-0.8v-7.4h0.6l0.1,1.3l0,0
		c0.1-0.3,0.3-0.5,0.6-0.7s0.5-0.4,0.8-0.5C149.3,98.5,149.7,98.4,150.1,98.4z"/>
	<path class="st3" d="M161,100.2c-0.2-0.6-0.6-1-1.1-1.3s-1.1-0.5-1.8-0.5s-1.3,0.1-1.8,0.5c-0.5,0.3-0.9,0.8-1.2,1.3
		c-0.3,0.6-0.4,1.3-0.4,2.1c0,0.6,0.1,1.1,0.2,1.6c0.1,0.5,0.4,0.9,0.7,1.2c0.3,0.3,0.6,0.6,1,0.8c0.4,0.2,0.9,0.3,1.4,0.3
		s1-0.1,1.4-0.3c0.4-0.2,0.8-0.4,1.1-0.8c0.3-0.3,0.5-0.8,0.6-1.2c0.2-0.5,0.2-1,0.2-1.6C161.3,101.5,161.2,100.8,161,100.2z
		 M160.2,103.9c-0.2,0.5-0.5,0.9-0.8,1.1c-0.4,0.3-0.8,0.4-1.4,0.4c-0.6,0-1-0.1-1.4-0.4s-0.7-0.6-0.8-1.1c-0.2-0.5-0.3-1-0.3-1.7
		c0-1,0.2-1.8,0.6-2.3s1.1-0.8,1.9-0.8c0.6,0,1.1,0.1,1.4,0.4c0.4,0.3,0.6,0.6,0.8,1.1s0.2,1,0.2,1.7
		C160.5,102.9,160.4,103.5,160.2,103.9z"/>
	<path class="st3" d="M167,98.6v7.4h0.8v-7.4H167z M167.8,96c-0.1-0.1-0.2-0.2-0.4-0.2s-0.3,0-0.4,0.2c-0.1,0.1-0.1,0.2-0.1,0.4
		c0,0.2,0.1,0.3,0.1,0.5c0.1,0.1,0.2,0.2,0.4,0.2s0.3,0,0.4-0.2c0.1-0.1,0.1-0.3,0.1-0.5C167.9,96.2,167.9,96.1,167.8,96z"/>
	<path class="st3" d="M173.6,98.4c0.8,0,1.5,0.2,1.9,0.7s0.7,1.1,0.7,2.1v4.9h-0.8v-4.8c0-0.7-0.2-1.2-0.5-1.6
		c-0.3-0.3-0.8-0.5-1.4-0.5c-0.8,0-1.4,0.2-1.8,0.7c-0.4,0.5-0.6,1.2-0.6,2.1v4.1h-0.8v-7.4h0.6l0.1,1.3l0,0
		c0.1-0.3,0.3-0.5,0.6-0.7c0.2-0.2,0.5-0.4,0.8-0.5C172.8,98.5,173.2,98.4,173.6,98.4z"/>
	<path class="st3" d="M186.4,100.9h3.6v4.6c-0.5,0.2-1,0.3-1.6,0.4c-0.5,0.1-1.1,0.1-1.8,0.1c-1.1,0-1.9-0.2-2.7-0.6
		c-0.7-0.4-1.3-1-1.6-1.8c-0.4-0.8-0.6-1.7-0.6-2.8c0-1,0.2-1.9,0.6-2.7c0.4-0.8,1-1.4,1.8-1.8s1.7-0.7,2.7-0.7
		c0.6,0,1.1,0.1,1.6,0.2s1,0.2,1.4,0.4l-0.3,0.7c-0.4-0.2-0.9-0.3-1.3-0.4c-0.4-0.1-0.9-0.2-1.4-0.2c-0.9,0-1.6,0.2-2.3,0.6
		c-0.6,0.4-1.1,0.9-1.5,1.6c-0.3,0.7-0.5,1.4-0.5,2.3c0,1,0.2,1.8,0.5,2.4c0.3,0.7,0.8,1.1,1.4,1.5c0.6,0.3,1.4,0.5,2.3,0.5
		c0.3,0,0.6,0,0.9,0c0.3,0,0.5-0.1,0.8-0.1c0.2-0.1,0.5-0.1,0.7-0.2v-3.4h-2.8v-0.6H186.4z"/>
	<path class="st3" d="M192.3,98.6v7.4h0.8v-7.4H192.3z M193.1,96c-0.1-0.1-0.2-0.2-0.4-0.2s-0.3,0-0.4,0.2c-0.1,0.1-0.1,0.2-0.1,0.4
		c0,0.2,0,0.3,0.1,0.5c0.1,0.1,0.2,0.2,0.4,0.2s0.3,0,0.4-0.2c0.1-0.1,0.1-0.3,0.1-0.5C193.3,96.2,193.2,96.1,193.1,96z"/>
	<path class="st3" d="M200.1,99c-0.4-0.4-1-0.6-1.9-0.6c-0.4,0-0.9,0.1-1.3,0.2s-0.8,0.3-1.1,0.4l0.2,0.6c0.3-0.2,0.7-0.3,1-0.4
		s0.7-0.2,1.1-0.2c0.6,0,1,0.2,1.3,0.5s0.4,0.8,0.4,1.6v0.5l-1.3,0.1c-1.2,0-2,0.3-2.7,0.7c-0.6,0.4-0.9,0.9-0.9,1.7
		c0,0.4,0.1,0.8,0.3,1.1c0.2,0.3,0.5,0.6,0.8,0.7c0.4,0.2,0.8,0.2,1.2,0.2c0.5,0,0.9,0,1.2-0.2c0.3-0.1,0.6-0.3,0.8-0.5
		s0.4-0.5,0.6-0.8l0,0l0.1,1.3h0.6v-5C200.7,100.1,200.5,99.5,200.1,99z M199.9,103c0,0.8-0.2,1.4-0.6,1.8c-0.4,0.4-1,0.7-1.8,0.7
		c-0.5,0-0.9-0.1-1.2-0.3c-0.3-0.2-0.4-0.6-0.4-1.1c0-0.6,0.2-1,0.7-1.3s1.2-0.5,2.1-0.5h1.3v0.7H199.9z"/>
	<path class="st3" d="M208.7,99.4c-0.5-0.6-1.3-1-2.2-1c-0.5,0-0.8,0.1-1.2,0.2c-0.3,0.1-0.6,0.3-0.8,0.6c-0.2,0.2-0.4,0.5-0.5,0.8
		l0,0l-0.1-1.4h-0.7v10.8h0.8v-3.1c0-0.2,0-0.5,0-0.8s0-0.5,0-0.8h0.1c0.1,0.3,0.3,0.5,0.5,0.7s0.5,0.4,0.8,0.5s0.7,0.2,1.1,0.2
		c0.7,0,1.2-0.1,1.7-0.4s0.8-0.7,1.1-1.3c0.3-0.6,0.4-1.3,0.4-2.1C209.5,101,209.2,100,208.7,99.4z M208.4,104
		c-0.2,0.5-0.5,0.8-0.8,1.1c-0.4,0.2-0.8,0.4-1.3,0.4s-1-0.1-1.3-0.3c-0.3-0.2-0.6-0.6-0.8-1c-0.2-0.5-0.2-1.1-0.2-1.8v-0.1
		c0-0.7,0.1-1.2,0.3-1.7s0.5-0.8,0.8-1c0.4-0.2,0.8-0.3,1.4-0.3c0.8,0,1.4,0.3,1.8,0.8s0.6,1.3,0.6,2.3
		C208.7,102.9,208.5,103.5,208.4,104z"/>
	<path class="st3" d="M217,99.4c-0.5-0.6-1.3-1-2.2-1c-0.5,0-0.8,0.1-1.2,0.2c-0.3,0.1-0.6,0.3-0.8,0.6c-0.2,0.2-0.4,0.5-0.5,0.8
		l0,0l-0.1-1.4h-0.7v10.8h0.8v-3.1c0-0.2,0-0.5,0-0.8s0-0.5-0.1-0.8h0.1c0.1,0.3,0.3,0.5,0.5,0.7s0.5,0.4,0.8,0.5s0.7,0.2,1.1,0.2
		c0.7,0,1.2-0.1,1.7-0.4s0.8-0.7,1.1-1.3c0.3-0.6,0.4-1.3,0.4-2.1C217.8,101,217.6,100,217,99.4z M216.8,104
		c-0.2,0.5-0.5,0.8-0.8,1.1c-0.4,0.2-0.8,0.4-1.3,0.4s-1-0.1-1.3-0.3c-0.4-0.2-0.6-0.6-0.8-1c-0.2-0.5-0.2-1.1-0.2-1.8v-0.1
		c0-0.7,0.1-1.2,0.3-1.7s0.4-0.8,0.8-1c0.4-0.2,0.8-0.3,1.4-0.3c0.8,0,1.4,0.3,1.8,0.8c0.4,0.5,0.6,1.3,0.6,2.3
		C217,102.9,216.9,103.5,216.8,104z"/>
	<path class="st3" d="M225.7,100.2c-0.2-0.6-0.6-1-1.1-1.3s-1.1-0.5-1.8-0.5s-1.3,0.1-1.8,0.5c-0.5,0.3-0.9,0.8-1.2,1.3
		c-0.3,0.6-0.4,1.3-0.4,2.1c0,0.6,0.1,1.1,0.2,1.6c0.1,0.5,0.4,0.9,0.7,1.2s0.6,0.6,1,0.8c0.4,0.2,0.9,0.3,1.4,0.3s1-0.1,1.5-0.3
		c0.4-0.2,0.8-0.4,1-0.8c0.3-0.3,0.5-0.8,0.6-1.2c0.2-0.5,0.2-1,0.2-1.6C226.1,101.5,226,100.8,225.7,100.2z M225,103.9
		c-0.2,0.5-0.5,0.9-0.8,1.1c-0.4,0.3-0.8,0.4-1.4,0.4c-0.6,0-1-0.1-1.4-0.4s-0.6-0.6-0.8-1.1s-0.3-1-0.3-1.7c0-1,0.2-1.8,0.6-2.3
		s1.1-0.8,1.9-0.8c0.6,0,1.1,0.1,1.4,0.4c0.4,0.3,0.6,0.6,0.8,1.1s0.3,1,0.3,1.7C225.3,102.9,225.2,103.5,225,103.9z"/>
	<path class="st3" d="M231.5,98.4c0.8,0,1.5,0.2,1.9,0.7s0.7,1.1,0.7,2.1v4.9h-0.8v-4.8c0-0.7-0.2-1.2-0.5-1.6
		c-0.3-0.3-0.8-0.5-1.4-0.5c-0.8,0-1.4,0.2-1.8,0.7c-0.4,0.5-0.6,1.2-0.6,2.1v4.1h-0.8v-7.4h0.6l0.1,1.3l0,0
		c0.1-0.3,0.3-0.5,0.6-0.7c0.2-0.2,0.5-0.4,0.8-0.5C230.7,98.5,231,98.4,231.5,98.4z"/>
	<path class="st3" d="M242.2,101.8c0-0.7-0.1-1.3-0.3-1.8s-0.5-0.9-1-1.2c-0.4-0.3-1-0.4-1.6-0.4c-0.7,0-1.3,0.2-1.8,0.5
		s-0.9,0.8-1.1,1.4c-0.2,0.6-0.4,1.3-0.4,2c0,0.8,0.1,1.4,0.4,2c0.3,0.6,0.7,1,1.2,1.3s1.1,0.5,1.9,0.5c0.5,0,0.9,0,1.3-0.1
		c0.4-0.1,0.7-0.2,1.1-0.4v-0.7c-0.4,0.2-0.8,0.3-1.1,0.4s-0.8,0.1-1.2,0.1c-0.8,0-1.5-0.3-2-0.8s-0.7-1.3-0.7-2.3h5.3L242.2,101.8
		L242.2,101.8z M236.8,101.7c0.1-0.8,0.3-1.5,0.8-2c0.4-0.5,1-0.7,1.7-0.7c0.5,0,0.9,0.1,1.2,0.3c0.3,0.2,0.5,0.5,0.7,0.9
		s0.2,0.8,0.2,1.4L236.8,101.7L236.8,101.7z"/>
	<path class="st3" d="M107.1,119.2c-0.2-0.6-0.6-1-1.1-1.3s-1.1-0.5-1.8-0.5c-0.7,0-1.3,0.1-1.8,0.5c-0.5,0.3-0.9,0.8-1.2,1.3
		c-0.3,0.6-0.4,1.3-0.4,2.1c0,0.6,0.1,1.1,0.2,1.6s0.4,0.9,0.7,1.2s0.6,0.6,1,0.8c0.4,0.2,0.9,0.3,1.4,0.3s1-0.1,1.4-0.3
		c0.4-0.2,0.8-0.4,1.1-0.8c0.3-0.3,0.5-0.8,0.6-1.2c0.2-0.5,0.2-1,0.2-1.6C107.5,120.5,107.3,119.8,107.1,119.2z M106.4,122.9
		c-0.2,0.5-0.5,0.9-0.8,1.1c-0.4,0.3-0.8,0.4-1.4,0.4s-1-0.1-1.4-0.4s-0.6-0.6-0.8-1.1s-0.3-1-0.3-1.7c0-1,0.2-1.8,0.6-2.3
		s1.1-0.8,1.9-0.8c0.6,0,1.1,0.1,1.4,0.4c0.4,0.3,0.6,0.6,0.8,1.1c0.2,0.5,0.3,1,0.3,1.7C106.6,121.9,106.5,122.5,106.4,122.9z"/>
	<path class="st3" d="M112.8,114.4c-0.2,0-0.5-0.1-0.7-0.1c-0.5,0-0.9,0.1-1.2,0.3c-0.3,0.2-0.6,0.5-0.7,0.8
		c-0.2,0.4-0.2,0.8-0.2,1.4v0.8l-1.4,0.2v0.4h1.4v6.8h0.8v-6.8h1.8v-0.6h-1.8v-0.8c0-0.7,0.1-1.1,0.3-1.4c0.2-0.3,0.6-0.4,1.1-0.4
		c0.2,0,0.4,0,0.6,0s0.4,0.1,0.5,0.1l0.2-0.7C113.2,114.4,113,114.4,112.8,114.4z M117.1,114.4c-0.2,0-0.5-0.1-0.7-0.1
		c-0.5,0-0.9,0.1-1.2,0.3s-0.6,0.5-0.7,0.8c-0.2,0.4-0.2,0.8-0.2,1.4v0.8l-1.4,0.2v0.4h1.4v6.8h0.8v-6.8h1.8v-0.6h-1.8v-0.8
		c0-0.7,0.1-1.1,0.3-1.4c0.2-0.3,0.6-0.4,1.1-0.4c0.2,0,0.4,0,0.6,0s0.4,0.1,0.5,0.1l0.2-0.7C117.5,114.4,117.3,114.4,117.1,114.4z"
		/>
	<path class="st3" d="M121.2,117.4c0.2,0,0.4,0,0.5,0c0.2,0,0.3,0,0.5,0.1l-0.1,0.7c-0.1,0-0.3-0.1-0.4-0.1s-0.3,0-0.5,0
		c-0.3,0-0.6,0.1-0.9,0.2s-0.5,0.3-0.7,0.6c-0.2,0.2-0.3,0.5-0.4,0.9c-0.1,0.3-0.2,0.7-0.2,1.1v4.1h-0.8v-7.4h0.7l0.1,1.4l0,0
		c0.1-0.3,0.3-0.5,0.5-0.8c0.2-0.2,0.5-0.4,0.8-0.5C120.5,117.5,120.8,117.4,121.2,117.4z"/>
	<path class="st3" d="M129.1,120.8c0-0.7-0.1-1.3-0.3-1.8s-0.5-0.9-1-1.2c-0.4-0.3-0.9-0.4-1.6-0.4s-1.3,0.2-1.8,0.5
		s-0.8,0.8-1.1,1.4c-0.2,0.6-0.4,1.3-0.4,2c0,0.8,0.1,1.4,0.4,2s0.7,1,1.2,1.3s1.2,0.5,1.9,0.5c0.5,0,0.9,0,1.3-0.1s0.7-0.2,1.1-0.4
		v-0.7c-0.4,0.2-0.8,0.3-1.1,0.4c-0.3,0.1-0.8,0.1-1.2,0.1c-0.8,0-1.5-0.3-2-0.8s-0.7-1.3-0.7-2.3h5.3V120.8z M123.8,120.7
		c0.1-0.8,0.3-1.5,0.7-2c0.4-0.5,1-0.7,1.7-0.7c0.5,0,0.9,0.1,1.2,0.3c0.3,0.2,0.5,0.5,0.7,0.9s0.2,0.8,0.2,1.4L123.8,120.7
		L123.8,120.7z"/>
	<path class="st3" d="M139.4,123c0,0.4-0.1,0.8-0.3,1.1c-0.2,0.3-0.6,0.6-1,0.7c-0.4,0.2-1,0.2-1.6,0.2c-0.5,0-1,0-1.4-0.1
		s-0.7-0.2-1-0.3v-0.8c0.3,0.2,0.7,0.3,1.1,0.4c0.4,0.1,0.8,0.2,1.3,0.2c0.7,0,1.3-0.1,1.6-0.4s0.5-0.6,0.5-1c0-0.3-0.1-0.5-0.2-0.7
		c-0.2-0.2-0.4-0.4-0.7-0.5s-0.7-0.3-1.1-0.4c-0.5-0.2-0.9-0.3-1.2-0.5c-0.4-0.2-0.6-0.4-0.8-0.6s-0.3-0.6-0.3-1
		c0-0.6,0.2-1.1,0.7-1.4s1.1-0.5,1.9-0.5c0.4,0,0.9,0,1.2,0.1c0.4,0.1,0.7,0.2,1.1,0.3l-0.3,0.7c-0.2-0.1-0.4-0.2-0.6-0.2
		c-0.2-0.1-0.5-0.1-0.7-0.2c-0.2,0-0.5-0.1-0.7-0.1c-0.6,0-1,0.1-1.4,0.3c-0.3,0.2-0.5,0.5-0.5,0.9c0,0.3,0.1,0.5,0.2,0.7
		c0.2,0.2,0.4,0.3,0.7,0.4s0.7,0.3,1.1,0.4c0.4,0.1,0.8,0.3,1.2,0.5s0.6,0.4,0.9,0.6C139.3,122.2,139.4,122.6,139.4,123z"/>
	<path class="st3" d="M146.8,118.4c-0.5-0.6-1.3-1-2.2-1c-0.5,0-0.8,0.1-1.2,0.2c-0.3,0.1-0.6,0.3-0.8,0.6c-0.2,0.2-0.4,0.5-0.5,0.8
		l0,0l-0.1-1.4h-0.7v10.8h0.8v-3.1c0-0.2,0-0.5,0-0.8s0-0.5,0-0.8h0.1c0.1,0.3,0.3,0.5,0.5,0.7s0.5,0.4,0.8,0.5s0.7,0.2,1.1,0.2
		c0.7,0,1.2-0.1,1.7-0.4s0.8-0.7,1.1-1.3c0.3-0.6,0.4-1.3,0.4-2.1C147.7,120,147.4,119,146.8,118.4z M146.5,123
		c-0.2,0.5-0.4,0.8-0.8,1.1c-0.4,0.2-0.8,0.4-1.3,0.4s-1-0.1-1.3-0.3c-0.3-0.2-0.6-0.6-0.8-1c-0.2-0.5-0.2-1.1-0.2-1.8v-0.1
		c0-0.7,0.1-1.2,0.3-1.7s0.5-0.8,0.8-1c0.4-0.2,0.8-0.3,1.4-0.3c0.8,0,1.4,0.3,1.8,0.8s0.6,1.3,0.6,2.3
		C146.8,121.9,146.7,122.5,146.5,123z"/>
	<path class="st3" d="M155.4,120.8c0-0.7-0.1-1.3-0.3-1.8s-0.5-0.9-1-1.2c-0.4-0.3-1-0.4-1.6-0.4c-0.7,0-1.3,0.2-1.8,0.5
		s-0.8,0.8-1.1,1.4s-0.4,1.3-0.4,2c0,0.8,0.1,1.4,0.4,2c0.3,0.6,0.7,1,1.2,1.3s1.2,0.5,1.9,0.5c0.5,0,0.9,0,1.3-0.1
		c0.4-0.1,0.7-0.2,1.1-0.4v-0.7c-0.4,0.2-0.8,0.3-1.1,0.4s-0.8,0.1-1.2,0.1c-0.8,0-1.5-0.3-2-0.8s-0.7-1.3-0.7-2.3h5.3L155.4,120.8
		L155.4,120.8z M150.1,120.7c0.1-0.8,0.3-1.5,0.7-2s1-0.7,1.7-0.7c0.5,0,0.9,0.1,1.2,0.3c0.3,0.2,0.5,0.5,0.7,0.9
		c0.1,0.4,0.2,0.8,0.2,1.4L150.1,120.7L150.1,120.7z"/>
	<path class="st3" d="M159.5,124.5c0.2,0,0.4,0,0.6,0c0.2,0,0.4-0.1,0.5-0.1v0.6c-0.1,0.1-0.3,0.1-0.5,0.1s-0.4,0.1-0.7,0.1
		c-0.4,0-0.8-0.1-1.1-0.2c-0.3-0.2-0.5-0.4-0.7-0.7c-0.1-0.3-0.2-0.7-0.2-1.3v-4.7h-1.1v-0.4l1.1-0.3l0.3-1.7h0.5v1.8h2.3v0.6h-2.3
		v4.7c0,0.5,0.1,0.9,0.3,1.2C158.7,124.3,159.1,124.5,159.5,124.5z"/>
	<path class="st3" d="M164.3,124.5c0.2,0,0.4,0,0.6,0c0.2,0,0.4-0.1,0.5-0.1v0.6c-0.1,0.1-0.3,0.1-0.5,0.1s-0.4,0.1-0.7,0.1
		c-0.4,0-0.8-0.1-1.1-0.2c-0.3-0.2-0.5-0.4-0.7-0.7c-0.1-0.3-0.2-0.7-0.2-1.3v-4.7h-1.1v-0.4l1.1-0.3l0.3-1.7h0.5v1.8h2.3v0.6H163
		v4.7c0,0.5,0.1,0.9,0.3,1.2C163.5,124.3,163.8,124.5,164.3,124.5z"/>
	<path class="st3" d="M171.4,118c-0.4-0.4-1-0.6-1.9-0.6c-0.4,0-0.9,0.1-1.3,0.2s-0.8,0.3-1.1,0.4l0.3,0.6c0.4-0.2,0.7-0.3,1.1-0.4
		c0.3-0.1,0.7-0.2,1.1-0.2c0.6,0,1,0.2,1.3,0.5s0.5,0.8,0.5,1.6v0.5l-1.4,0.1c-1.2,0-2,0.3-2.6,0.7c-0.6,0.4-0.9,0.9-0.9,1.7
		c0,0.4,0.1,0.8,0.3,1.1c0.2,0.3,0.5,0.6,0.8,0.7c0.3,0.2,0.8,0.2,1.2,0.2c0.5,0,0.9,0,1.2-0.2c0.3-0.1,0.6-0.3,0.8-0.5
		s0.4-0.5,0.6-0.8l0,0l0.1,1.3h0.6v-5C172,119.1,171.8,118.5,171.4,118z M171.2,122c0,0.8-0.2,1.4-0.7,1.8c-0.4,0.4-1,0.7-1.8,0.7
		c-0.5,0-0.9-0.1-1.2-0.3c-0.3-0.2-0.4-0.6-0.4-1.1c0-0.6,0.2-1,0.7-1.3s1.2-0.5,2.1-0.5h1.3L171.2,122L171.2,122z"/>
	<path class="st3" d="M177.4,125.1c-0.7,0-1.3-0.1-1.9-0.4c-0.5-0.3-0.9-0.7-1.2-1.3c-0.3-0.6-0.4-1.3-0.4-2.1
		c0-0.8,0.1-1.5,0.4-2.1c0.3-0.6,0.7-1,1.3-1.3c0.5-0.3,1.2-0.5,1.9-0.5c0.4,0,0.7,0,1,0.1s0.6,0.2,0.8,0.3l-0.2,0.7
		c-0.3-0.1-0.5-0.2-0.8-0.2c-0.3-0.1-0.6-0.1-0.8-0.1c-0.6,0-1.1,0.1-1.5,0.4s-0.7,0.6-0.9,1.1s-0.3,1-0.3,1.7
		c0,0.6,0.1,1.2,0.3,1.6c0.2,0.5,0.5,0.8,0.9,1.1c0.4,0.3,0.9,0.4,1.5,0.4c0.4,0,0.7,0,1-0.1s0.6-0.2,0.9-0.3v0.7
		c-0.2,0.1-0.5,0.2-0.8,0.3C178.2,125.1,177.8,125.1,177.4,125.1z"/>
	<path class="st3" d="M186.9,119.2c-0.2-0.6-0.6-1-1.1-1.3s-1.1-0.5-1.8-0.5s-1.3,0.1-1.8,0.5s-0.9,0.8-1.2,1.3
		c-0.3,0.6-0.4,1.3-0.4,2.1c0,0.6,0.1,1.1,0.2,1.6c0.1,0.4,0.3,0.8,0.5,1.1l0.1,0.1c0.3,0.3,0.6,0.6,1,0.8c0.4,0.2,0.9,0.3,1.4,0.3
		s1-0.1,1.4-0.3c0.4-0.2,0.8-0.4,1-0.8c0.3-0.3,0.5-0.8,0.6-1.2c0.1-0.2,0.1-0.4,0.1-0.6c0.1-0.3,0.1-0.7,0.1-1
		C187.3,120.5,187.2,119.8,186.9,119.2z M186.2,122.9c-0.2,0.5-0.5,0.9-0.8,1.1c-0.4,0.3-0.9,0.4-1.4,0.4c-0.6,0-1-0.1-1.4-0.4
		c-0.1-0.1-0.3-0.2-0.4-0.3c-0.2-0.2-0.4-0.5-0.5-0.8c-0.2-0.5-0.3-1-0.3-1.7c0-1,0.2-1.8,0.6-2.3c0.4-0.6,1.1-0.8,1.9-0.8
		c0.6,0,1.1,0.1,1.4,0.4c0.4,0.3,0.6,0.6,0.8,1.1s0.2,1,0.2,1.7c0,0.5,0,0.9-0.1,1.3C186.3,122.7,186.3,122.8,186.2,122.9z"/>
	<path class="st3" d="M190.1,125h-0.8v-10.6h0.8V125z"/>
	<path class="st3" d="M197.6,119.1c-0.1-0.5-0.3-0.8-0.5-1.1c-0.4-0.4-1-0.6-1.9-0.6c-0.4,0-0.9,0.1-1.3,0.2
		c-0.4,0.1-0.8,0.3-1.1,0.4l0.2,0.6c0.4-0.2,0.7-0.3,1-0.4c0.4-0.1,0.7-0.2,1.1-0.2c0.6,0,1,0.2,1.3,0.5c0.2,0.2,0.3,0.5,0.4,0.8
		c0,0.2,0.1,0.5,0.1,0.8v0.5l-1.4,0.1c-1.2,0-2,0.3-2.7,0.7c-0.6,0.4-0.9,0.9-0.9,1.7c0,0.4,0.1,0.8,0.3,1.1
		c0.2,0.3,0.5,0.6,0.8,0.7c0.3,0.2,0.8,0.2,1.2,0.2c0.5,0,0.9,0,1.2-0.2c0.3-0.1,0.6-0.3,0.8-0.5s0.4-0.5,0.6-0.8l0,0l0.1,1.3h0.6
		v-5C197.7,119.7,197.7,119.4,197.6,119.1z M196.9,122c0,0.8-0.2,1.4-0.7,1.8c-0.4,0.4-1,0.7-1.8,0.7c-0.5,0-0.9-0.1-1.2-0.3
		c-0.3-0.2-0.4-0.6-0.4-1.1c0-0.6,0.2-1,0.7-1.3s1.2-0.5,2.1-0.5h1.3L196.9,122L196.9,122z"/>
	<path class="st3" d="M203.1,117.4c0.2,0,0.4,0,0.5,0c0.2,0,0.3,0,0.5,0.1l-0.1,0.7c-0.1,0-0.3-0.1-0.4-0.1c-0.1,0-0.3,0-0.5,0
		c-0.3,0-0.6,0.1-0.9,0.2c-0.3,0.1-0.5,0.3-0.7,0.6c-0.2,0.2-0.3,0.5-0.4,0.9c-0.1,0.3-0.2,0.7-0.2,1.1v4.1h-0.8v-7.4h0.7l0.1,1.4
		l0,0c0.1-0.3,0.3-0.5,0.5-0.8c0.2-0.2,0.5-0.4,0.8-0.5C202.4,117.5,202.8,117.4,203.1,117.4z"/>
	<path class="st3" d="M205.6,117.6v7.4h0.8v-7.4H205.6z M206.4,115c-0.1-0.1-0.2-0.2-0.4-0.2s-0.3,0-0.4,0.2
		c-0.1,0.1-0.1,0.2-0.1,0.4c0,0.2,0,0.3,0.1,0.5c0.1,0.1,0.2,0.2,0.4,0.2s0.3,0,0.4-0.2c0.1-0.1,0.1-0.3,0.1-0.5
		C206.5,115.2,206.5,115.1,206.4,115z"/>
	<path class="st3" d="M218,118.4c-0.5-0.6-1.3-1-2.2-1c-0.5,0-0.9,0.1-1.2,0.2s-0.6,0.3-0.8,0.6c-0.2,0.2-0.4,0.5-0.5,0.8l0,0
		l-0.1-1.4h-0.7v10.8h0.8v-3.1c0-0.2,0-0.5,0-0.8s0-0.5,0-0.8l0,0c0.1,0.3,0.3,0.5,0.5,0.7s0.5,0.4,0.8,0.5s0.7,0.2,1.2,0.2
		c0.6,0,1.2-0.1,1.6-0.4c0.5-0.3,0.8-0.7,1.1-1.3c0.2-0.6,0.4-1.3,0.4-2.1C218.9,120,218.6,119,218,118.4z M217.8,123
		c-0.2,0.5-0.5,0.8-0.8,1.1c-0.4,0.2-0.8,0.4-1.3,0.4s-1-0.1-1.3-0.3c-0.4-0.2-0.6-0.6-0.8-1c-0.2-0.5-0.2-1.1-0.2-1.8v-0.1
		c0-0.7,0.1-1.2,0.3-1.7s0.4-0.8,0.8-1c0.4-0.2,0.8-0.3,1.4-0.3c0.8,0,1.4,0.3,1.8,0.8c0.4,0.5,0.6,1.3,0.6,2.3
		C218,121.9,217.9,122.5,217.8,123z"/>
	<path class="st3" d="M225.4,118c-0.4-0.4-1-0.6-1.9-0.6c-0.5,0-0.9,0.1-1.3,0.2c-0.4,0.1-0.8,0.3-1.2,0.4l0.2,0.6
		c0.3-0.2,0.7-0.3,1-0.4c0.4-0.1,0.7-0.2,1.1-0.2c0.6,0,1,0.2,1.3,0.5s0.4,0.8,0.4,1.6v0.5l-1.4,0.1c-1.2,0-2,0.3-2.6,0.7
		c-0.6,0.4-0.9,0.9-0.9,1.7c0,0.4,0.1,0.8,0.3,1.1s0.5,0.6,0.8,0.7c0.3,0.2,0.8,0.2,1.2,0.2c0.5,0,0.9,0,1.2-0.2
		c0.3-0.1,0.6-0.3,0.8-0.5s0.4-0.5,0.6-0.8l0,0l0.1,1.3h0.6v-5C226,119.1,225.8,118.5,225.4,118z M225.2,122c0,0.8-0.2,1.4-0.7,1.8
		c-0.4,0.4-1,0.7-1.8,0.7c-0.5,0-0.9-0.1-1.2-0.3c-0.3-0.2-0.4-0.6-0.4-1.1c0-0.6,0.2-1,0.7-1.3s1.2-0.5,2.1-0.5h1.3L225.2,122
		L225.2,122z"/>
	<path class="st3" d="M234.1,121.4v-0.5c0-0.7-0.1-1.3-0.3-1.8s-0.5-0.9-1-1.2c-0.4-0.3-0.9-0.4-1.6-0.4c-0.7,0-1.3,0.2-1.8,0.5
		s-0.8,0.8-1.1,1.4c-0.1,0.1-0.1,0.3-0.2,0.4c-0.1,0.5-0.2,1-0.2,1.6c0,0.8,0.1,1.4,0.4,2c0.3,0.6,0.7,1,1.2,1.3s1.2,0.5,1.9,0.5
		c0.4,0,0.7,0,1-0.1c0.1,0,0.2,0,0.3,0c0.4-0.1,0.7-0.2,1.1-0.4V124c-0.4,0.2-0.8,0.3-1.1,0.4c-0.2,0-0.5,0.1-0.8,0.1
		c-0.2,0-0.3,0-0.5,0c-0.8,0-1.5-0.3-2-0.8s-0.7-1.3-0.7-2.3H234.1z M228.8,120.7c0,0,0-0.1,0-0.2c0.1-0.8,0.3-1.4,0.7-1.8
		c0.4-0.5,1-0.7,1.7-0.7c0.5,0,0.9,0.1,1.2,0.3c0.3,0.2,0.5,0.5,0.7,0.9s0.2,0.8,0.2,1.4L228.8,120.7L228.8,120.7z"/>
	<path class="st3" d="M240.8,123c0,0.4-0.1,0.8-0.3,1.1c-0.2,0.3-0.6,0.6-1,0.7c-0.4,0.2-1,0.2-1.6,0.2c-0.5,0-1,0-1.4-0.1
		s-0.7-0.2-1-0.3v-0.8c0.3,0.2,0.7,0.3,1.1,0.4c0.4,0.1,0.8,0.2,1.3,0.2c0.7,0,1.3-0.1,1.6-0.4s0.5-0.6,0.5-1c0-0.3-0.1-0.5-0.2-0.7
		c-0.1-0.2-0.4-0.4-0.7-0.5s-0.7-0.3-1.1-0.4c-0.5-0.2-0.9-0.3-1.2-0.5c-0.4-0.2-0.6-0.4-0.8-0.6s-0.3-0.6-0.3-1
		c0-0.6,0.2-1.1,0.7-1.4s1.1-0.5,1.9-0.5c0.4,0,0.9,0,1.2,0.1c0.4,0.1,0.7,0.2,1.1,0.3l-0.3,0.7c-0.2-0.1-0.4-0.2-0.6-0.2
		c-0.2-0.1-0.5-0.1-0.7-0.2s-0.5-0.1-0.7-0.1c-0.6,0-1,0.1-1.4,0.3c-0.3,0.2-0.5,0.5-0.5,0.9c0,0.3,0.1,0.5,0.2,0.7
		c0.2,0.2,0.4,0.3,0.7,0.4s0.7,0.3,1.1,0.4c0.4,0.1,0.8,0.3,1.2,0.5s0.6,0.4,0.9,0.6C240.7,122.2,240.8,122.6,240.8,123z"/>
	<path class="st3" d="M247.2,118c-0.4-0.4-1-0.6-1.9-0.6c-0.4,0-0.9,0.1-1.3,0.2c-0.4,0.1-0.8,0.3-1.1,0.4l0.2,0.6
		c0.3-0.2,0.7-0.3,1-0.4s0.7-0.2,1.1-0.2c0.6,0,1,0.2,1.3,0.5s0.4,0.8,0.4,1.6v0.5l-1.3,0.1c-1.2,0-2,0.3-2.7,0.7
		c-0.6,0.4-0.9,0.9-0.9,1.7c0,0.4,0.1,0.8,0.3,1.1s0.5,0.6,0.8,0.7c0.3,0.2,0.8,0.2,1.2,0.2c0.5,0,0.9,0,1.2-0.2
		c0.3-0.1,0.6-0.3,0.8-0.5s0.4-0.5,0.6-0.8l0,0l0.1,1.3h0.6v-5C247.8,119.1,247.6,118.5,247.2,118z M247,122c0,0.8-0.2,1.4-0.6,1.8
		c-0.4,0.4-1,0.7-1.8,0.7c-0.5,0-0.9-0.1-1.2-0.3c-0.3-0.2-0.4-0.6-0.4-1.1c0-0.6,0.2-1,0.7-1.3s1.2-0.5,2.1-0.5h1.3v0.7H247z"/>
	<path class="st3" d="M255.4,117.6l-0.1,1.1h-0.1c-0.2-0.4-0.5-0.7-0.9-0.9c-0.4-0.2-0.9-0.3-1.5-0.3c-0.7,0-1.3,0.2-1.7,0.5
		c-0.5,0.3-0.8,0.8-1.1,1.4c-0.2,0.6-0.4,1.3-0.4,2.1c0,1.2,0.3,2.2,0.8,2.8c0.5,0.7,1.3,1,2.2,1c0.6,0,1.1-0.1,1.5-0.4
		c0.4-0.2,0.7-0.6,1-1.1l0,0c0,0.2,0,0.4,0,0.6v1c0,0.7-0.2,1.3-0.6,1.7c-0.4,0.4-1,0.7-1.8,0.7c-0.4,0-0.7,0-1-0.1
		c-0.3,0-0.6-0.1-0.9-0.2c-0.3-0.1-0.5-0.2-0.8-0.3v0.8c0.3,0.1,0.7,0.3,1.2,0.4c0.4,0.1,0.9,0.1,1.5,0.1c0.8,0,1.4-0.1,1.8-0.4
		c0.5-0.3,0.8-0.6,1-1.1s0.3-1,0.3-1.7v-7.7L255.4,117.6L255.4,117.6z M255.3,121.6c0,0.4,0,0.8-0.1,1.2c-0.1,0.4-0.2,0.7-0.4,0.9
		c-0.2,0.3-0.4,0.5-0.7,0.6s-0.7,0.2-1.2,0.2c-0.8,0-1.3-0.3-1.7-0.8s-0.6-1.3-0.6-2.3c0-0.7,0.1-1.3,0.3-1.8s0.4-0.9,0.8-1.1
		c0.4-0.3,0.8-0.4,1.3-0.4c0.6,0,1,0.1,1.4,0.3c0.3,0.2,0.6,0.6,0.7,1c0.1,0.4,0.2,1,0.2,1.6V121.6z"/>
	<path class="st3" d="M263.8,117.6l-0.1,1.1h-0.1c-0.2-0.4-0.5-0.7-0.9-0.9c-0.4-0.2-0.9-0.3-1.5-0.3c-0.7,0-1.3,0.2-1.7,0.5
		c-0.5,0.3-0.8,0.8-1.1,1.4c-0.2,0.6-0.4,1.3-0.4,2.1c0,1.2,0.3,2.2,0.8,2.8c0.5,0.7,1.3,1,2.2,1c0.6,0,1.1-0.1,1.5-0.4
		c0.4-0.2,0.7-0.6,1-1.1l0,0c0,0.2,0,0.4,0,0.6v1c0,0.7-0.2,1.3-0.6,1.7c-0.4,0.4-1,0.7-1.8,0.7c-0.4,0-0.7,0-1-0.1
		c-0.3,0-0.6-0.1-0.9-0.2s-0.5-0.2-0.8-0.3v0.8c0.3,0.1,0.7,0.3,1.2,0.4c0.4,0.1,0.9,0.1,1.5,0.1c0.8,0,1.4-0.1,1.8-0.4
		c0.5-0.3,0.8-0.6,1-1.1s0.3-1,0.3-1.7v-7.7L263.8,117.6L263.8,117.6z M263.7,121.6c0,0.4,0,0.8-0.1,1.2c-0.1,0.4-0.2,0.7-0.4,0.9
		c-0.2,0.3-0.4,0.5-0.7,0.6c-0.3,0.1-0.7,0.2-1.2,0.2c-0.8,0-1.3-0.3-1.7-0.8c-0.4-0.5-0.6-1.3-0.6-2.3c0-0.7,0.1-1.3,0.3-1.8
		s0.4-0.9,0.8-1.1c0.4-0.3,0.8-0.4,1.4-0.4s1,0.1,1.4,0.3c0.3,0.2,0.6,0.6,0.7,1s0.2,1,0.2,1.6L263.7,121.6L263.7,121.6z"/>
	<path class="st3" d="M266.9,117.6v7.4h0.8v-7.4H266.9z M267.7,115c-0.1-0.1-0.2-0.2-0.4-0.2c-0.2,0-0.3,0-0.4,0.2
		c-0.1,0.1-0.1,0.2-0.1,0.4c0,0.2,0,0.3,0.1,0.5c0.1,0.1,0.2,0.2,0.4,0.2c0.2,0,0.3,0,0.4-0.2c0.1-0.1,0.1-0.3,0.1-0.5
		C267.9,115.2,267.8,115.1,267.7,115z"/>
	<path class="st3" d="M105.7,137c-0.4-0.4-1-0.6-1.9-0.6c-0.4,0-0.9,0.1-1.3,0.2s-0.8,0.3-1.2,0.4l0.3,0.6c0.4-0.2,0.7-0.3,1-0.4
		c0.4-0.1,0.7-0.2,1.1-0.2c0.6,0,1,0.2,1.3,0.5s0.5,0.8,0.5,1.6v0.5l-1.4,0.1c-1.2,0-2,0.3-2.6,0.7c-0.5,0.3-0.9,0.8-0.9,1.5
		c0,0.1,0,0.1,0,0.2c0,0.4,0.1,0.8,0.3,1.1c0.2,0.3,0.5,0.6,0.8,0.7c0.3,0.2,0.8,0.2,1.2,0.2c0.5,0,0.9,0,1.2-0.2
		c0.3-0.1,0.6-0.3,0.8-0.5c0.2-0.2,0.4-0.5,0.6-0.8l0,0l0.1,1.3h0.6v-5C106.4,138.1,106.2,137.5,105.7,137z M104.9,142.8
		c-0.4,0.4-1,0.7-1.8,0.7c-0.5,0-0.9-0.1-1.2-0.3c-0.3-0.2-0.4-0.6-0.4-1.1c0-0.1,0-0.2,0-0.4c0.1-0.4,0.3-0.7,0.7-0.9
		c0.5-0.3,1.2-0.5,2.1-0.5h1.3v0.7l0,0C105.6,141.8,105.3,142.4,104.9,142.8z"/>
	<path class="st3" d="M114.6,136.6v7.4h-0.7l-0.1-1.3l0,0c-0.1,0.3-0.3,0.5-0.6,0.7c-0.2,0.2-0.5,0.4-0.8,0.5s-0.7,0.2-1.1,0.2
		c-0.6,0-1.1-0.1-1.5-0.3s-0.7-0.5-0.9-0.9s-0.3-0.9-0.3-1.5v-4.9h0.8v4.8c0,0.7,0.2,1.2,0.5,1.6c0.3,0.3,0.8,0.5,1.4,0.5
		s1-0.1,1.4-0.3s0.6-0.5,0.8-1c0.2-0.4,0.3-0.9,0.3-1.6v-4.1h0.8V136.6z"/>
	<path class="st3" d="M119.2,143.5c0.2,0,0.4,0,0.6,0s0.3-0.1,0.5-0.1v0.6c-0.1,0.1-0.3,0.1-0.5,0.1s-0.4,0.1-0.7,0.1
		c-0.4,0-0.8-0.1-1.1-0.2c-0.3-0.2-0.5-0.4-0.7-0.7c-0.1-0.3-0.2-0.7-0.2-1.3v-4.7H116v-0.4l1.1-0.3l0.3-1.7h0.5v1.8h2.3v0.6h-2.3
		v4.7c0,0.5,0.1,0.9,0.3,1.2C118.4,143.3,118.7,143.5,119.2,143.5z"/>
	<path class="st3" d="M127.7,136.6v7.4H127l-0.1-1.3l0,0c-0.1,0.3-0.3,0.5-0.6,0.7c-0.2,0.2-0.5,0.4-0.8,0.5s-0.7,0.2-1.1,0.2
		c-0.6,0-1.1-0.1-1.5-0.3s-0.7-0.5-0.9-0.9s-0.3-0.9-0.3-1.5v-4.9h0.8v4.8c0,0.7,0.2,1.2,0.5,1.6c0.3,0.3,0.8,0.5,1.4,0.5
		s1-0.1,1.4-0.3s0.6-0.5,0.8-1c0.2-0.4,0.3-0.9,0.3-1.6v-4.1h0.8V136.6z"/>
	<path class="st3" d="M133.5,136.4c0.8,0,1.5,0.2,1.9,0.7c0.4,0.4,0.7,1.1,0.7,2.1v4.9h-0.8v-4.8c0-0.7-0.2-1.2-0.5-1.6
		c-0.3-0.3-0.8-0.5-1.4-0.5c-0.8,0-1.4,0.2-1.8,0.7c-0.4,0.5-0.6,1.2-0.6,2.1v4.1h-0.8v-7.4h0.6l0.1,1.3l0,0
		c0.1-0.3,0.3-0.5,0.6-0.7s0.5-0.4,0.8-0.5C132.7,136.5,133.1,136.4,133.5,136.4z"/>
	<path class="st3" d="M141.8,136.4c0.9,0,1.5,0.2,1.9,0.7c0.4,0.4,0.7,1.1,0.7,2.1v4.9h-0.8v-4.8c0-0.7-0.2-1.2-0.5-1.6
		c-0.3-0.3-0.8-0.5-1.4-0.5c-0.8,0-1.4,0.2-1.8,0.7c-0.4,0.5-0.6,1.2-0.6,2.1v4.1h-0.8v-7.4h0.6l0.1,1.3l0,0
		c0.1-0.3,0.3-0.5,0.6-0.7c0.2-0.2,0.5-0.4,0.8-0.5C141,136.5,141.4,136.4,141.8,136.4z"/>
	<path class="st3" d="M151.3,137c-0.4-0.4-1-0.6-1.9-0.6c-0.5,0-0.9,0.1-1.3,0.2s-0.8,0.3-1.2,0.4l0.2,0.6c0.4-0.2,0.7-0.3,1.1-0.4
		c0.4-0.1,0.7-0.2,1.1-0.2c0.6,0,1,0.2,1.3,0.5s0.5,0.8,0.5,1.6v0.5l-1.4,0.1c-1.2,0-2,0.3-2.6,0.7s-0.9,0.9-0.9,1.7
		c0,0.4,0.1,0.8,0.3,1.1s0.5,0.6,0.8,0.7c0.4,0.2,0.8,0.2,1.2,0.2c0.5,0,0.9,0,1.2-0.2c0.3-0.1,0.6-0.3,0.8-0.5s0.4-0.5,0.6-0.8l0,0
		l0.1,1.3h0.6v-5C151.9,138.1,151.7,137.5,151.3,137z M151.1,141c0,0.8-0.2,1.4-0.7,1.8c-0.4,0.4-1,0.7-1.8,0.7
		c-0.5,0-0.9-0.1-1.2-0.3s-0.4-0.6-0.4-1.1c0-0.6,0.2-1,0.7-1.3s1.2-0.5,2.1-0.5h1.3L151.1,141L151.1,141z"/>
	<path class="st3" d="M155.1,144h-0.8v-10.6h0.8V144z"/>
	<path class="st3" d="M157.6,136.6v7.4h0.8v-7.4H157.6z M158.4,134c-0.1-0.1-0.2-0.2-0.4-0.2s-0.3,0-0.4,0.2
		c-0.1,0.1-0.1,0.2-0.1,0.4s0,0.3,0.1,0.5c0.1,0.1,0.2,0.2,0.4,0.2s0.3,0,0.4-0.2c0.1-0.1,0.1-0.3,0.1-0.5S158.5,134.1,158.4,134z"
		/>
	<path class="st3" d="M161.8,142.5c-0.1,0.3-0.2,0.7-0.3,1.1c-0.1,0.4-0.2,0.8-0.4,1.1c-0.1,0.4-0.3,0.7-0.4,1.1h-0.6
		c0.1-0.4,0.2-0.8,0.3-1.2s0.2-0.8,0.3-1.1s0.1-0.7,0.2-1.1L161.8,142.5L161.8,142.5z"/>
	<path class="st3" d="M170.6,144.1c-0.7,0-1.3-0.1-1.9-0.4c-0.5-0.3-0.9-0.7-1.2-1.3s-0.4-1.3-0.4-2.1s0.2-1.5,0.4-2.1
		c0.3-0.6,0.7-1,1.3-1.3c0.5-0.3,1.2-0.5,1.9-0.5c0.4,0,0.7,0,1,0.1s0.6,0.2,0.8,0.3l-0.2,0.7c-0.3-0.1-0.5-0.2-0.8-0.2
		c-0.3-0.1-0.6-0.1-0.8-0.1c-0.6,0-1.1,0.1-1.5,0.4c-0.4,0.3-0.7,0.6-0.9,1.1s-0.3,1-0.3,1.7c0,0.6,0.1,1.2,0.3,1.6
		c0.2,0.5,0.5,0.8,0.9,1.1s0.9,0.4,1.5,0.4c0.4,0,0.7,0,1-0.1s0.6-0.2,0.9-0.3v0.7c-0.2,0.1-0.5,0.2-0.8,0.3
		C171.3,144.1,171,144.1,170.6,144.1z"/>
	<path class="st3" d="M180.1,138.2c-0.2-0.6-0.6-1-1.1-1.3s-1.1-0.5-1.8-0.5s-1.3,0.1-1.8,0.5c-0.5,0.3-0.9,0.8-1.2,1.3
		c-0.3,0.6-0.4,1.3-0.4,2.1c0,0.6,0.1,1.1,0.2,1.6c0.2,0.5,0.4,0.9,0.7,1.2s0.6,0.6,1,0.8s0.9,0.3,1.4,0.3s1-0.1,1.5-0.3
		c0.4-0.2,0.8-0.4,1-0.8c0.3-0.3,0.5-0.8,0.6-1.2c0.1-0.5,0.2-1,0.2-1.6C180.5,139.5,180.4,138.8,180.1,138.2z M179.4,141.9
		c-0.2,0.5-0.5,0.9-0.8,1.1c-0.4,0.3-0.9,0.4-1.4,0.4c-0.6,0-1-0.1-1.4-0.4c-0.4-0.3-0.6-0.6-0.8-1.1s-0.3-1-0.3-1.7
		c0-1,0.2-1.8,0.6-2.3c0.4-0.6,1.1-0.8,1.9-0.8c0.6,0,1.1,0.1,1.4,0.4c0.4,0.3,0.6,0.6,0.8,1.1s0.3,1,0.3,1.7
		C179.7,140.9,179.6,141.5,179.4,141.9z"/>
	<path class="st3" d="M185.8,136.4c0.8,0,1.5,0.2,1.9,0.7c0.4,0.4,0.7,1.1,0.7,2.1v4.9h-0.8v-4.8c0-0.7-0.2-1.2-0.5-1.6
		c-0.3-0.3-0.8-0.5-1.4-0.5c-0.8,0-1.4,0.2-1.8,0.7c-0.4,0.5-0.6,1.2-0.6,2.1v4.1h-0.8v-7.4h0.6l0.1,1.3l0,0
		c0.1-0.3,0.3-0.5,0.6-0.7c0.2-0.2,0.5-0.4,0.8-0.5C185,136.5,185.4,136.4,185.8,136.4z"/>
	<path class="st3" d="M197.4,137.2h-1.8v6.8h-0.8v-6.8h-1.4v-0.4l1.4-0.2v-0.8c0-0.6,0.1-1,0.2-1.4c0.2-0.4,0.4-0.6,0.7-0.8
		s0.8-0.3,1.2-0.3c0.3,0,0.5,0,0.7,0.1c0.2,0,0.4,0.1,0.6,0.1l-0.2,0.7c-0.2-0.1-0.3-0.1-0.5-0.1s-0.4-0.1-0.6-0.1
		c-0.5,0-0.9,0.1-1.1,0.4c-0.2,0.3-0.3,0.7-0.3,1.4v0.8h1.8v0.6H197.4z"/>
	<path class="st3" d="M204.7,138.2c-0.3-0.6-0.6-1-1.1-1.3s-1.1-0.5-1.8-0.5s-1.3,0.1-1.8,0.5c-0.5,0.3-0.9,0.8-1.2,1.3
		c-0.3,0.6-0.4,1.3-0.4,2.1c0,0.6,0.1,1.1,0.2,1.6c0.1,0.5,0.4,0.9,0.6,1.2c0.3,0.3,0.6,0.6,1,0.8s0.9,0.3,1.4,0.3
		c0.6,0,1-0.1,1.5-0.3c0.4-0.2,0.8-0.4,1-0.8c0.3-0.3,0.5-0.8,0.6-1.2c0.2-0.5,0.2-1,0.2-1.6C205,139.5,204.9,138.8,204.7,138.2z
		 M203.9,141.9c-0.2,0.5-0.5,0.9-0.8,1.1c-0.4,0.3-0.8,0.4-1.4,0.4c-0.6,0-1-0.1-1.4-0.4c-0.4-0.3-0.7-0.6-0.8-1.1s-0.3-1-0.3-1.7
		c0-1,0.2-1.8,0.6-2.3s1-0.8,1.9-0.8c0.6,0,1.1,0.1,1.4,0.4c0.4,0.3,0.6,0.6,0.8,1.1s0.2,1,0.2,1.7
		C204.2,140.9,204.1,141.5,203.9,141.9z"/>
	<path class="st3" d="M212.3,136.6l-0.1,1.1h-0.1c-0.2-0.4-0.5-0.7-0.9-0.9s-0.9-0.3-1.5-0.3c-0.7,0-1.3,0.2-1.7,0.5
		c-0.5,0.3-0.8,0.8-1.1,1.4c-0.2,0.6-0.4,1.3-0.4,2.1c0,1.2,0.3,2.2,0.8,2.8c0.5,0.7,1.3,1,2.2,1c0.6,0,1.1-0.1,1.5-0.4
		c0.4-0.2,0.7-0.6,1-1.1l0,0c0,0.2,0,0.4,0,0.6v1c0,0.7-0.2,1.3-0.6,1.7c-0.4,0.4-1,0.7-1.8,0.7c-0.4,0-0.7,0-1-0.1
		c-0.3,0-0.6-0.1-0.9-0.2c-0.3-0.1-0.5-0.2-0.8-0.3v0.8c0.3,0.1,0.7,0.3,1.2,0.4c0.4,0.1,0.9,0.1,1.5,0.1c0.8,0,1.4-0.1,1.8-0.4
		c0.5-0.3,0.8-0.6,1-1.1s0.3-1,0.3-1.7v-7.7L212.3,136.6L212.3,136.6z M212.2,140.6c0,0.4,0,0.8-0.1,1.2s-0.2,0.7-0.4,0.9
		c-0.2,0.3-0.4,0.5-0.7,0.6s-0.7,0.2-1.2,0.2c-0.8,0-1.3-0.3-1.7-0.8s-0.6-1.3-0.6-2.3c0-0.7,0.1-1.3,0.3-1.8s0.4-0.9,0.8-1.1
		c0.4-0.3,0.8-0.4,1.4-0.4c0.6,0,1,0.1,1.3,0.3c0.4,0.2,0.6,0.6,0.8,1s0.2,1,0.2,1.6v0.6H212.2z"/>
	<path class="st3" d="M216.2,144h-0.8v-10.6h0.8V144z"/>
	<path class="st3" d="M218.7,136.6v7.4h0.8v-7.4H218.7z M219.5,134c-0.1-0.1-0.2-0.2-0.4-0.2s-0.3,0-0.4,0.2
		c-0.1,0.1-0.1,0.2-0.1,0.4s0,0.3,0.1,0.5c0.1,0.1,0.2,0.2,0.4,0.2s0.3,0,0.4-0.2c0.1-0.1,0.1-0.3,0.1-0.5S219.6,134.1,219.5,134z"
		/>
	<path class="st3" d="M227.7,139.8c0-0.7-0.1-1.3-0.3-1.8s-0.5-0.9-1-1.2c-0.4-0.3-0.9-0.4-1.6-0.4c-0.7,0-1.3,0.2-1.8,0.5
		s-0.8,0.8-1.1,1.4c-0.2,0.6-0.4,1.3-0.4,2c0,0.8,0.1,1.4,0.4,2c0.3,0.6,0.7,1,1.2,1.3s1.2,0.5,1.9,0.5c0.5,0,0.9,0,1.3-0.1
		c0.4-0.1,0.7-0.2,1.1-0.4v-0.7c-0.4,0.2-0.8,0.3-1.1,0.4c-0.3,0.1-0.8,0.1-1.2,0.1c-0.8,0-1.5-0.3-2-0.8s-0.7-1.3-0.7-2.3h5.3
		L227.7,139.8L227.7,139.8z M222.3,139.7c0.1-0.8,0.3-1.5,0.7-2s1-0.7,1.7-0.7c0.5,0,0.9,0.1,1.2,0.3s0.5,0.5,0.7,0.9
		s0.2,0.8,0.2,1.4h-4.5V139.7z"/>
	<path class="st3" d="M236.4,136.4c0.2,0,0.4,0,0.5,0c0.2,0,0.3,0,0.5,0.1l-0.1,0.7c-0.1,0-0.3-0.1-0.4-0.1c-0.1,0-0.3,0-0.5,0
		c-0.3,0-0.6,0.1-0.9,0.2c-0.3,0.1-0.5,0.3-0.7,0.6s-0.3,0.5-0.4,0.9c-0.1,0.3-0.2,0.7-0.2,1.1v4.1h-0.8v-7.4h0.7l0.1,1.4l0,0
		c0.1-0.3,0.3-0.5,0.5-0.8c0.2-0.2,0.5-0.4,0.8-0.5C235.7,136.5,236,136.4,236.4,136.4z"/>
	<path class="st3" d="M244.4,138.2c-0.2-0.6-0.6-1-1.1-1.3s-1.1-0.5-1.8-0.5l0,0c-0.7,0-1.3,0.1-1.8,0.5c-0.5,0.3-0.9,0.8-1.2,1.3
		c-0.3,0.6-0.4,1.3-0.4,2.1c0,0.6,0.1,1.1,0.2,1.6c0.1,0.5,0.4,0.9,0.7,1.2s0.6,0.6,1,0.8s0.9,0.3,1.4,0.3s1-0.1,1.4-0.3
		s0.8-0.4,1.1-0.8c0.3-0.3,0.5-0.8,0.6-1.2s0.2-0.9,0.2-1.4c0-0.1,0-0.1,0-0.2C244.8,139.5,244.6,138.8,244.4,138.2z M243.9,140.3
		c0,0.6-0.1,1.2-0.3,1.7s-0.5,0.9-0.8,1.1c-0.4,0.3-0.8,0.4-1.4,0.4c-0.6,0-1-0.1-1.4-0.4c-0.4-0.3-0.7-0.6-0.8-1.1
		c-0.2-0.5-0.3-1-0.3-1.7c0-1,0.2-1.8,0.6-2.3s1.1-0.8,1.9-0.8c0.2,0,0.4,0,0.6,0.1c0.3,0.1,0.6,0.2,0.8,0.3
		c0.4,0.3,0.6,0.6,0.8,1.1c0.1,0.2,0.2,0.5,0.2,0.8C243.9,139.7,243.9,140,243.9,140.3z"/>
	<path class="st3" d="M251.5,142c0,0.4-0.1,0.8-0.3,1.1s-0.6,0.6-1,0.7c-0.4,0.2-1,0.2-1.6,0.2c-0.5,0-1,0-1.4-0.1s-0.7-0.2-1-0.3
		v-0.8c0.3,0.2,0.7,0.3,1.1,0.4c0.4,0.1,0.8,0.2,1.3,0.2c0.7,0,1.3-0.1,1.6-0.4c0.3-0.3,0.5-0.6,0.5-1c0-0.3-0.1-0.5-0.2-0.7
		c-0.1-0.2-0.4-0.3-0.7-0.5c-0.3-0.1-0.7-0.3-1.1-0.4c-0.5-0.2-0.9-0.3-1.2-0.5c-0.4-0.2-0.6-0.4-0.8-0.6s-0.3-0.6-0.3-1
		c0-0.6,0.2-1.1,0.7-1.4c0.5-0.3,1.1-0.5,1.9-0.5c0.4,0,0.9,0,1.2,0.1c0.4,0.1,0.7,0.2,1.1,0.3l-0.3,0.7c-0.2-0.1-0.4-0.2-0.6-0.2
		c-0.2-0.1-0.5-0.1-0.7-0.2c-0.2,0-0.5-0.1-0.7-0.1c-0.6,0-1,0.1-1.4,0.3c-0.3,0.2-0.5,0.5-0.5,0.9c0,0.3,0.1,0.5,0.2,0.7
		c0.2,0.2,0.4,0.3,0.7,0.4c0.3,0.1,0.7,0.3,1.1,0.4c0.4,0.1,0.8,0.3,1.2,0.5s0.6,0.4,0.9,0.6C251.4,141.2,251.5,141.6,251.5,142z"/>
	<path class="st3" d="M258,142c0,0.4-0.1,0.8-0.3,1.1s-0.5,0.6-1,0.7c-0.4,0.2-1,0.2-1.6,0.2c-0.5,0-1,0-1.4-0.1s-0.7-0.2-1-0.3
		v-0.8c0.3,0.2,0.7,0.3,1.1,0.4c0.4,0.1,0.8,0.2,1.3,0.2c0.7,0,1.3-0.1,1.6-0.4c0.3-0.3,0.5-0.6,0.5-1c0-0.3-0.1-0.5-0.2-0.7
		s-0.4-0.3-0.7-0.5c-0.3-0.1-0.7-0.3-1.1-0.4c-0.5-0.2-0.9-0.3-1.2-0.5c-0.4-0.2-0.6-0.4-0.8-0.6s-0.3-0.6-0.3-1
		c0-0.6,0.2-1.1,0.7-1.4c0.5-0.3,1.1-0.5,1.9-0.5c0.4,0,0.9,0,1.2,0.1c0.4,0.1,0.7,0.2,1.1,0.3l-0.3,0.7c-0.2-0.1-0.4-0.2-0.6-0.2
		c-0.2-0.1-0.5-0.1-0.7-0.2c-0.2,0-0.5-0.1-0.7-0.1c-0.6,0-1,0.1-1.4,0.3c-0.3,0.2-0.5,0.5-0.5,0.9c0,0.3,0.1,0.5,0.2,0.7
		c0.2,0.2,0.4,0.3,0.7,0.4c0.3,0.1,0.7,0.3,1.1,0.4c0.4,0.1,0.8,0.3,1.2,0.5s0.6,0.4,0.9,0.6C257.9,141.2,258,141.6,258,142z"/>
	<path class="st3" d="M265.6,139.8c0-0.7-0.1-1.3-0.3-1.8c-0.2-0.5-0.5-0.9-1-1.2c-0.4-0.3-1-0.4-1.6-0.4c-0.7,0-1.3,0.2-1.8,0.5
		s-0.8,0.8-1.1,1.4c-0.2,0.6-0.4,1.3-0.4,2c0,0.8,0.1,1.4,0.4,2s0.7,1,1.2,1.3s1.1,0.5,1.9,0.5c0.5,0,0.9,0,1.3-0.1s0.7-0.2,1.1-0.4
		v-0.7c-0.4,0.2-0.8,0.3-1.1,0.4c-0.3,0.1-0.8,0.1-1.2,0.1c-0.9,0-1.5-0.3-2-0.8c-0.4-0.5-0.7-1.3-0.7-2.3h5.3L265.6,139.8
		L265.6,139.8z M260.3,139.7c0.1-0.8,0.3-1.5,0.7-2c0.4-0.5,1-0.7,1.7-0.7c0.5,0,0.9,0.1,1.2,0.3c0.3,0.2,0.5,0.5,0.7,0.9
		c0.1,0.4,0.2,0.8,0.2,1.4h-4.5V139.7z"/>
	<path class="st3" d="M268.6,142.5c-0.1,0.3-0.2,0.7-0.3,1.1c-0.1,0.4-0.2,0.8-0.4,1.1c-0.1,0.4-0.3,0.7-0.4,1.1h-0.6
		c0.1-0.4,0.2-0.8,0.3-1.2c0.1-0.4,0.2-0.8,0.3-1.1c0.1-0.4,0.1-0.7,0.2-1.1h0.8L268.6,142.5z"/>
	<path class="st3" d="M105.7,156c-0.4-0.4-1-0.6-1.9-0.6c-0.4,0-0.9,0.1-1.3,0.2s-0.8,0.3-1.2,0.4l0.3,0.6c0.4-0.2,0.7-0.3,1-0.4
		c0.4-0.1,0.7-0.2,1.1-0.2c0.6,0,1,0.2,1.3,0.5s0.5,0.8,0.5,1.6v0.5l-1.4,0.1c-1.2,0-2,0.3-2.6,0.7s-0.9,0.9-0.9,1.7
		c0,0.4,0.1,0.8,0.3,1.1c0.2,0.3,0.5,0.6,0.8,0.7c0.3,0.2,0.8,0.2,1.2,0.2c0.5,0,0.9,0,1.2-0.2c0.3-0.1,0.6-0.3,0.8-0.5
		c0.2-0.2,0.4-0.5,0.6-0.8l0,0l0.1,1.3h0.6v-5C106.4,157.1,106.2,156.5,105.7,156z M105.6,160c0,0.8-0.2,1.4-0.7,1.8
		c-0.4,0.4-1,0.7-1.8,0.7c-0.5,0-0.9-0.1-1.2-0.3c-0.3-0.2-0.4-0.6-0.4-1.1c0-0.6,0.2-1,0.7-1.3s1.2-0.5,2.1-0.5h1.3V160z"/>
	<path class="st3" d="M111.8,155.4c0.2,0,0.4,0,0.5,0c0.2,0,0.3,0,0.5,0.1l-0.1,0.7c-0.1,0-0.3-0.1-0.4-0.1s-0.3,0-0.5,0
		c-0.3,0-0.6,0.1-0.9,0.2c-0.3,0.1-0.5,0.3-0.7,0.6s-0.3,0.5-0.4,0.9c-0.1,0.3-0.2,0.7-0.2,1.1v4.1h-0.8v-7.4h0.7l0.1,1.4l0,0
		c0.1-0.3,0.3-0.5,0.5-0.8c0.2-0.2,0.5-0.4,0.8-0.5C111.1,155.5,111.4,155.4,111.8,155.4z"/>
	<path class="st3" d="M118.5,156c-0.4-0.4-1-0.6-1.9-0.6c-0.5,0-0.9,0.1-1.3,0.2s-0.8,0.3-1.1,0.4l0.2,0.6c0.4-0.2,0.7-0.3,1.1-0.4
		c0.3-0.1,0.7-0.2,1.1-0.2c0.6,0,1,0.2,1.3,0.5s0.4,0.8,0.4,1.6v0.5l-1.3,0.1c-1.2,0-2,0.3-2.7,0.7c-0.6,0.4-0.9,0.9-0.9,1.7
		c0,0.4,0.1,0.8,0.3,1.1s0.5,0.6,0.8,0.7c0.3,0.2,0.8,0.2,1.2,0.2c0.5,0,0.9,0,1.2-0.2c0.3-0.1,0.6-0.3,0.8-0.5
		c0.2-0.2,0.4-0.5,0.6-0.8l0,0l0.1,1.3h0.6v-5C119.1,157.1,118.9,156.5,118.5,156z M118.3,160c0,0.8-0.2,1.4-0.7,1.8
		c-0.4,0.4-1,0.7-1.8,0.7c-0.5,0-0.9-0.1-1.2-0.3c-0.3-0.2-0.4-0.6-0.4-1.1c0-0.6,0.2-1,0.7-1.3s1.2-0.5,2.1-0.5h1.3V160z"/>
	<path class="st3" d="M124.8,155.4c0.8,0,1.5,0.2,1.9,0.7c0.4,0.4,0.7,1.1,0.7,2.1v4.9h-0.8v-4.8c0-0.7-0.2-1.2-0.5-1.6
		c-0.3-0.3-0.8-0.5-1.4-0.5c-0.8,0-1.4,0.2-1.8,0.7s-0.6,1.2-0.6,2.1v4.1h-0.8v-7.4h0.6l0.1,1.3l0,0c0.1-0.3,0.3-0.5,0.6-0.7
		c0.2-0.2,0.5-0.4,0.8-0.5C124,155.5,124.4,155.4,124.8,155.4z"/>
	<path class="st3" d="M132.8,163.1c-0.7,0-1.3-0.1-1.9-0.4c-0.5-0.3-0.9-0.7-1.2-1.3s-0.4-1.3-0.4-2.1s0.2-1.5,0.4-2.1
		c0.3-0.6,0.7-1,1.3-1.3c0.5-0.3,1.2-0.5,1.9-0.5c0.4,0,0.7,0,1,0.1s0.6,0.2,0.8,0.3l-0.2,0.7c-0.3-0.1-0.5-0.2-0.8-0.2
		c-0.3-0.1-0.6-0.1-0.8-0.1c-0.6,0-1.1,0.1-1.5,0.4c-0.4,0.3-0.7,0.6-0.9,1.1s-0.3,1-0.3,1.7c0,0.6,0.1,1.2,0.3,1.6
		c0.2,0.5,0.5,0.8,0.9,1.1s0.9,0.4,1.5,0.4c0.4,0,0.7,0,1-0.1s0.6-0.2,0.9-0.3v0.7c-0.2,0.1-0.5,0.2-0.8,0.3
		C133.5,163.1,133.2,163.1,132.8,163.1z"/>
	<path class="st3" d="M136.5,155.6v7.4h0.8v-7.4H136.5z M137.3,153c-0.1-0.1-0.2-0.2-0.4-0.2s-0.3,0-0.4,0.2
		c-0.1,0.1-0.1,0.2-0.1,0.4s0,0.3,0.1,0.5c0.1,0.1,0.2,0.2,0.4,0.2s0.3,0,0.4-0.2c0.1-0.1,0.1-0.3,0.1-0.5
		C137.4,153.2,137.4,153.1,137.3,153z"/>
	<path class="st3" d="M145.6,157.2c-0.2-0.6-0.6-1-1.1-1.3s-1.1-0.5-1.8-0.5s-1.3,0.1-1.8,0.5c-0.5,0.3-0.9,0.8-1.2,1.3
		c-0.3,0.6-0.4,1.3-0.4,2.1c0,0.6,0.1,1.1,0.2,1.6c0.1,0.5,0.4,0.9,0.7,1.2s0.6,0.6,1,0.8s0.9,0.3,1.4,0.3s1-0.1,1.4-0.3
		s0.8-0.4,1-0.8c0.3-0.3,0.5-0.8,0.6-1.2c0.2-0.5,0.2-1,0.2-1.6C146,158.5,145.8,157.8,145.6,157.2z M144.9,160.9
		c-0.2,0.5-0.5,0.9-0.8,1.1c-0.4,0.3-0.9,0.4-1.4,0.4c-0.6,0-1-0.1-1.4-0.4c-0.4-0.3-0.7-0.6-0.8-1.1c-0.2-0.5-0.3-1-0.3-1.7
		c0-1,0.2-1.8,0.6-2.3s1-0.8,1.9-0.8c0.6,0,1.1,0.1,1.4,0.4c0.4,0.3,0.6,0.6,0.8,1.1s0.2,1,0.2,1.7
		C145.1,159.9,145,160.5,144.9,160.9z"/>
	<path class="st3" d="M151.3,155.4c0.8,0,1.5,0.2,1.9,0.7c0.4,0.4,0.7,1.1,0.7,2.1v4.9h-0.8v-4.8c0-0.7-0.2-1.2-0.5-1.6
		c-0.3-0.3-0.8-0.5-1.4-0.5c-0.8,0-1.4,0.2-1.8,0.7c-0.4,0.5-0.6,1.2-0.6,2.1v4.1H148v-7.4h0.6l0.1,1.3l0,0c0.1-0.3,0.3-0.5,0.6-0.7
		s0.5-0.4,0.8-0.5C150.5,155.5,150.9,155.4,151.3,155.4z"/>
	<path class="st3" d="M156.3,155.6v7.4h0.8v-7.4H156.3z M157.1,153c-0.1-0.1-0.2-0.2-0.4-0.2s-0.3,0-0.4,0.2
		c-0.1,0.1-0.1,0.2-0.1,0.4s0.1,0.3,0.1,0.5c0.1,0.1,0.2,0.2,0.4,0.2s0.3,0,0.4-0.2c0.1-0.1,0.1-0.3,0.1-0.5
		C157.2,153.2,157.2,153.1,157.1,153z"/>
	<path class="st3" d="M168.9,158.8c0-0.7-0.1-1.3-0.3-1.8s-0.5-0.9-1-1.2c-0.4-0.3-0.9-0.4-1.6-0.4c-0.7,0-1.3,0.2-1.8,0.5
		s-0.8,0.8-1.1,1.4c-0.3,0.6-0.4,1.3-0.4,2c0,0.8,0.1,1.4,0.4,2c0.3,0.6,0.7,1,1.2,1.3s1.1,0.5,1.9,0.5c0.5,0,0.9,0,1.3-0.1
		c0.4-0.1,0.7-0.2,1.1-0.4v-0.7c-0.4,0.2-0.8,0.3-1.1,0.4c-0.3,0.1-0.8,0.1-1.2,0.1c-0.8,0-1.5-0.3-2-0.8s-0.7-1.3-0.7-2.3h5.3
		L168.9,158.8L168.9,158.8z M163.6,158.7c0.1-0.8,0.3-1.5,0.7-2s1-0.7,1.7-0.7c0.5,0,0.9,0.1,1.2,0.3s0.5,0.5,0.7,0.9
		s0.2,0.8,0.2,1.4h-4.5V158.7z"/>
	<path class="st3" d="M179.8,155.6l-0.1,1.1h-0.1c-0.2-0.4-0.5-0.7-0.9-0.9s-0.9-0.3-1.5-0.3c-0.7,0-1.3,0.2-1.7,0.5
		c-0.5,0.3-0.8,0.8-1.1,1.4c-0.2,0.6-0.4,1.3-0.4,2.1c0,1.2,0.3,2.2,0.8,2.8c0.5,0.7,1.3,1,2.3,1c0.6,0,1.1-0.1,1.5-0.4
		c0.4-0.2,0.7-0.6,1-1.1l0,0c0,0.2,0,0.4,0,0.6v1c0,0.7-0.2,1.3-0.6,1.7c-0.4,0.4-1,0.7-1.8,0.7c-0.4,0-0.7,0-1-0.1
		c-0.3,0-0.6-0.1-0.9-0.2c-0.3-0.1-0.5-0.2-0.8-0.3v0.8c0.4,0.1,0.7,0.3,1.2,0.4c0.4,0.1,0.9,0.1,1.5,0.1c0.8,0,1.4-0.1,1.8-0.4
		c0.5-0.3,0.8-0.6,1-1.1s0.3-1,0.3-1.7v-7.7L179.8,155.6L179.8,155.6z M179.7,159.6c0,0.4,0,0.8-0.1,1.2s-0.2,0.7-0.4,0.9
		c-0.2,0.3-0.4,0.5-0.7,0.6s-0.7,0.2-1.2,0.2c-0.8,0-1.3-0.3-1.7-0.8s-0.6-1.3-0.6-2.3c0-0.7,0.1-1.3,0.3-1.8s0.4-0.9,0.8-1.1
		c0.4-0.3,0.8-0.4,1.4-0.4c0.6,0,1,0.1,1.4,0.3c0.3,0.2,0.6,0.6,0.7,1c0.2,0.4,0.2,1,0.2,1.6L179.7,159.6L179.7,159.6z"/>
	<path class="st3" d="M182.9,155.6v7.4h0.8v-7.4H182.9z M183.7,153c-0.1-0.1-0.2-0.2-0.4-0.2s-0.3,0-0.4,0.2
		c-0.1,0.1-0.1,0.2-0.1,0.4s0.1,0.3,0.1,0.5c0.1,0.1,0.2,0.2,0.4,0.2s0.3,0,0.4-0.2c0.1-0.1,0.1-0.3,0.1-0.5
		C183.9,153.2,183.8,153.1,183.7,153z"/>
	<path class="st3" d="M190.7,156c-0.4-0.4-1-0.6-1.9-0.6c-0.5,0-0.9,0.1-1.3,0.2c-0.4,0.1-0.8,0.3-1.2,0.4l0.2,0.6
		c0.4-0.2,0.7-0.3,1-0.4c0.4-0.1,0.7-0.2,1.1-0.2c0.6,0,1,0.2,1.3,0.5s0.5,0.8,0.5,1.6v0.5l-1.4,0.1c-1.2,0-2,0.3-2.6,0.7
		s-0.9,0.9-0.9,1.7c0,0.4,0.1,0.8,0.3,1.1s0.4,0.6,0.8,0.7c0.3,0.2,0.8,0.2,1.2,0.2c0.5,0,0.9,0,1.2-0.2c0.3-0.1,0.6-0.3,0.8-0.5
		s0.4-0.5,0.6-0.8l0,0l0.1,1.3h0.6v-5C191.3,157.1,191.1,156.5,190.7,156z M190.5,160c0,0.8-0.2,1.4-0.7,1.8c-0.4,0.4-1,0.7-1.8,0.7
		c-0.5,0-0.9-0.1-1.2-0.3s-0.4-0.6-0.4-1.1c0-0.6,0.2-1,0.7-1.3s1.2-0.5,2.1-0.5h1.3L190.5,160L190.5,160z"/>
	<path class="st3" d="M194.5,163h-0.8v-10.6h0.8V163z"/>
	<path class="st3" d="M197.7,163h-0.8v-10.6h0.8V163z"/>
	<path class="st3" d="M205.9,158.8c0-0.7-0.1-1.3-0.3-1.8s-0.5-0.9-1-1.2c-0.4-0.3-1-0.4-1.6-0.4c-0.7,0-1.3,0.2-1.8,0.5
		s-0.8,0.8-1.1,1.4c-0.2,0.6-0.4,1.3-0.4,2c0,0.8,0.1,1.4,0.4,2c0.3,0.6,0.7,1,1.2,1.3c0.3,0.2,0.7,0.3,1.1,0.4l0,0
		c0.2,0,0.5,0.1,0.7,0.1c0.5,0,0.9,0,1.3-0.1c0.4-0.1,0.7-0.2,1.1-0.4v-0.7c-0.4,0.2-0.8,0.3-1.1,0.4c-0.3,0.1-0.8,0.1-1.2,0.1
		c-0.9,0-1.5-0.3-2-0.8s-0.7-1.3-0.7-2.3h5.3v-0.5H205.9z M200.6,158.7c0.1-0.8,0.3-1.5,0.7-2s1-0.7,1.7-0.7c0.5,0,0.9,0.1,1.2,0.3
		s0.5,0.5,0.7,0.9c0.1,0.4,0.2,0.8,0.2,1.4h-4.5V158.7z"/>
	<path class="st3" d="M214.5,163.1c-0.7,0-1.3-0.1-1.9-0.4c-0.5-0.3-0.9-0.7-1.2-1.3s-0.4-1.3-0.4-2.1s0.1-1.5,0.4-2.1
		c0.3-0.6,0.7-1,1.3-1.3c0.5-0.3,1.2-0.5,1.9-0.5c0.4,0,0.7,0,1,0.1s0.6,0.2,0.8,0.3l-0.2,0.7c-0.3-0.1-0.5-0.2-0.8-0.2
		c-0.3-0.1-0.6-0.1-0.8-0.1c-0.6,0-1.1,0.1-1.5,0.4c-0.4,0.3-0.7,0.6-0.9,1.1s-0.3,1-0.3,1.7c0,0.6,0.1,1.2,0.3,1.6
		c0.2,0.5,0.5,0.8,0.9,1.1s0.9,0.4,1.5,0.4c0.4,0,0.7,0,1-0.1s0.6-0.2,0.9-0.3v0.7c-0.2,0.1-0.5,0.2-0.8,0.3
		C215.3,163.1,214.9,163.1,214.5,163.1z"/>
	<path class="st3" d="M219,155.8c0,0.2,0,0.4,0,0.5c0,0.2,0,0.4,0,0.5h0.1c0.1-0.3,0.3-0.5,0.5-0.7s0.5-0.4,0.8-0.5s0.7-0.2,1.1-0.2
		c0.6,0,1.1,0.1,1.4,0.3c0.4,0.2,0.7,0.5,0.9,0.9s0.3,0.9,0.3,1.5v4.9h-0.8v-4.8c0-0.7-0.2-1.2-0.5-1.6c-0.3-0.3-0.8-0.5-1.4-0.5
		c-0.5,0-1,0.1-1.4,0.3s-0.6,0.5-0.8,1c-0.2,0.4-0.3,0.9-0.3,1.6v4.1h-0.8v-10.6h0.8L219,155.8L219,155.8z"/>
	<path class="st3" d="M232.3,158.8c0-0.7-0.1-1.3-0.3-1.8s-0.5-0.9-1-1.2c-0.2-0.1-0.3-0.2-0.5-0.2c-0.3-0.1-0.7-0.2-1.1-0.2
		c-0.7,0-1.3,0.2-1.8,0.5c-0.3,0.2-0.5,0.4-0.7,0.7c-0.2,0.2-0.3,0.4-0.4,0.7c-0.2,0.6-0.4,1.3-0.4,2c0,0.8,0.1,1.4,0.4,2
		c0.3,0.6,0.7,1,1.2,1.3s1.2,0.5,1.9,0.5c0.5,0,0.9,0,1.3-0.1c0.4-0.1,0.7-0.2,1.1-0.4v-0.7c-0.4,0.2-0.8,0.3-1.1,0.4
		c-0.4,0.1-0.8,0.1-1.2,0.1c-0.8,0-1.5-0.3-2-0.8s-0.7-1.3-0.7-2.3h5.3V158.8z M227,158.7c0.1-0.8,0.3-1.5,0.8-2s1-0.7,1.7-0.7
		c0.5,0,0.9,0.1,1.2,0.3s0.5,0.5,0.7,0.9c0.1,0.4,0.2,0.8,0.2,1.4H227V158.7z"/>
	<path class="st3" d="M104.2,182.1c-0.7,0-1.3-0.1-1.9-0.4c-0.5-0.3-0.9-0.7-1.2-1.3c-0.3-0.6-0.4-1.3-0.4-2.1s0.1-1.5,0.4-2.1
		s0.7-1,1.3-1.3c0.5-0.3,1.2-0.5,1.9-0.5c0.4,0,0.7,0,1,0.1s0.6,0.2,0.8,0.3l-0.2,0.7c-0.3-0.1-0.5-0.2-0.8-0.2
		c-0.3-0.1-0.6-0.1-0.8-0.1c-0.6,0-1.1,0.1-1.5,0.4c-0.4,0.3-0.7,0.6-0.9,1.1c-0.2,0.5-0.3,1-0.3,1.7c0,0.6,0.1,1.2,0.3,1.6
		c0.2,0.5,0.5,0.8,0.9,1.1s0.9,0.4,1.5,0.4c0.4,0,0.7,0,1-0.1s0.6-0.2,0.9-0.3v0.7c-0.2,0.1-0.5,0.2-0.8,0.3
		S104.6,182.1,104.2,182.1z"/>
	<path class="st3" d="M113.7,176.2c-0.2-0.6-0.6-1-1.1-1.3s-1.1-0.5-1.8-0.5c-0.7,0-1.3,0.1-1.8,0.5c-0.5,0.3-0.9,0.8-1.2,1.3
		c-0.3,0.6-0.4,1.3-0.4,2.1c0,0.6,0.1,1.1,0.2,1.6v0.1c0.1,0.4,0.4,0.8,0.6,1.1c0.3,0.3,0.6,0.6,1,0.8s0.9,0.3,1.4,0.3
		s1-0.1,1.4-0.3s0.8-0.4,1-0.8c0.3-0.3,0.5-0.8,0.7-1.2c0.1-0.2,0.1-0.4,0.2-0.7c0-0.3,0.1-0.6,0.1-0.9
		C114.1,177.5,114,176.8,113.7,176.2z M113,179.9c-0.2,0.5-0.5,0.9-0.8,1.1c-0.4,0.3-0.9,0.4-1.4,0.4c-0.6,0-1-0.1-1.4-0.4
		c-0.4-0.3-0.6-0.6-0.8-1.1c0,0,0,0,0-0.1c-0.2-0.5-0.2-1-0.2-1.6c0-1,0.2-1.8,0.6-2.3c0.4-0.6,1.1-0.8,1.9-0.8
		c0.6,0,1.1,0.1,1.4,0.4c0.4,0.3,0.6,0.6,0.8,1.1c0.2,0.5,0.2,1,0.2,1.7c0,0.4,0,0.7-0.1,1C113.2,179.5,113.1,179.7,113,179.9z"/>
	<path class="st3" d="M116.9,182h-0.8v-10.6h0.8V182z"/>
	<path class="st3" d="M125.6,177.6c-0.1-0.5-0.2-0.9-0.3-1.3c-0.2-0.6-0.6-1-1.1-1.3s-1.1-0.5-1.8-0.5c-0.7,0-1.3,0.1-1.8,0.5
		c-0.5,0.3-0.9,0.8-1.2,1.3c-0.3,0.6-0.4,1.3-0.4,2.1c0,0.1,0,0.2,0,0.2c0,0.5,0.1,0.9,0.2,1.4c0.2,0.5,0.4,0.9,0.7,1.2
		c0.3,0.3,0.6,0.6,1,0.8s0.9,0.3,1.4,0.3s1-0.1,1.4-0.3s0.8-0.4,1-0.8c0.3-0.3,0.5-0.8,0.6-1.2c0.2-0.5,0.2-1,0.2-1.6
		C125.6,178,125.6,177.8,125.6,177.6z M124.5,179.9c-0.2,0.5-0.4,0.9-0.8,1.1c-0.4,0.3-0.9,0.4-1.4,0.4c-0.6,0-1-0.1-1.4-0.4
		c-0.4-0.3-0.7-0.6-0.8-1.1c-0.2-0.5-0.3-1-0.3-1.6v-0.1c0-1,0.2-1.8,0.6-2.3c0.4-0.6,1.1-0.8,1.9-0.8c0.6,0,1.1,0.1,1.4,0.4
		c0.4,0.3,0.6,0.6,0.8,1.1c0.1,0.3,0.2,0.7,0.2,1.1c0,0.2,0,0.4,0,0.6C124.8,178.9,124.7,179.5,124.5,179.9z"/>
	<path class="st3" d="M130.7,174.4c0.2,0,0.4,0,0.5,0c0.2,0,0.3,0,0.5,0.1l-0.1,0.7c-0.2,0-0.3-0.1-0.4-0.1c-0.2,0-0.3,0-0.5,0
		c-0.3,0-0.6,0.1-0.9,0.2c-0.3,0.1-0.5,0.3-0.7,0.6s-0.3,0.5-0.4,0.9c-0.1,0.3-0.2,0.7-0.2,1.1v4.1h-0.8v-7.4h0.7l0.1,1.4l0,0
		c0.1-0.3,0.3-0.5,0.5-0.8c0.2-0.2,0.5-0.4,0.8-0.5C130,174.5,130.3,174.4,130.7,174.4z"/>
	<path class="st3" d="M137.8,175.7c-0.1-0.3-0.2-0.5-0.4-0.7c-0.4-0.4-1-0.6-1.9-0.6c-0.5,0-0.9,0.1-1.3,0.2
		c-0.4,0.1-0.8,0.3-1.1,0.4l0.2,0.6c0.3-0.2,0.7-0.3,1-0.4c0.4-0.1,0.7-0.2,1.1-0.2c0.6,0,1,0.2,1.3,0.5c0.1,0.1,0.2,0.2,0.2,0.3
		c0.2,0.3,0.2,0.7,0.2,1.3v0.5l-1.4,0.1c-1.2,0-2,0.3-2.7,0.7c-0.6,0.4-0.9,0.9-0.9,1.7c0,0.4,0.1,0.8,0.3,1.1s0.5,0.6,0.8,0.7
		c0.3,0.2,0.8,0.2,1.2,0.2c0.5,0,0.9,0,1.2-0.2c0.3-0.1,0.6-0.3,0.8-0.5s0.4-0.5,0.6-0.8l0,0l0.1,1.3h0.6v-5
		C138,176.5,138,176.1,137.8,175.7z M137.2,179c0,0.8-0.2,1.4-0.7,1.8c-0.4,0.4-1,0.7-1.8,0.7c-0.5,0-0.9-0.1-1.2-0.3
		s-0.4-0.6-0.4-1.1c0-0.6,0.2-1,0.7-1.3s1.2-0.5,2.1-0.5h1.3L137.2,179L137.2,179z"/>
	<path class="st3" d="M143.7,174.4c0.8,0,1.5,0.2,1.9,0.7c0.4,0.4,0.7,1.1,0.7,2.1v4.9h-0.8v-4.8c0-0.7-0.2-1.2-0.5-1.6
		s-0.8-0.5-1.4-0.5c-0.8,0-1.4,0.2-1.8,0.7s-0.6,1.2-0.6,2.1v4.1h-0.8v-7.4h0.6l0.1,1.3l0,0c0.1-0.3,0.3-0.5,0.6-0.7
		s0.5-0.4,0.8-0.5C142.9,174.5,143.3,174.4,143.7,174.4z"/>
	<path class="st3" d="M154.6,176.2c-0.2-0.6-0.6-1-1.1-1.3s-1-0.5-1.7-0.5h-0.1c-0.7,0-1.3,0.1-1.8,0.5c-0.5,0.3-0.9,0.8-1.2,1.3
		c-0.3,0.6-0.4,1.3-0.4,2.1c0,0.6,0.1,1.1,0.2,1.6c0.1,0.5,0.4,0.9,0.7,1.2s0.6,0.6,1,0.8s0.9,0.3,1.4,0.3c0.1,0,0.1,0,0.2,0
		c0.5,0,0.9-0.1,1.2-0.3c0.4-0.2,0.8-0.4,1.1-0.8c0.3-0.3,0.5-0.8,0.6-1.2c0.2-0.5,0.2-1,0.2-1.6C155,177.5,154.8,176.8,154.6,176.2
		z M153.9,179.9c-0.2,0.5-0.5,0.9-0.8,1.1c-0.3,0.2-0.7,0.4-1.2,0.4c-0.1,0-0.1,0-0.2,0c-0.6,0-1-0.1-1.4-0.4
		c-0.4-0.3-0.7-0.6-0.8-1.1c-0.2-0.5-0.3-1-0.3-1.7c0-1,0.2-1.8,0.6-2.3s1-0.8,1.9-0.8h0.1c0.5,0,1,0.1,1.3,0.4
		c0.4,0.3,0.6,0.6,0.8,1.1s0.2,1,0.2,1.7C154.1,178.9,154,179.5,153.9,179.9z"/>
	<path class="st3" d="M161.4,182h-0.8v-10.6h0.8V182z"/>
	<path class="st3" d="M169.6,177.8c0-0.7-0.1-1.3-0.3-1.8s-0.5-0.9-1-1.2c-0.4-0.3-0.9-0.4-1.6-0.4c-0.7,0-1.3,0.2-1.8,0.5
		s-0.9,0.8-1.1,1.4c-0.2,0.6-0.4,1.3-0.4,2c0,0.8,0.1,1.4,0.4,2c0.3,0.6,0.7,1,1.2,1.3s1.1,0.5,1.9,0.5c0.5,0,0.9,0,1.3-0.1
		c0.4-0.1,0.7-0.2,1.1-0.4v-0.7c-0.4,0.2-0.8,0.3-1.1,0.4c-0.4,0.1-0.8,0.1-1.2,0.1c-0.8,0-1.5-0.3-2-0.8s-0.7-1.3-0.7-2.3h5.3
		L169.6,177.8L169.6,177.8z M164.3,177.7c0.1-0.8,0.3-1.5,0.7-2s1-0.7,1.7-0.7c0.5,0,0.9,0.1,1.2,0.3s0.5,0.5,0.7,0.9
		s0.2,0.8,0.2,1.4h-4.5V177.7z"/>
	<path class="st3" d="M183,174.4c0.7,0,1.3,0.2,1.7,0.6c0.4,0.4,0.6,1.1,0.6,2v5h-0.8v-4.9c0-0.7-0.1-1.2-0.4-1.5
		c-0.3-0.3-0.7-0.5-1.2-0.5c-0.7,0-1.3,0.2-1.7,0.6c-0.4,0.4-0.6,1.1-0.6,1.9v4.4h-0.8v-4.9c0-0.4-0.1-0.8-0.2-1.1
		c-0.1-0.3-0.3-0.5-0.6-0.6c-0.2-0.1-0.5-0.2-0.9-0.2c-0.5,0-0.9,0.1-1.2,0.3s-0.6,0.5-0.8,0.9s-0.3,0.9-0.3,1.5v4.2H175v-7.4h0.6
		l0.1,1.2l0,0c0.1-0.3,0.3-0.5,0.5-0.7s0.5-0.4,0.8-0.5s0.6-0.2,1-0.2c0.6,0,1,0.1,1.4,0.3s0.6,0.6,0.8,1.1h0.1c0.2-0.4,0.5-0.8,1-1
		C181.9,174.5,182.4,174.4,183,174.4z"/>
	<path class="st3" d="M193.6,176.2c-0.3-0.6-0.6-1-1.1-1.3s-1.1-0.5-1.8-0.5s-1.3,0.1-1.8,0.5c-0.5,0.3-0.9,0.8-1.2,1.3
		c-0.3,0.6-0.4,1.3-0.4,2.1c0,0.6,0.1,1.1,0.2,1.6c0.1,0.5,0.4,0.9,0.7,1.2s0.6,0.6,1,0.8s0.9,0.3,1.4,0.3c0.6,0,1-0.1,1.5-0.3
		c0.4-0.2,0.8-0.4,1-0.8c0.3-0.3,0.5-0.8,0.6-1.2c0.2-0.5,0.2-1,0.2-1.6C194,177.5,193.8,176.8,193.6,176.2z M192.9,179.9
		c-0.2,0.5-0.5,0.9-0.8,1.1c-0.4,0.3-0.8,0.4-1.4,0.4c-0.6,0-1-0.1-1.4-0.4c-0.4-0.3-0.6-0.6-0.8-1.1s-0.3-1-0.3-1.7
		c0-1,0.2-1.8,0.6-2.3s1-0.8,1.9-0.8c0.6,0,1.1,0.1,1.4,0.4c0.4,0.3,0.6,0.6,0.8,1.1s0.2,1,0.2,1.7
		C193.1,178.9,193,179.5,192.9,179.9z"/>
	<path class="st3" d="M199.3,174.4c0.8,0,1.5,0.2,1.9,0.7c0.4,0.4,0.7,1.1,0.7,2.1v4.9h-0.8v-4.8c0-0.7-0.2-1.2-0.5-1.6
		c-0.3-0.3-0.8-0.5-1.4-0.5c-0.8,0-1.4,0.2-1.8,0.7c-0.4,0.5-0.6,1.2-0.6,2.1v4.1H196v-7.4h0.6l0.1,1.3l0,0c0.1-0.3,0.3-0.5,0.6-0.7
		c0.2-0.2,0.5-0.4,0.8-0.5C198.5,174.5,198.9,174.4,199.3,174.4z"/>
	<path class="st3" d="M206.4,181.5c0.2,0,0.4,0,0.6,0c0.2,0,0.4-0.1,0.5-0.1v0.6c-0.1,0.1-0.3,0.1-0.5,0.1s-0.4,0.1-0.7,0.1
		c-0.4,0-0.8-0.1-1.1-0.2c-0.3-0.2-0.5-0.4-0.7-0.7c-0.1-0.3-0.2-0.7-0.2-1.3v-4.7h-1.1v-0.4l1.1-0.3l0.3-1.7h0.5v1.8h2.3v0.6h-2.3
		v4.7c0,0.5,0.1,0.9,0.3,1.2C205.7,181.3,206,181.5,206.4,181.5z"/>
	<path class="st3" d="M213.6,175c-0.4-0.4-1-0.6-1.9-0.6c-0.5,0-0.9,0.1-1.3,0.2c-0.4,0.1-0.8,0.3-1.1,0.4l0.2,0.6
		c0.3-0.2,0.7-0.3,1-0.4c0.3-0.1,0.7-0.2,1.1-0.2c0.6,0,1,0.2,1.3,0.5s0.5,0.8,0.5,1.6v0.5l-1.4,0.1c-1.2,0-2,0.3-2.7,0.7
		c-0.6,0.4-0.9,0.9-0.9,1.7c0,0.4,0.1,0.8,0.3,1.1s0.4,0.6,0.8,0.7c0.3,0.2,0.8,0.2,1.2,0.2c0.5,0,0.9,0,1.2-0.2
		c0.3-0.1,0.6-0.3,0.8-0.5s0.4-0.5,0.6-0.8l0,0l0.1,1.3h0.6v-5C214.2,176.1,214,175.5,213.6,175z M213.4,179c0,0.8-0.2,1.4-0.7,1.8
		c-0.4,0.4-1,0.7-1.8,0.7c-0.5,0-0.9-0.1-1.2-0.3s-0.4-0.6-0.4-1.1c0-0.6,0.2-1,0.7-1.3s1.2-0.5,2.1-0.5h1.3L213.4,179L213.4,179z"
		/>
	<path class="st3" d="M221.9,174.6l-0.1,1.1h-0.1c-0.2-0.4-0.5-0.7-0.9-0.9s-0.9-0.3-1.5-0.3c-0.7,0-1.3,0.2-1.7,0.5
		c-0.5,0.3-0.8,0.8-1.1,1.4c-0.2,0.6-0.4,1.3-0.4,2.1c0,1.2,0.3,2.2,0.8,2.8c0.5,0.7,1.3,1,2.2,1c0.6,0,1.1-0.1,1.5-0.4
		c0.4-0.2,0.7-0.6,1-1.1l0,0c0,0.2,0,0.4,0,0.6v1c0,0.7-0.2,1.3-0.6,1.7c-0.4,0.4-1,0.7-1.8,0.7c-0.4,0-0.7,0-1-0.1
		c-0.3,0-0.6-0.1-0.9-0.2c-0.3-0.1-0.5-0.2-0.8-0.3v0.8c0.3,0.1,0.7,0.3,1.2,0.4c0.4,0.1,0.9,0.1,1.5,0.1c0.8,0,1.4-0.1,1.8-0.4
		c0.5-0.3,0.8-0.6,1-1.1s0.3-1,0.3-1.7v-7.7L221.9,174.6L221.9,174.6z M221.7,178.6c0,0.4,0,0.8-0.1,1.2s-0.2,0.7-0.4,0.9
		c-0.2,0.3-0.4,0.5-0.7,0.6s-0.7,0.2-1.2,0.2c-0.8,0-1.3-0.3-1.7-0.8s-0.6-1.3-0.6-2.3c0-0.7,0.1-1.3,0.3-1.8s0.4-0.9,0.8-1.1
		c0.4-0.3,0.8-0.4,1.4-0.4c0.6,0,1,0.1,1.3,0.3s0.6,0.6,0.8,1s0.2,1,0.2,1.6v0.6H221.7z"/>
	<path class="st3" d="M228.3,174.4c0.8,0,1.5,0.2,1.9,0.7c0.4,0.4,0.7,1.1,0.7,2.1v4.9h-0.8v-4.8c0-0.7-0.2-1.2-0.5-1.6
		c-0.3-0.3-0.8-0.5-1.4-0.5c-0.8,0-1.4,0.2-1.8,0.7c-0.4,0.5-0.6,1.2-0.6,2.1v4.1H225v-7.4h0.6l0.1,1.3l0,0c0.1-0.3,0.3-0.5,0.6-0.7
		c0.2-0.2,0.5-0.4,0.8-0.5C227.5,174.5,227.9,174.4,228.3,174.4z"/>
	<path class="st3" d="M239,177.8c0-0.7-0.1-1.3-0.3-1.8s-0.5-0.9-1-1.2c-0.4-0.3-1-0.4-1.6-0.4c-0.7,0-1.3,0.2-1.8,0.5
		s-0.9,0.8-1.1,1.4c-0.2,0.6-0.4,1.3-0.4,2c0,0.8,0.1,1.4,0.4,2c0.3,0.6,0.7,1,1.2,1.3s1.2,0.5,1.9,0.5c0.5,0,0.9,0,1.3-0.1
		c0.4-0.1,0.7-0.2,1.1-0.4v-0.7c-0.4,0.2-0.8,0.3-1.1,0.4c-0.3,0.1-0.8,0.1-1.2,0.1c-0.9,0-1.5-0.3-2-0.8s-0.7-1.3-0.7-2.3h5.3
		L239,177.8L239,177.8z M233.7,177.7c0.1-0.8,0.3-1.5,0.7-2s1-0.7,1.7-0.7c0.5,0,0.9,0.1,1.2,0.3s0.5,0.5,0.7,0.9
		c0.1,0.4,0.2,0.8,0.2,1.4h-4.5V177.7z"/>
	<path class="st3" d="M250.4,177.8c0-0.7-0.1-1.3-0.3-1.8s-0.5-0.9-1-1.2c-0.4-0.3-1-0.4-1.6-0.4c-0.7,0-1.3,0.2-1.8,0.5
		s-0.9,0.8-1.1,1.4c-0.2,0.6-0.4,1.3-0.4,2c0,0.8,0.1,1.4,0.4,2c0.3,0.6,0.7,1,1.2,1.3s1.2,0.5,1.9,0.5c0.5,0,0.9,0,1.3-0.1
		c0.4-0.1,0.7-0.2,1.1-0.4v-0.7c-0.4,0.2-0.8,0.3-1.1,0.4c-0.3,0.1-0.8,0.1-1.2,0.1c-0.9,0-1.5-0.3-2-0.8s-0.7-1.3-0.7-2.3h5.3
		L250.4,177.8L250.4,177.8z M245.1,177.7c0.1-0.8,0.3-1.5,0.7-2s1-0.7,1.7-0.7c0.5,0,0.9,0.1,1.2,0.3s0.5,0.5,0.7,0.9
		s0.2,0.8,0.2,1.4h-4.5V177.7z"/>
	<path class="st3" d="M256.8,182H256v-10.6h0.8V182z"/>
	<path class="st3" d="M265,177.8c0-0.7-0.1-1.3-0.3-1.8c-0.2-0.5-0.5-0.9-1-1.2c-0.4-0.3-1-0.4-1.6-0.4c-0.7,0-1.3,0.2-1.8,0.5
		s-0.9,0.8-1.1,1.4c-0.2,0.6-0.4,1.3-0.4,2c0,0.8,0.1,1.4,0.4,2s0.7,1,1.2,1.3s1.1,0.5,1.9,0.5c0.5,0,0.9,0,1.3-0.1s0.7-0.2,1.1-0.4
		v-0.7c-0.4,0.2-0.8,0.3-1.1,0.4c-0.3,0.1-0.8,0.1-1.2,0.1c-0.9,0-1.5-0.3-2-0.8s-0.7-1.3-0.7-2.3h5.3L265,177.8L265,177.8z
		 M259.7,177.7c0.1-0.8,0.3-1.5,0.7-2c0.4-0.5,1-0.7,1.7-0.7c0.5,0,0.9,0.1,1.2,0.3c0.3,0.2,0.5,0.5,0.7,0.9s0.2,0.8,0.2,1.4h-4.5
		V177.7z"/>
	<path class="st3" d="M105.7,194c-0.4-0.4-1-0.6-1.9-0.6c-0.4,0-0.9,0.1-1.3,0.2s-0.8,0.3-1.2,0.4l0.3,0.6c0.4-0.2,0.7-0.3,1-0.4
		c0.4-0.1,0.7-0.2,1.1-0.2c0.6,0,1,0.2,1.3,0.5s0.5,0.8,0.5,1.6v0.5l-1.4,0.1c-1.2,0-2,0.3-2.6,0.7s-0.9,0.9-0.9,1.7
		c0,0.4,0.1,0.8,0.3,1.1c0.2,0.3,0.5,0.6,0.8,0.7c0.3,0.2,0.8,0.2,1.2,0.2c0.5,0,0.9,0,1.2-0.2c0.3-0.1,0.6-0.3,0.8-0.5
		c0.2-0.2,0.4-0.5,0.6-0.8l0,0l0.1,1.3h0.6v-5C106.4,195.1,106.2,194.5,105.7,194z M105.6,198c0,0.8-0.2,1.4-0.7,1.8
		c-0.4,0.4-1,0.7-1.8,0.7c-0.5,0-0.9-0.1-1.2-0.3c-0.3-0.2-0.4-0.6-0.4-1.1c0-0.6,0.2-1,0.7-1.3s1.2-0.5,2.1-0.5h1.3V198z"/>
	<path class="st3" d="M111.8,193.4c0.2,0,0.4,0,0.5,0c0.2,0,0.3,0,0.5,0.1l-0.1,0.7c-0.1,0-0.3-0.1-0.4-0.1s-0.3,0-0.5,0
		c-0.3,0-0.6,0.1-0.9,0.2c-0.3,0.1-0.5,0.3-0.7,0.6s-0.3,0.5-0.4,0.9c-0.1,0.3-0.2,0.7-0.2,1.1v4.1h-0.8v-7.4h0.7l0.1,1.4l0,0
		c0.1-0.3,0.3-0.5,0.5-0.8c0.2-0.2,0.5-0.4,0.8-0.5C111.1,193.5,111.4,193.4,111.8,193.4z"/>
	<path class="st3" d="M119.7,196.8c0-0.7-0.1-1.3-0.3-1.8c-0.2-0.5-0.5-0.9-1-1.2c-0.4-0.3-1-0.4-1.6-0.4c-0.7,0-1.3,0.2-1.8,0.5
		s-0.9,0.8-1.1,1.4c-0.2,0.6-0.4,1.3-0.4,2c0,0.8,0.1,1.4,0.4,2s0.7,1,1.2,1.3s1.2,0.5,1.9,0.5c0.5,0,0.9,0,1.3-0.1s0.7-0.2,1.1-0.4
		v-0.7c-0.4,0.2-0.8,0.3-1.1,0.4c-0.3,0.1-0.8,0.1-1.2,0.1c-0.9,0-1.5-0.3-2-0.8s-0.7-1.3-0.7-2.3h5.3
		C119.7,197.3,119.7,196.8,119.7,196.8z M114.4,196.7c0.1-0.8,0.3-1.5,0.7-2s1-0.7,1.7-0.7c0.5,0,0.9,0.1,1.2,0.3
		c0.3,0.2,0.5,0.5,0.7,0.9c0.1,0.4,0.2,0.8,0.2,1.4h-4.5V196.7z"/>
	<path class="st3" d="M127.4,196.8c0-0.7-0.1-1.3-0.3-1.8c-0.2-0.5-0.5-0.9-1-1.2c-0.4-0.3-1-0.4-1.6-0.4c-0.7,0-1.3,0.2-1.8,0.5
		s-0.9,0.8-1.1,1.4c-0.2,0.6-0.4,1.3-0.4,2c0,0.8,0.1,1.4,0.4,2s0.7,1,1.2,1.3s1.2,0.5,1.9,0.5c0.5,0,0.9,0,1.3-0.1s0.7-0.2,1.1-0.4
		v-0.7c-0.4,0.2-0.8,0.3-1.1,0.4c-0.3,0.1-0.8,0.1-1.2,0.1c-0.8,0-1.5-0.3-2-0.8s-0.7-1.3-0.7-2.3h5.3
		C127.4,197.3,127.4,196.8,127.4,196.8z M122.1,196.7c0.1-0.8,0.3-1.5,0.7-2c0.4-0.5,1-0.7,1.7-0.7c0.5,0,0.9,0.1,1.2,0.3
		c0.3,0.2,0.5,0.5,0.7,0.9s0.2,0.8,0.2,1.4h-4.5V196.7z"/>
	<path class="st3" d="M136.1,193.4c0.2,0,0.4,0,0.5,0c0.2,0,0.3,0,0.5,0.1l-0.1,0.7c-0.1,0-0.3-0.1-0.4-0.1c-0.1,0-0.3,0-0.5,0
		c-0.3,0-0.6,0.1-0.9,0.2c-0.3,0.1-0.5,0.3-0.7,0.6s-0.3,0.5-0.4,0.9c-0.1,0.3-0.2,0.7-0.2,1.1v4.1h-0.8v-7.4h0.7l0.1,1.4l0,0
		c0.1-0.3,0.3-0.5,0.5-0.8c0.2-0.2,0.5-0.4,0.8-0.5C135.4,193.5,135.7,193.4,136.1,193.4z"/>
	<path class="st3" d="M144.4,193.6v7.4h-0.7l-0.1-1.3l0,0c-0.1,0.3-0.3,0.5-0.6,0.7c-0.2,0.2-0.5,0.4-0.8,0.5s-0.7,0.2-1.1,0.2
		c-0.6,0-1.1-0.1-1.5-0.3s-0.7-0.5-0.9-0.9s-0.3-0.9-0.3-1.5v-4.9h0.8v4.8c0,0.7,0.2,1.2,0.5,1.6c0.3,0.3,0.8,0.5,1.4,0.5
		c0.6,0,1-0.1,1.4-0.3s0.6-0.5,0.8-1c0.2-0.4,0.3-0.9,0.3-1.6v-4.1h0.8V193.6z"/>
	<path class="st3" d="M149.9,193.4c0.2,0,0.4,0,0.5,0c0.2,0,0.3,0,0.5,0.1l-0.1,0.7c-0.1,0-0.3-0.1-0.4-0.1c-0.1,0-0.3,0-0.5,0
		c-0.3,0-0.6,0.1-0.9,0.2c-0.3,0.1-0.5,0.3-0.7,0.6s-0.3,0.5-0.4,0.9c-0.1,0.3-0.2,0.7-0.2,1.1v4.1h-0.8v-7.4h0.7l0.1,1.4l0,0
		c0.1-0.3,0.3-0.5,0.5-0.8c0.2-0.2,0.5-0.4,0.8-0.5C149.3,193.5,149.6,193.4,149.9,193.4z"/>
	<path class="st3" d="M156.6,194c-0.4-0.4-1-0.6-1.9-0.6c-0.4,0-0.9,0.1-1.3,0.2c-0.4,0.1-0.8,0.3-1.2,0.4l0.3,0.6
		c0.3-0.2,0.7-0.3,1-0.4c0.3-0.1,0.7-0.2,1.1-0.2c0.6,0,1,0.2,1.3,0.5s0.4,0.8,0.4,1.6v0.5l-1.4,0.1c-1.1,0-2,0.3-2.6,0.7
		c-0.3,0.2-0.5,0.4-0.7,0.7s-0.2,0.6-0.2,1s0.1,0.8,0.2,1c0,0,0,0,0,0.1c0.2,0.3,0.4,0.6,0.8,0.7c0.3,0.2,0.8,0.2,1.2,0.2
		c0.5,0,0.9,0,1.2-0.2c0.3-0.1,0.6-0.3,0.8-0.5s0.4-0.5,0.6-0.8l0,0l0.1,1.3h0.6v-5C157.3,195.1,157,194.5,156.6,194z M156.5,198
		c0,0.8-0.2,1.4-0.7,1.8c-0.4,0.4-1,0.7-1.8,0.7c-0.5,0-0.9-0.1-1.2-0.3s-0.4-0.6-0.4-1.1c0-0.6,0.2-1,0.7-1.3s1.2-0.5,2.1-0.5h1.3
		L156.5,198L156.5,198z"/>
	<path class="st3" d="M160.4,201h-0.8v-10.6h0.8V201z"/>
	<path class="st3" d="M162.9,193.6v7.4h0.8v-7.4H162.9z M163.7,191c-0.1-0.1-0.2-0.2-0.4-0.2s-0.3,0-0.4,0.2
		c-0.1,0.1-0.1,0.2-0.1,0.4s0,0.3,0.1,0.5c0.1,0.1,0.2,0.2,0.4,0.2s0.3,0,0.4-0.2c0.1-0.1,0.1-0.3,0.1-0.5S163.8,191.1,163.7,191z"
		/>
	<path class="st3" d="M174.9,190.4v3c0,0.2,0,0.5,0,0.7c0,0.3,0,0.5,0,0.7h-0.1c-0.1-0.3-0.3-0.5-0.5-0.7s-0.5-0.4-0.8-0.5
		s-0.7-0.2-1.1-0.2c-1,0-1.8,0.3-2.3,1c-0.6,0.7-0.8,1.7-0.8,2.9s0.3,2.2,0.8,2.8s1.3,1,2.3,1c0.4,0,0.8-0.1,1.1-0.2
		c0.3-0.1,0.6-0.3,0.8-0.5s0.4-0.5,0.5-0.7l0,0l0.1,1.3h0.6v-10.6H174.9z M174.9,197.4c0,1-0.2,1.7-0.5,2.3c-0.4,0.5-1,0.8-1.8,0.8
		s-1.4-0.3-1.8-0.8c-0.4-0.5-0.6-1.3-0.6-2.3c0-1.1,0.2-1.9,0.6-2.4c0.4-0.6,1-0.9,1.8-0.9s1.4,0.3,1.8,0.8c0.4,0.5,0.5,1.3,0.5,2.3
		V197.4z"/>
	<path class="st3" d="M184,193.6v7.4h-0.7l-0.1-1.3l0,0c-0.1,0.3-0.3,0.5-0.6,0.7c-0.2,0.2-0.5,0.4-0.8,0.5s-0.7,0.2-1.1,0.2
		c-0.6,0-1.1-0.1-1.5-0.3s-0.7-0.5-0.9-0.9s-0.3-0.9-0.3-1.5v-4.9h0.8v4.8c0,0.7,0.2,1.2,0.5,1.6c0.3,0.3,0.8,0.5,1.4,0.5
		c0.5,0,1-0.1,1.4-0.3s0.6-0.5,0.8-1c0.2-0.4,0.3-0.9,0.3-1.6v-4.1h0.8V193.6z"/>
	<path class="st3" d="M189.5,193.4c0.2,0,0.4,0,0.5,0c0.2,0,0.3,0,0.5,0.1l-0.1,0.7c-0.2,0-0.3-0.1-0.4-0.1c-0.2,0-0.3,0-0.5,0
		c-0.3,0-0.6,0.1-0.9,0.2c-0.3,0.1-0.5,0.3-0.7,0.6s-0.3,0.5-0.4,0.9c-0.1,0.3-0.2,0.7-0.2,1.1v4.1h-0.8v-7.4h0.7l0.1,1.4l0,0
		c0.1-0.3,0.3-0.5,0.5-0.8c0.2-0.2,0.5-0.4,0.8-0.5C188.8,193.5,189.2,193.4,189.5,193.4z"/>
	<path class="st3" d="M196.2,194c-0.4-0.4-1-0.6-1.9-0.6c-0.5,0-0.9,0.1-1.3,0.2s-0.8,0.3-1.2,0.4l0.2,0.6c0.4-0.2,0.7-0.3,1.1-0.4
		c0.4-0.1,0.7-0.2,1.1-0.2c0.6,0,1,0.2,1.3,0.5s0.5,0.8,0.5,1.6v0.5l-1.4,0.1c-1.2,0-2,0.3-2.7,0.7c-0.6,0.4-0.9,0.9-0.9,1.7
		c0,0.4,0.1,0.8,0.3,1.1s0.5,0.6,0.8,0.7c0.3,0.2,0.8,0.2,1.2,0.2c0.5,0,0.9,0,1.2-0.2c0.3-0.1,0.6-0.3,0.8-0.5s0.4-0.5,0.6-0.8l0,0
		l0.1,1.3h0.6v-5C196.8,195.1,196.7,194.5,196.2,194z M196.1,198c0,0.8-0.2,1.4-0.7,1.8c-0.4,0.4-1,0.7-1.8,0.7
		c-0.5,0-0.9-0.1-1.2-0.3s-0.4-0.6-0.4-1.1c0-0.6,0.2-1,0.7-1.3s1.2-0.5,2.1-0.5h1.3L196.1,198L196.1,198z"/>
	<path class="st3" d="M202.6,193.4c0.8,0,1.5,0.2,1.9,0.7c0.4,0.4,0.7,1.1,0.7,2.1v4.9h-0.8v-4.8c0-0.7-0.2-1.2-0.5-1.6
		c-0.3-0.3-0.8-0.5-1.4-0.5c-0.8,0-1.4,0.2-1.8,0.7c-0.4,0.5-0.6,1.2-0.6,2.1v4.1h-0.8v-7.4h0.6l0.1,1.3l0,0
		c0.1-0.3,0.3-0.5,0.6-0.7s0.5-0.4,0.8-0.5C201.8,193.5,202.1,193.4,202.6,193.4z"/>
	<path class="st3" d="M209.7,200.5c0.2,0,0.4,0,0.6,0c0.2,0,0.3-0.1,0.5-0.1v0.6c-0.1,0.1-0.3,0.1-0.5,0.1s-0.4,0.1-0.7,0.1
		c-0.4,0-0.8-0.1-1.1-0.2c-0.3-0.2-0.5-0.4-0.7-0.7c-0.1-0.3-0.2-0.7-0.2-1.3v-4.7h-1.1v-0.4l1.1-0.3l0.3-1.7h0.5v1.8h2.3v0.6h-2.3
		v4.7c0,0.5,0.1,0.9,0.3,1.2C208.9,200.3,209.2,200.5,209.7,200.5z"/>
	<path class="st3" d="M218,196.8c0-0.7-0.1-1.3-0.3-1.8s-0.5-0.9-1-1.2c-0.4-0.3-1-0.4-1.6-0.4c-0.7,0-1.3,0.2-1.8,0.5
		s-0.9,0.8-1.1,1.4c-0.2,0.6-0.4,1.3-0.4,2c0,0.8,0.1,1.4,0.4,2c0.3,0.6,0.7,1,1.2,1.3s1.1,0.5,1.9,0.5c0.5,0,0.9,0,1.3-0.1
		c0.4-0.1,0.7-0.2,1.1-0.4v-0.7c-0.4,0.2-0.8,0.3-1.1,0.4c-0.4,0.1-0.8,0.1-1.2,0.1c-0.8,0-1.5-0.3-2-0.8s-0.7-1.3-0.7-2.3h5.3
		L218,196.8L218,196.8z M212.7,196.7c0.1-0.8,0.3-1.5,0.7-2s1-0.7,1.7-0.7c0.5,0,0.9,0.1,1.2,0.3s0.5,0.5,0.7,0.9s0.2,0.8,0.2,1.4
		h-4.5V196.7z"/>
	<path class="st3" d="M223.7,193.6v7.4h0.8v-7.4H223.7z M224.5,191c-0.1-0.1-0.2-0.2-0.4-0.2s-0.3,0-0.4,0.2
		c-0.1,0.1-0.1,0.2-0.1,0.4s0,0.3,0.1,0.5c0.1,0.1,0.2,0.2,0.4,0.2s0.3,0,0.4-0.2c0.1-0.1,0.1-0.3,0.1-0.5S224.6,191.1,224.5,191z"
		/>
	<path class="st3" d="M227.7,201h-0.8v-10.6h0.8V201z"/>
	<path class="st3" d="M233.6,191l0.2,3.6h0.5l0.2-3.6H233.6z M235.8,191l0.2,3.6h0.5l0.2-3.6H235.8z"/>
	<path class="st3" d="M239.7,195.8c0,0.3,0,0.6,0,0.9c0,0.3,0,0.6,0,1l0,0c0.1-0.1,0.2-0.2,0.3-0.3s0.2-0.2,0.3-0.4
		c0.1-0.1,0.2-0.2,0.3-0.3l2.8-3.1h1l-3,3.2l3.2,4.3h-1l-2.8-3.7l-1.1,1.2v2.6h-0.8v-10.6h0.8V195.8z"/>
	<path class="st3" d="M251.7,195.2c-0.2-0.6-0.6-1-1.1-1.3s-1.1-0.5-1.8-0.5s-1.3,0.1-1.8,0.5c-0.5,0.3-0.9,0.8-1.2,1.3
		c-0.3,0.6-0.4,1.3-0.4,2.1c0,0.6,0.1,1.1,0.2,1.6c0.2,0.5,0.4,0.9,0.7,1.2s0.6,0.6,1,0.8s0.9,0.3,1.4,0.3s1-0.1,1.4-0.3
		s0.8-0.4,1-0.8c0.3-0.3,0.5-0.8,0.6-1.2c0.1-0.5,0.2-1,0.2-1.6C252.1,196.5,251.9,195.8,251.7,195.2z M251,198.9
		c-0.2,0.5-0.5,0.9-0.8,1.1c-0.4,0.3-0.9,0.4-1.4,0.4c-0.6,0-1-0.1-1.4-0.4c-0.4-0.3-0.6-0.6-0.8-1.1s-0.3-1-0.3-1.7
		c0-1,0.2-1.8,0.6-2.3c0.4-0.6,1.1-0.8,1.9-0.8c0.6,0,1.1,0.1,1.4,0.4c0.4,0.3,0.6,0.6,0.8,1.1s0.2,1,0.2,1.7
		C251.2,197.9,251.2,198.5,251,198.9z"/>
	<path class="st3" d="M252.6,193.6h0.9l1.8,4.6c0.1,0.3,0.2,0.5,0.3,0.8s0.2,0.5,0.2,0.7c0.1,0.2,0.1,0.4,0.2,0.5l0,0
		c0.1-0.2,0.2-0.5,0.3-0.8c0.1-0.3,0.2-0.7,0.4-1.1l1.7-4.6h0.9l-3.4,8.8c-0.2,0.4-0.4,0.8-0.6,1.1c-0.2,0.3-0.4,0.5-0.7,0.7
		s-0.6,0.3-1,0.3c-0.2,0-0.3,0-0.5,0c-0.1,0-0.3,0-0.4-0.1v-0.7c0.1,0,0.2,0.1,0.4,0.1c0.1,0,0.3,0,0.4,0c0.3,0,0.5-0.1,0.7-0.2
		c0.2-0.1,0.4-0.3,0.5-0.5s0.3-0.5,0.4-0.8l0.5-1.3L252.6,193.6z"/>
	<path class="st3" d="M266.6,196.8c0-0.6-0.2-1.1-0.4-1.6c-0.2-0.6-0.6-1-1.1-1.3s-1.1-0.5-1.8-0.5c-0.7,0-1.3,0.1-1.8,0.5
		s-0.9,0.8-1.2,1.3c-0.3,0.6-0.4,1.3-0.4,2.1c0,0.6,0.1,1.1,0.2,1.6c0.2,0.5,0.4,0.9,0.7,1.2c0.3,0.3,0.6,0.6,1,0.8s0.9,0.3,1.4,0.3
		s1-0.1,1.4-0.3s0.8-0.4,1-0.8c0.3-0.3,0.5-0.8,0.6-1.2c0-0.1,0.1-0.3,0.1-0.4c0.1-0.4,0.1-0.8,0.1-1.2
		C266.6,197.1,266.6,196.9,266.6,196.8z M265.5,198.9c-0.2,0.5-0.5,0.9-0.8,1.1c-0.4,0.3-0.9,0.4-1.4,0.4c-0.6,0-1-0.1-1.4-0.4
		c-0.4-0.3-0.7-0.6-0.8-1.1c-0.2-0.5-0.3-1-0.3-1.7c0-1,0.2-1.8,0.6-2.3c0.4-0.6,1.1-0.8,1.9-0.8c0.6,0,1.1,0.1,1.4,0.4
		c0.4,0.3,0.6,0.6,0.8,1.1c0.2,0.5,0.2,1,0.2,1.7C265.8,197.9,265.7,198.5,265.5,198.9z"/>
	<path class="st3" d="M268.2,191l0.2,3.6h0.5l0.2-3.6H268.2z M270.5,191l0.2,3.6h0.5l0.2-3.6H270.5z"/>
	<path class="st3" d="M107.1,214.2c-0.2-0.6-0.6-1-1.1-1.3s-1.1-0.5-1.8-0.5c-0.7,0-1.3,0.1-1.8,0.5c-0.5,0.3-0.9,0.8-1.2,1.3
		c-0.3,0.6-0.4,1.3-0.4,2.1c0,0.6,0.1,1.1,0.2,1.6s0.4,0.9,0.7,1.2s0.6,0.6,1,0.8s0.9,0.3,1.4,0.3s1-0.1,1.4-0.3s0.8-0.4,1.1-0.8
		c0.3-0.3,0.5-0.8,0.6-1.2c0.2-0.5,0.2-1,0.2-1.6C107.5,215.5,107.3,214.8,107.1,214.2z M106.4,217.9c-0.2,0.5-0.5,0.9-0.8,1.1
		c-0.4,0.3-0.8,0.4-1.4,0.4s-1-0.1-1.4-0.4c-0.4-0.3-0.6-0.6-0.8-1.1s-0.3-1-0.3-1.7c0-1,0.2-1.8,0.6-2.3s1.1-0.8,1.9-0.8
		c0.6,0,1.1,0.1,1.4,0.4c0.4,0.3,0.6,0.6,0.8,1.1c0.2,0.5,0.3,1,0.3,1.7C106.6,216.9,106.5,217.5,106.4,217.9z"/>
	<path class="st3" d="M112.9,210l0.2,3.6h0.5l0.2-3.6H112.9z M115.2,210l0.2,3.6h0.5l0.2-3.6H115.2z"/>
	<path class="st3" d="M125.6,212.4c0.7,0,1.3,0.2,1.7,0.6c0.4,0.4,0.6,1.1,0.6,2v5h-0.8v-4.9c0-0.7-0.1-1.2-0.4-1.5
		s-0.7-0.5-1.2-0.5c-0.7,0-1.3,0.2-1.7,0.6c-0.4,0.4-0.6,1.1-0.6,1.9v4.4h-0.8v-4.9c0-0.4-0.1-0.8-0.2-1.1s-0.3-0.5-0.6-0.6
		c-0.2-0.1-0.5-0.2-0.9-0.2c-0.5,0-0.9,0.1-1.2,0.3c-0.3,0.2-0.6,0.5-0.8,0.9c-0.2,0.4-0.3,0.9-0.3,1.5v4.2h-0.8v-7.4h0.6l0.1,1.2
		l0,0c0.1-0.3,0.3-0.5,0.5-0.7s0.5-0.4,0.8-0.5s0.6-0.2,1-0.2c0.6,0,1,0.1,1.4,0.3s0.6,0.6,0.8,1.1h0.1c0.2-0.4,0.5-0.8,1-1
		C124.5,212.5,125,212.4,125.6,212.4z"/>
	<path class="st3" d="M136.2,214.2c-0.2-0.6-0.6-1-1.1-1.3s-1.1-0.5-1.8-0.5s-1.3,0.1-1.8,0.5s-0.9,0.8-1.2,1.3
		c-0.3,0.6-0.4,1.3-0.4,2.1c0,0.6,0.1,1.1,0.2,1.6c0.1,0.5,0.4,0.9,0.7,1.2s0.6,0.6,1,0.8s0.9,0.3,1.4,0.3s1-0.1,1.4-0.3
		s0.8-0.4,1-0.8c0.3-0.3,0.5-0.8,0.6-1.2c0.2-0.5,0.2-1,0.2-1.6C136.5,215.5,136.4,214.8,136.2,214.2z M135.4,217.9
		c-0.2,0.5-0.5,0.9-0.8,1.1c-0.4,0.3-0.8,0.4-1.4,0.4c-0.6,0-1-0.1-1.4-0.4c-0.4-0.3-0.7-0.6-0.8-1.1c-0.2-0.5-0.3-1-0.3-1.7
		c0-1,0.2-1.8,0.6-2.3s1.1-0.8,1.9-0.8c0.6,0,1.1,0.1,1.4,0.4c0.4,0.3,0.6,0.6,0.8,1.1s0.2,1,0.2,1.7
		C135.7,216.9,135.6,217.5,135.4,217.9z"/>
	<path class="st3" d="M146.3,212.4c0.7,0,1.3,0.2,1.7,0.6c0.4,0.4,0.6,1.1,0.6,2v5h-0.8v-4.9c0-0.7-0.1-1.2-0.4-1.5
		c-0.3-0.3-0.7-0.5-1.2-0.5c-0.7,0-1.3,0.2-1.7,0.6c-0.4,0.4-0.6,1.1-0.6,1.9v4.4h-0.8v-4.9c0-0.4-0.1-0.8-0.2-1.1
		c-0.1-0.3-0.3-0.5-0.6-0.6c-0.2-0.1-0.5-0.2-0.9-0.2c-0.5,0-0.9,0.1-1.2,0.3s-0.6,0.5-0.8,0.9s-0.3,0.9-0.3,1.5v4.2h-0.8v-7.4h0.6
		l0.1,1.2l0,0c0.1-0.3,0.3-0.5,0.5-0.7s0.5-0.4,0.8-0.5s0.6-0.2,1-0.2c0.6,0,1,0.1,1.4,0.3s0.6,0.6,0.8,1.1h0.1c0.2-0.4,0.5-0.8,1-1
		C145.3,212.5,145.8,212.4,146.3,212.4z"/>
	<path class="st3" d="M151,212.6v7.4h0.8v-7.4H151z M151.8,210C151.8,209.9,151.8,209.9,151.8,210c-0.1-0.1-0.3-0.2-0.4-0.2
		c-0.2,0-0.3,0-0.4,0.2c-0.1,0.1-0.1,0.2-0.1,0.4s0.1,0.3,0.1,0.5c0.1,0.1,0.2,0.2,0.4,0.2s0.3,0,0.4-0.1l0,0
		c0.1-0.1,0.1-0.3,0.1-0.5C152,210.2,151.9,210.1,151.8,210z"/>
	<path class="st3" d="M154.3,212.6v8.8c0,0.2,0,0.4-0.1,0.6c0,0.2-0.1,0.3-0.2,0.4c-0.2,0.2-0.5,0.3-0.8,0.3c-0.2,0-0.3,0-0.4,0
		c-0.2,0-0.3,0-0.4-0.1v0.7c0.1,0,0.3,0.1,0.4,0.1c0.1,0,0.3,0,0.5,0c0.4,0,0.7-0.1,1-0.2c0.3-0.1,0.5-0.4,0.6-0.7
		c0.1-0.1,0.1-0.3,0.2-0.5c0-0.2,0.1-0.4,0.1-0.6v-8.8H154.3z M155.1,210c-0.1-0.1-0.2-0.2-0.4-0.2s-0.3,0-0.4,0.2
		c-0.1,0.1-0.1,0.2-0.1,0.4s0,0.3,0.1,0.5c0.1,0.1,0.2,0.2,0.4,0.2s0.3,0,0.4-0.2c0.1-0.1,0.1-0.3,0.1-0.5
		C155.2,210.2,155.2,210.1,155.1,210z"/>
	<path class="st3" d="M157.6,212.6v7.4h0.8v-7.4H157.6z M158.4,210c-0.1-0.1-0.2-0.2-0.4-0.2s-0.3,0-0.4,0.2
		c-0.1,0.1-0.1,0.2-0.1,0.4s0,0.3,0.1,0.5c0.1,0.1,0.2,0.2,0.4,0.2s0.3,0,0.4-0.2c0.1-0.1,0.1-0.3,0.1-0.5S158.5,210.1,158.4,210z"
		/>
	<path class="st3" d="M160.5,210l0.2,3.6h0.5l0.2-3.6H160.5z M162.8,210l0.2,3.6h0.5l0.2-3.6H162.8z"/>
	<path class="st3" d="M165.8,219.5c0-0.2,0.1-0.4,0.2-0.5c0.1-0.1,0.2-0.2,0.4-0.2s0.4,0.1,0.5,0.2c0.1,0.1,0.2,0.3,0.2,0.5
		s-0.1,0.4-0.2,0.5c-0.1,0.1-0.3,0.2-0.5,0.2s-0.3-0.1-0.4-0.2C165.8,219.9,165.8,219.7,165.8,219.5z"/>
	<path class="st3" d="M31.2,357.6c-0.8-2.5-2.4-5.8-2.4-5.8s4.2,1.5,7.4,2.3c5.6-5.4,4.9-13-1.4-18.2c-7-5.7-23.2-9.7-30.7-4.3
		c-7.5,5.4-3.5,18,3.5,23.8C13.9,360.5,23.8,361.5,31.2,357.6z"/>
</g>
</svg>
