<?xml version="1.0" encoding="utf-8"?>
<!-- Generator: Adobe Illustrator 26.4.1, SVG Export Plug-In . SVG Version: 6.00 Build 0)  -->
<svg version="1.1" id="Livello_1" xmlns="http://www.w3.org/2000/svg" xmlns:xlink="http://www.w3.org/1999/xlink" x="0px" y="0px"
	 viewBox="0 0 541 485" style="enable-background:new 0 0 541 485;" xml:space="preserve">
<style type="text/css">
	.st0{fill:#E2E2E2;}
	.st1{fill:#E2DAD9;}
	.st2{fill:#1D1D1D;}
</style>
<g>
	<rect x="79" y="0" class="st0" width="462" height="399"/>
	<g>
		<path class="st1" d="M283.4,317.2c16.4-29.6,24-74.4,24.4-114.4l-41.2-6c0,0.5-0.1,1.1-0.1,1.6c-2.1,36.5-10.1,79.1-24.3,102.8
			L283.4,317.2z"/>
		<path class="st1" d="M457.8,207.6l-47.2-10.8c-7.6,33-22.6,77.5-36.2,106c-2.6-11.2-4.9-22.8-6.8-34.7
			c4.2-47.5,4.4-100.4,4.6-158.4h-44.4c-0.3,127.2,2.5,223.7-44.6,289.4h53c5.3-10.8,9.8-22.2,13.6-34.1c4.1,12,8.6,23.4,13.7,34.1
			h50.4c-18.2-26.2-30.6-58.9-39.3-95.7l40.1,11.1C428.2,287.2,444.2,245.6,457.8,207.6z"/>
		<path class="st1" d="M198.6,271.2V266h49.6v-44h-49.6v-58c1.3-0.3,2.6-0.6,3.9-0.9l0,0c1-0.3,2.1-0.5,3.1-0.8
			c1.9-0.5,3.8-0.9,5.7-1.4c0.3-0.1,0.5-0.1,0.8-0.2c2-0.5,4.1-1.1,6.1-1.6c0.3-0.1,0.5-0.1,0.8-0.2c1.5-0.4,2.9-0.8,4.3-1.2
			c0.2-0.1,0.5-0.1,0.8-0.2c0.9-0.2,1.8-0.5,2.8-0.8c1.2-0.3,2.4-0.7,3.6-1c7.2-2.2,14.2-4.4,20.9-6.8l-3.8-4.7l-0.7-0.9l-2.1-2.7
			l-0.9-1.1l-1.8-2.2l-0.6-0.8l-9.1-11.4l-0.5-0.6l-2.4-3.1l-0.5-0.7l-0.1-0.2l-0.6-0.8l-7.2-9c-5.6,2.3-11.7,4.5-18.2,6.6l0,0
			c-0.2,0.1-0.5,0.2-0.8,0.2l0,0c-0.4,0.1-0.8,0.2-1.2,0.4c-0.2,0.1-0.5,0.2-0.7,0.2c-0.8,0.3-1.6,0.5-2.5,0.8
			c-0.2,0.1-0.5,0.2-0.8,0.2c-2.2,0.7-4.5,1.4-6.7,2.1c-0.3,0.1-0.5,0.2-0.8,0.2c-0.7,0.2-1.4,0.4-2.1,0.6c-0.3,0.1-0.6,0.2-0.9,0.3
			c-1.4,0.4-2.7,0.8-4.1,1.2c-0.3,0.1-0.5,0.1-0.8,0.2c-0.7,0.2-1.4,0.4-2.1,0.6c-0.7,0.2-1.4,0.4-2.1,0.6l0,0
			c-15.6,4.2-32.4,8.2-49.5,11.6c-0.3,0-0.5,0.1-0.8,0.2c-1.5,0.3-2.9,0.6-4.4,0.9c-0.3,0.1-0.5,0.1-0.8,0.2
			c-1.3,0.2-2.5,0.5-3.8,0.7c-0.3,0.1-0.5,0.1-0.8,0.2c-0.8,0.2-1.7,0.3-2.5,0.5c-0.3,0-0.5,0.1-0.8,0.2c-1.5,0.3-2.9,0.5-4.4,0.8
			c-0.3,0-0.5,0.1-0.8,0.1c-0.8,0.1-1.5,0.3-2.3,0.4c-0.3,0-0.5,0.1-0.8,0.1c-1.4,0.2-2.7,0.5-4.1,0.7c-0.3,0-0.6,0.1-0.8,0.1
			c-4.3,0.8-8.6,1.5-12.9,2.1c4.8,9.2,10.5,23.7,13,34.1c0.2,0.9,0.4,1.8,0.6,2.7l0,0c0,0,0,0,0,0.1l0,0c0.3,0,0.6-0.1,0.9-0.1
			c1.8-0.2,3.6-0.4,5.4-0.7c0.3,0,0.5-0.1,0.8-0.1c1.5-0.2,3.1-0.4,4.7-0.6c0.3,0,0.6-0.1,0.8-0.1c0.7-0.1,1.4-0.2,2.1-0.3
			c0.3,0,0.5-0.1,0.8-0.1c0.7-0.1,1.3-0.2,2-0.3c0.3,0,0.5-0.1,0.8-0.1c1.7-0.2,3.3-0.5,5-0.7c0.3,0,0.5-0.1,0.8-0.1
			c0.7-0.1,1.4-0.2,2.1-0.3c0.3,0,0.6-0.1,0.9-0.1c2.8-0.4,5.6-0.8,8.5-1.3c0.3,0,0.5-0.1,0.8-0.1c0.9-0.1,1.7-0.3,2.6-0.4
			c0.2,0,0.5-0.1,0.7-0.1s0.5-0.1,0.7-0.1c1-0.2,2-0.3,3.1-0.5c2.3-0.4,4.6-0.8,6.9-1.2V222H88.6v44h53.3
			c-15.2,39-39.2,82.1-62.9,108.4c3.9,6.6,8.9,15.6,13.4,24.6h27c11.6-18.5,22.6-40.4,32.3-63.3V399h46.8v-75.9
			c9.7,15.6,19.5,32.2,24.8,43.3l26.4-39.2C242.6,318,208.2,280.4,198.6,271.2z"/>
	</g>
	<path class="st2" d="M31.2,357.6c-0.8-2.5-2.4-5.8-2.4-5.8s4.2,1.5,7.4,2.3c5.6-5.4,4.9-13-1.4-18.2c-7-5.7-23.2-9.7-30.7-4.3
		c-7.5,5.4-3.5,18,3.5,23.8C13.9,360.5,23.8,361.5,31.2,357.6z"/>
</g>
</svg>
