<?xml version="1.0" encoding="UTF-8"?>
<svg id="Livello_1" data-name="Livello 1" xmlns="http://www.w3.org/2000/svg" viewBox="0 0 410.09 382">
  <defs>
    <style>
      .cls-1 {
        fill: #c9363f;
      }

      .cls-2 {
        fill: #1d1d1d;
        stroke-width: .37px;
      }

      .cls-2, .cls-3 {
        stroke: #000;
      }

      .cls-3 {
        fill: none;
        stroke-width: 1.86px;
      }
    </style>
  </defs>
  <circle class="cls-1" cx="219.09" cy="191" r="191"/>
  <path class="cls-2" d="M84.03,369.39c0-4.38-3.54-7.91-7.96-7.91s-7.96,3.54-7.96,7.91,3.59,7.96,7.96,7.96,7.96-3.54,7.96-7.96Zm-3.83,0c0,2.3-1.84,4.13-4.13,4.13s-4.13-1.84-4.13-4.13,1.88-4.09,4.13-4.09,4.13,1.84,4.13,4.09Z"/>
  <g>
    <path class="cls-3" d="M12.05,221.59c-1.22-.69-2.63-1.04-4.07-1.02-1.44,.02-2.83,.42-4.03,1.14s-2.13,1.74-2.69,2.93l1.37,.53c.45-.95,1.2-1.77,2.15-2.35,.95-.58,2.07-.9,3.22-.91s2.28,.26,3.25,.81c.97,.55,1.75,1.34,2.24,2.28l1.35-.57c-.61-1.17-1.58-2.16-2.8-2.85Z"/>
    <path class="cls-3" d="M307.31,220.71c-1.22-.69-2.63-1.04-4.07-1.02-1.44,.02-2.83,.42-4.02,1.14-1.19,.72-2.12,1.74-2.69,2.93h0c-.46,.95-1.21,1.77-2.17,2.34-.98,.59-2.14,.9-3.31,.89-1.18,0-2.33-.33-3.3-.92-.98-.59-1.73-1.44-2.18-2.42l-.1,.04,.09-.04c-.61-1.17-1.58-2.16-2.8-2.85-1.22-.69-2.63-1.04-4.07-1.02-1.44,.02-2.83,.42-4.03,1.14-1.19,.72-2.12,1.74-2.69,2.93h0c-.46,.95-1.21,1.77-2.17,2.34-.98,.59-2.14,.9-3.31,.89-1.18,0-2.33-.33-3.3-.92-.98-.59-1.73-1.44-2.18-2.42h0c-.59-1.18-1.54-2.19-2.75-2.9-1.22-.71-2.63-1.08-4.08-1.07-1.45,0-2.86,.4-4.07,1.12-1.21,.72-2.16,1.74-2.73,2.94h0c-.46,.96-1.22,1.78-2.18,2.36-.98,.59-2.14,.9-3.31,.89-1.18,0-2.33-.33-3.3-.92-.98-.59-1.73-1.44-2.18-2.42l-.13,.05,.12-.05c-.61-1.17-1.58-2.16-2.8-2.85-1.22-.69-2.63-1.04-4.07-1.02-1.44,.02-2.83,.42-4.03,1.14-1.19,.72-2.13,1.74-2.69,2.93h0c-.46,.95-1.21,1.77-2.17,2.34-.98,.59-2.13,.9-3.31,.89-1.18,0-2.33-.33-3.3-.92-.97-.59-1.73-1.44-2.18-2.42l-.06,.02c-.61-1.16-1.58-2.14-2.78-2.82-1.22-.69-2.63-1.04-4.07-1.02-1.44,.02-2.83,.42-4.02,1.14-1.19,.72-2.13,1.74-2.69,2.93h0c-.46,.95-1.21,1.77-2.17,2.34-.98,.59-2.14,.9-3.31,.89-1.18,0-2.33-.33-3.3-.92-.98-.59-1.74-1.44-2.18-2.42l-.1,.04,.09-.04c-.61-1.17-1.58-2.16-2.8-2.85-1.22-.69-2.63-1.04-4.07-1.02-1.44,.02-2.83,.42-4.02,1.14-1.19,.72-2.12,1.74-2.69,2.93h0c-.46,.95-1.21,1.77-2.18,2.34-.98,.59-2.14,.9-3.31,.89-1.18,0-2.33-.33-3.3-.92-.98-.59-1.73-1.44-2.18-2.42h0c-.59-1.18-1.54-2.19-2.75-2.9-1.22-.71-2.63-1.08-4.08-1.07-1.45,0-2.86,.4-4.07,1.12-1.21,.72-2.15,1.74-2.73,2.94h0c-.46,.96-1.22,1.78-2.18,2.36-.98,.59-2.14,.9-3.31,.89-1.18,0-2.33-.33-3.3-.92-.98-.59-1.73-1.44-2.18-2.42l-.11,.04,.11-.04c-.61-1.17-1.58-2.16-2.8-2.85-1.22-.69-2.63-1.04-4.07-1.02-1.43,.02-2.83,.42-4.03,1.14-1.19,.72-2.12,1.74-2.69,2.93h0c-.46,.95-1.21,1.77-2.18,2.34-.98,.59-2.14,.9-3.31,.89-1.18,0-2.33-.33-3.3-.92s-1.73-1.44-2.18-2.42l-.06,.02c-.61-1.16-1.58-2.14-2.78-2.82-1.22-.69-2.63-1.04-4.07-1.02-1.44,.02-2.83,.42-4.03,1.14-1.19,.72-2.12,1.74-2.69,2.93h0c-.46,.95-1.21,1.77-2.17,2.34-.98,.59-2.14,.9-3.31,.89-1.18,0-2.33-.33-3.3-.92-.98-.59-1.73-1.44-2.18-2.42l-.1,.04,.09-.04c-.61-1.17-1.58-2.16-2.8-2.85-1.22-.69-2.63-1.04-4.07-1.02-1.44,.02-2.83,.42-4.03,1.14-1.19,.72-2.13,1.74-2.69,2.93h0c-.46,.95-1.21,1.77-2.17,2.34-.98,.59-2.14,.9-3.31,.89-1.18,0-2.33-.33-3.3-.92-.98-.59-1.73-1.44-2.18-2.42h0c-.59-1.18-1.54-2.19-2.75-2.9-1.22-.71-2.63-1.08-4.08-1.07-1.45,0-2.86,.4-4.07,1.12-1.21,.72-2.15,1.74-2.73,2.94h0c-.46,.96-1.22,1.78-2.18,2.36-.98,.59-2.14,.9-3.31,.89-1.18,0-2.33-.33-3.3-.92-.98-.59-1.73-1.44-2.18-2.42l-.12,.04,.11-.05c-.61-1.17-1.58-2.16-2.8-2.85-1.22-.69-2.63-1.04-4.07-1.02-1.44,.02-2.83,.42-4.03,1.14-1.19,.72-2.13,1.74-2.69,2.93h0c-.46,.95-1.21,1.77-2.17,2.34-.98,.59-2.14,.9-3.31,.89-1.18,0-2.33-.33-3.3-.92-.98-.59-1.73-1.44-2.18-2.42l-1.38,.51c.56,1.23,1.5,2.28,2.72,3.03,1.22,.74,2.66,1.14,4.13,1.15,1.47,0,2.91-.38,4.14-1.11,1.23-.73,2.19-1.78,2.76-3h0c.45-.93,1.18-1.72,2.12-2.28,.95-.58,2.07-.9,3.22-.91s2.28,.26,3.25,.81c.97,.55,1.75,1.34,2.24,2.28h0c.56,1.2,1.49,2.23,2.69,2.97,1.22,.74,2.66,1.14,4.13,1.15,1.47,0,2.91-.38,4.14-1.11,1.23-.73,2.19-1.78,2.76-3h0c.46-.94,1.2-1.74,2.15-2.3,.97-.58,2.1-.89,3.25-.89,1.16,0,2.29,.29,3.26,.86,.97,.57,1.74,1.38,2.21,2.33h.01c.56,1.2,1.49,2.24,2.7,2.97,1.22,.74,2.66,1.14,4.13,1.15,1.47,0,2.91-.38,4.14-1.11,1.23-.73,2.19-1.78,2.76-3h0c.45-.92,1.18-1.72,2.12-2.28,.95-.58,2.07-.9,3.22-.91,1.15-.02,2.28,.26,3.25,.81,.97,.55,1.75,1.34,2.24,2.28h0c.56,1.2,1.49,2.23,2.69,2.96,1.22,.74,2.66,1.14,4.13,1.15,1.47,0,2.91-.38,4.14-1.11,1.23-.73,2.19-1.78,2.76-3h0c.45-.93,1.18-1.72,2.11-2.28,.95-.58,2.07-.9,3.22-.91,1.15-.02,2.28,.26,3.25,.81,.97,.55,1.75,1.34,2.24,2.28l.06-.02c.56,1.19,1.49,2.21,2.68,2.94,1.22,.74,2.66,1.14,4.13,1.15,1.47,0,2.91-.38,4.14-1.11,1.23-.73,2.19-1.78,2.76-3h0c.45-.92,1.18-1.72,2.12-2.28,.95-.58,2.07-.9,3.22-.91,1.15-.02,2.28,.26,3.25,.81,.98,.55,1.75,1.34,2.24,2.28h0c.56,1.2,1.49,2.23,2.69,2.97,1.22,.74,2.66,1.14,4.13,1.15,1.47,0,2.91-.38,4.14-1.11,1.23-.73,2.19-1.78,2.76-3h0c.46-.94,1.2-1.74,2.15-2.3,.97-.58,2.1-.89,3.25-.89,1.16,0,2.29,.29,3.27,.86,.97,.57,1.74,1.38,2.21,2.33h.01c.56,1.2,1.49,2.24,2.7,2.97,1.22,.74,2.66,1.14,4.13,1.15,1.47,0,2.91-.38,4.14-1.11,1.23-.73,2.19-1.78,2.76-3h0c.45-.92,1.18-1.72,2.12-2.28,.95-.58,2.07-.9,3.22-.91,1.15-.02,2.28,.26,3.25,.81,.97,.55,1.75,1.34,2.24,2.28h0c.56,1.2,1.49,2.23,2.69,2.96,1.22,.74,2.66,1.14,4.13,1.15,1.47,0,2.91-.38,4.14-1.11,1.23-.73,2.19-1.78,2.76-3h0c.45-.93,1.18-1.72,2.12-2.28,.95-.58,2.07-.9,3.22-.91s2.28,.26,3.25,.81c.98,.55,1.75,1.34,2.24,2.28l.06-.02c.56,1.19,1.49,2.21,2.68,2.94,1.22,.74,2.66,1.14,4.13,1.15,1.47,0,2.91-.38,4.14-1.11,1.23-.73,2.19-1.78,2.76-3h0c.45-.93,1.18-1.72,2.11-2.28,.95-.58,2.07-.9,3.22-.91,1.15-.02,2.28,.26,3.25,.81,.97,.55,1.75,1.34,2.24,2.28h.01c.56,1.2,1.49,2.23,2.69,2.97,1.22,.74,2.66,1.14,4.13,1.15,1.47,0,2.91-.38,4.14-1.11s2.19-1.78,2.76-3h0c.46-.94,1.2-1.74,2.15-2.3,.97-.58,2.1-.89,3.25-.89,1.16,0,2.29,.29,3.27,.86,.97,.57,1.74,1.38,2.21,2.33h.01c.56,1.2,1.49,2.24,2.7,2.97,1.22,.74,2.66,1.14,4.13,1.15,1.47,0,2.91-.38,4.14-1.11,1.23-.73,2.19-1.78,2.76-3h0c.45-.93,1.18-1.72,2.11-2.28,.95-.58,2.07-.9,3.22-.91,1.15-.02,2.28,.26,3.25,.81,.97,.55,1.75,1.34,2.24,2.28h0c.56,1.2,1.49,2.23,2.69,2.96,1.22,.74,2.66,1.14,4.13,1.15s2.91-.38,4.14-1.11c1.23-.73,2.19-1.78,2.76-3h0c.45-.93,1.18-1.72,2.12-2.28,.95-.58,2.07-.9,3.22-.91,1.15-.02,2.28,.26,3.25,.81,.97,.55,1.75,1.34,2.24,2.28l1.35-.57c-.61-1.17-1.58-2.16-2.8-2.85Z"/>
  </g>
</svg>