<?xml version="1.0" encoding="utf-8"?>
<!-- Generator: Adobe Illustrator 26.4.1, SVG Export Plug-In . SVG Version: 6.00 Build 0)  -->
<svg version="1.1" id="Livello_1" xmlns="http://www.w3.org/2000/svg" xmlns:xlink="http://www.w3.org/1999/xlink" x="0px" y="0px"
	 viewBox="0 0 479.8 537.2" style="enable-background:new 0 0 479.8 537.2;" xml:space="preserve">
<style type="text/css">
	.st0{fill:#FFFFFF;}
	.st1{fill:#F4F4F4;}
	.st2{fill:none;stroke:#C9363F;stroke-width:8;}
	.st3{fill:#C9363F;}
	.st4{fill:#1D1D1D;}
</style>
<g>
	<rect x="17.8" y="4" class="st0" width="458" height="391"/>
	<path class="st1" d="M86.1,456.3c-5,0-9.6,1.3-13.2,3.5c9-1,18-2.2,26.9-3.5H86.1z M313.2,456.3c1.4,0.2,2.7,0.4,4.1,0.6v-0.6
		H313.2z M122.5,193.6c0,0.5,0.1,1,0.2,1.3v-1.3H122.5z M384.7,141.8V103H41.1v38.8h141.8c-0.8,5.1-1.7,10.4-2.7,15.6H76.3v154.4
		h64.1c-24.1,21-61.3,40.1-112.9,53.6c8.1,6,19,19.1,25.6,29.6h14c20.2-7.2,38.3-15.2,54.6-23.9c8.2,8.7,17.1,16.6,26.7,23.9h134.8
		c21.1-14.3,39.1-31.5,53-52l-30-18.8l-8.4,2.4H183.6c4.9-4.8,9.6-9.7,14.1-14.8h153V157.4H229.4c2-4.9,4-10.1,6-15.6L384.7,141.8
		L384.7,141.8z M263.5,359c-13.6,11-30.1,20.4-48.6,28.4c-19-7.9-35.4-17.3-48.8-28.4H263.5z M302.3,284.6H122.7V269h179.6V284.6z
		 M302.3,241.8H122.7v-15.2h179.6V241.8z M302.3,184.2v15.2H122.7v-15.2H302.3z M122.5,193.6c0,0.5,0.1,1,0.2,1.3v-1.3H122.5z"/>
	<rect x="17.8" y="4" class="st2" width="458" height="391"/>
	<path class="st3" d="M42.1,120.5v-9.3h-0.8v10h5.5v-0.7H42.1z M47,111.2l0.2,3.6h0.5l0.2-3.6H47z M54.9,117c0-0.7-0.1-1.3-0.3-1.8
		s-0.5-0.9-1-1.2c-0.4-0.3-1-0.5-1.6-0.5c-0.7,0-1.3,0.2-1.8,0.5s-0.9,0.8-1.1,1.4c-0.2,0.6-0.4,1.3-0.4,2c0,0.8,0.1,1.4,0.4,2
		c0.3,0.6,0.7,1,1.2,1.3s1.2,0.5,1.9,0.5c0.5,0,0.9,0,1.3-0.1c0.4-0.1,0.7-0.2,1.1-0.4V120c-0.4,0.2-0.8,0.3-1.1,0.4
		s-0.8,0.1-1.2,0.1c-0.9,0-1.5-0.3-2-0.8s-0.7-1.3-0.7-2.3h5.3C54.9,117.4,54.9,117,54.9,117z M49.6,116.9c0.1-0.9,0.3-1.5,0.7-2
		s1-0.7,1.7-0.7c0.5,0,0.9,0.1,1.2,0.3c0.3,0.2,0.5,0.5,0.7,0.9c0.1,0.4,0.2,0.8,0.2,1.4L49.6,116.9L49.6,116.9z M61.2,118.2
		c-0.2-0.3-0.5-0.5-0.8-0.7c-0.4-0.2-0.8-0.3-1.2-0.5s-0.8-0.3-1.1-0.4s-0.5-0.3-0.7-0.4c-0.2-0.2-0.2-0.4-0.2-0.7
		c0-0.4,0.2-0.7,0.5-0.9c0.3-0.2,0.8-0.3,1.4-0.3c0.2,0,0.5,0,0.7,0s0.5,0.1,0.7,0.2s0.4,0.1,0.6,0.2l0.3-0.7
		c-0.3-0.1-0.7-0.3-1.1-0.3c-0.4-0.1-0.8-0.1-1.2-0.1c-0.8,0-1.5,0.2-2,0.5s-0.7,0.8-0.7,1.4c0,0.4,0.1,0.8,0.3,1
		c0.2,0.3,0.5,0.5,0.8,0.6c0.4,0.2,0.8,0.3,1.2,0.5c0.5,0.2,0.8,0.3,1.1,0.5c0.3,0.1,0.5,0.3,0.7,0.5s0.2,0.4,0.2,0.7
		c0,0.4-0.2,0.8-0.5,1s-0.9,0.4-1.6,0.4c-0.4,0-0.8,0-1.3-0.2c-0.4-0.1-0.8-0.3-1.1-0.4v0.8c0.3,0.1,0.6,0.2,1,0.3
		c0.4,0.1,0.9,0.1,1.4,0.1c0.6,0,1.1-0.1,1.6-0.2c0.4-0.2,0.8-0.4,1-0.7c0.2-0.3,0.3-0.7,0.3-1.1C61.5,118.8,61.5,118.4,61.2,118.2z
		 M66.1,120.6c-0.2,0-0.4,0-0.6,0c-0.4,0-0.8-0.1-1-0.4s-0.3-0.7-0.3-1.2v-4.7h2.3v-0.7h-2.3V112h-0.5l-0.3,1.7l-1.1,0.2v0.5h1.1
		v4.7c0,0.5,0.1,0.9,0.2,1.3c0.2,0.3,0.4,0.6,0.7,0.7c0.3,0.1,0.6,0.2,1,0.2c0.2,0,0.5,0,0.7,0s0.4-0.1,0.5-0.1v-0.7
		C66.5,120.5,66.3,120.6,66.1,120.6z M72.7,114.2c-0.4-0.4-1-0.6-1.9-0.6c-0.5,0-0.9,0.1-1.3,0.2s-0.8,0.2-1.1,0.4l0.2,0.6
		c0.3-0.2,0.7-0.3,1-0.4c0.4-0.1,0.7-0.1,1.1-0.1c0.6,0,1,0.1,1.3,0.5c0.3,0.3,0.4,0.8,0.4,1.6v0.5H71c-1.2,0.1-2,0.3-2.6,0.7
		c-0.6,0.4-0.9,0.9-0.9,1.7c0,0.4,0.1,0.8,0.3,1.1s0.5,0.5,0.8,0.7s0.8,0.2,1.2,0.2c0.5,0,0.9,0,1.2-0.2c0.3-0.1,0.6-0.3,0.8-0.5
		c0.2-0.2,0.4-0.5,0.6-0.7l0,0l0.1,1.3h0.6v-5C73.3,115.3,73.1,114.6,72.7,114.2z M72.5,118.2c0,0.8-0.2,1.4-0.7,1.8
		c-0.4,0.4-1,0.7-1.8,0.7c-0.5,0-0.9-0.1-1.2-0.4c-0.3-0.2-0.4-0.6-0.4-1c0-0.6,0.2-1,0.7-1.3s1.2-0.5,2.1-0.5l1.3-0.1V118.2z
		 M78.4,120.6c-0.2,0-0.4,0-0.6,0c-0.4,0-0.8-0.1-0.9-0.4c-0.2-0.3-0.3-0.7-0.3-1.2v-4.7h2.3v-0.7h-2.3V112H76l-0.3,1.7l-1.1,0.2
		v0.5h1.1v4.7c0,0.5,0.1,0.9,0.2,1.3c0.2,0.3,0.4,0.6,0.7,0.7c0.3,0.1,0.6,0.2,1,0.2c0.2,0,0.5,0,0.7,0s0.4-0.1,0.5-0.1v-0.7
		C78.7,120.5,78.6,120.6,78.4,120.6z M86.2,117c0-0.7-0.1-1.3-0.3-1.8c-0.2-0.5-0.5-0.9-1-1.2c-0.4-0.3-1-0.5-1.6-0.5
		c-0.7,0-1.3,0.2-1.8,0.5s-0.9,0.8-1.1,1.4s-0.4,1.3-0.4,2c0,0.8,0.1,1.4,0.4,2s0.7,1,1.2,1.3s1.2,0.5,1.9,0.5c0.5,0,0.9,0,1.3-0.1
		s0.7-0.2,1.1-0.4V120c-0.4,0.2-0.8,0.3-1.1,0.4c-0.3,0.1-0.8,0.1-1.2,0.1c-0.8,0-1.5-0.3-2-0.8s-0.7-1.3-0.7-2.3h5.3
		C86.2,117.4,86.2,117,86.2,117z M80.8,116.9c0.1-0.9,0.3-1.5,0.8-2c0.4-0.5,1-0.7,1.7-0.7c0.5,0,0.9,0.1,1.2,0.3
		c0.3,0.2,0.5,0.5,0.7,0.9s0.2,0.8,0.2,1.4L80.8,116.9L80.8,116.9z M91.8,113.7v7.5h0.8v-7.5H91.8z M92.6,111.2
		c-0.1-0.1-0.2-0.2-0.4-0.2c-0.2,0-0.3,0.1-0.4,0.2s-0.1,0.2-0.1,0.4s0,0.3,0.1,0.5c0.1,0.1,0.2,0.1,0.4,0.1c0.2,0,0.3,0,0.4-0.1
		s0.1-0.3,0.1-0.5S92.7,111.3,92.6,111.2z M100.3,114.3c-0.5-0.4-1.1-0.7-1.9-0.7c-0.4,0-0.8,0.1-1.1,0.2c-0.3,0.1-0.6,0.3-0.8,0.5
		c-0.2,0.2-0.4,0.5-0.6,0.7l0,0l-0.1-1.3h-0.6v7.5H96v-4.1c0-0.9,0.2-1.6,0.6-2.1s1-0.7,1.8-0.7c0.6,0,1.1,0.2,1.4,0.5
		s0.5,0.9,0.5,1.6v4.8h0.8v-4.9C101,115.4,100.8,114.7,100.3,114.3z M45.3,135.1v0.7h2.8v3.4c-0.2,0.1-0.4,0.1-0.7,0.2
		c-0.2,0-0.5,0.1-0.8,0.1s-0.6,0-0.9,0c-0.9,0-1.7-0.2-2.3-0.5s-1.1-0.8-1.4-1.5c-0.3-0.6-0.5-1.5-0.5-2.4s0.2-1.7,0.5-2.3
		c0.3-0.7,0.8-1.2,1.5-1.5c0.6-0.4,1.4-0.6,2.3-0.6c0.5,0,0.9,0,1.4,0.2c0.5,0.1,0.9,0.2,1.3,0.4l0.3-0.7c-0.4-0.2-0.9-0.3-1.4-0.4
		c-0.5-0.1-1-0.2-1.6-0.2c-1.1,0-2,0.2-2.7,0.7c-0.8,0.4-1.3,1-1.8,1.8c-0.1,0.2-0.2,0.5-0.3,0.7c-0.2,0.6-0.3,1.2-0.3,2
		s0.1,1.5,0.3,2.2c0.1,0.2,0.1,0.4,0.2,0.6c0.4,0.8,0.9,1.3,1.6,1.8c0.7,0.4,1.6,0.6,2.7,0.6c0.6,0,1.2,0,1.8-0.1
		c0.5-0.1,1.1-0.2,1.5-0.5v-4.6L45.3,135.1L45.3,135.1z M51.3,132.7v7.5H52v-7.5H51.3z M52.1,130.2c-0.1-0.1-0.2-0.2-0.4-0.2
		s-0.3,0.1-0.4,0.2c-0.1,0.1-0.1,0.2-0.1,0.4s0,0.3,0.1,0.5c0.1,0.1,0.2,0.1,0.4,0.1s0.3,0,0.4-0.1c0.1-0.1,0.1-0.3,0.1-0.5
		S52.2,130.3,52.1,130.2z M59,133.2c-0.4-0.4-1-0.6-1.9-0.6c-0.4,0-0.9,0.1-1.3,0.2c-0.4,0.1-0.8,0.2-1.2,0.4l0.3,0.6
		c0.3-0.2,0.7-0.3,1-0.4c0.3-0.1,0.7-0.1,1.1-0.1c0.6,0,1,0.1,1.3,0.5c0.3,0.3,0.4,0.8,0.4,1.6v0.5h-1.4c-1.1,0.1-2,0.3-2.6,0.7
		s-0.9,0.9-0.9,1.7c0,0.4,0.1,0.8,0.3,1.1s0.5,0.5,0.8,0.7s0.8,0.2,1.2,0.2c0.5,0,0.9,0,1.2-0.2c0.3-0.1,0.6-0.3,0.8-0.5
		s0.4-0.5,0.6-0.7l0,0l0.1,1.3h0.6v-5C59.6,134.3,59.4,133.6,59,133.2z M58.8,137.2c0,0.8-0.2,1.4-0.7,1.8c-0.4,0.4-1,0.7-1.8,0.7
		c-0.5,0-0.9-0.1-1.2-0.4c-0.3-0.2-0.4-0.6-0.4-1c0-0.6,0.2-1,0.7-1.3s1.2-0.5,2.1-0.5l1.3-0.1C58.8,136.4,58.8,137.2,58.8,137.2z
		 M67.6,133.6c-0.5-0.6-1.3-1-2.2-1c-0.5,0-0.8,0.1-1.2,0.2c-0.3,0.1-0.6,0.3-0.8,0.6c-0.2,0.2-0.4,0.5-0.5,0.8l0,0l-0.1-1.4H62
		v10.8h0.8v-3.1c0-0.2,0-0.5,0-0.8s0-0.5,0-0.8h0.1c0.1,0.3,0.3,0.5,0.5,0.7s0.5,0.4,0.8,0.5c0.3,0.1,0.7,0.2,1.1,0.2
		c0.6,0,1.2-0.2,1.7-0.5s0.8-0.7,1.1-1.3c0.2-0.6,0.4-1.3,0.4-2.1C68.4,135.2,68.1,134.2,67.6,133.6z M67.3,138.2
		c-0.2,0.5-0.4,0.8-0.8,1.1c-0.3,0.2-0.8,0.4-1.3,0.4s-1-0.1-1.3-0.3s-0.6-0.6-0.8-1.1s-0.2-1.1-0.2-1.8v-0.1c0-0.7,0.1-1.2,0.3-1.7
		s0.4-0.8,0.8-1s0.8-0.3,1.4-0.3c0.8,0,1.4,0.3,1.8,0.8s0.6,1.3,0.6,2.3C67.6,137.1,67.5,137.7,67.3,138.2z M76,133.6
		c-0.5-0.6-1.3-1-2.2-1c-0.5,0-0.8,0.1-1.2,0.2c-0.3,0.1-0.6,0.3-0.8,0.6c-0.2,0.2-0.4,0.5-0.5,0.8l0,0l-0.1-1.4h-0.7v10.8h0.8v-3.1
		c0-0.2,0-0.5,0-0.8s0-0.5,0-0.8h0.1c0.1,0.3,0.3,0.5,0.5,0.7s0.5,0.4,0.8,0.5s0.7,0.2,1.1,0.2c0.7,0,1.2-0.2,1.7-0.5
		s0.8-0.7,1.1-1.3c0.2-0.6,0.4-1.3,0.4-2.1C76.8,135.2,76.5,134.2,76,133.6z M75.7,138.2c-0.2,0.5-0.4,0.8-0.8,1.1
		c-0.3,0.2-0.8,0.4-1.3,0.4s-1-0.1-1.3-0.3s-0.6-0.6-0.8-1.1c-0.2-0.5-0.2-1.1-0.2-1.8v-0.1c0-0.7,0.1-1.2,0.3-1.7
		c0.2-0.5,0.4-0.8,0.8-1s0.8-0.3,1.4-0.3c0.8,0,1.4,0.3,1.8,0.8s0.6,1.3,0.6,2.3C75.9,137.1,75.8,137.7,75.7,138.2z M84.6,134.4
		c-0.2-0.6-0.6-1-1.1-1.3s-1.1-0.5-1.8-0.5c-0.7,0-1.3,0.2-1.8,0.5s-0.9,0.8-1.2,1.3c-0.3,0.6-0.4,1.3-0.4,2.1
		c0,0.6,0.1,1.1,0.2,1.6s0.4,0.9,0.7,1.2c0.3,0.3,0.6,0.6,1,0.8s0.9,0.3,1.4,0.3s1-0.1,1.4-0.3s0.8-0.5,1-0.8
		c0.3-0.3,0.5-0.8,0.6-1.2c0.2-0.5,0.2-1,0.2-1.6C85,135.7,84.9,135,84.6,134.4z M83.9,138.1c-0.2,0.5-0.5,0.9-0.8,1.1
		c-0.4,0.3-0.9,0.4-1.4,0.4c-0.6,0-1-0.1-1.4-0.4c-0.4-0.3-0.6-0.6-0.8-1.1c-0.2-0.5-0.3-1-0.3-1.7c0-1,0.2-1.8,0.6-2.3
		s1.1-0.8,1.9-0.8c0.6,0,1.1,0.1,1.4,0.4c0.4,0.3,0.6,0.6,0.8,1.1c0.2,0.5,0.2,1,0.2,1.7C84.2,137.1,84.1,137.7,83.9,138.1z
		 M92.3,133.3c-0.5-0.4-1.1-0.7-2-0.7c-0.4,0-0.8,0.1-1.1,0.2c-0.3,0.1-0.6,0.3-0.8,0.5c-0.2,0.2-0.4,0.5-0.6,0.7h-0.1l-0.1-1.3H87
		v7.5h0.8v-4.1c0-0.9,0.2-1.6,0.6-2.1s1-0.7,1.8-0.7c0.6,0,1.1,0.2,1.4,0.5s0.5,0.9,0.5,1.6v4.8H93v-4.9
		C93,134.4,92.8,133.7,92.3,133.3z M101.1,136c0-0.7-0.1-1.3-0.3-1.8c-0.2-0.5-0.5-0.9-1-1.2c-0.4-0.3-1-0.5-1.6-0.5
		c-0.7,0-1.3,0.2-1.8,0.5s-0.8,0.8-1.1,1.4c-0.2,0.6-0.4,1.3-0.4,2c0,0.8,0.1,1.4,0.4,2s0.7,1,1.2,1.3s1.2,0.5,1.9,0.5
		c0.5,0,0.9,0,1.3-0.1s0.7-0.2,1.1-0.4V139c-0.4,0.2-0.8,0.3-1.1,0.4c-0.3,0.1-0.8,0.1-1.2,0.1c-0.8,0-1.5-0.3-2-0.8
		s-0.7-1.3-0.7-2.3h5.3C101.1,136.4,101.1,136,101.1,136z M95.8,135.9c0.1-0.9,0.3-1.5,0.7-2c0.4-0.5,1-0.7,1.7-0.7
		c0.5,0,0.9,0.1,1.2,0.3c0.3,0.2,0.5,0.5,0.7,0.9s0.2,0.8,0.2,1.4h-4.5L95.8,135.9L95.8,135.9z M112.3,133.6c-0.5-0.6-1.3-1-2.2-1
		c-0.5,0-0.9,0.1-1.2,0.2c-0.3,0.1-0.6,0.3-0.8,0.6c-0.2,0.2-0.4,0.5-0.5,0.8l0,0l-0.1-1.4h-0.7v10.8h0.8v-3.1c0-0.2,0-0.5,0-0.8
		s0-0.5,0-0.8h0.1c0.1,0.3,0.3,0.5,0.5,0.7s0.5,0.4,0.8,0.5s0.7,0.2,1.1,0.2c0.6,0,1.2-0.2,1.7-0.5s0.8-0.7,1.1-1.3
		c0.2-0.6,0.4-1.3,0.4-2.1C113.1,135.2,112.8,134.2,112.3,133.6z M112,138.2c-0.2,0.5-0.4,0.8-0.8,1.1c-0.3,0.2-0.8,0.4-1.3,0.4
		s-1-0.1-1.3-0.3s-0.6-0.6-0.8-1.1c-0.2-0.5-0.3-1.1-0.3-1.8v-0.1c0-0.7,0.1-1.2,0.3-1.7c0.2-0.5,0.4-0.8,0.8-1
		c0.3-0.2,0.8-0.3,1.4-0.3c0.8,0,1.4,0.3,1.8,0.8s0.6,1.3,0.6,2.3C112.3,137.1,112.2,137.7,112,138.2z M121,134.4
		c-0.2-0.6-0.6-1-1.1-1.3s-1.1-0.5-1.8-0.5c-0.7,0-1.3,0.2-1.8,0.5s-0.9,0.8-1.2,1.3c-0.3,0.6-0.4,1.3-0.4,2.1
		c0,0.6,0.1,1.1,0.2,1.6s0.4,0.9,0.6,1.2c0.3,0.3,0.6,0.6,1,0.8s0.9,0.3,1.4,0.3s1-0.1,1.4-0.3s0.8-0.5,1-0.8
		c0.3-0.3,0.5-0.8,0.6-1.2c0.2-0.5,0.2-1,0.2-1.6C121.3,135.7,121.2,135,121,134.4z M120.2,138.1c-0.2,0.5-0.5,0.9-0.8,1.1
		c-0.4,0.3-0.8,0.4-1.4,0.4s-1-0.1-1.4-0.4c-0.4-0.3-0.7-0.6-0.8-1.1c-0.2-0.5-0.3-1-0.3-1.7c0-1,0.2-1.8,0.6-2.3s1-0.8,1.9-0.8
		c0.6,0,1.1,0.1,1.4,0.4c0.4,0.3,0.6,0.6,0.8,1.1c0.2,0.5,0.2,1,0.2,1.7C120.5,137.1,120.4,137.7,120.2,138.1z M127,132.7
		c-0.2,0-0.4,0-0.5,0c-0.4,0-0.7,0.1-1,0.2c-0.3,0.1-0.5,0.3-0.8,0.5c-0.2,0.2-0.4,0.5-0.5,0.8l0,0l-0.1-1.4h-0.7v7.5h0.8v-4.1
		c0-0.4,0.1-0.8,0.2-1.1s0.2-0.6,0.4-0.9c0.2-0.2,0.4-0.4,0.7-0.6c0.3-0.1,0.6-0.2,0.9-0.2c0.2,0,0.3,0,0.5,0s0.3,0,0.5,0.1l0.1-0.7
		C127.3,132.7,127.1,132.7,127,132.7z M131.6,139.6c-0.2,0-0.4,0-0.6,0c-0.4,0-0.7-0.1-0.9-0.4c-0.2-0.3-0.3-0.7-0.3-1.2v-4.7h2.3
		v-0.7h-2.3V131h-0.5l-0.3,1.7l-1.1,0.2v0.5h1.1v4.7c0,0.5,0.1,0.9,0.2,1.3c0.2,0.3,0.4,0.6,0.7,0.7c0.3,0.1,0.6,0.2,1,0.2
		c0.2,0,0.5,0,0.7,0s0.4-0.1,0.5-0.1v-0.7C131.9,139.5,131.8,139.6,131.6,139.6z M138.1,133.2c-0.4-0.4-1-0.6-1.9-0.6
		c-0.4,0-0.9,0.1-1.3,0.2c-0.4,0.1-0.8,0.2-1.2,0.4l0.3,0.6c0.3-0.2,0.7-0.3,1-0.4c0.3-0.1,0.7-0.1,1.1-0.1c0.6,0,1,0.1,1.3,0.5
		c0.3,0.3,0.4,0.8,0.4,1.6v0.5h-1.4c-1.1,0.1-2,0.3-2.6,0.7s-0.9,0.9-0.9,1.7c0,0.4,0.1,0.8,0.3,1.1s0.4,0.5,0.8,0.7
		c0.3,0.2,0.8,0.2,1.2,0.2c0.5,0,0.9,0,1.2-0.2c0.3-0.1,0.6-0.3,0.8-0.5s0.4-0.5,0.6-0.7l0,0l0.1,1.3h0.6v-5
		C138.8,134.3,138.5,133.6,138.1,133.2z M138,137.2c0,0.8-0.2,1.4-0.7,1.8c-0.4,0.4-1,0.7-1.8,0.7c-0.5,0-0.9-0.1-1.2-0.4
		c-0.3-0.2-0.4-0.6-0.4-1c0-0.6,0.2-1,0.7-1.3s1.2-0.5,2.1-0.5l1.3-0.1L138,137.2L138,137.2z M44.1,158.6c-0.6,0-1.1-0.1-1.5-0.4
		c-0.4-0.3-0.7-0.6-0.9-1.1s-0.3-1-0.3-1.6c0-0.7,0.1-1.2,0.3-1.7s0.5-0.8,0.9-1.1s0.9-0.4,1.5-0.4c0.3,0,0.5,0,0.8,0.1
		c0.3,0,0.6,0.1,0.8,0.2l0.2-0.7c-0.2-0.1-0.5-0.2-0.8-0.3s-0.6-0.1-1-0.1c-0.7,0-1.3,0.2-1.9,0.5c-0.5,0.3-1,0.7-1.3,1.3
		s-0.5,1.3-0.5,2.1s0.1,1.5,0.4,2.1c0.3,0.6,0.6,1,1.2,1.3s1.1,0.5,1.9,0.5c0.4,0,0.8,0,1.1-0.1s0.6-0.2,0.8-0.3v-0.7
		c-0.3,0.1-0.6,0.2-0.9,0.3C44.8,158.6,44.5,158.6,44.1,158.6z M53.6,153.4c-0.2-0.6-0.6-1-1.1-1.3s-1.1-0.5-1.8-0.5
		s-1.3,0.2-1.8,0.5s-0.9,0.8-1.2,1.3c-0.3,0.6-0.4,1.3-0.4,2.1c0,0.6,0.1,1.1,0.2,1.6c0.1,0.5,0.4,0.9,0.6,1.2
		c0.3,0.3,0.6,0.6,1,0.8s0.9,0.3,1.4,0.3s1-0.1,1.4-0.3s0.8-0.5,1.1-0.8s0.5-0.8,0.6-1.2c0.2-0.5,0.2-1,0.2-1.6
		C54,154.7,53.9,154,53.6,153.4z M52.9,157.1c-0.2,0.5-0.5,0.9-0.8,1.1c-0.4,0.3-0.8,0.4-1.4,0.4c-0.6,0-1-0.1-1.4-0.4
		s-0.7-0.6-0.8-1.1c-0.2-0.5-0.3-1-0.3-1.7c0-1,0.2-1.8,0.6-2.3s1-0.8,1.9-0.8c0.6,0,1.1,0.1,1.4,0.4c0.4,0.3,0.6,0.6,0.8,1.1
		s0.2,1,0.2,1.7C53.2,156.1,53.1,156.7,52.9,157.1z M61.3,152.3c-0.5-0.4-1.1-0.7-1.9-0.7c-0.4,0-0.8,0.1-1.1,0.2
		c-0.3,0.1-0.6,0.3-0.8,0.5s-0.4,0.5-0.6,0.7l0,0l-0.1-1.3H56v7.5h0.8v-4.1c0-0.9,0.2-1.6,0.6-2.1c0.4-0.5,1-0.7,1.8-0.7
		c0.6,0,1.1,0.2,1.4,0.5c0.3,0.3,0.5,0.9,0.5,1.6v4.8H62v-4.9C62,153.4,61.8,152.7,61.3,152.3z M72.4,156.2
		c-0.2-0.3-0.5-0.5-0.8-0.7c-0.4-0.2-0.8-0.3-1.2-0.5c-0.4-0.2-0.8-0.3-1.1-0.4c-0.3-0.1-0.5-0.3-0.7-0.4c-0.1-0.2-0.2-0.4-0.2-0.7
		c0-0.4,0.2-0.7,0.5-0.9s0.8-0.3,1.4-0.3c0.2,0,0.5,0,0.7,0s0.5,0.1,0.7,0.2c0.2,0.1,0.4,0.1,0.6,0.2l0.3-0.7
		c-0.3-0.1-0.7-0.3-1.1-0.3c-0.4-0.1-0.8-0.1-1.2-0.1c-0.8,0-1.5,0.2-2,0.5s-0.7,0.8-0.7,1.4c0,0.4,0.1,0.8,0.3,1
		c0.2,0.3,0.5,0.5,0.8,0.6c0.4,0.2,0.8,0.3,1.2,0.5c0.5,0.2,0.8,0.3,1.1,0.5c0.3,0.1,0.5,0.3,0.7,0.5s0.2,0.4,0.2,0.7
		c0,0.4-0.2,0.8-0.5,1s-0.9,0.4-1.6,0.4c-0.4,0-0.8,0-1.3-0.2c-0.4-0.1-0.8-0.3-1.1-0.4v0.8c0.3,0.1,0.6,0.2,1,0.3s0.9,0.1,1.4,0.1
		c0.6,0,1.1-0.1,1.6-0.2c0.4-0.2,0.8-0.4,1-0.7s0.3-0.7,0.3-1.1C72.7,156.8,72.6,156.4,72.4,156.2z M80.3,155c0-0.7-0.1-1.3-0.3-1.8
		c-0.2-0.5-0.5-0.9-1-1.2c-0.4-0.3-1-0.5-1.6-0.5c-0.7,0-1.3,0.2-1.8,0.5s-0.9,0.8-1.1,1.4c-0.2,0.6-0.4,1.3-0.4,2
		c0,0.8,0.1,1.4,0.4,2s0.7,1,1.2,1.3c0.2,0.1,0.4,0.2,0.6,0.3c0.4,0.1,0.8,0.2,1.3,0.2s0.9,0,1.3-0.1s0.7-0.2,1.1-0.4V158
		c-0.4,0.2-0.8,0.3-1.1,0.4c-0.4,0.1-0.8,0.1-1.2,0.1c-0.5,0-1-0.1-1.3-0.3c-0.2-0.1-0.5-0.3-0.6-0.5c-0.5-0.5-0.7-1.3-0.7-2.3h5.3
		V155H80.3z M75,154.9c0.1-0.9,0.3-1.5,0.7-2c0.4-0.5,1-0.7,1.7-0.7c0.5,0,0.9,0.1,1.2,0.3c0.3,0.2,0.5,0.5,0.7,0.9s0.2,0.8,0.2,1.4
		H75V154.9z M78.2,148.5c-0.1,0.2-0.3,0.4-0.5,0.7s-0.4,0.5-0.6,0.8c-0.2,0.2-0.4,0.5-0.6,0.6v0.1h0.6c0.2-0.2,0.4-0.3,0.5-0.5
		c0.2-0.2,0.4-0.4,0.6-0.6c0.2-0.2,0.4-0.4,0.5-0.6c0.2-0.2,0.3-0.3,0.4-0.5v-0.1h-0.9V148.5z M43.8,177.6c-0.2,0-0.4,0-0.6,0
		c-0.4,0-0.8-0.1-1-0.4c-0.2-0.3-0.3-0.7-0.3-1.2v-4.7h2.3v-0.7H42V169h-0.5l-0.3,1.7l-1.1,0.2v0.5h1.1v4.7c0,0.5,0.1,0.9,0.2,1.3
		c0.2,0.3,0.4,0.6,0.7,0.7c0.3,0.1,0.6,0.2,1,0.2c0.2,0,0.5,0,0.7,0s0.4-0.1,0.5-0.1v-0.7C44.2,177.5,44,177.6,43.8,177.6z
		 M51.6,174c0-0.7-0.1-1.3-0.3-1.8s-0.5-0.9-1-1.2c-0.4-0.3-1-0.5-1.6-0.5c-0.7,0-1.3,0.2-1.8,0.5s-0.9,0.8-1.1,1.4
		c-0.2,0.6-0.4,1.3-0.4,2c0,0.8,0.1,1.4,0.4,2c0.3,0.6,0.7,1,1.2,1.3s1.1,0.5,1.9,0.5c0.5,0,0.9,0,1.3-0.1c0.4-0.1,0.7-0.2,1.1-0.4
		V177c-0.4,0.2-0.8,0.3-1.1,0.4c-0.3,0.1-0.8,0.1-1.2,0.1c-0.8,0-1.5-0.3-2-0.8s-0.7-1.3-0.7-2.3h5.3C51.6,174.4,51.6,174,51.6,174z
		 M46.3,173.9c0.1-0.9,0.3-1.5,0.7-2s1-0.7,1.7-0.7c0.5,0,0.9,0.1,1.2,0.3s0.5,0.5,0.7,0.9s0.2,0.8,0.2,1.4h-4.5
		C46.3,173.8,46.3,173.9,46.3,173.9z M63.1,171.2c-0.4-0.4-1-0.6-1.7-0.6c-0.6,0-1.1,0.1-1.5,0.4c-0.4,0.2-0.7,0.6-1,1h-0.1
		c-0.1-0.5-0.4-0.8-0.8-1c-0.4-0.2-0.8-0.3-1.4-0.3c-0.4,0-0.7,0.1-1,0.2c-0.3,0.1-0.5,0.3-0.8,0.5c-0.2,0.2-0.4,0.4-0.5,0.7l0,0
		l-0.1-1.2h-0.6v7.5h0.8V174c0-0.6,0.1-1.1,0.3-1.5s0.4-0.7,0.8-0.9c0.3-0.2,0.7-0.3,1.2-0.3c0.4,0,0.7,0.1,0.9,0.2
		c0.2,0.1,0.4,0.4,0.6,0.6c0.1,0.3,0.2,0.7,0.2,1.1v4.9h0.8v-4.3c0-0.9,0.2-1.5,0.6-1.9c0.4-0.4,0.9-0.6,1.6-0.6
		c0.5,0,0.9,0.2,1.2,0.5s0.5,0.8,0.5,1.5v4.9h0.8v-5C63.8,172.3,63.5,171.7,63.1,171.2z M71.7,171.6c-0.5-0.6-1.3-1-2.2-1
		c-0.5,0-0.9,0.1-1.2,0.2c-0.3,0.1-0.6,0.3-0.8,0.6c-0.2,0.2-0.4,0.5-0.5,0.8l0,0l-0.1-1.4h-0.7v10.8H67v-3.1c0-0.2,0-0.5,0-0.8
		s0-0.5,0-0.8h0.1c0.1,0.3,0.3,0.5,0.5,0.7s0.5,0.4,0.8,0.5s0.7,0.2,1.2,0.2c0.6,0,1.2-0.2,1.7-0.5s0.8-0.7,1.1-1.3
		c0.2-0.6,0.4-1.3,0.4-2.1C72.5,173.2,72.2,172.2,71.7,171.6z M71.4,176.2c-0.2,0.5-0.4,0.8-0.8,1.1c-0.3,0.2-0.8,0.4-1.3,0.4
		s-1-0.1-1.3-0.3s-0.6-0.6-0.8-1.1c-0.2-0.5-0.3-1.1-0.3-1.8v-0.1c0-0.7,0.1-1.2,0.3-1.7c0.2-0.5,0.4-0.8,0.8-1s0.8-0.3,1.4-0.3
		c0.8,0,1.4,0.3,1.8,0.8s0.6,1.3,0.6,2.3C71.7,175.1,71.6,175.7,71.4,176.2z M80.2,174.6V174c0-0.7-0.1-1.3-0.3-1.8
		c-0.2-0.5-0.5-0.9-1-1.2c-0.4-0.3-1-0.5-1.6-0.5c-0.4,0-0.7,0-1,0.1s-0.5,0.2-0.7,0.4c-0.5,0.3-0.9,0.8-1.1,1.4
		c-0.2,0.6-0.4,1.3-0.4,2c0,0.8,0.1,1.4,0.4,2s0.7,1,1.2,1.3c0.2,0.1,0.4,0.2,0.7,0.3c0.4,0.1,0.8,0.2,1.2,0.2c0.5,0,0.9,0,1.3-0.1
		s0.7-0.2,1.1-0.4V177c-0.4,0.2-0.8,0.3-1.1,0.4c-0.4,0.1-0.8,0.1-1.2,0.1c-0.5,0-0.9-0.1-1.3-0.2c-0.3-0.1-0.5-0.3-0.7-0.5
		c-0.5-0.5-0.7-1.3-0.7-2.3h5.2V174.6z M74.9,173.9c0.1-0.9,0.3-1.5,0.8-2c0.2-0.2,0.4-0.4,0.6-0.5c0.3-0.1,0.6-0.2,1-0.2
		c0.5,0,0.9,0.1,1.2,0.3c0.3,0.2,0.5,0.5,0.7,0.9c0.1,0.4,0.2,0.8,0.2,1.4h-4.5C74.9,173.8,74.9,173.9,74.9,173.9z M85.8,170.7
		c-0.2,0-0.3,0-0.5,0c-0.4,0-0.7,0.1-1,0.2c-0.3,0.1-0.6,0.3-0.8,0.5c-0.2,0.2-0.4,0.5-0.5,0.8l0,0l-0.1-1.4h-0.7v7.5H83v-4.1
		c0-0.4,0-0.8,0.1-1.1s0.3-0.6,0.5-0.9c0.2-0.2,0.4-0.4,0.7-0.6s0.6-0.2,0.9-0.2c0.2,0,0.3,0,0.5,0c0.1,0,0.3,0,0.4,0.1l0.1-0.7
		C86.1,170.7,86,170.7,85.8,170.7z M92,171.2c-0.4-0.4-1-0.6-1.9-0.6c-0.5,0-0.9,0.1-1.3,0.2c-0.4,0.1-0.8,0.2-1.1,0.4l0.2,0.6
		c0.4-0.2,0.7-0.3,1-0.4c0.4-0.1,0.7-0.1,1.1-0.1c0.6,0,1,0.1,1.3,0.5c0.3,0.3,0.4,0.8,0.4,1.6v0.5h-1.4c-1.2,0.1-2,0.3-2.7,0.7
		c-0.6,0.4-0.9,0.9-0.9,1.7c0,0.4,0.1,0.8,0.3,1.1c0.2,0.3,0.5,0.5,0.8,0.7s0.8,0.2,1.2,0.2c0.5,0,0.9,0,1.2-0.2s0.6-0.3,0.8-0.5
		c0.2-0.2,0.4-0.5,0.6-0.7l0,0l0.1,1.3h0.6v-5C92.6,172.3,92.4,171.6,92,171.2z M91.8,175.2c0,0.8-0.2,1.4-0.7,1.8
		c-0.4,0.4-1,0.7-1.8,0.7c-0.5,0-0.9-0.1-1.2-0.4c-0.3-0.2-0.4-0.6-0.4-1c0-0.6,0.2-1,0.7-1.3s1.2-0.5,2.1-0.5l1.3-0.1V175.2z
		 M97.6,177.6c-0.2,0-0.4,0-0.6,0c-0.4,0-0.7-0.1-1-0.4c-0.2-0.3-0.3-0.7-0.3-1.2v-4.7H98v-0.7h-2.3V169h-0.5l-0.3,1.7l-1.1,0.2v0.5
		H95v4.7c0,0.5,0.1,0.9,0.2,1.3c0.2,0.3,0.4,0.6,0.7,0.7c0.3,0.1,0.6,0.2,1,0.2c0.2,0,0.5,0,0.7,0s0.4-0.1,0.5-0.1v-0.7
		C98,177.5,97.8,177.6,97.6,177.6z M104.8,170.7v4.1c0,0.6-0.1,1.2-0.3,1.6c-0.2,0.4-0.5,0.7-0.8,1c-0.4,0.2-0.8,0.3-1.4,0.3
		s-1.1-0.2-1.4-0.5s-0.5-0.9-0.5-1.6v-4.8h-0.8v4.9c0,0.6,0.1,1.1,0.3,1.5c0.2,0.4,0.5,0.7,0.9,0.9s0.9,0.3,1.5,0.3
		c0.4,0,0.8-0.1,1.1-0.2c0.3-0.1,0.6-0.3,0.8-0.5c0.2-0.2,0.4-0.5,0.6-0.7l0,0l0.1,1.3h0.7v-7.5h-0.8L104.8,170.7L104.8,170.7z
		 M111.6,170.7c-0.2,0-0.3,0-0.5,0c-0.4,0-0.7,0.1-1,0.2c-0.3,0.1-0.6,0.3-0.8,0.5c-0.2,0.2-0.4,0.5-0.5,0.8h-0.1l-0.1-1.4H108v7.5
		h0.8v-4.1c0-0.4,0-0.8,0.1-1.1s0.2-0.6,0.5-0.9c0.2-0.2,0.4-0.4,0.7-0.6c0.3-0.1,0.6-0.2,0.9-0.2c0.2,0,0.3,0,0.5,0s0.3,0,0.5,0.1
		l0.1-0.7C112,170.7,111.8,170.7,111.6,170.7z M119,174c0-0.7-0.1-1.3-0.3-1.8c-0.2-0.5-0.5-0.9-1-1.2c-0.4-0.3-1-0.5-1.6-0.5
		c-0.7,0-1.3,0.2-1.8,0.5s-0.9,0.8-1.1,1.4c-0.2,0.6-0.4,1.3-0.4,2c0,0.8,0.1,1.4,0.4,2s0.7,1,1.2,1.3s1.2,0.5,1.9,0.5
		c0.5,0,0.9,0,1.3-0.1s0.7-0.2,1.1-0.4V177c-0.4,0.2-0.8,0.3-1.1,0.4c-0.3,0.1-0.8,0.1-1.2,0.1c-0.9,0-1.5-0.3-2-0.8
		c-0.4-0.5-0.7-1.3-0.7-2.3h5.3C119,174.4,119,174,119,174z M113.7,173.9c0.1-0.9,0.3-1.5,0.7-2c0.4-0.5,1-0.7,1.7-0.7
		c0.5,0,0.9,0.1,1.2,0.3c0.3,0.2,0.5,0.5,0.7,0.9s0.2,0.8,0.2,1.4h-4.5L113.7,173.9L113.7,173.9z M44.1,196.6
		c-0.6,0-1.1-0.1-1.5-0.4c-0.4-0.3-0.7-0.6-0.9-1.1s-0.3-1-0.3-1.6c0-0.7,0.1-1.2,0.3-1.7s0.5-0.8,0.9-1.1s0.9-0.4,1.5-0.4
		c0.3,0,0.5,0,0.8,0.1c0.3,0,0.6,0.1,0.8,0.2l0.2-0.7c-0.2-0.1-0.5-0.2-0.8-0.3s-0.6-0.1-1-0.1c-0.7,0-1.3,0.2-1.9,0.5
		c-0.5,0.3-1,0.7-1.3,1.3s-0.5,1.3-0.5,2.1s0.1,1.5,0.4,2.1c0.3,0.6,0.6,1,1.2,1.3s1.1,0.5,1.9,0.5c0.4,0,0.8,0,1.1-0.1
		s0.6-0.2,0.8-0.3v-0.7c-0.3,0.1-0.6,0.2-0.9,0.3C44.8,196.6,44.5,196.6,44.1,196.6z M52.3,190.2c-0.4-0.4-1-0.6-1.9-0.6
		c-0.5,0-0.9,0.1-1.3,0.2c-0.4,0.1-0.8,0.2-1.2,0.4l0.2,0.6c0.4-0.2,0.7-0.3,1.1-0.4c0.4-0.1,0.7-0.1,1.1-0.1c0.6,0,1,0.1,1.3,0.5
		c0.3,0.3,0.5,0.8,0.5,1.6v0.5h-1.4c-1.2,0.1-2,0.3-2.7,0.7c-0.6,0.4-0.9,0.9-0.9,1.7c0,0.4,0.1,0.8,0.3,1.1s0.5,0.5,0.8,0.7
		c0.4,0.2,0.8,0.2,1.2,0.2c0.5,0,0.9,0,1.2-0.2c0.3-0.1,0.6-0.3,0.8-0.5s0.4-0.5,0.6-0.7l0,0l0.1,1.3h0.6v-5
		C52.9,191.3,52.7,190.6,52.3,190.2z M52.1,194.2c0,0.8-0.2,1.4-0.7,1.8c-0.4,0.4-1,0.7-1.8,0.7c-0.5,0-0.9-0.1-1.2-0.4
		c-0.3-0.2-0.4-0.6-0.4-1c0-0.6,0.2-1,0.7-1.3s1.2-0.5,2.1-0.5l1.3-0.1C52.1,193.4,52.1,194.2,52.1,194.2z M55.3,186.6v10.6h0.8
		v-10.6H55.3z M63.7,186.6v3c0,0.2,0,0.5,0,0.7c0,0.3,0,0.5,0,0.7h-0.1c-0.1-0.3-0.3-0.5-0.5-0.7s-0.5-0.4-0.8-0.5s-0.7-0.2-1.1-0.2
		c-1,0-1.8,0.3-2.3,1c-0.6,0.7-0.8,1.6-0.8,2.9c0,1.2,0.3,2.2,0.8,2.8s1.3,1,2.3,1c0.5,0,0.8-0.1,1.2-0.2c0.3-0.1,0.6-0.3,0.8-0.5
		s0.4-0.5,0.5-0.7l0,0l0.1,1.3h0.6v-10.6H63.7z M63.7,193.6c0,1-0.2,1.8-0.5,2.3c-0.4,0.5-1,0.8-1.8,0.8s-1.4-0.3-1.8-0.8
		c-0.4-0.5-0.6-1.3-0.6-2.3c0-1.1,0.2-1.9,0.6-2.4c0.4-0.6,1-0.8,1.8-0.8s1.4,0.3,1.8,0.8C63.6,191.7,63.7,192.5,63.7,193.6
		L63.7,193.6z M72.6,193c0-0.7-0.1-1.3-0.3-1.8c-0.2-0.5-0.5-0.9-1-1.2c-0.4-0.3-1-0.5-1.6-0.5c-0.7,0-1.3,0.2-1.8,0.5
		s-0.9,0.8-1.1,1.4c-0.2,0.6-0.4,1.3-0.4,2c0,0.8,0.1,1.4,0.4,2s0.7,1,1.2,1.3s1.2,0.5,1.9,0.5c0.5,0,0.9,0,1.3-0.1s0.7-0.2,1.1-0.4
		V196c-0.4,0.2-0.8,0.3-1.1,0.4c-0.4,0.1-0.8,0.1-1.2,0.1c-0.8,0-1.5-0.3-2-0.8s-0.7-1.3-0.7-2.3h5.3C72.6,193.4,72.6,193,72.6,193z
		 M67.3,192.9c0.1-0.9,0.3-1.5,0.7-2c0.4-0.5,1-0.7,1.7-0.7c0.5,0,0.9,0.1,1.2,0.3c0.3,0.2,0.5,0.5,0.7,0.9c0.1,0.4,0.2,0.8,0.2,1.4
		h-4.5L67.3,192.9L67.3,192.9z M84,193c0-0.7-0.1-1.3-0.3-1.8c-0.2-0.5-0.5-0.9-1-1.2c-0.4-0.3-1-0.5-1.6-0.5
		c-0.7,0-1.3,0.2-1.8,0.5s-0.9,0.8-1.1,1.4c-0.2,0.6-0.4,1.3-0.4,2c0,0.8,0.1,1.4,0.4,2s0.7,1,1.2,1.3s1.2,0.5,1.9,0.5
		c0.5,0,0.9,0,1.3-0.1s0.7-0.2,1.1-0.4V196c-0.4,0.2-0.8,0.3-1.1,0.4c-0.3,0.1-0.8,0.1-1.2,0.1c-0.9,0-1.5-0.3-2-0.8
		s-0.7-1.3-0.7-2.3H84V193z M78.7,192.9c0.1-0.9,0.3-1.5,0.8-2c0.4-0.5,1-0.7,1.7-0.7c0.5,0,0.9,0.1,1.2,0.3
		c0.3,0.2,0.5,0.5,0.7,0.9c0.1,0.4,0.2,0.8,0.2,1.4h-4.6C78.7,192.8,78.7,192.9,78.7,192.9z M94.7,189.7v4.1c0,0.6-0.1,1.2-0.3,1.6
		s-0.5,0.7-0.8,1c-0.4,0.2-0.8,0.3-1.4,0.3s-1.1-0.2-1.4-0.5s-0.5-0.9-0.5-1.6v-4.8h-0.8v4.9c0,0.6,0.1,1.1,0.3,1.5
		c0.2,0.4,0.5,0.7,0.9,0.9s0.9,0.3,1.5,0.3c0.4,0,0.8-0.1,1.1-0.2c0.3-0.1,0.6-0.3,0.8-0.5c0.2-0.2,0.4-0.5,0.6-0.7l0,0l0.1,1.3h0.7
		v-7.5h-0.8L94.7,189.7L94.7,189.7z M107.5,190.2c-0.4-0.4-1-0.6-1.7-0.6c-0.6,0-1.1,0.1-1.5,0.4c-0.4,0.2-0.7,0.6-1,1h-0.1
		c-0.1-0.5-0.4-0.8-0.8-1s-0.8-0.3-1.4-0.3c-0.4,0-0.7,0.1-1,0.2c-0.3,0.1-0.6,0.3-0.8,0.5c-0.2,0.2-0.4,0.4-0.5,0.7l0,0l-0.1-1.2
		H98v7.5h0.8V193c0-0.6,0.1-1.1,0.2-1.5c0.2-0.4,0.4-0.7,0.8-0.9c0.3-0.2,0.7-0.3,1.2-0.3c0.3,0,0.6,0.1,0.9,0.2
		c0.3,0.1,0.5,0.4,0.6,0.6c0.1,0.3,0.2,0.7,0.2,1.1v4.9h0.8v-4.3c0-0.9,0.2-1.5,0.6-1.9s0.9-0.6,1.7-0.6c0.5,0,0.9,0.2,1.2,0.5
		c0.3,0.3,0.4,0.8,0.4,1.5v4.9h0.8v-5C108.1,191.3,107.9,190.7,107.5,190.2z M110.5,189.7v7.5h0.8v-7.5H110.5z M111.3,187.2
		c-0.1-0.1-0.2-0.2-0.4-0.2c-0.2,0-0.3,0.1-0.4,0.2c-0.1,0.1-0.1,0.2-0.1,0.4s0,0.3,0.1,0.5c0.1,0.1,0.2,0.1,0.4,0.1
		c0.2,0,0.3,0,0.4-0.1s0.1-0.3,0.1-0.5S111.4,187.3,111.3,187.2z M118.9,186.6v3c0,0.2,0,0.5,0,0.7c0,0.3,0,0.5,0,0.7h-0.1
		c-0.1-0.3-0.3-0.5-0.5-0.7s-0.5-0.4-0.8-0.5s-0.7-0.2-1.1-0.2c-1,0-1.8,0.3-2.3,1c-0.6,0.7-0.8,1.6-0.8,2.9c0,1.2,0.3,2.2,0.8,2.8
		s1.3,1,2.3,1c0.4,0,0.8-0.1,1.1-0.2c0.3-0.1,0.6-0.3,0.8-0.5c0.2-0.2,0.4-0.5,0.5-0.7l0,0l0.1,1.3h0.6v-10.6H118.9z M118.9,193.6
		c0,1-0.2,1.8-0.5,2.3c-0.4,0.5-1,0.8-1.8,0.8s-1.4-0.3-1.8-0.8s-0.6-1.3-0.6-2.3c0-1.1,0.2-1.9,0.6-2.4c0.4-0.6,1-0.8,1.8-0.8
		s1.4,0.3,1.8,0.8S118.9,192.5,118.9,193.6L118.9,193.6z M127.8,193.6V193c0-0.7-0.1-1.3-0.3-1.8c-0.2-0.5-0.5-0.9-1-1.2
		c-0.4-0.3-1-0.5-1.6-0.5c-0.7,0-1.3,0.2-1.8,0.5c-0.2,0.1-0.3,0.3-0.5,0.4c-0.3,0.3-0.5,0.6-0.6,1c-0.2,0.6-0.4,1.3-0.4,2
		c0,0.8,0.1,1.4,0.4,2c0.2,0.3,0.4,0.6,0.6,0.9c0.2,0.2,0.3,0.3,0.6,0.4c0.5,0.3,1.2,0.5,1.9,0.5c0.5,0,0.9,0,1.3-0.1
		s0.7-0.2,1.1-0.4V196c-0.4,0.2-0.8,0.3-1.1,0.4c-0.4,0.1-0.8,0.1-1.2,0.1c-0.8,0-1.5-0.3-2-0.8c-0.2-0.3-0.4-0.6-0.5-0.9
		c-0.1-0.4-0.2-0.8-0.2-1.3h5.3C127.8,193.5,127.8,193.6,127.8,193.6z M122.5,192.9c0-0.3,0.1-0.6,0.2-0.9c0.1-0.4,0.3-0.8,0.6-1.1
		c0.4-0.5,1-0.7,1.7-0.7c0.5,0,0.9,0.1,1.2,0.3c0.3,0.2,0.5,0.5,0.7,0.9c0.1,0.4,0.2,0.8,0.2,1.4h-4.6L122.5,192.9L122.5,192.9z
		 M130.7,195.6h-0.8c-0.1,0.3-0.1,0.7-0.2,1.1c-0.1,0.4-0.2,0.8-0.2,1.1c-0.1,0.4-0.2,0.8-0.3,1.2h0.6c0.1-0.3,0.3-0.7,0.4-1
		c0.1-0.4,0.2-0.8,0.4-1.1c0.1-0.4,0.2-0.7,0.3-1.1L130.7,195.6z M44.1,215.6c-0.6,0-1.1-0.1-1.5-0.4c-0.4-0.3-0.7-0.6-0.9-1.1
		s-0.3-1-0.3-1.6c0-0.7,0.1-1.2,0.3-1.7s0.5-0.8,0.9-1.1s0.9-0.4,1.5-0.4c0.3,0,0.5,0,0.8,0.1c0.3,0,0.6,0.1,0.8,0.2l0.2-0.7
		c-0.2-0.1-0.5-0.2-0.8-0.3s-0.6-0.1-1-0.1c-0.7,0-1.3,0.2-1.9,0.5c-0.5,0.3-1,0.7-1.3,1.3s-0.5,1.3-0.5,2.1s0.1,1.5,0.4,2.1
		c0.3,0.6,0.6,1,1.2,1.3s1.1,0.5,1.9,0.5c0.4,0,0.8,0,1.1-0.1s0.6-0.2,0.8-0.3v-0.7c-0.3,0.1-0.6,0.2-0.9,0.3
		C44.8,215.6,44.5,215.6,44.1,215.6z M53.6,210.4c-0.2-0.6-0.6-1-1.1-1.3s-1.1-0.5-1.8-0.5s-1.3,0.2-1.8,0.5s-0.9,0.8-1.2,1.3
		c-0.3,0.6-0.4,1.3-0.4,2.1c0,0.6,0.1,1.1,0.2,1.6c0.1,0.5,0.4,0.9,0.6,1.2c0.3,0.3,0.6,0.6,1,0.8s0.9,0.3,1.4,0.3s1-0.1,1.4-0.3
		s0.8-0.5,1.1-0.8s0.5-0.8,0.6-1.2c0.2-0.5,0.2-1,0.2-1.6C54,211.7,53.9,211,53.6,210.4z M52.9,214.1c-0.2,0.5-0.5,0.9-0.8,1.1
		c-0.4,0.3-0.8,0.4-1.4,0.4c-0.6,0-1-0.1-1.4-0.4s-0.7-0.6-0.8-1.1c-0.2-0.5-0.3-1-0.3-1.7c0-1,0.2-1.8,0.6-2.3s1-0.8,1.9-0.8
		c0.6,0,1.1,0.1,1.4,0.4c0.4,0.3,0.6,0.6,0.8,1.1s0.2,1,0.2,1.7C53.2,213.1,53.1,213.7,52.9,214.1z M61.3,209.3
		c-0.5-0.4-1.1-0.7-1.9-0.7c-0.4,0-0.8,0.1-1.1,0.2c-0.3,0.1-0.6,0.3-0.8,0.5s-0.4,0.5-0.6,0.7l0,0l-0.1-1.3H56v7.5h0.8v-4.1
		c0-0.9,0.2-1.6,0.6-2.1c0.4-0.5,1-0.7,1.8-0.7c0.6,0,1.1,0.2,1.4,0.5c0.3,0.3,0.5,0.9,0.5,1.6v4.8H62v-4.9
		C62,210.4,61.8,209.7,61.3,209.3z M73.6,209.6c-0.5-0.6-1.3-1-2.2-1c-0.5,0-0.9,0.1-1.2,0.2c-0.3,0.1-0.6,0.3-0.8,0.6
		c-0.2,0.2-0.4,0.5-0.5,0.8l0,0l-0.1-1.4H68v10.8h0.8v-3.1c0-0.2,0-0.5,0-0.8s0-0.5,0-0.8h0.1c0.1,0.3,0.3,0.5,0.5,0.7
		s0.5,0.4,0.8,0.5s0.7,0.2,1.2,0.2c0.6,0,1.2-0.2,1.6-0.5c0.5-0.3,0.8-0.7,1.1-1.3c0.2-0.6,0.4-1.3,0.4-2.1
		C74.4,211.2,74.1,210.2,73.6,209.6z M73.3,214.2c-0.2,0.5-0.4,0.8-0.8,1.1c-0.3,0.2-0.8,0.4-1.3,0.4s-1-0.1-1.3-0.3
		s-0.6-0.6-0.8-1.1c-0.2-0.5-0.2-1.1-0.2-1.8v-0.1c0-0.7,0.1-1.2,0.3-1.7c0.2-0.5,0.4-0.8,0.8-1c0.3-0.2,0.8-0.3,1.4-0.3
		c0.8,0,1.4,0.3,1.8,0.8s0.6,1.3,0.6,2.3C73.5,213.1,73.5,213.7,73.3,214.2z M76.4,208.7v7.5h0.8v-7.5H76.4z M77.2,206.2
		c-0.1-0.1-0.2-0.2-0.4-0.2c-0.2,0-0.3,0.1-0.4,0.2c0,0.1-0.1,0.1-0.1,0.2c0,0.1,0,0.1,0,0.2c0,0.1,0,0.2,0,0.3s0.1,0.1,0.1,0.2
		c0.1,0.1,0.2,0.1,0.4,0.1c0.2,0,0.3,0,0.4-0.1s0.1-0.3,0.1-0.5S77.3,206.3,77.2,206.2z M82.6,215.6c-0.6,0-1.1-0.1-1.5-0.4
		c-0.4-0.3-0.7-0.6-0.9-1.1c-0.2-0.5-0.3-1-0.3-1.6c0-0.7,0.1-1.2,0.3-1.7c0.2-0.5,0.5-0.8,0.9-1.1s0.9-0.4,1.5-0.4
		c0.3,0,0.5,0,0.8,0.1c0.3,0,0.6,0.1,0.8,0.2l0.2-0.7c-0.2-0.1-0.5-0.2-0.8-0.3s-0.6-0.1-1-0.1c-0.7,0-1.3,0.2-1.9,0.5
		c-0.5,0.3-1,0.7-1.3,1.3s-0.4,1.3-0.4,2.1s0.1,1.5,0.4,2.1s0.7,1,1.2,1.3s1.1,0.5,1.9,0.5c0.4,0,0.8,0,1.1-0.1
		c0.3-0.1,0.6-0.2,0.8-0.3v-0.7c-0.3,0.1-0.6,0.2-0.9,0.3C83.3,215.6,83,215.6,82.6,215.6z M89.3,215.6c-0.6,0-1.1-0.1-1.5-0.4
		c-0.4-0.3-0.7-0.6-0.8-1.1c-0.2-0.5-0.3-1-0.3-1.6c0-0.7,0.1-1.2,0.3-1.7c0.2-0.5,0.5-0.8,0.9-1.1s0.9-0.4,1.5-0.4
		c0.3,0,0.5,0,0.8,0.1c0.3,0,0.6,0.1,0.8,0.2l0.2-0.7c-0.2-0.1-0.5-0.2-0.8-0.3s-0.6-0.1-1-0.1c-0.7,0-1.3,0.2-1.9,0.5
		c-0.5,0.3-1,0.7-1.3,1.3s-0.4,1.3-0.4,2.1s0.1,1.5,0.4,2.1s0.7,1,1.2,1.3s1.1,0.5,1.9,0.5c0.4,0,0.8,0,1.1-0.1
		c0.3-0.1,0.6-0.2,0.8-0.3v-0.7c-0.3,0.1-0.6,0.2-0.9,0.3C90,215.6,89.7,215.6,89.3,215.6z M98.6,209.8c-0.2-0.4-0.5-0.7-0.9-0.9
		s-0.9-0.3-1.4-0.3c-0.4,0-0.8,0.1-1.1,0.2c-0.3,0.1-0.6,0.3-0.8,0.5c-0.2,0.2-0.4,0.5-0.5,0.8h-0.1c0-0.2,0-0.4,0-0.5
		c0-0.2,0-0.4,0-0.5v-3.4H93v10.6h0.8v-4.1c0-0.6,0.1-1.1,0.3-1.6c0.2-0.4,0.5-0.7,0.8-0.9c0.4-0.2,0.8-0.3,1.4-0.3s1.1,0.2,1.4,0.5
		s0.5,0.9,0.5,1.6v4.8H99v-4.9C98.9,210.7,98.8,210.2,98.6,209.8z M101.3,208.7v7.5h0.8v-7.5H101.3z M102.1,206.2
		c-0.1-0.1-0.2-0.2-0.4-0.2s-0.3,0.1-0.4,0.2c-0.1,0.1-0.1,0.2-0.1,0.4s0,0.3,0.1,0.5c0.1,0.1,0.2,0.1,0.4,0.1s0.3,0,0.4-0.1
		s0.1-0.3,0.1-0.5S102.2,206.3,102.1,206.2z M113.3,205.6v3c0,0.2,0,0.5,0,0.7c0,0.3,0,0.5,0,0.7h-0.1c-0.1-0.3-0.3-0.5-0.5-0.7
		s-0.5-0.4-0.8-0.5s-0.7-0.2-1.1-0.2c-1,0-1.8,0.3-2.3,1c-0.6,0.7-0.8,1.6-0.8,2.9c0,1.2,0.3,2.2,0.8,2.8s1.3,1,2.3,1
		c0.5,0,0.8-0.1,1.2-0.2c0.3-0.1,0.6-0.3,0.8-0.5c0.2-0.2,0.4-0.5,0.5-0.7l0,0l0.1,1.3h0.6v-10.6H113.3z M113.3,212.6
		c0,1-0.2,1.8-0.6,2.3c-0.3,0.5-1,0.8-1.8,0.8s-1.4-0.3-1.8-0.8s-0.6-1.3-0.6-2.3c0-1.1,0.2-1.9,0.6-2.4c0.4-0.6,1-0.8,1.8-0.8
		s1.4,0.3,1.8,0.8S113.3,211.5,113.3,212.6L113.3,212.6z M116.6,208.7v7.5h0.8v-7.5H116.6z M117.3,206.2c-0.1-0.1-0.2-0.2-0.4-0.2
		c-0.2,0-0.3,0.1-0.4,0.2c-0.1,0.1-0.1,0.2-0.1,0.4s0,0.3,0.1,0.5c0.1,0.1,0.2,0.1,0.4,0.1c0.2,0,0.3,0,0.4-0.1s0.1-0.3,0.1-0.5
		S117.5,206.3,117.3,206.2z M44.1,234.6c-0.6,0-1.1-0.1-1.5-0.4c-0.4-0.3-0.7-0.6-0.9-1.1s-0.3-1-0.3-1.6c0-0.7,0.1-1.2,0.3-1.7
		s0.5-0.8,0.9-1.1s0.9-0.4,1.5-0.4c0.3,0,0.5,0,0.8,0.1c0.3,0,0.6,0.1,0.8,0.2l0.2-0.7c-0.2-0.1-0.5-0.2-0.8-0.3s-0.6-0.1-1-0.1
		c-0.7,0-1.3,0.2-1.9,0.5c-0.5,0.3-1,0.7-1.3,1.3s-0.5,1.3-0.5,2.1s0.1,1.5,0.4,2.1c0.3,0.6,0.6,1,1.2,1.3s1.1,0.5,1.9,0.5
		c0.4,0,0.8,0,1.1-0.1s0.6-0.2,0.8-0.3v-0.7c-0.3,0.1-0.6,0.2-0.9,0.3C44.8,234.6,44.5,234.6,44.1,234.6z M52.3,228.2
		c-0.4-0.4-1-0.6-1.9-0.6c-0.5,0-0.9,0.1-1.3,0.2c-0.4,0.1-0.8,0.2-1.2,0.4l0.2,0.6c0.4-0.2,0.7-0.3,1.1-0.4
		c0.4-0.1,0.7-0.1,1.1-0.1c0.6,0,1,0.1,1.3,0.5c0.3,0.3,0.5,0.8,0.5,1.6v0.5h-1.4c-1.2,0.1-2,0.3-2.7,0.7c-0.6,0.4-0.9,0.9-0.9,1.7
		c0,0.4,0.1,0.8,0.3,1.1s0.5,0.5,0.8,0.7c0.4,0.2,0.8,0.2,1.2,0.2c0.5,0,0.9,0,1.2-0.2c0.3-0.1,0.6-0.3,0.8-0.5s0.4-0.5,0.6-0.7l0,0
		l0.1,1.3h0.6v-5C52.9,229.3,52.7,228.6,52.3,228.2z M52.1,232.2c0,0.8-0.2,1.4-0.7,1.8c-0.4,0.4-1,0.7-1.8,0.7
		c-0.5,0-0.9-0.1-1.2-0.4c-0.3-0.2-0.4-0.6-0.4-1c0-0.6,0.2-1,0.7-1.3s1.2-0.5,2.1-0.5l1.3-0.1C52.1,231.4,52.1,232.2,52.1,232.2z
		 M55.3,224.6v10.6h0.8v-10.6H55.3z M64.4,229.4c-0.2-0.6-0.6-1-1.1-1.3s-1.1-0.5-1.8-0.5s-1.3,0.2-1.8,0.5s-0.9,0.8-1.2,1.3
		c-0.3,0.6-0.4,1.3-0.4,2.1c0,0.6,0.1,1.1,0.2,1.6c0.1,0.5,0.4,0.9,0.6,1.2c0.3,0.3,0.6,0.6,1,0.8s0.9,0.3,1.4,0.3s1-0.1,1.4-0.3
		s0.8-0.5,1-0.8c0.3-0.3,0.5-0.8,0.6-1.2c0.2-0.5,0.2-1,0.2-1.6C64.8,230.7,64.7,230,64.4,229.4z M63.7,233.1
		c-0.2,0.5-0.5,0.9-0.8,1.1c-0.4,0.3-0.8,0.4-1.4,0.4c-0.6,0-1-0.1-1.4-0.4c-0.4-0.3-0.6-0.6-0.8-1.1s-0.3-1-0.3-1.7
		c0-1,0.2-1.8,0.6-2.3s1-0.8,1.9-0.8c0.6,0,1.1,0.1,1.4,0.4c0.4,0.3,0.6,0.6,0.8,1.1s0.2,1,0.2,1.7C64,232.1,63.9,232.7,63.7,233.1z
		 M70.4,227.7c-0.2,0-0.4,0-0.5,0c-0.4,0-0.7,0.1-1,0.2c-0.3,0.1-0.5,0.3-0.8,0.5c-0.2,0.2-0.4,0.5-0.5,0.8l0,0l-0.1-1.4h-0.7v7.5
		h0.8v-4.1c0-0.4,0.1-0.8,0.2-1.1s0.2-0.6,0.4-0.9c0.2-0.2,0.4-0.4,0.7-0.6c0.3-0.1,0.6-0.2,0.9-0.2c0.2,0,0.3,0,0.5,0
		s0.3,0,0.5,0.1l0.1-0.7C70.7,227.7,70.6,227.7,70.4,227.7z M77.8,231.6V231c0-0.7-0.1-1.3-0.3-1.8c-0.2-0.5-0.5-0.9-1-1.2
		c0,0-0.1-0.1-0.2-0.1c-0.4-0.2-0.9-0.3-1.4-0.3c-0.7,0-1.3,0.2-1.8,0.5s-0.9,0.8-1.1,1.4c-0.2,0.6-0.4,1.3-0.4,2
		c0,0.8,0.1,1.4,0.4,2s0.7,1,1.2,1.3s1.2,0.5,1.9,0.5c0.5,0,0.9,0,1.2-0.1c0,0,0,0,0.1,0c0.4-0.1,0.7-0.2,1.1-0.4v-0.7
		c-0.4,0.2-0.8,0.3-1.1,0.4l0,0c-0.3,0.1-0.7,0.1-1.2,0.1c-0.9,0-1.5-0.3-2-0.8s-0.7-1.3-0.7-2.3h5.3V231.6z M72.5,230.9
		c0.1-0.9,0.3-1.5,0.7-2c0.4-0.5,1-0.7,1.7-0.7c0.5,0,0.9,0.1,1.2,0.3c0.1,0.1,0.2,0.2,0.3,0.2c0.2,0.2,0.3,0.4,0.4,0.7
		c0.1,0.4,0.2,0.8,0.2,1.4h-4.5C72.5,230.8,72.5,230.9,72.5,230.9z M86.4,234.6c-0.6,0-1.1-0.1-1.5-0.4c-0.4-0.3-0.7-0.6-0.8-1.1
		c-0.2-0.5-0.3-1-0.3-1.6c0-0.7,0.1-1.2,0.3-1.7c0.2-0.5,0.5-0.8,0.9-1.1s0.9-0.4,1.5-0.4c0.3,0,0.5,0,0.8,0.1
		c0.3,0,0.6,0.1,0.8,0.2l0.2-0.7c-0.2-0.1-0.5-0.2-0.8-0.3s-0.6-0.1-1-0.1c-0.7,0-1.3,0.2-1.9,0.5c-0.5,0.3-1,0.7-1.3,1.3
		s-0.5,1.3-0.5,2.1s0.1,1.5,0.4,2.1s0.7,1,1.2,1.3s1.1,0.5,1.9,0.5c0.4,0,0.8,0,1.1-0.1c0.3-0.1,0.6-0.2,0.8-0.3v-0.7
		c-0.3,0.1-0.6,0.2-0.9,0.3C87.1,234.6,86.8,234.6,86.4,234.6z M95.7,228.8c-0.2-0.4-0.5-0.7-0.9-0.9s-0.9-0.3-1.4-0.3
		c-0.4,0-0.8,0.1-1.1,0.2c-0.3,0.1-0.6,0.3-0.8,0.5c-0.2,0.2-0.4,0.5-0.5,0.8h-0.1c0-0.2,0-0.4,0-0.5c0-0.2,0-0.4,0-0.5v-3.4h-0.8
		v10.6h0.8v-4.1c0-0.6,0.1-1.1,0.3-1.6c0.2-0.4,0.5-0.7,0.8-0.9c0.4-0.2,0.8-0.3,1.3-0.3c0.6,0,1.1,0.2,1.5,0.5
		c0.3,0.3,0.5,0.9,0.5,1.6v4.8H96v-4.9C96,229.7,95.9,229.2,95.7,228.8z M104.1,231c0-0.7-0.1-1.3-0.3-1.8c-0.2-0.5-0.5-0.9-1-1.2
		c-0.4-0.3-1-0.5-1.6-0.5c-0.7,0-1.3,0.2-1.8,0.5s-0.9,0.8-1.1,1.4c-0.2,0.6-0.4,1.3-0.4,2c0,0.8,0.1,1.4,0.4,2s0.7,1,1.2,1.3
		s1.1,0.5,1.9,0.5c0.5,0,0.9,0,1.3-0.1s0.7-0.2,1.1-0.4V234c-0.4,0.2-0.8,0.3-1.1,0.4c-0.3,0.1-0.8,0.1-1.2,0.1
		c-0.8,0-1.5-0.3-2-0.8s-0.7-1.3-0.7-2.3h5.3C104.1,231.4,104.1,231,104.1,231z M98.8,230.9c0.1-0.9,0.3-1.5,0.7-2
		c0.4-0.5,1-0.7,1.7-0.7c0.5,0,0.9,0.1,1.2,0.3c0.3,0.2,0.5,0.5,0.7,0.9s0.2,0.8,0.2,1.4h-4.5L98.8,230.9L98.8,230.9z M46.7,247.6
		c-0.5-0.6-1.3-1-2.2-1c-0.5,0-0.9,0.1-1.2,0.2c-0.3,0.1-0.6,0.3-0.8,0.6c-0.2,0.2-0.4,0.5-0.5,0.8l0,0l-0.1-1.4h-0.7v10.8H42v-3.1
		c0-0.2,0-0.5,0-0.8s0-0.5,0-0.8h0.1c0.1,0.3,0.3,0.5,0.5,0.7s0.5,0.4,0.8,0.5s0.7,0.2,1.2,0.2c0.6,0,1.2-0.2,1.6-0.5
		c0.5-0.3,0.8-0.7,1.1-1.3c0.2-0.6,0.4-1.3,0.4-2.1C47.5,249.2,47.2,248.2,46.7,247.6z M46.4,252.2c-0.2,0.5-0.4,0.8-0.8,1.1
		c-0.3,0.2-0.8,0.4-1.3,0.4s-1-0.1-1.3-0.3s-0.6-0.6-0.8-1.1s-0.2-1.1-0.2-1.8v-0.1c0-0.7,0.1-1.2,0.3-1.7s0.5-0.8,0.8-1
		c0.4-0.2,0.8-0.3,1.4-0.3c0.8,0,1.4,0.3,1.8,0.8c0.4,0.5,0.6,1.3,0.6,2.3C46.7,251.1,46.6,251.7,46.4,252.2z M55.4,248.4
		c-0.2-0.6-0.6-1-1.1-1.3s-1.1-0.5-1.8-0.5s-1.3,0.2-1.8,0.5s-0.9,0.8-1.2,1.3c-0.3,0.6-0.4,1.3-0.4,2.1c0,0.6,0.1,1.1,0.2,1.6
		c0.2,0.5,0.4,0.9,0.7,1.2s0.6,0.6,1,0.8s0.9,0.3,1.4,0.3s1-0.1,1.4-0.3s0.8-0.5,1-0.8c0.3-0.3,0.5-0.8,0.7-1.2
		c0.1-0.5,0.2-1,0.2-1.6C55.7,249.7,55.6,249,55.4,248.4z M54.7,252.1c-0.2,0.5-0.5,0.9-0.8,1.1c-0.4,0.3-0.9,0.4-1.4,0.4
		c-0.6,0-1-0.1-1.4-0.4c-0.4-0.3-0.6-0.6-0.8-1.1s-0.3-1-0.3-1.7c0-1,0.2-1.8,0.6-2.3c0.4-0.6,1.1-0.8,1.9-0.8
		c0.6,0,1.1,0.1,1.4,0.4c0.4,0.3,0.6,0.6,0.8,1.1s0.2,1,0.2,1.7C54.9,251.1,54.8,251.7,54.7,252.1z M62.1,251.2
		c-0.2-0.3-0.5-0.5-0.8-0.7c-0.4-0.2-0.8-0.3-1.2-0.5s-0.8-0.3-1.1-0.4c-0.3-0.1-0.5-0.3-0.7-0.4c-0.1-0.2-0.2-0.4-0.2-0.7
		c0-0.4,0.2-0.7,0.5-0.9s0.8-0.3,1.4-0.3c0.2,0,0.5,0,0.7,0s0.5,0.1,0.7,0.2c0.2,0.1,0.5,0.1,0.6,0.2l0.3-0.7
		c-0.3-0.1-0.7-0.3-1.1-0.3c-0.4-0.1-0.8-0.1-1.2-0.1c-0.8,0-1.5,0.2-1.9,0.5c-0.5,0.3-0.7,0.8-0.7,1.4c0,0.4,0.1,0.8,0.3,1
		c0.2,0.3,0.5,0.5,0.8,0.6c0.4,0.2,0.8,0.3,1.2,0.5c0.5,0.2,0.8,0.3,1.1,0.5c0.3,0.1,0.5,0.3,0.7,0.5s0.2,0.4,0.2,0.7
		c0,0.4-0.2,0.8-0.5,1s-0.9,0.4-1.6,0.4c-0.4,0-0.9,0-1.3-0.2c-0.4-0.1-0.8-0.3-1.1-0.4v0.8c0.3,0.1,0.6,0.2,1,0.3s0.9,0.1,1.4,0.1
		c0.6,0,1.1-0.1,1.6-0.2c0.4-0.2,0.8-0.4,1-0.7s0.3-0.7,0.3-1.1C62.4,251.8,62.3,251.4,62.1,251.2z M68.7,251.2
		c-0.2-0.3-0.5-0.5-0.8-0.7c-0.4-0.2-0.8-0.3-1.2-0.5c-0.4-0.2-0.8-0.3-1.1-0.4c-0.3-0.1-0.5-0.3-0.7-0.4c-0.2-0.2-0.2-0.4-0.2-0.7
		c0-0.4,0.2-0.7,0.5-0.9s0.8-0.3,1.4-0.3c0.2,0,0.5,0,0.7,0s0.5,0.1,0.7,0.2c0.2,0.1,0.5,0.1,0.6,0.2l0.3-0.7
		c-0.3-0.1-0.7-0.3-1.1-0.3c-0.4-0.1-0.8-0.1-1.2-0.1c-0.8,0-1.5,0.2-1.9,0.5c-0.5,0.3-0.7,0.8-0.7,1.4c0,0.4,0.1,0.8,0.3,1
		c0.2,0.3,0.5,0.5,0.8,0.6c0.3,0.2,0.8,0.3,1.2,0.5c0.5,0.2,0.8,0.3,1.1,0.5c0.3,0.1,0.5,0.3,0.7,0.5s0.2,0.4,0.2,0.7
		c0,0.4-0.2,0.8-0.5,1s-0.9,0.4-1.6,0.4c-0.4,0-0.8,0-1.3-0.2c-0.4-0.1-0.8-0.3-1.1-0.4v0.8c0.3,0.1,0.6,0.2,1,0.3s0.9,0.1,1.4,0.1
		c0.6,0,1.1-0.1,1.6-0.2c0.4-0.2,0.8-0.4,1-0.7s0.3-0.7,0.3-1.1C69,251.8,68.9,251.4,68.7,251.2z M76.7,248.4
		c-0.1-0.3-0.3-0.5-0.4-0.7c-0.2-0.2-0.4-0.5-0.7-0.6c-0.5-0.3-1.1-0.5-1.8-0.5c-0.7,0-1.3,0.2-1.8,0.5s-0.9,0.8-1.2,1.3
		c-0.3,0.6-0.4,1.3-0.4,2.1c0,0.6,0.1,1.1,0.2,1.6s0.4,0.9,0.7,1.2c0.3,0.3,0.6,0.6,1,0.8s0.9,0.3,1.4,0.3s1-0.1,1.5-0.3
		c0.4-0.2,0.8-0.5,1-0.8c0,0,0,0,0-0.1c0.3-0.3,0.5-0.7,0.6-1.1c0.2-0.5,0.2-1,0.2-1.6C77.1,249.7,77,249,76.7,248.4z M76,252.1
		c-0.2,0.5-0.5,0.9-0.8,1.1c-0.4,0.3-0.8,0.4-1.4,0.4s-1-0.1-1.4-0.4s-0.6-0.6-0.8-1.1c-0.2-0.5-0.3-1-0.3-1.7c0-1,0.2-1.8,0.6-2.3
		c0.4-0.6,1-0.8,1.9-0.8c0.6,0,1.1,0.1,1.4,0.4c0.4,0.3,0.6,0.6,0.8,1.1c0.2,0.5,0.2,1,0.2,1.7C76.3,251.1,76.2,251.7,76,252.1z
		 M84.4,247.3c-0.5-0.4-1.1-0.7-2-0.7c-0.4,0-0.8,0.1-1.1,0.2c-0.3,0.1-0.6,0.3-0.8,0.5c-0.2,0.2-0.4,0.5-0.6,0.7l0,0l-0.1-1.3h-0.6
		v7.5H80v-4.1c0-0.9,0.2-1.6,0.6-2.1s1-0.7,1.8-0.7c0.6,0,1.1,0.2,1.4,0.5s0.5,0.9,0.5,1.6v4.8h0.8v-4.9
		C85.1,248.4,84.8,247.7,84.4,247.3z M93.3,248.4c-0.2-0.6-0.6-1-1.1-1.3s-1.1-0.5-1.8-0.5c-0.7,0-1.3,0.2-1.8,0.5s-0.9,0.8-1.2,1.3
		c-0.3,0.6-0.4,1.3-0.4,2.1c0,0.6,0.1,1.1,0.2,1.6c0.2,0.5,0.4,0.9,0.7,1.2c0.3,0.3,0.6,0.6,1,0.8s0.9,0.3,1.4,0.3s1-0.1,1.4-0.3
		s0.8-0.5,1-0.8c0.3-0.3,0.5-0.8,0.6-1.2c0.1-0.5,0.2-1,0.2-1.6C93.7,249.7,93.5,249,93.3,248.4z M92.6,252.1
		c-0.2,0.5-0.5,0.9-0.8,1.1c-0.4,0.3-0.9,0.4-1.4,0.4c-0.6,0-1-0.1-1.4-0.4c-0.4-0.3-0.7-0.6-0.8-1.1c-0.2-0.5-0.3-1-0.3-1.7
		c0-1,0.2-1.8,0.6-2.3c0.4-0.6,1.1-0.8,1.9-0.8c0.6,0,1.1,0.1,1.4,0.4c0.4,0.3,0.6,0.6,0.8,1.1c0.2,0.5,0.2,1,0.2,1.7
		C92.8,251.1,92.8,251.7,92.6,252.1z M105.1,250c0-0.7-0.1-1.3-0.3-1.8c-0.2-0.5-0.5-0.9-1-1.2c-0.4-0.3-1-0.5-1.6-0.5
		c-0.7,0-1.3,0.2-1.8,0.5s-0.9,0.8-1.1,1.4c-0.2,0.6-0.4,1.3-0.4,2c0,0.8,0.1,1.4,0.4,2s0.7,1,1.2,1.3s1.2,0.5,1.9,0.5
		c0.5,0,0.9,0,1.3-0.1s0.7-0.2,1.1-0.4V253c-0.4,0.2-0.8,0.3-1.1,0.4c-0.3,0.1-0.8,0.1-1.2,0.1c-0.9,0-1.5-0.3-2-0.8
		s-0.7-1.3-0.7-2.3h5.3C105.1,250.4,105.1,250,105.1,250z M99.8,249.9c0.1-0.9,0.3-1.5,0.7-2c0.4-0.5,1-0.7,1.7-0.7
		c0.5,0,0.9,0.1,1.2,0.3c0.3,0.2,0.5,0.5,0.7,0.9c0.1,0.4,0.2,0.8,0.2,1.4h-4.5L99.8,249.9L99.8,249.9z M111.4,251.2
		c-0.2-0.3-0.5-0.5-0.8-0.7c-0.4-0.2-0.8-0.3-1.2-0.5c-0.4-0.2-0.8-0.3-1.1-0.4c-0.3-0.1-0.5-0.3-0.7-0.4c-0.2-0.2-0.2-0.4-0.2-0.7
		c0-0.4,0.2-0.7,0.5-0.9s0.8-0.3,1.4-0.3c0.2,0,0.5,0,0.7,0s0.5,0.1,0.7,0.2c0.2,0.1,0.4,0.1,0.6,0.2l0.3-0.7
		c-0.3-0.1-0.7-0.3-1.1-0.3c-0.4-0.1-0.8-0.1-1.2-0.1c-0.8,0-1.5,0.2-2,0.5s-0.7,0.8-0.7,1.4c0,0.4,0.1,0.8,0.3,1
		c0.2,0.3,0.5,0.5,0.8,0.6c0.4,0.2,0.8,0.3,1.2,0.5c0.5,0.2,0.8,0.3,1.1,0.5c0.3,0.1,0.5,0.3,0.7,0.5s0.2,0.4,0.2,0.7
		c0,0.4-0.2,0.8-0.5,1s-0.9,0.4-1.6,0.4c-0.4,0-0.8,0-1.3-0.2c-0.4-0.1-0.8-0.3-1.1-0.4v0.8c0.3,0.1,0.6,0.2,1,0.3s0.9,0.1,1.4,0.1
		c0.6,0,1.1-0.1,1.6-0.2c0.4-0.2,0.8-0.4,1-0.7s0.3-0.7,0.3-1.1C111.7,251.8,111.6,251.4,111.4,251.2z M118,251.2
		c-0.2-0.3-0.5-0.5-0.8-0.7c-0.4-0.2-0.8-0.3-1.2-0.5c-0.4-0.2-0.8-0.3-1.1-0.4c-0.3-0.1-0.5-0.3-0.7-0.4c-0.1-0.2-0.2-0.4-0.2-0.7
		c0-0.4,0.2-0.7,0.5-0.9s0.8-0.3,1.4-0.3c0.2,0,0.5,0,0.7,0s0.5,0.1,0.7,0.2c0.2,0.1,0.4,0.1,0.6,0.2l0.3-0.7
		c-0.3-0.1-0.7-0.3-1.1-0.3c-0.4-0.1-0.8-0.1-1.2-0.1c-0.8,0-1.5,0.2-1.9,0.5c-0.5,0.3-0.7,0.8-0.7,1.4c0,0.4,0.1,0.8,0.3,1
		c0.2,0.3,0.5,0.5,0.8,0.6c0.4,0.2,0.8,0.3,1.2,0.5c0.5,0.2,0.8,0.3,1.1,0.5c0.3,0.1,0.5,0.3,0.7,0.5s0.2,0.4,0.2,0.7
		c0,0.4-0.2,0.8-0.5,1s-0.9,0.4-1.6,0.4c-0.4,0-0.8,0-1.3-0.2c-0.4-0.1-0.8-0.3-1.1-0.4v0.8c0.3,0.1,0.6,0.2,1,0.3s0.9,0.1,1.4,0.1
		c0.6,0,1.1-0.1,1.6-0.2c0.4-0.2,0.8-0.4,1-0.7s0.3-0.7,0.3-1.1C118.3,251.8,118.2,251.4,118,251.2z M125.9,250
		c0-0.7-0.1-1.3-0.3-1.8c-0.2-0.5-0.5-0.9-1-1.2c-0.4-0.3-1-0.5-1.6-0.5c-0.7,0-1.3,0.2-1.8,0.5s-0.9,0.8-1.1,1.4
		c-0.2,0.6-0.4,1.3-0.4,2c0,0.8,0.1,1.4,0.4,2s0.7,1,1.2,1.3s1.2,0.5,1.9,0.5c0.5,0,0.9,0,1.3-0.1s0.7-0.2,1.1-0.4V253
		c-0.4,0.2-0.8,0.3-1.1,0.4c-0.3,0.1-0.8,0.1-1.2,0.1c-0.8,0-1.5-0.3-2-0.8s-0.7-1.3-0.7-2.3h5.3C125.9,250.4,125.9,250,125.9,250z
		 M120.6,249.9c0.1-0.9,0.3-1.5,0.7-2c0.4-0.5,1-0.7,1.7-0.7c0.5,0,0.9,0.1,1.2,0.3c0.3,0.2,0.5,0.5,0.7,0.9
		c0.1,0.4,0.2,0.8,0.2,1.4h-4.5L120.6,249.9L120.6,249.9z M131.5,246.7c-0.2,0-0.3,0-0.5,0c-0.4,0-0.7,0.1-1,0.2
		c-0.3,0.1-0.6,0.3-0.8,0.5s-0.4,0.5-0.5,0.8l0,0l-0.1-1.4h-0.7v7.5h0.8v-4.1c0-0.4,0-0.8,0.2-1.1c0.1-0.3,0.2-0.6,0.4-0.9
		c0.2-0.2,0.4-0.4,0.7-0.6s0.6-0.2,0.9-0.2c0.2,0,0.3,0,0.5,0c0.1,0,0.3,0,0.5,0.1l0.1-0.7C131.8,246.7,131.7,246.7,131.5,246.7z
		 M138.8,250c0-0.7-0.1-1.3-0.3-1.8s-0.5-0.9-1-1.2c-0.4-0.3-1-0.5-1.6-0.5c-0.7,0-1.3,0.2-1.8,0.5s-0.9,0.8-1.1,1.4
		c-0.2,0.6-0.4,1.3-0.4,2c0,0.8,0.1,1.4,0.4,2c0.3,0.6,0.7,1,1.2,1.3s1.1,0.5,1.9,0.5c0.5,0,0.9,0,1.3-0.1c0.4-0.1,0.7-0.2,1.1-0.4
		V253c-0.4,0.2-0.8,0.3-1.1,0.4c-0.4,0.1-0.8,0.1-1.2,0.1c-0.8,0-1.5-0.3-2-0.8s-0.7-1.3-0.7-2.3h5.3L138.8,250L138.8,250z
		 M133.5,249.9c0.1-0.9,0.3-1.5,0.7-2s1-0.7,1.7-0.7c0.5,0,0.9,0.1,1.2,0.3s0.5,0.5,0.7,0.9s0.2,0.8,0.2,1.4h-4.5L133.5,249.9
		L133.5,249.9z M41.1,265.7v7.5h0.8v-7.5H41.1z M41.9,263.2c-0.1-0.1-0.2-0.2-0.4-0.2s-0.3,0.1-0.4,0.2c-0.1,0.1-0.1,0.2-0.1,0.4
		s0,0.3,0.1,0.5c0.1,0.1,0.2,0.1,0.4,0.1s0.3,0,0.4-0.1c0.1-0.1,0.1-0.3,0.1-0.5S42,263.3,41.9,263.2z M49.7,266.3
		c-0.4-0.4-1.1-0.7-1.9-0.7c-0.4,0-0.8,0.1-1.1,0.2s-0.6,0.3-0.8,0.5s-0.4,0.5-0.6,0.7l0,0l-0.1-1.3h-0.6v7.5h0.8v-4.1
		c0-0.9,0.2-1.6,0.6-2.1c0.4-0.5,1-0.7,1.8-0.7c0.6,0,1.1,0.2,1.4,0.5c0.3,0.3,0.5,0.9,0.5,1.6v4.8h0.8v-4.9
		C50.3,267.4,50.1,266.7,49.7,266.3z M55.4,272.6c-0.2,0-0.4,0-0.6,0c-0.4,0-0.8-0.1-1-0.4s-0.3-0.7-0.3-1.2v-4.7h2.3v-0.7h-2.3V264
		H53l-0.3,1.7l-1.1,0.2v0.5h1.1v4.7c0,0.5,0.1,0.9,0.2,1.3c0.2,0.3,0.4,0.6,0.7,0.7s0.6,0.2,1,0.2c0.2,0,0.5,0,0.6,0
		c0.2,0,0.4-0.1,0.5-0.1v-0.7C55.8,272.5,55.6,272.6,55.4,272.6z M63.2,269c0-0.7-0.1-1.3-0.3-1.8s-0.5-0.9-1-1.2
		c-0.4-0.3-1-0.5-1.6-0.5c-0.7,0-1.3,0.2-1.8,0.5s-0.9,0.8-1.1,1.4c-0.2,0.6-0.4,1.3-0.4,2c0,0.8,0.1,1.4,0.4,2
		c0.3,0.6,0.7,1,1.2,1.3s1.2,0.5,1.9,0.5c0.5,0,0.9,0,1.3-0.1c0.4-0.1,0.7-0.2,1.1-0.4V272c-0.4,0.2-0.8,0.3-1.1,0.4
		s-0.8,0.1-1.2,0.1c-0.9,0-1.5-0.3-2-0.8c-0.4-0.5-0.7-1.3-0.7-2.3h5.3C63.2,269.4,63.2,269,63.2,269z M57.9,268.9
		c0.1-0.9,0.3-1.5,0.7-2s1-0.7,1.7-0.7c0.5,0,0.9,0.1,1.2,0.3c0.3,0.2,0.5,0.5,0.7,0.9c0.1,0.4,0.2,0.8,0.2,1.4h-4.5
		C57.9,268.8,57.9,268.9,57.9,268.9z M70.5,266.3c-0.4-0.4-1.1-0.7-1.9-0.7c-0.4,0-0.8,0.1-1.1,0.2c-0.3,0.1-0.6,0.3-0.8,0.5
		c-0.2,0.2-0.4,0.5-0.6,0.7l0,0l-0.1-1.3h-0.6v7.5H66v-4.1c0-0.9,0.2-1.6,0.6-2.1s1-0.7,1.8-0.7c0.6,0,1.1,0.2,1.5,0.5
		c0.3,0.3,0.5,0.9,0.5,1.6v4.8h0.8v-4.9C71.1,267.4,70.9,266.7,70.5,266.3z M77.9,270.2c-0.2-0.3-0.5-0.5-0.8-0.7
		c-0.2-0.1-0.5-0.2-0.7-0.3c-0.1-0.1-0.3-0.1-0.4-0.2c-0.4-0.2-0.8-0.3-1.1-0.4c-0.3-0.1-0.5-0.3-0.7-0.4c-0.1-0.2-0.2-0.4-0.2-0.7
		c0-0.4,0.2-0.7,0.5-0.9c0.3-0.2,0.8-0.3,1.4-0.3c0.2,0,0.4,0,0.6,0h0.1c0.2,0,0.5,0.1,0.7,0.2s0.5,0.1,0.6,0.2l0.3-0.7
		c-0.3-0.1-0.7-0.3-1.1-0.3c-0.2,0-0.4-0.1-0.7-0.1c-0.2,0-0.4,0-0.6,0c-0.8,0-1.5,0.2-1.9,0.5c-0.5,0.3-0.7,0.8-0.7,1.4
		c0,0.4,0.1,0.8,0.3,1c0.2,0.3,0.5,0.5,0.8,0.6c0.4,0.2,0.8,0.3,1.2,0.5c0.3,0.1,0.6,0.2,0.9,0.3c0.1,0,0.2,0.1,0.2,0.1
		c0.3,0.1,0.5,0.3,0.7,0.5s0.2,0.4,0.2,0.7c0,0.4-0.2,0.8-0.5,1c-0.2,0.1-0.4,0.2-0.7,0.3c-0.3,0.1-0.6,0.1-1,0.1s-0.9,0-1.3-0.2
		c-0.4-0.1-0.8-0.3-1.1-0.4v0.8c0.3,0.1,0.6,0.2,1,0.3c0.4,0.1,0.9,0.1,1.4,0.1c0.3,0,0.7,0,1-0.1c0.2,0,0.4-0.1,0.6-0.1
		c0.4-0.2,0.8-0.4,1-0.7c0.2-0.3,0.3-0.7,0.3-1.1C78.2,270.8,78.1,270.4,77.9,270.2z M80.1,265.7v7.5h0.8v-7.5H80.1z M80.9,263.2
		c-0.1-0.1-0.2-0.2-0.4-0.2c-0.2,0-0.3,0.1-0.4,0.2s-0.1,0.2-0.1,0.4s0,0.3,0.1,0.5c0.1,0.1,0.2,0.1,0.4,0.1c0.2,0,0.3,0,0.4-0.1
		s0.1-0.3,0.1-0.5S81,263.3,80.9,263.2z M84.2,272.1c-0.1-0.1-0.2-0.2-0.5-0.2c-0.2,0-0.3,0.1-0.4,0.2s-0.2,0.3-0.2,0.5
		s0,0.4,0.2,0.5c0.1,0.1,0.2,0.2,0.4,0.2c0.2,0,0.4-0.1,0.5-0.2s0.2-0.3,0.2-0.5C84.4,272.4,84.4,272.3,84.2,272.1z"/>
	<path class="st4" d="M86.1,456.3c-5,0-9.6,1.3-13.2,3.5c-4.9,3-8.1,7.6-8.1,12.7c0,9,9.5,16.2,21.2,16.2h39.4l0,0H165
		c10.3,0,18.7,6.4,18.7,14.3s-8.3,14.3-18.7,14.3h-23.6c-2.2-7.2-10.6-12.6-20.7-12.6H43.3v2h39.5c10.3,0,18.6,6.4,18.6,14.3
		s-8.3,14.2-18.6,14.2H0v2h120.7c11.7,0,21.2-7.3,21.2-16.2c0-0.6,0-1.1-0.1-1.7H203c11.7,0,21.2-7.3,21.2-16.2
		c0-8.2-8-15-18.4-16.1v-0.2h-75.7c-10.3,0-18.6-6.4-18.6-14.3s8.3-14.3,18.6-14.3h187.2v-2H86.1V456.3z M106.9,535.2L106.9,535.2
		c6.5-2.8,11-8.1,11-14.2c0-6.1-4.5-11.5-11.1-14.3h0.1c10.3,0,18.6,6.4,18.6,14.3C125.5,528.8,117.2,535.2,106.9,535.2z M189,488.8
		h0.1c10.3,0,18.7,6.4,18.7,14.3s-8.4,14.3-18.7,14.3H189c6.6-2.8,11.1-8.1,11.1-14.3S195.6,491.5,189,488.8z M106.1,486.8h-6.2
		c-10.3,0-18.6-6.4-18.6-14.3s8.3-14.3,18.6-14.3h6.2C99.5,461,95,466.4,95,472.5C95,478.7,99.5,484,106.1,486.8z"/>
	<path class="st4" d="M63.2,76.9H48.9V51.2h14.3v5h-7.8v4.9h7.3v5h-7.3v5.8h7.8V76.9z M83.2,69.5c0,1.5-0.3,2.8-1,4
		c-0.6,1.2-1.7,2.1-3.1,2.8c-1.4,0.7-3.2,1-5.4,1c-1.1,0-2.1-0.1-3-0.2c-0.8-0.1-1.6-0.3-2.3-0.5c-0.7-0.2-1.4-0.5-2.2-0.9v-5.6
		c1.3,0.6,2.6,1.1,3.9,1.5s2.6,0.6,3.7,0.6c0.6,0,1.2-0.1,1.6-0.3c0.4-0.2,0.7-0.5,0.9-0.8c0.2-0.4,0.3-0.8,0.3-1.2
		c0-0.6-0.1-1-0.4-1.4s-0.7-0.8-1.4-1.2c-0.6-0.4-1.5-0.8-2.6-1.2c-0.9-0.4-1.7-0.8-2.4-1.2c-0.7-0.5-1.3-1-1.8-1.5
		c-0.5-0.6-0.9-1.3-1.2-2.1c-0.3-0.8-0.4-1.8-0.4-3c0-1.6,0.4-3,1.2-4c0.8-1.1,1.8-1.9,3.2-2.5c1.4-0.6,3-0.9,4.8-0.9
		c1.6,0,3,0.2,4.2,0.5c1.3,0.3,2.4,0.8,3.4,1.3l-2,4.8c-1-0.5-2-0.9-3-1.2s-1.9-0.4-2.8-0.4c-0.6,0-1,0.1-1.4,0.3s-0.6,0.4-0.8,0.8
		c-0.2,0.3-0.3,0.7-0.3,1.1c0,0.5,0.1,0.9,0.4,1.3c0.3,0.4,0.8,0.7,1.5,1.1c0.7,0.4,1.6,0.9,2.8,1.5c1.2,0.6,2.2,1.2,3,1.8
		c0.8,0.6,1.5,1.4,1.9,2.3C82.9,67,83.2,68.1,83.2,69.5z M97.5,76.9H91V56.3h-5.9v-5.1h18.3v5.1h-5.9C97.5,56.3,97.5,76.9,97.5,76.9
		z M119.3,76.9l-1.2-5.5h-7.8l-1.2,5.5h-7.2l7.9-25.8h8.7l8,25.8H119.3z M115.4,61.1c-0.1-0.5-0.3-1.1-0.4-1.7
		c-0.1-0.6-0.3-1.3-0.4-2s-0.3-1.4-0.4-2c-0.1,0.6-0.2,1.3-0.4,2c-0.1,0.7-0.3,1.3-0.4,2c-0.1,0.6-0.3,1.2-0.4,1.7l-1.4,5.2h5.2
		L115.4,61.1z M137.3,76.9h-6.5V56.3h-5.9v-5.1h18.3v5.1h-5.9V76.9z M161,76.9h-14.3V51.2H161v5h-7.8v4.9h7.3v5h-7.3v5.8h7.8V76.9z"
		/>
</g>
</svg>
