<?xml version="1.0" encoding="utf-8"?>
<!-- Generator: Adobe Illustrator 26.4.1, SVG Export Plug-In . SVG Version: 6.00 Build 0)  -->
<svg version="1.1" id="Livello_1" xmlns="http://www.w3.org/2000/svg" xmlns:xlink="http://www.w3.org/1999/xlink" x="0px" y="0px"
	 viewBox="0 0 479.8 537.2" style="enable-background:new 0 0 479.8 537.2;" xml:space="preserve">
<style type="text/css">
	.st0{fill:#FFFFFF;}
	.st1{fill:#F4F4F4;}
	.st2{fill:none;stroke:#C9363F;stroke-width:8;}
	.st3{fill:#1D1D1D;}
</style>
<g>
	<rect x="17.8" y="4" class="st0" width="458" height="391"/>
	<path class="st1" d="M86.1,456.3c-5,0-9.6,1.3-13.2,3.5c9-1,18-2.2,26.9-3.5H86.1z M313.2,456.3c1.4,0.2,2.7,0.4,4.1,0.6v-0.6
		H313.2z M122.5,193.6c0,0.5,0.1,1,0.2,1.3v-1.3H122.5z M384.7,141.8V103H41.1v38.8h141.8c-0.8,5.1-1.7,10.4-2.7,15.6H76.3v154.4
		h64.1c-24.1,21-61.3,40.1-112.9,53.6c8.1,6,19,19.1,25.6,29.6h14c20.2-7.2,38.3-15.2,54.6-23.9c8.2,8.7,17.1,16.6,26.7,23.9h134.8
		c21.1-14.3,39.1-31.5,53-52l-30-18.8l-8.4,2.4H183.6c4.9-4.8,9.6-9.7,14.1-14.8h153V157.4H229.4c2-4.9,4-10.1,6-15.6L384.7,141.8
		L384.7,141.8z M263.5,359c-13.6,11-30.1,20.4-48.6,28.4c-19-7.9-35.4-17.3-48.8-28.4H263.5z M302.3,284.6H122.7V269h179.6V284.6z
		 M302.3,241.8H122.7v-15.2h179.6V241.8z M302.3,184.2v15.2H122.7v-15.2H302.3z M122.5,193.6c0,0.5,0.1,1,0.2,1.3v-1.3H122.5z"/>
	<rect x="17.8" y="4" class="st2" width="458" height="391"/>
	<path class="st3" d="M86.1,456.3c-5,0-9.6,1.3-13.2,3.5c-4.9,3-8.1,7.6-8.1,12.7c0,9,9.5,16.2,21.2,16.2h39.4l0,0H165
		c10.3,0,18.7,6.4,18.7,14.3s-8.3,14.3-18.7,14.3h-23.6c-2.2-7.2-10.6-12.6-20.7-12.6H43.3v2h39.5c10.3,0,18.6,6.4,18.6,14.3
		s-8.3,14.2-18.6,14.2H0v2h120.7c11.7,0,21.2-7.3,21.2-16.2c0-0.6,0-1.1-0.1-1.7H203c11.7,0,21.2-7.3,21.2-16.2
		c0-8.2-8-15-18.4-16.1v-0.2h-75.7c-10.3,0-18.6-6.4-18.6-14.3s8.3-14.3,18.6-14.3h187.2v-2H86.1V456.3z M106.9,535.2L106.9,535.2
		c6.5-2.8,11-8.1,11-14.2c0-6.1-4.5-11.5-11.1-14.3h0.1c10.3,0,18.6,6.4,18.6,14.3C125.5,528.8,117.2,535.2,106.9,535.2z M189,488.8
		h0.1c10.3,0,18.7,6.4,18.7,14.3s-8.4,14.3-18.7,14.3H189c6.6-2.8,11.1-8.1,11.1-14.3S195.6,491.5,189,488.8z M106.1,486.8h-6.2
		c-10.3,0-18.6-6.4-18.6-14.3s8.3-14.3,18.6-14.3h6.2C99.5,461,95,466.4,95,472.5C95,478.7,99.5,484,106.1,486.8z"/>
</g>
</svg>
