<svg width="319" height="82" viewBox="0 0 319 82" fill="none" xmlns="http://www.w3.org/2000/svg">
<path d="M206.728 31.3013H100.848C90.5462 31.3013 82.2009 24.9202 82.2009 17.0428C82.2009 9.16543 90.5462 2.78431 100.848 2.78431H318.229V0.803955H86.9971C75.2753 0.803955 65.7598 8.07991 65.7598 17.0428C65.7598 26.0057 75.2753 33.2817 86.9971 33.2817H206.728V31.3013Z" fill="#1D1D1D"/>
<path d="M146.545 31.3013H131.044C120.742 31.3013 112.396 24.9202 112.396 17.0428C112.396 9.16543 120.742 2.78431 131.044 2.78431H146.545V0.803955H117.192C105.471 0.803955 95.9551 8.07991 95.9551 17.0428C95.9551 26.0057 105.471 33.2817 117.192 33.2817H146.545V31.3013Z" fill="#1D1D1D"/>
<path d="M126.422 33.2959H165.923C176.225 33.2959 184.57 39.677 184.57 47.5544C184.57 55.4318 176.225 61.8129 165.923 61.8129H138.163V63.7933H179.774C191.496 63.7933 201.011 56.5173 201.011 47.5544C201.011 38.5915 191.496 31.3156 179.774 31.3156H126.422V33.2959Z" fill="#1D1D1D"/>
<path d="M174.557 33.2959H190.058C200.36 33.2959 208.705 39.677 208.705 47.5544C208.705 55.4318 200.36 61.8129 190.058 61.8129H174.557V63.7933H203.909C215.631 63.7933 225.146 56.5173 225.146 47.5544C225.146 38.5915 215.631 31.3156 203.909 31.3156H174.557V33.2959Z" fill="#1D1D1D"/>
<path d="M44.214 51.1923H83.715C94.0171 51.1923 102.362 57.5734 102.362 65.4508C102.362 73.3282 94.0171 79.7093 83.715 79.7093H0.933594V81.6896H97.5662C109.288 81.6896 118.804 74.4137 118.804 65.4508C118.804 56.4879 109.288 49.2119 97.5662 49.2119H44.214V51.1923Z" fill="#1D1D1D"/>
<path d="M92.3281 51.1921H107.829C118.131 51.1921 126.477 57.5733 126.477 65.4507C126.477 73.328 118.131 79.7092 107.829 79.7092H92.3281V81.6895H121.681C133.402 81.6895 142.918 74.4136 142.918 65.4507C142.918 56.4877 133.402 49.2118 121.681 49.2118H92.3281V51.1921Z" fill="#1D1D1D"/>
</svg>
