<?xml version="1.0" encoding="utf-8"?>
<!-- Generator: Adobe Illustrator 26.4.1, SVG Export Plug-In . SVG Version: 6.00 Build 0)  -->
<svg version="1.1" id="Livello_1" xmlns="http://www.w3.org/2000/svg" xmlns:xlink="http://www.w3.org/1999/xlink" x="0px" y="0px"
	 viewBox="0 0 466 455" style="enable-background:new 0 0 466 455;" xml:space="preserve">
<style type="text/css">
	.st0{fill:#1D1D1D;}
	.st1{fill:#282828;}
</style>
<g>
	<rect y="0" class="st0" width="466" height="400"/>
	<g>
		<path class="st1" d="M69.5,400h218c-56.7-15.1-129.9-30.5-192.3-38.2L69.5,400z"/>
		<path class="st1" d="M159.2,287.4l-26.4,34.8c40,10.4,89.2,30,116.8,46.4l26.4-38.4C246.8,315.4,198.8,297,159.2,287.4z"/>
		<path class="st1" d="M245.6,231.3c34-28.7,62.1-63.4,81.6-104.7l-34-19.6l-8.4,2.4h-9.6h-96.8c4.5-6.6,8.8-13.3,12.8-20l-20.5-7.2
			l-11.2-3.9l-6-2.1l-5.8-2l-3.3-1.2c-0.9,1.6-1.9,3.2-2.8,4.8c-1.2,2-2.4,3.9-3.6,5.9c-9.8,15.3-21.4,30.2-34.3,44.3
			c-0.3,0.3-0.6,0.6-0.9,0.9l0,0l0,0c-0.3,0.3-0.5,0.6-0.8,0.8c-0.8,0.9-1.6,1.8-2.5,2.6c-0.3,0.3-0.5,0.5-0.8,0.8
			c-4.4,4.6-8.9,9.1-13.5,13.4c-0.2,0.2-0.4,0.3-0.6,0.5c-0.8,0.8-1.6,1.5-2.5,2.3c-0.3,0.2-0.5,0.5-0.8,0.7
			c-1.1,1.1-2.3,2.1-3.5,3.1c-0.2,0.2-0.4,0.4-0.6,0.6c-4.5,4-9,7.9-13.7,11.6c-0.3,0.3-0.7,0.6-1,0.8c-0.3,0.3-0.7,0.6-1,0.8
			c-0.4,0.3-0.8,0.7-1.2,1c-0.9,0.7-1.8,1.4-2.7,2.1c-0.4,0.3-0.7,0.6-1.1,0.9c-0.2,0.2-0.4,0.3-0.6,0.5c-0.2,0.2-0.4,0.3-0.6,0.5
			C41,182.8,26,192.5,10.9,200.6c11.2,8,30.4,25.2,38.8,34.8c11.1-7.2,22.4-15.3,33.6-24.3c0.4-0.3,0.7-0.6,1.1-0.9
			c0.3-0.2,0.6-0.5,0.9-0.7c0.4-0.3,0.8-0.7,1.3-1c0.8-0.6,1.5-1.2,2.3-1.9c0.2-0.2,0.4-0.3,0.6-0.5c0.8-0.7,1.6-1.3,2.4-2
			c0.2-0.2,0.5-0.4,0.7-0.6c4.6-3.8,9.1-7.8,13.6-11.9c0.2-0.2,0.4-0.4,0.6-0.5c1-0.9,2-1.8,3-2.7c0,0,0,0.1,0.1,0.1
			c0.3,0.4,0.6,0.7,1,1c0.5,0.6,1,1.1,1.6,1.7c0.3,0.3,0.5,0.6,0.8,0.8c14.1,14.9,29.6,28.8,46.3,41.4
			c-46.2,26.1-100.2,44.7-155.3,55c8.8,11.2,19.6,31.2,24,44c62.7-14.6,123.2-37.2,174.9-70.1c45.8,26.5,98.3,46.1,155.5,58.1
			c6.4-12.8,20.4-33.2,30.8-44C337.2,267.5,288.1,251.9,245.6,231.3z M176.2,188.4c-0.3-0.2-0.5-0.4-0.8-0.7c-0.3-0.2-0.6-0.5-1-0.8
			c-0.2-0.2-0.4-0.3-0.6-0.5c-5.5-4.4-10.7-9-15.6-13.6c-0.2-0.2-0.4-0.3-0.5-0.5c-1.2-1.1-2.3-2.2-3.5-3.4l-0.7-0.7
			c-0.7-0.7-1.3-1.3-2-2c-0.2-0.2-0.4-0.4-0.6-0.6c-0.3-0.3-0.7-0.7-1-1c-0.2-0.2-0.4-0.4-0.5-0.6c-2.6-2.7-5.1-5.4-7.5-8.2
			c0.7-0.8,1.4-1.5,2-2.3c0.2-0.2,0.3-0.4,0.5-0.6c0.2-0.2,0.4-0.5,0.6-0.7h109.6c-14.5,19.9-32.7,37.9-53.6,54
			C192.3,200.5,184,194.5,176.2,188.4z"/>
	</g>
</g>
</svg>
