<?xml version="1.0" encoding="utf-8"?>
<!-- Generator: Adobe Illustrator 26.4.1, SVG Export Plug-In . SVG Version: 6.00 Build 0)  -->
<svg version="1.1" id="Livello_1" xmlns="http://www.w3.org/2000/svg" xmlns:xlink="http://www.w3.org/1999/xlink" x="0px" y="0px"
	 viewBox="0 0 466 455" style="enable-background:new 0 0 466 455;" xml:space="preserve">
<style type="text/css">
	.st0{fill:#1D1D1D;}
	.st1{fill:#282828;}
	.st2{fill:#E2E2E2;}
	.st3{fill:#FFFFFF;}
</style>
<g>
	<rect y="0" class="st0" width="466" height="400"/>
	<g>
		<path class="st1" d="M69.5,400h218c-56.7-15.1-129.9-30.5-192.3-38.2L69.5,400z"/>
		<path class="st1" d="M159.2,287.4l-26.4,34.8c40,10.4,89.2,30,116.8,46.4l26.4-38.4C246.8,315.4,198.8,297,159.2,287.4z"/>
		<path class="st1" d="M245.6,231.3c34-28.7,62.1-63.4,81.6-104.7l-34-19.6l-8.4,2.4h-9.6h-96.8c4.5-6.6,8.8-13.3,12.8-20l-20.5-7.2
			l-11.2-3.9l-6-2.1l-5.8-2l-3.3-1.2c-0.9,1.6-1.9,3.2-2.8,4.8c-1.2,2-2.4,3.9-3.6,5.9c-9.8,15.3-21.4,30.2-34.3,44.3
			c-0.3,0.3-0.6,0.6-0.9,0.9c0,0,0,0,0,0h0c-0.3,0.3-0.5,0.6-0.8,0.8c-0.8,0.9-1.6,1.8-2.5,2.6c-0.3,0.3-0.5,0.5-0.8,0.8
			c-4.4,4.6-8.9,9.1-13.5,13.4c-0.2,0.2-0.4,0.3-0.6,0.5c-0.8,0.8-1.6,1.5-2.5,2.3c-0.3,0.2-0.5,0.5-0.8,0.7
			c-1.1,1.1-2.3,2.1-3.5,3.1c-0.2,0.2-0.4,0.4-0.6,0.6c-4.5,4-9,7.9-13.7,11.6c-0.3,0.3-0.7,0.6-1,0.8c-0.3,0.3-0.7,0.6-1,0.8
			c-0.4,0.3-0.8,0.7-1.2,1c-0.9,0.7-1.8,1.4-2.7,2.1c-0.4,0.3-0.7,0.6-1.1,0.9c-0.2,0.2-0.4,0.3-0.6,0.5c-0.2,0.2-0.4,0.3-0.6,0.5
			c-14.3,10.9-29.3,20.6-44.4,28.7c11.2,8,30.4,25.2,38.8,34.8c11.1-7.2,22.4-15.3,33.6-24.3c0.4-0.3,0.7-0.6,1.1-0.9
			c0.3-0.2,0.6-0.5,0.9-0.7c0.4-0.3,0.8-0.7,1.3-1c0.8-0.6,1.5-1.2,2.3-1.9c0.2-0.2,0.4-0.3,0.6-0.5c0.8-0.7,1.6-1.3,2.4-2
			c0.2-0.2,0.5-0.4,0.7-0.6c4.6-3.8,9.1-7.8,13.6-11.9c0.2-0.2,0.4-0.4,0.6-0.5c1-0.9,2-1.8,3-2.7c0,0,0,0.1,0.1,0.1
			c0.3,0.4,0.6,0.7,1,1c0.5,0.6,1,1.1,1.6,1.7c0.3,0.3,0.5,0.6,0.8,0.8c14.1,14.9,29.6,28.8,46.3,41.4
			c-46.2,26.1-100.2,44.7-155.3,55c8.8,11.2,19.6,31.2,24,44c62.7-14.6,123.2-37.2,174.9-70.1c45.8,26.5,98.3,46.1,155.5,58.1
			c6.4-12.8,20.4-33.2,30.8-44C337.2,267.5,288.1,251.9,245.6,231.3z M176.2,188.4c-0.3-0.2-0.5-0.4-0.8-0.7c-0.3-0.2-0.6-0.5-1-0.8
			c-0.2-0.2-0.4-0.3-0.6-0.5c-5.5-4.4-10.7-9-15.6-13.6c-0.2-0.2-0.4-0.3-0.5-0.5c-1.2-1.1-2.3-2.2-3.5-3.4l-0.7-0.7
			c-0.7-0.7-1.3-1.3-2-2c-0.2-0.2-0.4-0.4-0.6-0.6c-0.3-0.3-0.7-0.7-1-1c-0.2-0.2-0.4-0.4-0.5-0.6c-2.6-2.7-5.1-5.4-7.5-8.2
			c0.7-0.8,1.4-1.5,2-2.3c0.2-0.2,0.3-0.4,0.5-0.6c0.2-0.2,0.4-0.5,0.6-0.7h109.6c-14.5,19.9-32.7,37.9-53.6,54
			C192.3,200.5,184,194.5,176.2,188.4z"/>
	</g>
	<path class="st2" d="M50.7,84H38.2v-3.5l3-1.3V63.1l-3-1.3v-3.5h12.6v3.5l-3,1.3v16.1l3,1.3V84z"/>
	<path class="st2" d="M77.5,84H69l-8.9-18.8H60c0,0.3,0,0.8,0,1.3c0,0.5,0.1,1.1,0.1,1.7c0,0.6,0.1,1.3,0.1,2c0,0.7,0,1.3,0.1,1.9
		V84h-5.8V58.3H63l8.8,18.6h0.1c0-0.3,0-0.7,0-1.2c0-0.5-0.1-1.1-0.1-1.7c0-0.6,0-1.3-0.1-1.9s0-1.3,0-1.9V58.3h5.8V84z"/>
	<path class="st2" d="M103.6,58.3l-8,25.7H88l-7.9-25.7h7.3l3.3,14.3c0.1,0.4,0.2,0.9,0.4,1.7c0.2,0.7,0.3,1.5,0.5,2.2
		c0.2,0.8,0.3,1.4,0.3,1.9c0.1-0.5,0.2-1.1,0.3-1.9c0.1-0.8,0.3-1.5,0.4-2.2c0.1-0.7,0.3-1.3,0.3-1.7l3.5-14.3H103.6z"/>
	<path class="st2" d="M120.6,84h-14.3V58.3h14.3v5h-7.8v4.9h7.3v5h-7.3V79h7.8V84z"/>
	<path class="st2" d="M141.6,77.8l-3.1-5c0.8-0.4,1.6-1,2.2-1.6c0.6-0.6,1.1-1.4,1.4-2.3c0.3-0.9,0.5-1.9,0.5-3
		c0-1.7-0.4-3.1-1.1-4.2c-0.7-1.2-1.8-2-3.3-2.6c-1.4-0.6-3.2-0.9-5.4-0.9h-7.9V84h6.5v-9.6h1.7l4.9,9.3l0.2,0.4h7.3L141.6,77.8z
		 M135.5,68.1c-0.3,0.5-0.7,0.9-1.2,1.1c-0.5,0.2-1.1,0.3-1.8,0.3h-1.2v-6.4h1.3c0.8,0,1.4,0.1,1.9,0.4c0.5,0.2,0.9,0.6,1.1,1
		c0.2,0.4,0.4,1,0.4,1.7C136,66.9,135.8,67.6,135.5,68.1z"/>
	<path class="st2" d="M170.7,84h-8.5l-8.9-18.8h-0.1c0,0.3,0,0.8,0,1.3c0,0.5,0.1,1.1,0.1,1.7c0,0.6,0.1,1.3,0.1,2
		c0,0.7,0,1.3,0.1,1.9V84h-5.8V58.3h8.5l8.8,18.6h0.1c0-0.3,0-0.7,0-1.2c0-0.5-0.1-1.1-0.1-1.7c0-0.6,0-1.3-0.1-1.9
		c0-0.6,0-1.3,0-1.9V58.3h5.8V84z"/>
	<path class="st2" d="M197.3,64.2c-0.8-2-2-3.5-3.8-4.6c-1.7-1.1-3.9-1.7-6.7-1.7c-2.7,0-5,0.6-6.7,1.7c-1.7,1.1-3,2.6-3.9,4.6
		c-0.8,2-1.2,4.3-1.2,7c0,2,0.2,3.8,0.7,5.4c0.5,1.6,1.2,3,2.1,4.2c1,1.1,2.2,2,3.6,2.7c1.5,0.6,3.2,0.9,5.3,0.9
		c2.1,0,3.9-0.3,5.3-0.9c1.5-0.6,2.7-1.5,3.6-2.7c1-1.2,1.7-2.6,2.1-4.2c0.5-1.6,0.7-3.4,0.7-5.4C198.5,68.4,198.1,66.1,197.3,64.2z
		 M191.2,75.5c-0.3,1.2-0.8,2.1-1.5,2.8c-0.7,0.6-1.6,1-2.8,1c-1.1,0-2.1-0.3-2.8-1c-0.7-0.6-1.2-1.6-1.6-2.8
		c-0.3-1.2-0.5-2.7-0.5-4.3c0-1.7,0.2-3.1,0.5-4.3c0.3-1.2,0.9-2.2,1.6-2.8c0.7-0.7,1.7-1,2.9-1c1.8,0,3,0.7,3.7,2.2s1.1,3.4,1.1,6
		C191.7,72.8,191.5,74.2,191.2,75.5z"/>
	<path class="st3" d="M38.4,135v-10h0.8v9.3h4.7v0.7H38.4z"/>
	<path class="st3" d="M44.9,125l-0.2,3.6h-0.5L44,125H44.9z"/>
	<path class="st3" d="M47.9,125c-0.1-0.1-0.2-0.2-0.4-0.2c-0.2,0-0.3,0-0.4,0.2c-0.1,0.1-0.1,0.2-0.1,0.4c0,0.2,0,0.3,0.1,0.5
		c0.1,0.1,0.2,0.2,0.4,0.2c0.2,0,0.3,0,0.4-0.2c0.1-0.1,0.1-0.3,0.1-0.5C48,125.2,48,125.1,47.9,125z M47.1,127.6v7.4h0.8v-7.4H47.1
		z"/>
	<path class="st3" d="M53.7,127.4c0.8,0,1.5,0.2,1.9,0.7c0.4,0.4,0.7,1.1,0.7,2.1v4.9h-0.8v-4.8c0-0.7-0.2-1.2-0.5-1.6
		c-0.3-0.3-0.8-0.5-1.4-0.5c-0.8,0-1.4,0.2-1.8,0.7c-0.4,0.5-0.6,1.2-0.6,2.1v4.1h-0.8v-7.4H51l0.1,1.3h0c0.1-0.3,0.3-0.5,0.6-0.7
		c0.2-0.2,0.5-0.4,0.8-0.5C52.9,127.5,53.3,127.4,53.7,127.4z"/>
	<path class="st3" d="M60.3,135l-2.9-7.4h0.8l1.8,4.9c0.1,0.2,0.2,0.4,0.2,0.6c0.1,0.2,0.1,0.4,0.2,0.6c0.1,0.2,0.1,0.3,0.1,0.5h0
		c0-0.2,0.1-0.3,0.2-0.5c0.1-0.2,0.1-0.4,0.2-0.6c0.1-0.2,0.1-0.4,0.2-0.6l1.8-4.9H64l-2.9,7.4H60.3z"/>
	<path class="st3" d="M71,130.8c0-0.7-0.1-1.3-0.3-1.8c-0.2-0.5-0.5-0.9-1-1.2c-0.4-0.3-1-0.4-1.6-0.4c-0.7,0-1.3,0.2-1.8,0.5
		c-0.5,0.3-0.9,0.8-1.1,1.4c-0.2,0.6-0.4,1.3-0.4,2c0,0.8,0.1,1.4,0.4,2c0.3,0.6,0.7,1,1.2,1.3s1.2,0.5,1.9,0.5c0.5,0,0.9,0,1.3-0.1
		c0.4-0.1,0.7-0.2,1.1-0.4v-0.7c-0.4,0.2-0.8,0.3-1.1,0.4c-0.3,0.1-0.8,0.1-1.2,0.1c-0.8,0-1.5-0.3-2-0.8c-0.5-0.5-0.7-1.3-0.7-2.3
		H71V130.8z M65.6,130.7c0.1-0.8,0.3-1.5,0.7-2s1-0.7,1.7-0.7c0.5,0,0.9,0.1,1.2,0.3c0.3,0.2,0.5,0.5,0.7,0.9
		c0.1,0.4,0.2,0.8,0.2,1.4H65.6z"/>
	<path class="st3" d="M76,127.4c0.2,0,0.4,0,0.5,0c0.2,0,0.3,0,0.5,0.1l-0.1,0.7c-0.1,0-0.3-0.1-0.4-0.1c-0.1,0-0.3,0-0.5,0
		c-0.3,0-0.6,0.1-0.9,0.2c-0.3,0.1-0.5,0.3-0.7,0.6c-0.2,0.2-0.3,0.5-0.4,0.9c-0.1,0.3-0.2,0.7-0.2,1.1v4.1H73v-7.4h0.7l0.1,1.4h0
		c0.1-0.3,0.3-0.5,0.5-0.8c0.2-0.2,0.5-0.4,0.8-0.5C75.3,127.5,75.6,127.4,76,127.4z"/>
	<path class="st3" d="M81.8,127.4c0.8,0,1.5,0.2,1.9,0.7c0.4,0.4,0.7,1.1,0.7,2.1v4.9h-0.8v-4.8c0-0.7-0.2-1.2-0.5-1.6
		c-0.3-0.3-0.8-0.5-1.4-0.5c-0.8,0-1.4,0.2-1.8,0.7c-0.4,0.5-0.6,1.2-0.6,2.1v4.1h-0.8v-7.4h0.6l0.1,1.3h0c0.1-0.3,0.3-0.5,0.6-0.7
		c0.2-0.2,0.5-0.4,0.8-0.5C81,127.5,81.4,127.4,81.8,127.4z"/>
	<path class="st3" d="M92.7,129.2c-0.3-0.6-0.6-1-1.1-1.3c-0.5-0.3-1.1-0.5-1.8-0.5c-0.7,0-1.3,0.1-1.8,0.5
		c-0.5,0.3-0.9,0.8-1.2,1.3c-0.3,0.6-0.4,1.3-0.4,2.1c0,0.6,0.1,1.1,0.2,1.6c0.1,0.5,0.4,0.9,0.7,1.2c0.3,0.3,0.6,0.6,1,0.8
		c0.4,0.2,0.9,0.3,1.4,0.3c0.6,0,1-0.1,1.5-0.3c0.4-0.2,0.8-0.4,1-0.8c0.3-0.3,0.5-0.8,0.6-1.2c0.2-0.5,0.2-1,0.2-1.6
		C93,130.5,92.9,129.8,92.7,129.2z M91.9,132.9c-0.2,0.5-0.5,0.9-0.8,1.1c-0.4,0.3-0.8,0.4-1.4,0.4c-0.6,0-1-0.1-1.4-0.4
		c-0.4-0.3-0.7-0.6-0.8-1.1c-0.2-0.5-0.3-1-0.3-1.7c0-1,0.2-1.8,0.6-2.3s1-0.8,1.9-0.8c0.6,0,1.1,0.1,1.4,0.4
		c0.4,0.3,0.6,0.6,0.8,1.1c0.2,0.5,0.2,1,0.2,1.7C92.2,131.9,92.1,132.5,91.9,132.9z"/>
	<path class="st3" d="M99.5,125c-0.1-0.1-0.2-0.2-0.4-0.2c-0.2,0-0.3,0-0.4,0.2c-0.1,0.1-0.1,0.2-0.1,0.4c0,0.2,0,0.3,0.1,0.5
		c0.1,0.1,0.2,0.2,0.4,0.2c0.2,0,0.3,0,0.4-0.2c0.1-0.1,0.1-0.3,0.1-0.5C99.6,125.2,99.6,125.1,99.5,125z M98.7,127.6v7.4h0.8v-7.4
		H98.7z"/>
	<path class="st3" d="M105.3,127.4c0.8,0,1.5,0.2,1.9,0.7c0.4,0.4,0.7,1.1,0.7,2.1v4.9h-0.8v-4.8c0-0.7-0.2-1.2-0.5-1.6
		c-0.3-0.3-0.8-0.5-1.4-0.5c-0.8,0-1.4,0.2-1.8,0.7c-0.4,0.5-0.6,1.2-0.6,2.1v4.1h-0.8v-7.4h0.6l0.1,1.3h0c0.1-0.3,0.3-0.5,0.6-0.7
		c0.2-0.2,0.5-0.4,0.8-0.5C104.5,127.5,104.9,127.4,105.3,127.4z"/>
	<path class="st3" d="M118.1,129.9h3.6v4.6c-0.5,0.2-1,0.3-1.6,0.4c-0.5,0.1-1.1,0.1-1.8,0.1c-1.1,0-1.9-0.2-2.7-0.6
		c-0.7-0.4-1.3-1-1.6-1.8c-0.4-0.8-0.6-1.7-0.6-2.8c0-1,0.2-1.9,0.6-2.7c0.4-0.8,1-1.4,1.8-1.8c0.8-0.4,1.7-0.7,2.7-0.7
		c0.6,0,1.1,0.1,1.6,0.2c0.5,0.1,1,0.2,1.4,0.4l-0.3,0.7c-0.4-0.2-0.9-0.3-1.3-0.4c-0.4-0.1-0.9-0.2-1.4-0.2c-0.9,0-1.6,0.2-2.3,0.6
		c-0.6,0.4-1.1,0.9-1.5,1.6c-0.3,0.7-0.5,1.4-0.5,2.3c0,1,0.2,1.8,0.5,2.4c0.3,0.7,0.8,1.1,1.4,1.5c0.6,0.3,1.4,0.5,2.3,0.5
		c0.3,0,0.6,0,0.9,0c0.3,0,0.5-0.1,0.8-0.1c0.2-0.1,0.5-0.1,0.7-0.2v-3.4h-2.8V129.9z"/>
	<path class="st3" d="M124.8,125c-0.1-0.1-0.2-0.2-0.4-0.2c-0.2,0-0.3,0-0.4,0.2c-0.1,0.1-0.1,0.2-0.1,0.4c0,0.2,0,0.3,0.1,0.5
		c0.1,0.1,0.2,0.2,0.4,0.2c0.2,0,0.3,0,0.4-0.2c0.1-0.1,0.1-0.3,0.1-0.5C125,125.2,124.9,125.1,124.8,125z M124,127.6v7.4h0.8v-7.4
		H124z"/>
	<path class="st3" d="M131.8,128c-0.4-0.4-1-0.6-1.9-0.6h-0.2c-0.4,0-0.8,0.1-1.1,0.2c-0.4,0.1-0.8,0.3-1.2,0.4l0.2,0.6
		c0.4-0.2,0.7-0.3,1.1-0.4c0.2,0,0.3-0.1,0.5-0.1c0.2,0,0.4,0,0.6,0c0.6,0,1,0.2,1.3,0.5c0.3,0.3,0.5,0.8,0.5,1.6v0.5l-1.4,0.1
		c-1.2,0-2,0.3-2.6,0.7c-0.6,0.4-0.9,0.9-0.9,1.7c0,0.4,0.1,0.8,0.3,1.1c0.2,0.3,0.5,0.6,0.8,0.7c0.4,0.2,0.8,0.2,1.2,0.2
		c0.5,0,0.9,0,1.2-0.2c0.3-0.1,0.6-0.3,0.8-0.5c0.2-0.2,0.4-0.5,0.6-0.8h0l0.1,1.3h0.6v-5C132.4,129.1,132.2,128.5,131.8,128z
		 M131.6,132c0,0.8-0.2,1.4-0.7,1.8c-0.4,0.4-1,0.7-1.8,0.7c-0.5,0-0.9-0.1-1.2-0.3c-0.3-0.2-0.4-0.6-0.4-1.1c0-0.6,0.2-1,0.7-1.3
		c0.5-0.3,1.2-0.5,2.1-0.5l1.3,0V132z"/>
	<path class="st3" d="M140.3,128.4c-0.5-0.6-1.3-1-2.2-1c-0.5,0-0.9,0.1-1.2,0.2c-0.3,0.1-0.6,0.3-0.8,0.6c-0.2,0.2-0.4,0.5-0.5,0.8
		h0l-0.1-1.4h-0.7v10.8h0.8v-3.1c0-0.2,0-0.5,0-0.8c0-0.3,0-0.5,0-0.8h0.1c0.1,0.3,0.3,0.5,0.5,0.7c0.2,0.2,0.5,0.4,0.8,0.5
		c0.3,0.1,0.7,0.2,1.2,0.2c0.6,0,1.2-0.1,1.7-0.4c0.5-0.3,0.8-0.7,1.1-1.3c0.2-0.6,0.4-1.3,0.4-2.1C141.2,130,140.9,129,140.3,128.4
		z M140.1,133c-0.2,0.5-0.4,0.8-0.8,1.1c-0.3,0.2-0.8,0.4-1.3,0.4c-0.5,0-1-0.1-1.3-0.3c-0.3-0.2-0.6-0.6-0.8-1
		c-0.2-0.5-0.3-1.1-0.3-1.8v-0.1c0-0.7,0.1-1.2,0.3-1.7c0.2-0.5,0.4-0.8,0.8-1c0.4-0.2,0.8-0.3,1.4-0.3c0.8,0,1.4,0.3,1.8,0.8
		c0.4,0.5,0.6,1.3,0.6,2.3C140.3,131.9,140.2,132.5,140.1,133z"/>
	<path class="st3" d="M148.7,128.4c-0.5-0.6-1.3-1-2.2-1c-0.5,0-0.9,0.1-1.2,0.2c-0.3,0.1-0.6,0.3-0.8,0.6c-0.2,0.2-0.4,0.5-0.5,0.8
		h0l-0.1-1.4h-0.7v10.8h0.8v-3.1c0-0.2,0-0.5,0-0.8c0-0.3,0-0.5,0-0.8h0.1c0.1,0.3,0.3,0.5,0.5,0.7c0.2,0.2,0.5,0.4,0.8,0.5
		c0.3,0.1,0.7,0.2,1.2,0.2c0.6,0,1.2-0.1,1.7-0.4c0.5-0.3,0.8-0.7,1.1-1.3c0.2-0.6,0.4-1.3,0.4-2.1C149.5,130,149.3,129,148.7,128.4
		z M148.4,133c-0.2,0.5-0.4,0.8-0.8,1.1c-0.3,0.2-0.8,0.4-1.3,0.4c-0.5,0-1-0.1-1.3-0.3c-0.3-0.2-0.6-0.6-0.8-1
		c-0.2-0.5-0.2-1.1-0.2-1.8v-0.1c0-0.7,0.1-1.2,0.3-1.7c0.2-0.5,0.4-0.8,0.8-1c0.4-0.2,0.8-0.3,1.4-0.3c0.8,0,1.4,0.3,1.8,0.8
		c0.4,0.5,0.6,1.3,0.6,2.3C148.7,131.9,148.6,132.5,148.4,133z"/>
	<path class="st3" d="M157.4,129.2c-0.2-0.6-0.6-1-1.1-1.3c-0.5-0.3-1.1-0.5-1.8-0.5c-0.7,0-1.3,0.1-1.8,0.5s-0.9,0.8-1.2,1.3
		c-0.3,0.6-0.4,1.3-0.4,2.1c0,0.6,0.1,1.1,0.2,1.6c0.2,0.5,0.4,0.9,0.7,1.2c0.3,0.3,0.6,0.6,1,0.8c0.4,0.2,0.9,0.3,1.4,0.3
		c0.5,0,1-0.1,1.4-0.3c0.4-0.2,0.8-0.4,1-0.8c0.3-0.3,0.5-0.8,0.6-1.2c0.2-0.5,0.2-1,0.2-1.6C157.8,130.5,157.7,129.8,157.4,129.2z
		 M156.7,132.9c-0.2,0.5-0.5,0.9-0.8,1.1c-0.4,0.3-0.8,0.4-1.4,0.4c-0.6,0-1-0.1-1.4-0.4c-0.4-0.3-0.6-0.6-0.8-1.1
		c-0.2-0.5-0.3-1-0.3-1.7c0-1,0.2-1.8,0.6-2.3c0.4-0.6,1-0.8,1.9-0.8c0.6,0,1.1,0.1,1.4,0.4c0.4,0.3,0.6,0.6,0.8,1.1
		c0.2,0.5,0.2,1,0.2,1.7C157,131.9,156.9,132.5,156.7,132.9z"/>
	<path class="st3" d="M163.1,127.4c0.8,0,1.5,0.2,1.9,0.7c0.4,0.4,0.7,1.1,0.7,2.1v4.9H165v-4.8c0-0.7-0.2-1.2-0.5-1.6
		c-0.3-0.3-0.8-0.5-1.4-0.5c-0.8,0-1.4,0.2-1.8,0.7c-0.4,0.5-0.6,1.2-0.6,2.1v4.1h-0.8v-7.4h0.6l0.1,1.3h0c0.1-0.3,0.3-0.5,0.6-0.7
		s0.5-0.4,0.8-0.5C162.4,127.5,162.7,127.4,163.1,127.4z"/>
	<path class="st3" d="M173.8,130.8c0-0.7-0.1-1.3-0.3-1.8c-0.2-0.5-0.5-0.9-1-1.2c-0.4-0.3-1-0.4-1.6-0.4c-0.7,0-1.3,0.2-1.8,0.5
		c-0.5,0.3-0.8,0.8-1.1,1.4c-0.3,0.6-0.4,1.3-0.4,2c0,0.8,0.1,1.4,0.4,2c0.3,0.6,0.7,1,1.2,1.3c0.5,0.3,1.1,0.5,1.9,0.5
		c0.5,0,0.9,0,1.3-0.1c0.4-0.1,0.7-0.2,1.1-0.4v-0.7c-0.4,0.2-0.8,0.3-1.1,0.4c-0.3,0.1-0.8,0.1-1.2,0.1c-0.8,0-1.5-0.3-2-0.8
		c-0.5-0.5-0.7-1.3-0.7-2.3h5.3V130.8z M168.5,130.7c0.1-0.8,0.3-1.5,0.7-2c0.4-0.5,1-0.7,1.7-0.7c0.5,0,0.9,0.1,1.2,0.3
		c0.3,0.2,0.5,0.5,0.7,0.9c0.2,0.4,0.2,0.8,0.2,1.4H168.5z"/>
	<path class="st3" d="M43.8,147.4c-0.5-0.6-1.3-1-2.2-1c-0.5,0-0.8,0.1-1.2,0.2c-0.3,0.1-0.6,0.3-0.8,0.6c-0.2,0.2-0.4,0.5-0.5,0.8
		h0l-0.1-1.4h-0.7v10.8H39v-3.1c0-0.2,0-0.5,0-0.8c0-0.3,0-0.5-0.1-0.8H39c0.1,0.3,0.3,0.5,0.5,0.7c0.2,0.2,0.5,0.4,0.8,0.5
		c0.3,0.1,0.7,0.2,1.1,0.2c0.7,0,1.2-0.1,1.7-0.4c0.5-0.3,0.8-0.7,1.1-1.3c0.3-0.6,0.4-1.3,0.4-2.1C44.6,149,44.3,148,43.8,147.4z
		 M43.5,152c-0.2,0.5-0.5,0.8-0.8,1.1c-0.4,0.2-0.8,0.4-1.3,0.4c-0.5,0-1-0.1-1.3-0.3c-0.4-0.2-0.6-0.6-0.8-1
		c-0.2-0.5-0.2-1.1-0.2-1.8v-0.1c0-0.7,0.1-1.2,0.3-1.7c0.2-0.5,0.4-0.8,0.8-1c0.4-0.2,0.8-0.3,1.4-0.3c0.8,0,1.4,0.3,1.8,0.8
		s0.6,1.3,0.6,2.3C43.8,150.9,43.7,151.5,43.5,152z"/>
	<path class="st3" d="M52.5,148.2c-0.2-0.6-0.6-1-1.1-1.3c-0.5-0.3-1.1-0.5-1.8-0.5c-0.7,0-1.3,0.1-1.8,0.5
		c-0.5,0.3-0.9,0.8-1.2,1.3c-0.3,0.6-0.4,1.3-0.4,2.1c0,0.6,0.1,1.1,0.2,1.6c0.1,0.5,0.4,0.9,0.7,1.2s0.6,0.6,1,0.8
		c0.4,0.2,0.9,0.3,1.4,0.3c0.5,0,1-0.1,1.4-0.3c0.4-0.2,0.8-0.4,1-0.8c0.3-0.3,0.5-0.8,0.7-1.2c0.2-0.5,0.2-1,0.2-1.6
		C52.8,149.5,52.7,148.8,52.5,148.2z M51.8,151.9c-0.2,0.5-0.5,0.9-0.8,1.1c-0.4,0.3-0.8,0.4-1.4,0.4c-0.6,0-1-0.1-1.4-0.4
		c-0.4-0.3-0.6-0.6-0.8-1.1s-0.3-1-0.3-1.7c0-1,0.2-1.8,0.6-2.3s1.1-0.8,1.9-0.8c0.6,0,1.1,0.1,1.4,0.4c0.4,0.3,0.6,0.6,0.8,1.1
		c0.2,0.5,0.3,1,0.3,1.7C52,150.9,51.9,151.5,51.8,151.9z"/>
	<path class="st3" d="M57.9,146.4c0.2,0,0.4,0,0.5,0c0.2,0,0.3,0,0.5,0.1l-0.1,0.7c-0.1,0-0.3-0.1-0.4-0.1c-0.1,0-0.3,0-0.5,0
		c-0.3,0-0.6,0.1-0.9,0.2c-0.3,0.1-0.5,0.3-0.7,0.6c-0.2,0.2-0.3,0.5-0.4,0.9c-0.1,0.3-0.2,0.7-0.2,1.1v4.1h-0.8v-7.4h0.7l0.1,1.4h0
		c0.1-0.3,0.3-0.5,0.5-0.8c0.2-0.2,0.5-0.4,0.8-0.5C57.2,146.5,57.6,146.4,57.9,146.4z"/>
	<path class="st3" d="M62.5,153.5c0.2,0,0.4,0,0.6,0c0.2,0,0.3-0.1,0.5-0.1v0.6c-0.1,0.1-0.3,0.1-0.5,0.1c-0.2,0-0.4,0.1-0.7,0.1
		c-0.4,0-0.8-0.1-1-0.2c-0.3-0.2-0.5-0.4-0.7-0.7c-0.1-0.3-0.2-0.7-0.2-1.3v-4.7h-1.1v-0.4l1.1-0.3l0.3-1.7h0.5v1.8h2.3v0.6h-2.3
		v4.7c0,0.5,0.1,0.9,0.3,1.2C61.7,153.3,62.1,153.5,62.5,153.5z"/>
	<path class="st3" d="M69.7,147c-0.4-0.4-1-0.6-1.9-0.6c-0.5,0-0.9,0.1-1.3,0.2c-0.4,0.1-0.8,0.3-1.1,0.4l0.2,0.6
		c0.4-0.2,0.7-0.3,1-0.4c0.4-0.1,0.7-0.2,1.1-0.2c0.6,0,1,0.2,1.3,0.5c0.3,0.3,0.4,0.8,0.4,1.6v0.5l-1.4,0.1c-1.2,0-2,0.3-2.7,0.7
		c-0.6,0.4-0.9,0.9-0.9,1.7c0,0.4,0.1,0.8,0.3,1.1c0.2,0.3,0.5,0.6,0.8,0.7c0.3,0.2,0.8,0.2,1.2,0.2c0.5,0,0.9,0,1.2-0.2
		c0.3-0.1,0.6-0.3,0.8-0.5c0.2-0.2,0.4-0.5,0.6-0.8h0l0.1,1.3h0.6v-5C70.3,148.1,70.1,147.5,69.7,147z M69.5,151
		c0,0.8-0.2,1.4-0.7,1.8c-0.4,0.4-1,0.7-1.8,0.7c-0.5,0-0.9-0.1-1.2-0.3c-0.3-0.2-0.4-0.6-0.4-1.1c0-0.6,0.2-1,0.7-1.3
		c0.5-0.3,1.2-0.5,2.1-0.5l1.3,0V151z"/>
	<path class="st3" d="M82.1,146.6v7.4h-0.7l-0.1-1.3h0c-0.1,0.3-0.3,0.5-0.6,0.7c-0.2,0.2-0.5,0.4-0.8,0.5c-0.3,0.1-0.7,0.2-1.1,0.2
		c-0.6,0-1.1-0.1-1.5-0.3c-0.4-0.2-0.7-0.5-0.9-0.9s-0.3-0.9-0.3-1.5v-4.9H77v4.8c0,0.7,0.2,1.2,0.5,1.6c0.3,0.3,0.8,0.5,1.4,0.5
		c0.6,0,1-0.1,1.4-0.3c0.4-0.2,0.6-0.5,0.8-1c0.2-0.4,0.3-0.9,0.3-1.6v-4.1H82.1z"/>
	<path class="st3" d="M87.9,146.4c0.8,0,1.5,0.2,1.9,0.7c0.4,0.4,0.7,1.1,0.7,2.1v4.9h-0.8v-4.8c0-0.7-0.2-1.2-0.5-1.6
		c-0.3-0.3-0.8-0.5-1.4-0.5c-0.8,0-1.4,0.2-1.8,0.7c-0.4,0.5-0.6,1.2-0.6,2.1v4.1h-0.8v-7.4h0.6l0.1,1.3h0c0.1-0.3,0.3-0.5,0.6-0.7
		c0.2-0.2,0.5-0.4,0.8-0.5C87.1,146.5,87.5,146.4,87.9,146.4z"/>
	<path class="st3" d="M99.6,154.1c-0.7,0-1.3-0.1-1.9-0.4c-0.5-0.3-0.9-0.7-1.2-1.3c-0.3-0.6-0.4-1.3-0.4-2.1c0-0.8,0.1-1.5,0.4-2.1
		c0.3-0.6,0.7-1,1.3-1.3c0.5-0.3,1.2-0.5,1.9-0.5c0.4,0,0.7,0,1,0.1c0.3,0.1,0.6,0.2,0.8,0.3l-0.2,0.7c-0.3-0.1-0.5-0.2-0.8-0.2
		c-0.3-0.1-0.6-0.1-0.8-0.1c-0.6,0-1.1,0.1-1.5,0.4c-0.4,0.3-0.7,0.6-0.9,1.1c-0.2,0.5-0.3,1-0.3,1.7c0,0.6,0.1,1.2,0.3,1.6
		c0.2,0.5,0.5,0.8,0.9,1.1s0.9,0.4,1.5,0.4c0.4,0,0.7,0,1-0.1c0.3-0.1,0.6-0.2,0.9-0.3v0.7c-0.2,0.1-0.5,0.2-0.8,0.3
		C100.3,154.1,100,154.1,99.6,154.1z"/>
	<path class="st3" d="M104,154h-0.8v-10.6h0.8V154z"/>
	<path class="st3" d="M107.3,144c-0.1-0.1-0.2-0.2-0.4-0.2c-0.2,0-0.3,0-0.4,0.2c-0.1,0.1-0.1,0.2-0.1,0.4c0,0.2,0,0.3,0.1,0.5
		c0.1,0.1,0.2,0.2,0.4,0.2c0.2,0,0.3,0,0.4-0.2c0.1-0.1,0.1-0.3,0.1-0.5C107.4,144.2,107.4,144.1,107.3,144z M106.5,146.6v7.4h0.8
		v-7.4H106.5z"/>
	<path class="st3" d="M117.5,146.4c0.7,0,1.3,0.2,1.7,0.6c0.4,0.4,0.6,1.1,0.6,2v5h-0.8v-4.9c0-0.7-0.1-1.2-0.4-1.5
		c-0.3-0.3-0.7-0.5-1.2-0.5c-0.7,0-1.3,0.2-1.7,0.6c-0.4,0.4-0.6,1.1-0.6,1.9v4.4h-0.8v-4.9c0-0.4-0.1-0.8-0.2-1.1
		c-0.1-0.3-0.3-0.5-0.6-0.6c-0.2-0.1-0.5-0.2-0.9-0.2c-0.5,0-0.9,0.1-1.2,0.3s-0.6,0.5-0.8,0.9c-0.2,0.4-0.3,0.9-0.3,1.5v4.2h-0.8
		v-7.4h0.6l0.1,1.2h0c0.1-0.3,0.3-0.5,0.5-0.7c0.2-0.2,0.5-0.4,0.8-0.5c0.3-0.1,0.6-0.2,1-0.2c0.6,0,1,0.1,1.4,0.3
		c0.4,0.2,0.6,0.6,0.8,1.1h0.1c0.2-0.4,0.5-0.8,1-1C116.4,146.5,116.9,146.4,117.5,146.4z"/>
	<path class="st3" d="M126.7,147c-0.4-0.4-1-0.6-1.9-0.6c-0.4,0-0.9,0.1-1.3,0.2s-0.8,0.3-1.2,0.4l0.3,0.6c0.4-0.2,0.7-0.3,1-0.4
		c0.4-0.1,0.7-0.2,1.1-0.2c0.6,0,1,0.2,1.3,0.5c0.3,0.3,0.5,0.8,0.5,1.6v0.5l-1.4,0.1c-1.2,0-2,0.3-2.6,0.7
		c-0.6,0.4-0.9,0.9-0.9,1.7c0,0,0,0.1,0,0.1c0,0.4,0.1,0.7,0.3,1c0.2,0.3,0.5,0.6,0.8,0.7c0.3,0.2,0.8,0.2,1.2,0.2
		c0.5,0,0.9,0,1.2-0.2c0.3-0.1,0.6-0.3,0.8-0.5c0.2-0.2,0.4-0.5,0.6-0.8h0l0.1,1.3h0.6v-5C127.4,148.1,127.2,147.5,126.7,147z
		 M125.9,152.8c-0.4,0.4-1,0.7-1.8,0.7c-0.5,0-0.9-0.1-1.2-0.3c-0.3-0.2-0.4-0.5-0.4-0.9c0,0,0-0.1,0-0.1c0-0.6,0.2-1,0.7-1.3
		c0.5-0.3,1.2-0.5,2.1-0.5l1.3,0v0.7c0,0.5-0.1,0.9-0.3,1.2C126.2,152.4,126.1,152.6,125.9,152.8z"/>
	<path class="st3" d="M136.3,147.2h-1.8v6.8h-0.8v-6.8h-1.4v-0.4l1.4-0.2v-0.8c0-0.6,0.1-1,0.2-1.4c0.2-0.4,0.4-0.6,0.7-0.8
		c0.3-0.2,0.8-0.3,1.2-0.3c0.3,0,0.5,0,0.7,0.1c0.2,0,0.4,0.1,0.6,0.1l-0.2,0.7c-0.2-0.1-0.3-0.1-0.5-0.1c-0.2,0-0.4-0.1-0.6-0.1
		c-0.5,0-0.9,0.1-1.1,0.4c-0.2,0.3-0.3,0.7-0.3,1.4v0.8h1.8V147.2z"/>
	<path class="st3" d="M140.7,146.4c0.2,0,0.4,0,0.5,0c0.2,0,0.3,0,0.5,0.1l-0.1,0.7c-0.1,0-0.3-0.1-0.4-0.1c-0.1,0-0.3,0-0.5,0
		c-0.3,0-0.6,0.1-0.9,0.2c-0.3,0.1-0.5,0.3-0.7,0.6s-0.3,0.5-0.4,0.9s-0.2,0.7-0.2,1.1v4.1h-0.8v-7.4h0.7l0.1,1.4h0
		c0.1-0.3,0.3-0.5,0.5-0.8c0.2-0.2,0.5-0.4,0.8-0.5C140.1,146.5,140.4,146.4,140.7,146.4z"/>
	<path class="st3" d="M148.6,150.4v-0.5c0-0.6-0.1-1.1-0.3-1.6c0-0.1,0-0.1-0.1-0.2c-0.2-0.5-0.5-0.9-1-1.2c-0.4-0.3-1-0.4-1.6-0.4
		c-0.7,0-1.3,0.2-1.8,0.5c-0.5,0.3-0.8,0.8-1.1,1.4c-0.3,0.6-0.4,1.3-0.4,2c0,0.7,0.1,1.3,0.3,1.8c0,0.1,0,0.1,0.1,0.2
		c0.2,0.5,0.5,0.8,0.9,1.1c0.1,0.1,0.2,0.1,0.3,0.2c0.5,0.3,1.1,0.5,1.9,0.5c0.5,0,0.9,0,1.3-0.1c0.4-0.1,0.7-0.2,1.1-0.4v-0.7
		c-0.4,0.2-0.8,0.3-1.1,0.4c-0.3,0.1-0.8,0.1-1.2,0.1c-0.7,0-1.2-0.2-1.7-0.5c-0.1-0.1-0.2-0.2-0.3-0.3c-0.1-0.1-0.2-0.3-0.3-0.5
		c-0.3-0.5-0.4-1.1-0.4-1.8H148.6z M143.3,149.7c0.1-0.8,0.3-1.5,0.7-2c0.4-0.5,1-0.7,1.7-0.7c0.5,0,0.9,0.1,1.2,0.3
		c0.3,0.2,0.5,0.5,0.7,0.9c0.1,0.2,0.1,0.4,0.2,0.6c0,0,0,0,0,0c0,0.2,0.1,0.5,0.1,0.7H143.3z"/>
	<path class="st3" d="M155.8,143.4v3c0,0.2,0,0.5,0,0.7c0,0.3,0,0.5,0,0.7h-0.1c-0.1-0.3-0.3-0.5-0.5-0.7c-0.2-0.2-0.5-0.4-0.8-0.5
		c-0.3-0.1-0.7-0.2-1.1-0.2c-1,0-1.8,0.3-2.3,1c-0.6,0.7-0.8,1.7-0.8,2.9c0,0.7,0.1,1.3,0.3,1.8c0.1,0.4,0.3,0.7,0.5,1
		c0.5,0.6,1.3,1,2.3,1c0.5,0,0.8-0.1,1.1-0.2c0.3-0.1,0.6-0.3,0.8-0.5c0.2-0.2,0.4-0.5,0.5-0.7h0.1l0.1,1.3h0.6v-10.6H155.8z
		 M155.3,152.7c-0.4,0.5-1,0.8-1.8,0.8c-0.8,0-1.4-0.3-1.8-0.8c-0.1-0.1-0.2-0.3-0.3-0.5c-0.2-0.5-0.3-1.1-0.3-1.8
		c0-1.1,0.2-1.9,0.6-2.4c0.4-0.6,1-0.9,1.8-0.9c0.8,0,1.4,0.3,1.8,0.8c0.4,0.5,0.5,1.3,0.5,2.3v0.1c0,0.7-0.1,1.3-0.3,1.8
		C155.5,152.4,155.4,152.5,155.3,152.7z"/>
	<path class="st3" d="M164.2,143.4v3c0,0.2,0,0.5,0,0.7c0,0.3,0,0.5,0,0.7h0c-0.1-0.3-0.3-0.5-0.5-0.7c-0.2-0.2-0.5-0.4-0.8-0.5
		c-0.3-0.1-0.7-0.2-1.1-0.2c-1,0-1.8,0.3-2.3,1c-0.6,0.7-0.8,1.7-0.8,2.9c0,0.7,0.1,1.3,0.3,1.8c0.1,0.4,0.3,0.7,0.5,1
		c0.5,0.6,1.3,1,2.3,1c0.4,0,0.8-0.1,1.1-0.2s0.6-0.3,0.8-0.5c0.2-0.2,0.4-0.5,0.5-0.7h0l0.1,1.3h0.6v-10.6H164.2z M163.6,152.7
		c-0.4,0.5-1,0.8-1.8,0.8c-0.8,0-1.4-0.3-1.8-0.8c-0.1-0.1-0.2-0.3-0.3-0.5c-0.2-0.5-0.3-1.1-0.3-1.8c0-1.1,0.2-1.9,0.6-2.4
		c0.4-0.6,1-0.9,1.8-0.9c0.8,0,1.4,0.3,1.8,0.8c0.4,0.5,0.5,1.3,0.5,2.3v0.1c0,0.7-0.1,1.3-0.3,1.8
		C163.8,152.4,163.7,152.5,163.6,152.7z"/>
	<path class="st3" d="M173.3,148.2c-0.2-0.6-0.6-1-1.1-1.3c-0.5-0.3-1.1-0.5-1.8-0.5c-0.7,0-1.3,0.1-1.8,0.5
		c-0.5,0.3-0.9,0.8-1.2,1.3c-0.3,0.6-0.4,1.3-0.4,2.1c0,0.6,0.1,1.1,0.2,1.6c0,0.1,0.1,0.2,0.1,0.3c0.1,0.3,0.3,0.6,0.5,0.9
		c0.3,0.3,0.6,0.6,1,0.8c0.4,0.2,0.9,0.3,1.4,0.3c0.5,0,1-0.1,1.4-0.3c0.4-0.2,0.8-0.4,1.1-0.8c0.2-0.3,0.4-0.5,0.5-0.9
		c0-0.1,0.1-0.2,0.1-0.3c0.2-0.5,0.2-1,0.2-1.6C173.7,149.5,173.5,148.8,173.3,148.2z M171.7,153.1c-0.4,0.3-0.8,0.4-1.4,0.4
		c-0.6,0-1-0.1-1.4-0.4c-0.3-0.2-0.6-0.5-0.7-0.9c0-0.1-0.1-0.2-0.1-0.2c-0.2-0.5-0.3-1-0.3-1.7c0-1,0.2-1.8,0.6-2.3s1-0.8,1.9-0.8
		c0.6,0,1.1,0.1,1.4,0.4c0.4,0.3,0.6,0.6,0.8,1.1c0.2,0.5,0.2,1,0.2,1.7c0,0.6-0.1,1.2-0.3,1.7c0,0.1-0.1,0.2-0.1,0.2
		C172.3,152.6,172,152.8,171.7,153.1z"/>
	<path class="st3" d="M185,149.8c0-0.7-0.1-1.3-0.3-1.8c-0.2-0.5-0.5-0.9-1-1.2c-0.4-0.3-0.9-0.4-1.6-0.4c-0.7,0-1.3,0.2-1.8,0.5
		c-0.5,0.3-0.8,0.8-1.1,1.4c-0.3,0.6-0.4,1.3-0.4,2c0,0.7,0.1,1.3,0.3,1.8c0,0.1,0,0.1,0.1,0.2c0.3,0.6,0.7,1,1.2,1.3
		c0.5,0.3,1.1,0.5,1.9,0.5c0.5,0,0.9,0,1.3-0.1c0.4-0.1,0.7-0.2,1.1-0.4v-0.7c-0.4,0.2-0.8,0.3-1.1,0.4c-0.3,0.1-0.8,0.1-1.2,0.1
		c-0.8,0-1.5-0.3-2-0.8c-0.1-0.1-0.2-0.3-0.3-0.5c-0.3-0.5-0.4-1.1-0.4-1.8h5.3V149.8z M179.7,149.7c0.1-0.8,0.3-1.5,0.7-2
		c0.4-0.5,1-0.7,1.7-0.7c0.5,0,0.9,0.1,1.2,0.3c0.3,0.2,0.5,0.5,0.7,0.9c0.2,0.4,0.2,0.8,0.2,1.4H179.7z"/>
	<path class="st3" d="M41.6,165.4c0.8,0,1.5,0.2,1.9,0.7c0.4,0.4,0.7,1.1,0.7,2.1v4.9h-0.8v-4.8c0-0.7-0.2-1.2-0.5-1.6
		c-0.3-0.3-0.8-0.5-1.4-0.5c-0.8,0-1.4,0.2-1.8,0.7S39,168,39,168.9v4.1h-0.8v-7.4h0.6l0.1,1.3h0c0.1-0.3,0.3-0.5,0.6-0.7
		s0.5-0.4,0.8-0.5C40.8,165.5,41.1,165.4,41.6,165.4z"/>
	<path class="st3" d="M52.3,168.8c0-0.7-0.1-1.3-0.3-1.8c-0.2-0.5-0.5-0.9-1-1.2c-0.4-0.3-0.9-0.4-1.6-0.4c-0.7,0-1.3,0.2-1.8,0.5
		c-0.5,0.3-0.9,0.8-1.1,1.4c-0.2,0.6-0.4,1.3-0.4,2c0,0.8,0.1,1.4,0.4,2c0.3,0.6,0.7,1,1.2,1.3c0.5,0.3,1.2,0.5,1.9,0.5
		c0.5,0,0.9,0,1.3-0.1c0.4-0.1,0.7-0.2,1.1-0.4v-0.7c-0.4,0.2-0.8,0.3-1.1,0.4c-0.4,0.1-0.8,0.1-1.2,0.1c-0.8,0-1.5-0.3-2-0.8
		c-0.5-0.5-0.7-1.3-0.7-2.3h5.3V168.8z M47,168.7c0.1-0.8,0.3-1.5,0.8-2c0.4-0.5,1-0.7,1.7-0.7c0.5,0,0.9,0.1,1.2,0.3
		c0.3,0.2,0.5,0.5,0.7,0.9c0.2,0.4,0.2,0.8,0.2,1.4H47z"/>
	<path class="st3" d="M55.6,173l-2.9-7.4h0.8l1.8,4.9c0.1,0.2,0.2,0.4,0.2,0.6c0.1,0.2,0.1,0.4,0.2,0.6c0.1,0.2,0.1,0.3,0.1,0.5h0
		c0-0.2,0.1-0.3,0.2-0.5c0.1-0.2,0.1-0.4,0.2-0.6c0.1-0.2,0.1-0.4,0.2-0.6l1.8-4.9h0.9l-2.9,7.4H55.6z"/>
	<path class="st3" d="M66.4,167.2c-0.2-0.6-0.6-1-1.1-1.3c-0.5-0.3-1-0.5-1.7-0.5h0c-0.7,0-1.3,0.1-1.8,0.5
		c-0.5,0.3-0.9,0.8-1.2,1.3c-0.1,0.2-0.2,0.5-0.3,0.8c-0.1,0.4-0.1,0.8-0.1,1.2c0,0.6,0.1,1.1,0.2,1.6c0.2,0.5,0.4,0.9,0.7,1.2
		c0.3,0.3,0.6,0.6,1,0.8c0.4,0.2,0.9,0.3,1.4,0.3c0.5,0,1-0.1,1.4-0.3c0.4-0.2,0.8-0.4,1-0.8c0.3-0.3,0.5-0.8,0.7-1.2
		c0.1-0.5,0.2-1,0.2-1.6C66.8,168.5,66.7,167.8,66.4,167.2z M65.7,170.9c-0.2,0.5-0.5,0.9-0.8,1.1c-0.4,0.3-0.8,0.4-1.4,0.4
		c-0.6,0-1-0.1-1.4-0.4c-0.4-0.3-0.7-0.6-0.8-1.1s-0.3-1-0.3-1.7c0-0.9,0.2-1.7,0.5-2.2c0,0,0.1-0.1,0.1-0.1
		c0.2-0.3,0.5-0.5,0.9-0.7c0.3-0.1,0.6-0.2,1-0.2c0.6,0,1.1,0.1,1.4,0.4c0.4,0.3,0.6,0.6,0.8,1.1c0.2,0.5,0.3,1,0.3,1.7
		C66,169.9,65.9,170.5,65.7,170.9z"/>
	<path class="st3" d="M73.5,171c0,0.4-0.1,0.8-0.3,1.1s-0.6,0.6-1,0.7c-0.4,0.2-1,0.2-1.6,0.2c-0.5,0-1,0-1.4-0.1
		c-0.4-0.1-0.7-0.2-1-0.3v-0.8c0.3,0.2,0.7,0.3,1.1,0.4c0.4,0.1,0.8,0.2,1.3,0.2c0.7,0,1.3-0.1,1.6-0.4c0.3-0.3,0.5-0.6,0.5-1
		c0-0.3-0.1-0.5-0.2-0.7c-0.1-0.2-0.4-0.3-0.7-0.5c-0.3-0.1-0.7-0.3-1.1-0.4c-0.5-0.2-0.9-0.3-1.2-0.5c-0.4-0.2-0.6-0.4-0.8-0.6
		s-0.3-0.6-0.3-1c0-0.6,0.2-1.1,0.7-1.4c0.5-0.3,1.1-0.5,1.9-0.5c0.4,0,0.9,0,1.2,0.1c0.4,0.1,0.7,0.2,1.1,0.3l-0.3,0.7
		c-0.2-0.1-0.4-0.2-0.6-0.2c-0.2-0.1-0.5-0.1-0.7-0.2c-0.2,0-0.5-0.1-0.7-0.1c-0.6,0-1,0.1-1.4,0.3c-0.3,0.2-0.5,0.5-0.5,0.9
		c0,0.3,0.1,0.5,0.2,0.7c0.2,0.2,0.4,0.3,0.7,0.4c0.3,0.1,0.7,0.3,1.1,0.4c0.4,0.1,0.8,0.3,1.2,0.5c0.4,0.2,0.6,0.4,0.9,0.6
		C73.4,170.2,73.5,170.6,73.5,171z"/>
	<path class="st3" d="M81.2,167.2c-0.2-0.6-0.6-1-1.1-1.3c-0.5-0.3-1.1-0.5-1.8-0.5c-0.7,0-1.3,0.1-1.8,0.5s-0.9,0.8-1.2,1.3
		c-0.3,0.6-0.4,1.3-0.4,2.1c0,0.6,0.1,1.1,0.2,1.6c0.2,0.5,0.4,0.9,0.7,1.2c0.3,0.3,0.6,0.6,1,0.8c0.4,0.2,0.9,0.3,1.4,0.3
		c0.5,0,1-0.1,1.4-0.3c0.4-0.2,0.8-0.4,1-0.8c0.3-0.3,0.5-0.8,0.6-1.2c0.2-0.5,0.2-1,0.2-1.6C81.6,168.5,81.5,167.8,81.2,167.2z
		 M80.5,170.9c-0.2,0.5-0.5,0.9-0.8,1.1c-0.4,0.3-0.8,0.4-1.4,0.4c-0.6,0-1-0.1-1.4-0.4c-0.4-0.3-0.6-0.6-0.8-1.1
		c-0.2-0.5-0.3-1-0.3-1.7c0-1,0.2-1.8,0.6-2.3c0.4-0.6,1.1-0.8,1.9-0.8c0.6,0,1.1,0.1,1.4,0.4c0.4,0.3,0.6,0.6,0.8,1.1
		c0.2,0.5,0.2,1,0.2,1.7C80.8,169.9,80.7,170.5,80.5,170.9z"/>
	<path class="st3" d="M84.6,171.5c-0.1,0.3-0.2,0.7-0.3,1.1c-0.1,0.4-0.2,0.8-0.4,1.1s-0.3,0.7-0.4,1.1H83c0.1-0.4,0.2-0.8,0.3-1.2
		s0.2-0.8,0.3-1.1s0.1-0.7,0.2-1.1h0.8L84.6,171.5z"/>
	<path class="st3" d="M95.1,171c0,0.4-0.1,0.8-0.3,1.1s-0.6,0.6-1,0.7c-0.4,0.2-1,0.2-1.6,0.2c-0.5,0-1,0-1.4-0.1
		c-0.4-0.1-0.7-0.2-1-0.3v-0.8c0.3,0.2,0.7,0.3,1.1,0.4c0.4,0.1,0.8,0.2,1.3,0.2c0.7,0,1.3-0.1,1.6-0.4c0.3-0.3,0.5-0.6,0.5-1
		c0-0.3-0.1-0.5-0.2-0.7c-0.1-0.2-0.4-0.3-0.7-0.5c-0.3-0.1-0.7-0.3-1.1-0.4c-0.5-0.2-0.9-0.3-1.2-0.5c-0.4-0.2-0.6-0.4-0.8-0.6
		c-0.2-0.3-0.3-0.6-0.3-1c0-0.6,0.2-1.1,0.7-1.4c0.5-0.3,1.1-0.5,1.9-0.5c0.4,0,0.9,0,1.2,0.1c0.4,0.1,0.7,0.2,1.1,0.3l-0.3,0.7
		c-0.2-0.1-0.4-0.2-0.6-0.2c-0.2-0.1-0.5-0.1-0.7-0.2c-0.2,0-0.5-0.1-0.7-0.1c-0.6,0-1,0.1-1.4,0.3c-0.3,0.2-0.5,0.5-0.5,0.9
		c0,0.3,0.1,0.5,0.2,0.7c0.2,0.2,0.4,0.3,0.7,0.4c0.3,0.1,0.7,0.3,1.1,0.4c0.4,0.1,0.8,0.3,1.2,0.5c0.4,0.2,0.6,0.4,0.9,0.6
		C95,170.2,95.1,170.6,95.1,171z"/>
	<path class="st3" d="M102.8,167.2c-0.2-0.6-0.6-1-1.1-1.3c-0.5-0.3-1.1-0.5-1.8-0.5c-0.7,0-1.3,0.1-1.8,0.5
		c-0.5,0.3-0.9,0.8-1.2,1.3c-0.3,0.6-0.4,1.3-0.4,2.1c0,0.6,0.1,1.1,0.2,1.6c0.1,0.5,0.4,0.9,0.6,1.2c0.3,0.3,0.6,0.6,1,0.8
		c0.4,0.2,0.9,0.3,1.4,0.3c0.5,0,1-0.1,1.4-0.3c0.4-0.2,0.8-0.4,1-0.8c0.3-0.3,0.5-0.8,0.6-1.2c0.2-0.5,0.2-1,0.2-1.6
		C103.2,168.5,103.1,167.8,102.8,167.2z M102.1,170.9c-0.2,0.5-0.4,0.9-0.8,1.1c-0.4,0.3-0.9,0.4-1.4,0.4c-0.6,0-1-0.1-1.4-0.4
		c-0.4-0.3-0.7-0.6-0.8-1.1c-0.2-0.5-0.3-1-0.3-1.7c0-1,0.2-1.8,0.6-2.3s1-0.8,1.9-0.8c0.6,0,1.1,0.1,1.4,0.4
		c0.4,0.3,0.6,0.6,0.8,1.1c0.2,0.5,0.2,1,0.2,1.7C102.4,169.9,102.3,170.5,102.1,170.9z"/>
	<path class="st3" d="M110.8,166.4c-0.5-0.6-1.3-1-2.2-1c-0.5,0-0.9,0.1-1.2,0.2c-0.3,0.1-0.6,0.3-0.8,0.6c-0.2,0.2-0.4,0.5-0.5,0.8
		h0l-0.1-1.4h-0.7v10.8h0.8v-3.1c0-0.2,0-0.5,0-0.8c0-0.3,0-0.5,0-0.8h0.1c0.1,0.3,0.3,0.5,0.5,0.7c0.2,0.2,0.5,0.4,0.8,0.5
		c0.3,0.1,0.7,0.2,1.1,0.2c0.6,0,1.2-0.1,1.7-0.4c0.5-0.3,0.8-0.7,1.1-1.3c0.2-0.6,0.4-1.3,0.4-2.1C111.6,168,111.3,167,110.8,166.4
		z M110.5,171c-0.2,0.5-0.5,0.8-0.8,1.1c-0.3,0.2-0.8,0.4-1.3,0.4c-0.5,0-1-0.1-1.3-0.3c-0.3-0.2-0.6-0.6-0.8-1
		c-0.2-0.5-0.2-1.1-0.2-1.8v-0.1c0-0.7,0.1-1.2,0.3-1.7c0.2-0.5,0.4-0.8,0.8-1c0.3-0.2,0.8-0.3,1.3-0.3c0.8,0,1.4,0.3,1.8,0.8
		c0.4,0.5,0.6,1.3,0.6,2.3C110.8,169.9,110.7,170.5,110.5,171z"/>
	<path class="st3" d="M116.7,165.4c0.2,0,0.4,0,0.5,0c0.2,0,0.3,0,0.5,0.1l-0.1,0.7c-0.1,0-0.3-0.1-0.4-0.1c-0.1,0-0.3,0-0.5,0
		c-0.3,0-0.6,0.1-0.9,0.2c-0.3,0.1-0.5,0.3-0.7,0.6s-0.3,0.5-0.4,0.9c-0.1,0.3-0.2,0.7-0.2,1.1v4.1h-0.8v-7.4h0.7l0.1,1.4h0
		c0.1-0.3,0.3-0.5,0.5-0.8c0.2-0.2,0.5-0.4,0.8-0.5C116,165.5,116.3,165.4,116.7,165.4z"/>
	<path class="st3" d="M123.3,166c-0.4-0.4-1-0.6-1.9-0.6c-0.4,0-0.9,0.1-1.3,0.2c-0.4,0.1-0.8,0.3-1.1,0.4l0.3,0.6
		c0.3-0.2,0.7-0.3,1-0.4c0.4-0.1,0.7-0.2,1.1-0.2c0.6,0,1,0.2,1.3,0.5c0.3,0.3,0.5,0.8,0.5,1.6v0.5l-1.4,0.1c-1.2,0-2,0.3-2.6,0.7
		c-0.6,0.4-0.9,0.9-0.9,1.7c0,0.4,0.1,0.8,0.3,1.1c0.2,0.3,0.5,0.6,0.8,0.7c0.3,0.2,0.8,0.2,1.2,0.2c0.5,0,0.9,0,1.2-0.2
		c0.3-0.1,0.6-0.3,0.8-0.5c0.2-0.2,0.4-0.5,0.6-0.8h0l0.1,1.3h0.6v-5C124,167.1,123.8,166.5,123.3,166z M123.2,170
		c0,0.8-0.2,1.4-0.7,1.8c-0.4,0.4-1,0.7-1.8,0.7c-0.5,0-0.9-0.1-1.2-0.3c-0.3-0.2-0.4-0.6-0.4-1.1c0-0.6,0.2-1,0.7-1.3
		c0.5-0.3,1.2-0.5,2.1-0.5l1.3,0V170z"/>
	<path class="st3" d="M128.4,172.5c0.2,0,0.4,0,0.6,0c0.2,0,0.3-0.1,0.5-0.1v0.6c-0.1,0.1-0.3,0.1-0.5,0.1c-0.2,0-0.4,0.1-0.7,0.1
		c-0.4,0-0.8-0.1-1.1-0.2c-0.3-0.2-0.5-0.4-0.7-0.7c-0.1-0.3-0.2-0.7-0.2-1.3v-4.7h-1.1v-0.4l1.1-0.3l0.3-1.7h0.5v1.8h2.3v0.6h-2.3
		v4.7c0,0.5,0.1,0.9,0.3,1.2C127.7,172.3,128,172.5,128.4,172.5z"/>
	<path class="st3" d="M133.2,172.5c0.2,0,0.4,0,0.6,0c0.2,0,0.4-0.1,0.5-0.1v0.6c-0.1,0.1-0.3,0.1-0.5,0.1c-0.2,0-0.4,0.1-0.7,0.1
		c-0.4,0-0.8-0.1-1.1-0.2c-0.3-0.2-0.5-0.4-0.7-0.7c-0.1-0.3-0.2-0.7-0.2-1.3v-4.7h-1.1v-0.4l1.1-0.3l0.3-1.7h0.5v1.8h2.3v0.6h-2.3
		v4.7c0,0.5,0.1,0.9,0.3,1.2C132.5,172.3,132.8,172.5,133.2,172.5z"/>
	<path class="st3" d="M141.7,165.6v7.4h-0.7l-0.1-1.3h0c-0.1,0.3-0.3,0.5-0.6,0.7c-0.2,0.2-0.5,0.4-0.8,0.5
		c-0.3,0.1-0.7,0.2-1.1,0.2c-0.6,0-1.1-0.1-1.5-0.3c-0.4-0.2-0.7-0.5-0.9-0.9s-0.3-0.9-0.3-1.5v-4.9h0.8v4.8c0,0.7,0.2,1.2,0.5,1.6
		c0.3,0.3,0.8,0.5,1.4,0.5c0.6,0,1-0.1,1.4-0.3c0.4-0.2,0.6-0.5,0.8-1c0.2-0.4,0.3-0.9,0.3-1.6v-4.1H141.7z"/>
	<path class="st3" d="M146.3,172.5c0.2,0,0.4,0,0.6,0c0.2,0,0.4-0.1,0.5-0.1v0.6c-0.1,0.1-0.3,0.1-0.5,0.1c-0.2,0-0.4,0.1-0.7,0.1
		c-0.4,0-0.8-0.1-1.1-0.2c-0.3-0.2-0.5-0.4-0.7-0.7c-0.1-0.3-0.2-0.7-0.2-1.3v-4.7h-1.1v-0.4l1.1-0.3l0.3-1.7h0.5v1.8h2.3v0.6H145
		v4.7c0,0.5,0.1,0.9,0.3,1.2C145.5,172.3,145.9,172.5,146.3,172.5z"/>
	<path class="st3" d="M151,172.5c0.2,0,0.4,0,0.6,0c0.2,0,0.4-0.1,0.5-0.1v0.6c-0.1,0.1-0.3,0.1-0.5,0.1c-0.2,0-0.4,0.1-0.7,0.1
		c-0.4,0-0.8-0.1-1.1-0.2c-0.3-0.2-0.5-0.4-0.7-0.7c-0.1-0.3-0.2-0.7-0.2-1.3v-4.7h-1.1v-0.4l1.1-0.3l0.3-1.7h0.5v1.8h2.3v0.6h-2.3
		v4.7c0,0.5,0.1,0.9,0.3,1.2C150.3,172.3,150.6,172.5,151,172.5z"/>
	<path class="st3" d="M159.6,167.2c-0.3-0.6-0.6-1-1.1-1.3c-0.5-0.3-1.1-0.5-1.8-0.5c-0.7,0-1.3,0.1-1.8,0.5
		c-0.5,0.3-0.9,0.8-1.2,1.3c-0.1,0.3-0.2,0.6-0.3,1c-0.1,0.3-0.1,0.7-0.1,1.1c0,0.6,0.1,1.1,0.2,1.6c0.2,0.5,0.4,0.9,0.7,1.2
		c0.3,0.3,0.6,0.6,1,0.8c0.4,0.2,0.9,0.3,1.4,0.3c0.5,0,1-0.1,1.5-0.3c0,0,0.1,0,0.1-0.1c0.4-0.2,0.7-0.4,0.9-0.7
		c0.3-0.3,0.5-0.8,0.6-1.2c0.1-0.5,0.2-1,0.2-1.6C159.9,168.5,159.8,167.8,159.6,167.2z M158.8,170.9c-0.2,0.5-0.5,0.9-0.8,1.1
		c-0.1,0.1-0.3,0.2-0.4,0.2c-0.3,0.1-0.6,0.2-1,0.2c-0.6,0-1-0.1-1.4-0.4c-0.4-0.3-0.7-0.6-0.8-1.1s-0.3-1-0.3-1.7
		c0-0.1,0-0.3,0-0.4c0-0.8,0.3-1.5,0.6-2c0.4-0.6,1.1-0.8,1.9-0.8c0.6,0,1.1,0.1,1.4,0.4c0.4,0.3,0.6,0.6,0.8,1.1
		c0.2,0.5,0.2,1,0.2,1.7C159.1,169.9,159,170.5,158.8,170.9z"/>
	<path class="st3" d="M168.9,165.4c0.9,0,1.5,0.2,1.9,0.7c0.4,0.4,0.7,1.1,0.7,2.1v4.9h-0.8v-4.8c0-0.7-0.2-1.2-0.5-1.6
		c-0.3-0.3-0.8-0.5-1.4-0.5c-0.8,0-1.4,0.2-1.8,0.7c-0.4,0.5-0.6,1.2-0.6,2.1v4.1h-0.8v-7.4h0.6l0.1,1.3h0c0.1-0.3,0.3-0.5,0.6-0.7
		c0.2-0.2,0.5-0.4,0.8-0.5C168.1,165.5,168.5,165.4,168.9,165.4z"/>
	<path class="st3" d="M179.6,168.8c0-0.7-0.1-1.3-0.3-1.8c-0.2-0.5-0.5-0.9-1-1.2c-0.4-0.3-1-0.4-1.6-0.4c-0.7,0-1.3,0.2-1.8,0.5
		c-0.5,0.3-0.9,0.8-1.1,1.4c-0.2,0.6-0.4,1.3-0.4,2c0,0.8,0.1,1.4,0.4,2c0.3,0.6,0.7,1,1.2,1.3c0.5,0.3,1.2,0.5,1.9,0.5
		c0.5,0,0.9,0,1.3-0.1c0.4-0.1,0.7-0.2,1.1-0.4v-0.7c-0.4,0.2-0.8,0.3-1.1,0.4c-0.4,0.1-0.8,0.1-1.2,0.1c-0.8,0-1.5-0.3-2-0.8
		c-0.5-0.5-0.7-1.3-0.7-2.3h5.3V168.8z M174.3,168.7c0.1-0.8,0.3-1.5,0.7-2s1-0.7,1.7-0.7c0.5,0,0.9,0.1,1.2,0.3
		c0.3,0.2,0.5,0.5,0.7,0.9c0.1,0.4,0.2,0.8,0.2,1.4H174.3z"/>
	<path class="st3" d="M182.4,173h-0.8v-10.6h0.8V173z"/>
	<path class="st3" d="M185.7,173h-0.8v-10.6h0.8V173z"/>
	<path class="st3" d="M193.9,168.8c0-0.7-0.1-1.3-0.3-1.8c-0.2-0.5-0.5-0.9-1-1.2c-0.4-0.3-1-0.4-1.6-0.4c-0.7,0-1.3,0.2-1.8,0.5
		c-0.5,0.3-0.9,0.8-1.1,1.4c-0.2,0.6-0.4,1.3-0.4,2c0,0.8,0.1,1.4,0.4,2c0.3,0.6,0.7,1,1.2,1.3c0.5,0.3,1.2,0.5,1.9,0.5
		c0.5,0,0.9,0,1.3-0.1c0.4-0.1,0.7-0.2,1.1-0.4v-0.7c-0.4,0.2-0.8,0.3-1.1,0.4c-0.3,0.1-0.8,0.1-1.2,0.1c-0.9,0-1.5-0.3-2-0.8
		c-0.5-0.5-0.7-1.3-0.7-2.3h5.3V168.8z M188.6,168.7c0.1-0.8,0.3-1.5,0.8-2s1-0.7,1.7-0.7c0.5,0,0.9,0.1,1.2,0.3
		c0.3,0.2,0.5,0.5,0.7,0.9c0.1,0.4,0.2,0.8,0.2,1.4H188.6z"/>
	<path class="st3" d="M41.3,184.4c0.2,0,0.4,0,0.5,0c0.2,0,0.3,0,0.5,0.1l-0.1,0.7c-0.1,0-0.3-0.1-0.4-0.1c-0.1,0-0.3,0-0.5,0
		c-0.3,0-0.6,0.1-0.9,0.2c-0.3,0.1-0.5,0.3-0.7,0.6s-0.3,0.5-0.4,0.9c-0.1,0.3-0.2,0.7-0.2,1.1v4.1h-0.8v-7.4h0.7L39,186h0
		c0.1-0.3,0.3-0.5,0.5-0.8c0.2-0.2,0.5-0.4,0.8-0.5C40.6,184.5,40.9,184.4,41.3,184.4z"/>
	<path class="st3" d="M49.2,187.8c0-0.7-0.1-1.3-0.3-1.8c-0.2-0.5-0.5-0.9-1-1.2c-0.4-0.3-1-0.4-1.6-0.4c-0.7,0-1.3,0.2-1.8,0.5
		c-0.5,0.3-0.9,0.8-1.1,1.4c-0.2,0.6-0.4,1.3-0.4,2c0,0.8,0.1,1.4,0.4,2c0.3,0.6,0.7,1,1.2,1.3c0.5,0.3,1.2,0.5,1.9,0.5
		c0.5,0,0.9,0,1.3-0.1c0.4-0.1,0.7-0.2,1.1-0.4v-0.7c-0.4,0.2-0.8,0.3-1.1,0.4c-0.3,0.1-0.8,0.1-1.2,0.1c-0.9,0-1.5-0.3-2-0.8
		c-0.5-0.5-0.7-1.3-0.7-2.3h5.3V187.8z M43.9,187.7c0.1-0.8,0.3-1.5,0.8-2s1-0.7,1.7-0.7c0.5,0,0.9,0.1,1.2,0.3
		c0.3,0.2,0.5,0.5,0.7,0.9s0.2,0.8,0.2,1.4H43.9z"/>
	<path class="st3" d="M56.5,184.6l-0.1,1.1h-0.1c-0.2-0.4-0.5-0.7-0.9-0.9c-0.4-0.2-0.9-0.3-1.5-0.3c-0.7,0-1.3,0.2-1.7,0.5
		c-0.5,0.3-0.8,0.8-1.1,1.4c-0.2,0.6-0.4,1.3-0.4,2.1c0,1.2,0.3,2.2,0.8,2.8c0.5,0.7,1.3,1,2.2,1c0.6,0,1.1-0.1,1.5-0.4
		c0.4-0.2,0.7-0.6,1-1.1h0c0,0.2,0,0.4,0,0.6v1c0,0.7-0.2,1.3-0.6,1.7c-0.4,0.4-1,0.7-1.8,0.7c-0.4,0-0.7,0-1-0.1
		c-0.3,0-0.6-0.1-0.9-0.2c-0.3-0.1-0.5-0.2-0.8-0.3v0.8c0.3,0.1,0.7,0.3,1.2,0.4c0.4,0.1,0.9,0.1,1.5,0.1c0.8,0,1.4-0.1,1.8-0.4
		c0.5-0.3,0.8-0.6,1.1-1.1c0.2-0.5,0.3-1,0.3-1.7v-7.7H56.5z M56.3,188.6c0,0.4,0,0.8-0.1,1.2c-0.1,0.4-0.2,0.7-0.4,0.9
		c-0.2,0.3-0.4,0.5-0.7,0.6c-0.3,0.1-0.7,0.2-1.2,0.2c-0.8,0-1.3-0.3-1.7-0.8c-0.4-0.5-0.6-1.3-0.6-2.3c0-0.7,0.1-1.3,0.3-1.8
		c0.2-0.5,0.4-0.9,0.8-1.1c0.4-0.3,0.8-0.4,1.4-0.4c0.6,0,1,0.1,1.3,0.3c0.4,0.2,0.6,0.6,0.8,1c0.2,0.4,0.2,1,0.2,1.6V188.6z"/>
	<path class="st3" d="M60.4,182c-0.1-0.1-0.2-0.2-0.4-0.2c-0.2,0-0.3,0-0.4,0.2c-0.1,0.1-0.1,0.2-0.1,0.4c0,0.2,0,0.3,0.1,0.5
		c0.1,0.1,0.2,0.2,0.4,0.2c0.2,0,0.3,0,0.4-0.2c0.1-0.1,0.1-0.3,0.1-0.5C60.5,182.2,60.5,182.1,60.4,182z M59.6,184.6v7.4h0.8v-7.4
		H59.6z"/>
	<path class="st3" d="M68.7,186.2c-0.2-0.6-0.6-1-1.1-1.3c-0.5-0.3-1.1-0.5-1.8-0.5c-0.7,0-1.3,0.1-1.8,0.5s-0.9,0.8-1.2,1.3
		c-0.3,0.6-0.4,1.3-0.4,2.1c0,0.6,0.1,1.1,0.2,1.6c0.2,0.5,0.4,0.9,0.7,1.2c0.3,0.3,0.6,0.6,1,0.8c0.4,0.2,0.9,0.3,1.4,0.3
		c0.5,0,1-0.1,1.4-0.3c0.4-0.2,0.8-0.4,1-0.8c0.3-0.3,0.5-0.8,0.6-1.2c0.1-0.5,0.2-1,0.2-1.6C69.1,187.5,68.9,186.8,68.7,186.2z
		 M68,189.9c-0.2,0.5-0.5,0.9-0.8,1.1c-0.4,0.3-0.9,0.4-1.4,0.4c-0.6,0-1-0.1-1.4-0.4c-0.4-0.3-0.7-0.6-0.8-1.1
		c-0.2-0.5-0.3-1-0.3-1.7c0-1,0.2-1.8,0.6-2.3c0.4-0.6,1.1-0.8,1.9-0.8c0.6,0,1.1,0.1,1.4,0.4c0.4,0.3,0.6,0.6,0.8,1.1
		c0.2,0.5,0.2,1,0.2,1.7C68.2,188.9,68.1,189.5,68,189.9z"/>
	<path class="st3" d="M74.4,184.4c0.8,0,1.5,0.2,1.9,0.7c0.4,0.4,0.7,1.1,0.7,2.1v4.9h-0.8v-4.8c0-0.7-0.2-1.2-0.5-1.6
		c-0.3-0.3-0.8-0.5-1.4-0.5c-0.8,0-1.4,0.2-1.8,0.7c-0.4,0.5-0.6,1.2-0.6,2.1v4.1h-0.8v-7.4h0.6l0.1,1.3h0c0.1-0.3,0.3-0.5,0.6-0.7
		c0.2-0.2,0.5-0.4,0.8-0.5C73.6,184.5,74,184.4,74.4,184.4z"/>
	<path class="st3" d="M80.2,182c-0.1-0.1-0.2-0.2-0.4-0.2c-0.2,0-0.3,0-0.4,0.2c-0.1,0.1-0.1,0.2-0.1,0.4c0,0.2,0,0.3,0.1,0.5
		c0.1,0.1,0.2,0.2,0.4,0.2c0.2,0,0.3,0,0.4-0.2c0.1-0.1,0.1-0.3,0.1-0.5C80.3,182.2,80.3,182.1,80.2,182z M79.4,184.6v7.4h0.8v-7.4
		H79.4z"/>
	<path class="st3" d="M91,190c0,0.4-0.1,0.8-0.3,1.1c-0.2,0.3-0.6,0.6-1,0.7c-0.4,0.2-1,0.2-1.6,0.2c-0.5,0-1,0-1.4-0.1
		s-0.7-0.2-1-0.3v-0.8c0.3,0.2,0.7,0.3,1.1,0.4c0.4,0.1,0.8,0.2,1.3,0.2c0.7,0,1.3-0.1,1.6-0.4c0.3-0.3,0.5-0.6,0.5-1
		c0-0.3-0.1-0.5-0.2-0.7c-0.1-0.2-0.4-0.3-0.7-0.5c-0.3-0.1-0.7-0.3-1.1-0.4c-0.5-0.2-0.9-0.3-1.2-0.5c-0.4-0.2-0.6-0.4-0.8-0.6
		s-0.3-0.6-0.3-1c0-0.6,0.2-1.1,0.7-1.4s1.1-0.5,1.9-0.5c0.4,0,0.9,0,1.2,0.1c0.4,0.1,0.7,0.2,1.1,0.3l-0.3,0.7
		c-0.2-0.1-0.4-0.2-0.6-0.2c-0.2-0.1-0.5-0.1-0.7-0.2s-0.5-0.1-0.7-0.1c-0.6,0-1,0.1-1.4,0.3c-0.3,0.2-0.5,0.5-0.5,0.9
		c0,0.3,0.1,0.5,0.2,0.7c0.2,0.2,0.4,0.3,0.7,0.4c0.3,0.1,0.7,0.3,1.1,0.4c0.4,0.1,0.8,0.3,1.2,0.5c0.4,0.2,0.6,0.4,0.9,0.6
		C90.9,189.2,91,189.6,91,190z"/>
	<path class="st3" d="M98.6,187.8c0-0.7-0.1-1.3-0.3-1.8c-0.2-0.5-0.5-0.9-1-1.2c-0.4-0.3-1-0.4-1.6-0.4c-0.7,0-1.3,0.2-1.8,0.5
		c-0.5,0.3-0.9,0.8-1.1,1.4c-0.3,0.6-0.4,1.3-0.4,2c0,0.8,0.1,1.4,0.4,2c0.3,0.6,0.7,1,1.2,1.3s1.2,0.5,1.9,0.5c0.5,0,0.9,0,1.3-0.1
		c0.4-0.1,0.7-0.2,1.1-0.4v-0.7c-0.4,0.2-0.8,0.3-1.1,0.4c-0.3,0.1-0.8,0.1-1.2,0.1c-0.9,0-1.5-0.3-2-0.8c-0.5-0.5-0.7-1.3-0.7-2.3
		h5.3V187.8z M93.3,187.7c0.1-0.8,0.3-1.5,0.7-2s1-0.7,1.7-0.7c0.5,0,0.9,0.1,1.2,0.3c0.3,0.2,0.5,0.5,0.7,0.9
		c0.1,0.4,0.2,0.8,0.2,1.4H93.3z"/>
	<path class="st3" d="M102.7,191.5c0.2,0,0.4,0,0.6,0c0.2,0,0.3-0.1,0.5-0.1v0.6c-0.1,0.1-0.3,0.1-0.5,0.1c-0.2,0-0.4,0.1-0.7,0.1
		c-0.4,0-0.8-0.1-1.1-0.2c-0.3-0.2-0.5-0.4-0.7-0.7c-0.2-0.3-0.2-0.7-0.2-1.3v-4.7h-1.1v-0.4l1.1-0.3l0.3-1.7h0.5v1.8h2.3v0.6h-2.3
		v4.7c0,0.5,0.1,0.9,0.3,1.2C101.9,191.3,102.2,191.5,102.7,191.5z"/>
	<path class="st3" d="M107.4,191.5c0.2,0,0.4,0,0.6,0c0.2,0,0.3-0.1,0.5-0.1v0.6c-0.1,0.1-0.3,0.1-0.5,0.1c-0.2,0-0.4,0.1-0.7,0.1
		c-0.4,0-0.8-0.1-1-0.2c-0.3-0.2-0.5-0.4-0.7-0.7c-0.2-0.3-0.2-0.7-0.2-1.3v-4.7h-1.1v-0.4l1.1-0.3l0.3-1.7h0.5v1.8h2.3v0.6h-2.3
		v4.7c0,0.5,0.1,0.9,0.3,1.2C106.7,191.3,107,191.5,107.4,191.5z"/>
	<path class="st3" d="M115.8,187.8c0-0.7-0.1-1.3-0.3-1.8c-0.2-0.5-0.5-0.9-1-1.2c-0.2-0.1-0.5-0.3-0.7-0.3
		c-0.3-0.1-0.6-0.1-0.9-0.1c-0.7,0-1.3,0.2-1.8,0.5c-0.5,0.3-0.9,0.8-1.1,1.4c-0.3,0.6-0.4,1.3-0.4,2v0c0,0.1,0,0.1,0,0.2
		c0,0.7,0.2,1.3,0.4,1.8c0.3,0.6,0.7,1,1.2,1.3c0.5,0.3,1.1,0.4,1.8,0.4c0,0,0.1,0,0.1,0c0.5,0,0.9,0,1.3-0.1
		c0.4-0.1,0.7-0.2,1.1-0.4v-0.7c-0.4,0.2-0.8,0.3-1.1,0.4c-0.3,0.1-0.8,0.1-1.2,0.1c-0.4,0-0.7,0-1-0.1c-0.4-0.1-0.7-0.3-1-0.6
		c-0.2-0.3-0.4-0.6-0.5-1c-0.1-0.4-0.2-0.8-0.2-1.2h5.3V187.8z M110.5,187.7c0,0,0-0.1,0-0.1c0.1-0.8,0.3-1.4,0.7-1.8
		c0.4-0.5,1-0.7,1.7-0.7c0.1,0,0.2,0,0.3,0c0.4,0,0.7,0.1,0.9,0.3c0.3,0.2,0.5,0.5,0.7,0.9s0.2,0.8,0.2,1.4H110.5z"/>
	<path class="st3" d="M121.1,184.4c0.8,0,1.5,0.2,1.9,0.7c0.4,0.4,0.7,1.1,0.7,2.1v4.9H123v-4.8c0-0.7-0.2-1.2-0.5-1.6
		c-0.3-0.3-0.8-0.5-1.4-0.5c-0.8,0-1.4,0.2-1.8,0.7c-0.4,0.5-0.6,1.2-0.6,2.1v4.1h-0.8v-7.4h0.6l0.1,1.3h0c0.1-0.3,0.3-0.5,0.6-0.7
		c0.2-0.2,0.5-0.4,0.8-0.5C120.3,184.5,120.7,184.4,121.1,184.4z"/>
	<path class="st3" d="M128.2,191.5c0.2,0,0.4,0,0.6,0c0.2,0,0.3-0.1,0.5-0.1v0.6c-0.1,0.1-0.3,0.1-0.5,0.1c-0.2,0-0.4,0.1-0.7,0.1
		c-0.4,0-0.8-0.1-1.1-0.2c-0.3-0.2-0.5-0.4-0.7-0.7c-0.1-0.3-0.2-0.7-0.2-1.3v-4.7h-1.1v-0.4l1.1-0.3l0.3-1.7h0.5v1.8h2.3v0.6H127
		v4.7c0,0.5,0.1,0.9,0.3,1.2C127.5,191.3,127.8,191.5,128.2,191.5z"/>
	<path class="st3" d="M134,184.4c0.2,0,0.4,0,0.5,0c0.2,0,0.3,0,0.5,0.1l-0.1,0.7c-0.1,0-0.3-0.1-0.4-0.1c-0.1,0-0.3,0-0.5,0
		c-0.3,0-0.6,0.1-0.9,0.2c-0.3,0.1-0.5,0.3-0.7,0.6s-0.3,0.5-0.4,0.9c-0.1,0.3-0.2,0.7-0.2,1.1v4.1h-0.8v-7.4h0.7l0.1,1.4h0
		c0.1-0.3,0.3-0.5,0.5-0.8c0.2-0.2,0.5-0.4,0.8-0.5C133.3,184.5,133.6,184.4,134,184.4z"/>
	<path class="st3" d="M137.2,182c-0.1-0.1-0.2-0.2-0.4-0.2c-0.2,0-0.3,0-0.4,0.2c-0.1,0.1-0.1,0.2-0.1,0.4c0,0.2,0,0.3,0.1,0.5
		c0.1,0.1,0.2,0.2,0.4,0.2c0.2,0,0.3,0,0.4-0.2c0.1-0.1,0.1-0.3,0.1-0.5C137.3,182.2,137.3,182.1,137.2,182z M136.4,184.6v7.4h0.8
		v-7.4H136.4z"/>
	<path class="st3" d="M145.5,186.2c-0.3-0.6-0.6-1-1.1-1.3c-0.5-0.3-1.1-0.5-1.8-0.5c-0.7,0-1.3,0.1-1.8,0.5
		c-0.5,0.3-0.9,0.8-1.2,1.3c-0.3,0.6-0.4,1.3-0.4,2.1c0,0.6,0.1,1.1,0.2,1.6c0.1,0.5,0.4,0.9,0.7,1.2c0.3,0.3,0.6,0.6,1,0.8
		c0.4,0.2,0.9,0.3,1.4,0.3c0.5,0,1-0.1,1.4-0.3c0.4-0.2,0.8-0.4,1.1-0.8c0.3-0.3,0.5-0.8,0.6-1.2c0.2-0.5,0.2-1,0.2-1.6
		C145.9,187.5,145.8,186.8,145.5,186.2z M144.8,189.9c-0.2,0.5-0.5,0.9-0.8,1.1c-0.4,0.3-0.8,0.4-1.4,0.4c-0.6,0-1-0.1-1.4-0.4
		c-0.4-0.3-0.7-0.6-0.8-1.1s-0.3-1-0.3-1.7c0-1,0.2-1.8,0.6-2.3s1-0.8,1.9-0.8c0.6,0,1.1,0.1,1.4,0.4c0.4,0.3,0.6,0.6,0.8,1.1
		c0.2,0.5,0.2,1,0.2,1.7C145.1,188.9,145,189.5,144.8,189.9z"/>
	<path class="st3" d="M151.3,184.4c0.8,0,1.5,0.2,1.9,0.7c0.4,0.4,0.7,1.1,0.7,2.1v4.9h-0.8v-4.8c0-0.7-0.2-1.2-0.5-1.6
		c-0.3-0.3-0.8-0.5-1.4-0.5c-0.8,0-1.4,0.2-1.8,0.7c-0.4,0.5-0.6,1.2-0.6,2.1v4.1h-0.8v-7.4h0.6l0.1,1.3h0c0.1-0.3,0.3-0.5,0.6-0.7
		c0.2-0.2,0.5-0.4,0.8-0.5C150.5,184.5,150.8,184.4,151.3,184.4z"/>
	<path class="st3" d="M160.8,185c-0.4-0.4-1-0.6-1.9-0.6c-0.5,0-0.9,0.1-1.3,0.2c-0.4,0.1-0.8,0.3-1.2,0.4l0.2,0.6
		c0.4-0.2,0.7-0.3,1-0.4c0.4-0.1,0.7-0.2,1.1-0.2c0.6,0,1,0.2,1.3,0.5c0.3,0.3,0.5,0.8,0.5,1.6v0.5l-1.4,0.1c-1.2,0-2,0.3-2.6,0.7
		c-0.6,0.4-0.9,0.9-0.9,1.7c0,0.4,0.1,0.8,0.3,1.1c0.2,0.3,0.5,0.6,0.8,0.7c0.3,0.2,0.8,0.2,1.2,0.2c0.5,0,0.9,0,1.2-0.2
		c0.3-0.1,0.6-0.3,0.8-0.5c0.2-0.2,0.4-0.5,0.6-0.8h0l0.1,1.3h0.6v-5C161.4,186.1,161.2,185.5,160.8,185z M160.6,189
		c0,0.8-0.2,1.4-0.7,1.8c-0.4,0.4-1,0.7-1.8,0.7c-0.5,0-0.9-0.1-1.2-0.3c-0.3-0.2-0.4-0.6-0.4-1.1c0-0.6,0.2-1,0.7-1.3
		c0.5-0.3,1.2-0.5,2.1-0.5l1.3,0V189z"/>
	<path class="st3" d="M164.6,192h-0.8v-10.6h0.8V192z"/>
	<path class="st3" d="M167.8,182c-0.1-0.1-0.2-0.2-0.4-0.2c-0.2,0-0.3,0-0.4,0.2c-0.1,0.1-0.1,0.2-0.1,0.4c0,0.2,0,0.3,0.1,0.5
		c0.1,0.1,0.2,0.2,0.4,0.2c0.2,0,0.3,0,0.4-0.2c0.1-0.1,0.2-0.3,0.2-0.5C168,182.2,167.9,182.1,167.8,182z M167,184.6v7.4h0.8v-7.4
		H167z"/>
	<path class="st3" d="M179.6,188.4v-0.5c0-0.7-0.1-1.3-0.3-1.8c-0.2-0.5-0.5-0.9-1-1.2c-0.4-0.3-1-0.4-1.6-0.4
		c-0.7,0-1.3,0.2-1.8,0.5c-0.5,0.3-0.9,0.8-1.1,1.4c0,0,0,0.1,0,0.1c-0.2,0.6-0.3,1.2-0.3,1.9c0,0.8,0.1,1.4,0.4,2
		c0.3,0.6,0.7,1,1.2,1.3c0.5,0.3,1.1,0.5,1.9,0.5c0.5,0,0.9,0,1.3-0.1c0.4-0.1,0.7-0.2,1.1-0.4v-0.7c-0.4,0.2-0.8,0.3-1.1,0.4
		c-0.3,0.1-0.8,0.1-1.2,0.1c-0.9,0-1.5-0.3-2-0.8c-0.5-0.5-0.7-1.3-0.7-2.3H179.6z M174.3,187.7c0-0.3,0.1-0.5,0.1-0.8
		c0.1-0.5,0.3-0.9,0.6-1.2c0.4-0.5,1-0.7,1.7-0.7c0.5,0,0.9,0.1,1.2,0.3c0.3,0.2,0.5,0.5,0.7,0.9s0.2,0.8,0.2,1.4H174.3z"/>
	<path class="st3" d="M46,203.4c0.7,0,1.3,0.2,1.7,0.6c0.4,0.4,0.6,1.1,0.6,2v5h-0.8v-4.9c0-0.7-0.1-1.2-0.4-1.5
		c-0.3-0.3-0.7-0.5-1.2-0.5c-0.7,0-1.3,0.2-1.7,0.6c-0.4,0.4-0.6,1.1-0.6,1.9v4.4h-0.8v-4.9c0-0.4-0.1-0.8-0.2-1.1
		c-0.1-0.3-0.3-0.5-0.6-0.6c-0.2-0.1-0.5-0.2-0.9-0.2c-0.5,0-0.9,0.1-1.2,0.3c-0.3,0.2-0.6,0.5-0.8,0.9c-0.2,0.4-0.3,0.9-0.3,1.5
		v4.2h-0.8v-7.4h0.6l0.1,1.2h0c0.1-0.3,0.3-0.5,0.5-0.7c0.2-0.2,0.5-0.4,0.8-0.5c0.3-0.1,0.6-0.2,1-0.2c0.6,0,1,0.1,1.4,0.3
		c0.4,0.2,0.6,0.6,0.8,1.1h0.1c0.2-0.4,0.5-0.8,1-1C44.9,203.5,45.4,203.4,46,203.4z"/>
	<path class="st3" d="M56.6,205.2c-0.2-0.6-0.6-1-1.1-1.3c-0.5-0.3-1.1-0.5-1.8-0.5c-0.7,0-1.3,0.1-1.8,0.5
		c-0.5,0.3-0.9,0.8-1.2,1.3c-0.3,0.6-0.4,1.3-0.4,2.1c0,0.6,0.1,1.1,0.2,1.6c0.1,0.5,0.4,0.9,0.7,1.2s0.6,0.6,1,0.8
		c0.4,0.2,0.9,0.3,1.4,0.3c0.5,0,1-0.1,1.4-0.3c0.4-0.2,0.8-0.4,1.1-0.8c0.3-0.3,0.5-0.8,0.6-1.2c0.2-0.5,0.2-1,0.2-1.6
		C57,206.5,56.8,205.8,56.6,205.2z M55.9,208.9c-0.2,0.5-0.5,0.9-0.8,1.1c-0.4,0.3-0.8,0.4-1.4,0.4c-0.6,0-1-0.1-1.4-0.4
		c-0.4-0.3-0.7-0.6-0.8-1.1c-0.2-0.5-0.3-1-0.3-1.7c0-1,0.2-1.8,0.6-2.3s1-0.8,1.9-0.8c0.6,0,1.1,0.1,1.4,0.4
		c0.4,0.3,0.6,0.6,0.8,1.1c0.2,0.5,0.2,1,0.2,1.7C56.1,207.9,56,208.5,55.9,208.9z"/>
	<path class="st3" d="M62.3,203.4c0.8,0,1.5,0.2,1.9,0.7c0.4,0.4,0.7,1.1,0.7,2.1v4.9h-0.8v-4.8c0-0.7-0.2-1.2-0.5-1.6
		c-0.3-0.3-0.8-0.5-1.4-0.5c-0.8,0-1.4,0.2-1.8,0.7c-0.4,0.5-0.6,1.2-0.6,2.1v4.1H59v-7.4h0.6l0.1,1.3h0c0.1-0.3,0.3-0.5,0.6-0.7
		c0.2-0.2,0.5-0.4,0.8-0.5C61.5,203.5,61.9,203.4,62.3,203.4z"/>
	<path class="st3" d="M69.4,210.5c0.2,0,0.4,0,0.6,0c0.2,0,0.3-0.1,0.5-0.1v0.6c-0.1,0.1-0.3,0.1-0.5,0.1c-0.2,0-0.4,0.1-0.7,0.1
		c-0.4,0-0.8-0.1-1.1-0.2c-0.3-0.2-0.5-0.4-0.7-0.7c-0.1-0.3-0.2-0.7-0.2-1.3v-4.7h-1.1v-0.4l1.1-0.3l0.3-1.7h0.5v1.8h2.3v0.6h-2.3
		v4.7c0,0.5,0.1,0.9,0.3,1.2C68.7,210.3,69,210.5,69.4,210.5z"/>
	<path class="st3" d="M77.9,203.6v7.4h-0.7l-0.1-1.3h0c-0.1,0.3-0.3,0.5-0.6,0.7c-0.2,0.2-0.5,0.4-0.8,0.5c-0.3,0.1-0.7,0.2-1.1,0.2
		c-0.6,0-1.1-0.1-1.5-0.3c-0.4-0.2-0.7-0.5-0.9-0.9S72,209,72,208.4v-4.9h0.8v4.8c0,0.7,0.2,1.2,0.5,1.6c0.3,0.3,0.8,0.5,1.4,0.5
		c0.6,0,1-0.1,1.4-0.3c0.4-0.2,0.6-0.5,0.8-1c0.2-0.4,0.3-0.9,0.3-1.6v-4.1H77.9z"/>
	<path class="st3" d="M86.2,205.2c-0.2-0.6-0.6-1-1.1-1.3c-0.5-0.3-1.1-0.5-1.8-0.5c-0.7,0-1.3,0.1-1.8,0.5s-0.9,0.8-1.2,1.3
		c-0.3,0.6-0.4,1.3-0.4,2.1c0,0.6,0.1,1.1,0.2,1.6c0.2,0.5,0.4,0.9,0.7,1.2c0.3,0.3,0.6,0.6,1,0.8c0.4,0.2,0.8,0.3,1.4,0.3h0
		c0.5,0,1-0.1,1.4-0.3c0.4-0.2,0.8-0.4,1-0.8c0.3-0.3,0.5-0.8,0.6-1.2c0-0.1,0.1-0.2,0.1-0.3c0.1-0.4,0.1-0.8,0.1-1.2
		C86.6,206.5,86.5,205.8,86.2,205.2z M84.7,210.1c-0.1,0.1-0.2,0.2-0.4,0.2c-0.3,0.1-0.7,0.2-1,0.2c-0.6,0-1-0.1-1.4-0.4
		c-0.4-0.3-0.7-0.6-0.8-1.1c-0.2-0.5-0.3-1-0.3-1.7c0-1,0.2-1.8,0.6-2.3c0.4-0.6,1-0.8,1.9-0.8c0.6,0,1.1,0.1,1.4,0.4
		c0.4,0.3,0.6,0.6,0.8,1.1c0.2,0.5,0.2,1,0.2,1.7c0,0.6-0.1,1.2-0.3,1.7c-0.1,0.2-0.2,0.4-0.3,0.6C85.1,209.8,84.9,209.9,84.7,210.1
		z"/>
	<path class="st3" d="M93.3,209c0,0.4-0.1,0.8-0.3,1.1c-0.2,0.3-0.6,0.6-1,0.7c-0.4,0.2-1,0.2-1.6,0.2c-0.5,0-1,0-1.4-0.1
		c-0.4-0.1-0.7-0.2-1-0.3v-0.8c0.3,0.2,0.7,0.3,1.1,0.4c0.4,0.1,0.8,0.2,1.3,0.2c0.7,0,1.3-0.1,1.6-0.4c0.3-0.3,0.5-0.6,0.5-1
		c0-0.3-0.1-0.5-0.2-0.7c-0.1-0.2-0.4-0.3-0.7-0.5c-0.3-0.1-0.7-0.3-1.1-0.4c-0.5-0.2-0.9-0.3-1.2-0.5c-0.4-0.2-0.6-0.4-0.8-0.6
		s-0.3-0.6-0.3-1c0-0.6,0.2-1.1,0.7-1.4c0.5-0.3,1.1-0.5,1.9-0.5c0.4,0,0.9,0,1.2,0.1c0.4,0.1,0.7,0.2,1.1,0.3l-0.3,0.7
		c-0.2-0.1-0.4-0.2-0.6-0.2c-0.2-0.1-0.5-0.1-0.7-0.2c-0.2,0-0.5-0.1-0.7-0.1c-0.6,0-1,0.1-1.4,0.3c-0.3,0.2-0.5,0.5-0.5,0.9
		c0,0.3,0.1,0.5,0.2,0.7c0.2,0.2,0.4,0.3,0.7,0.4c0.3,0.1,0.7,0.3,1.1,0.4c0.4,0.1,0.8,0.3,1.2,0.5c0.4,0.2,0.6,0.4,0.9,0.6
		C93.2,208.2,93.3,208.6,93.3,209z"/>
	<path class="st3" d="M100.9,206.8c0-0.7-0.1-1.3-0.3-1.8c-0.2-0.5-0.5-0.9-1-1.2c-0.4-0.3-1-0.4-1.6-0.4c-0.7,0-1.3,0.2-1.8,0.5
		c-0.5,0.3-0.8,0.8-1.1,1.4c-0.3,0.6-0.4,1.3-0.4,2c0,0.8,0.1,1.4,0.4,2c0.3,0.6,0.7,1,1.2,1.3c0.5,0.3,1.1,0.5,1.9,0.5
		c0.5,0,0.9,0,1.3-0.1c0.4-0.1,0.7-0.2,1.1-0.4v-0.7c-0.4,0.2-0.8,0.3-1.1,0.4c-0.3,0.1-0.8,0.1-1.2,0.1c-0.8,0-1.5-0.3-2-0.8
		c-0.5-0.5-0.7-1.3-0.7-2.3h5.3V206.8z M95.6,206.7c0.1-0.8,0.3-1.5,0.7-2c0.4-0.5,1-0.7,1.7-0.7c0.5,0,0.9,0.1,1.2,0.3
		c0.3,0.2,0.5,0.5,0.7,0.9c0.2,0.4,0.2,0.8,0.2,1.4H95.6z"/>
	<path class="st3" d="M102.8,210.5c0-0.2,0.1-0.4,0.2-0.5c0.1-0.1,0.2-0.2,0.4-0.2c0.2,0,0.4,0.1,0.5,0.2c0.1,0.1,0.2,0.3,0.2,0.5
		c0,0.2-0.1,0.4-0.2,0.5c-0.1,0.1-0.3,0.2-0.5,0.2c-0.2,0-0.3-0.1-0.4-0.2C102.9,210.9,102.8,210.7,102.8,210.5z"/>
</g>
</svg>
