<svg width="303" height="24" viewBox="0 0 303 24" fill="none" xmlns="http://www.w3.org/2000/svg">
<path d="M52.3696 12.7039C52.926 13.933 53.874 14.9857 55.0937 15.7289C56.3134 16.4721 57.7501 16.8723 59.222 16.879C60.6939 16.8857 62.135 16.4986 63.363 15.7666C64.591 15.0346 65.5507 13.9906 66.1209 12.7666L64.7486 12.2466C64.2925 13.2258 63.5247 14.061 62.5423 14.6466C61.5599 15.2322 60.407 15.5419 59.2295 15.5365C58.052 15.5311 56.9026 15.211 55.9269 14.6164C54.9511 14.0219 54.1927 13.1797 53.7476 12.1964L52.3696 12.7039Z" stroke="black" stroke-width="1.85825"/>
<path d="M78.2962 12.0894C77.6866 10.9166 76.7138 9.92793 75.4952 9.24266C74.2766 8.55738 72.8641 8.20476 71.4283 8.22731C69.9924 8.24986 68.5945 8.64662 67.403 9.36974C66.2116 10.0929 65.2775 11.1115 64.7135 12.3027L66.0824 12.8299C66.5336 11.877 67.2808 11.0621 68.234 10.4836C69.1871 9.90508 70.3055 9.58767 71.4542 9.56963C72.6029 9.55159 73.7328 9.83369 74.7077 10.3819C75.6826 10.9301 76.4609 11.721 76.9486 12.6593L78.2962 12.0894Z" stroke="black" stroke-width="1.85825"/>
<path d="M76.9281 12.599C77.4846 13.8281 78.4326 14.8808 79.6523 15.624C80.872 16.3672 82.3087 16.7674 83.7806 16.7741C85.2525 16.7808 86.6936 16.3937 87.9216 15.6617C89.1495 14.9297 90.1093 13.8857 90.6795 12.6617L89.3072 12.1417C88.8511 13.1209 88.0833 13.9561 87.1009 14.5417C86.1185 15.1273 84.9656 15.437 83.7881 15.4316C82.6106 15.4263 81.4612 15.1061 80.4855 14.5115C79.5097 13.917 78.7513 13.0748 78.3062 12.0915L76.9281 12.599Z" stroke="black" stroke-width="1.85825"/>
<path d="M102.855 11.9845C102.245 10.8117 101.272 9.82303 100.054 9.13776C98.8351 8.45249 97.4227 8.09986 95.9869 8.12241C94.551 8.14496 93.1531 8.54172 91.9616 9.26485C90.7702 9.98797 89.8361 11.0066 89.2721 12.1978L90.641 12.725C91.0922 11.7721 91.8394 10.9572 92.7926 10.3787C93.7457 9.80018 94.8641 9.48277 96.0128 9.46473C97.1615 9.44669 98.2914 9.72879 99.2663 10.277C100.241 10.8252 101.019 11.6161 101.507 12.5544L102.855 11.9845Z" stroke="black" stroke-width="1.85825"/>
<path d="M3.19768 12.8082C3.75408 14.0373 4.70209 15.09 5.92181 15.8332C7.14153 16.5763 8.57819 16.9766 10.0501 16.9833C11.522 16.99 12.9631 16.6029 14.1911 15.8709C15.4191 15.1389 16.3788 14.0949 16.949 12.8709L15.5767 12.3508C15.1206 13.33 14.3528 14.1652 13.3704 14.7508C12.388 15.3364 11.2352 15.6461 10.0576 15.6408C8.8801 15.6354 7.73077 15.3152 6.75499 14.7207C5.77922 14.1261 5.02081 13.284 4.57569 12.3007L3.19768 12.8082Z" stroke="black" stroke-width="1.85825"/>
<path d="M29.1263 12.1935C28.5167 11.0208 27.5439 10.0321 26.3253 9.34685C25.1066 8.66157 23.6942 8.30895 22.2584 8.3315C20.8225 8.35405 19.4245 8.75081 18.2331 9.47393C17.0417 10.1971 16.1076 11.2157 15.5436 12.4069L16.9125 12.9341C17.3637 11.9811 18.1109 11.1663 19.0641 10.5878C20.0172 10.0093 21.1356 9.69186 22.2843 9.67382C23.433 9.65578 24.5629 9.93788 25.5378 10.4861C26.5127 11.0343 27.2909 11.8252 27.7786 12.7635L29.1263 12.1935Z" stroke="black" stroke-width="1.85825"/>
<path d="M27.7563 12.7039C28.3127 13.933 29.2607 14.9857 30.4804 15.7289C31.7001 16.4721 33.1368 16.8723 34.6087 16.879C36.0806 16.8857 37.5217 16.4986 38.7497 15.7666C39.9777 15.0346 40.9374 13.9906 41.5076 12.7666L40.1353 12.2466C39.6792 13.2258 38.9114 14.061 37.929 14.6466C36.9466 15.2322 35.7938 15.5419 34.6162 15.5365C33.4387 15.5311 32.2894 15.211 31.3136 14.6164C30.3378 14.0219 29.5794 13.1797 29.1343 12.1964L27.7563 12.7039Z" stroke="black" stroke-width="1.85825"/>
<path d="M53.7447 12.2153C53.1575 11.0222 52.1973 10.0094 50.9817 9.30091C49.7661 8.59243 48.3479 8.21903 46.9006 8.2264C45.4533 8.23377 44.0398 8.6216 42.8332 9.34241C41.6265 10.0632 40.6791 11.0857 40.1068 12.2847L41.474 12.8156C41.9318 11.8564 42.6898 11.0384 43.6551 10.4617C44.6204 9.88506 45.7512 9.5748 46.909 9.5689C48.0668 9.563 49.2014 9.86173 50.1739 10.4285C51.1464 10.9953 51.9145 11.8055 52.3843 12.76L53.7447 12.2153Z" stroke="black" stroke-width="1.85825"/>
<path d="M150.688 12.3384C151.244 13.5676 152.192 14.6203 153.412 15.3634C154.632 16.1066 156.068 16.5068 157.54 16.5136C159.012 16.5203 160.453 16.1332 161.681 15.4012C162.909 14.6691 163.869 13.6251 164.439 12.4012L163.067 11.8811C162.611 12.8603 161.843 13.6955 160.861 14.2811C159.878 14.8667 158.725 15.1764 157.548 15.1711C156.37 15.1657 155.221 14.8455 154.245 14.251C153.269 13.6564 152.511 12.8143 152.066 11.831L150.688 12.3384Z" stroke="black" stroke-width="1.85825"/>
<path d="M176.615 11.7239C176.005 10.5511 175.032 9.56246 173.814 8.87719C172.595 8.19192 171.182 7.83929 169.747 7.86184C168.311 7.88439 166.913 8.28116 165.721 9.00428C164.53 9.7274 163.596 10.746 163.032 11.9372L164.401 12.4645C164.852 11.5115 165.599 10.6966 166.552 10.1181C167.506 9.53962 168.624 9.22221 169.773 9.20417C170.921 9.18612 172.051 9.46823 173.026 10.0164C174.001 10.5647 174.779 11.3556 175.267 12.2938L176.615 11.7239Z" stroke="black" stroke-width="1.85825"/>
<path d="M175.245 12.2336C175.801 13.4627 176.749 14.5154 177.969 15.2585C179.188 16.0017 180.625 16.402 182.097 16.4087C183.569 16.4154 185.01 16.0283 186.238 15.2963C187.466 14.5643 188.426 13.5203 188.996 12.2963L187.624 11.7762C187.167 12.7554 186.4 13.5906 185.417 14.1762C184.435 14.7618 183.282 15.0715 182.105 15.0662C180.927 15.0608 179.778 14.7406 178.802 14.1461C177.826 13.5515 177.068 12.7094 176.623 11.7261L175.245 12.2336Z" stroke="black" stroke-width="1.85825"/>
<path d="M201.173 11.6189C200.564 10.4462 199.591 9.45751 198.372 8.77224C197.154 8.08697 195.741 7.73434 194.305 7.75689C192.869 7.77944 191.471 8.1762 190.28 8.89933C189.089 9.62245 188.154 10.641 187.59 11.8323L188.959 12.3595C189.411 11.4065 190.158 10.5917 191.111 10.0132C192.064 9.43466 193.182 9.11725 194.331 9.09921C195.48 9.08117 196.61 9.36327 197.585 9.91149C198.56 10.4597 199.338 11.2506 199.826 12.1888L201.173 11.6189Z" stroke="black" stroke-width="1.85825"/>
<path d="M101.518 12.4428C102.074 13.6719 103.022 14.7246 104.242 15.4678C105.462 16.2109 106.898 16.6112 108.37 16.6179C109.842 16.6246 111.283 16.2375 112.511 15.5055C113.739 14.7735 114.699 13.7295 115.269 12.5055L113.897 11.9855C113.441 12.9647 112.673 13.7999 111.691 14.3855C110.708 14.9711 109.555 15.2808 108.378 15.2754C107.2 15.27 106.051 14.9498 105.075 14.3553C104.1 13.7608 103.341 12.9186 102.896 11.9353L101.518 12.4428Z" stroke="black" stroke-width="1.85825"/>
<path d="M127.447 11.828C126.837 10.6552 125.864 9.66659 124.646 8.98132C123.427 8.29605 122.015 7.94342 120.579 7.96597C119.143 7.98852 117.745 8.38529 116.553 9.10841C115.362 9.83153 114.428 10.8501 113.864 12.0413L115.233 12.5686C115.684 11.6156 116.431 10.8007 117.384 10.2222C118.338 9.64375 119.456 9.32633 120.605 9.30829C121.753 9.29025 122.883 9.57236 123.858 10.1206C124.833 10.6688 125.611 11.4597 126.099 12.3979L127.447 11.828Z" stroke="black" stroke-width="1.85825"/>
<path d="M126.077 12.3384C126.633 13.5676 127.581 14.6203 128.801 15.3634C130.02 16.1066 131.457 16.5068 132.929 16.5136C134.401 16.5203 135.842 16.1332 137.07 15.4012C138.298 14.6691 139.258 13.6251 139.828 12.4012L138.456 11.8811C138 12.8603 137.232 13.6955 136.249 14.2811C135.267 14.8667 134.114 15.1764 132.937 15.1711C131.759 15.1657 130.61 14.8455 129.634 14.251C128.658 13.6564 127.9 12.8143 127.455 11.831L126.077 12.3384Z" stroke="black" stroke-width="1.85825"/>
<path d="M152.063 11.8498C151.476 10.6567 150.516 9.64391 149.3 8.93544C148.084 8.22697 146.666 7.85356 145.219 7.86093C143.772 7.8683 142.358 8.25614 141.152 8.97694C139.945 9.69775 138.997 10.7203 138.425 11.9193L139.792 12.4501C140.25 11.4909 141.008 10.6729 141.973 10.0962C142.939 9.5196 144.07 9.20933 145.227 9.20344C146.385 9.19754 147.52 9.49627 148.492 10.063C149.465 10.6298 150.233 11.4401 150.703 12.3945L152.063 11.8498Z" stroke="black" stroke-width="1.85825"/>
<path d="M249.006 11.973C249.563 13.2021 250.511 14.2548 251.73 14.998C252.95 15.7412 254.387 16.1414 255.859 16.1481C257.331 16.1548 258.772 15.7677 260 15.0357C261.228 14.3037 262.187 13.2597 262.758 12.0357L261.385 11.5157C260.929 12.4949 260.161 13.3301 259.179 13.9157C258.197 14.5013 257.044 14.811 255.866 14.8056C254.689 14.8003 253.539 14.4801 252.564 13.8855C251.588 13.291 250.829 12.4488 250.384 11.4655L249.006 11.973Z" stroke="black" stroke-width="1.85825"/>
<path d="M274.933 11.3584C274.323 10.1856 273.351 9.19697 272.132 8.5117C270.913 7.82643 269.501 7.4738 268.065 7.49635C266.629 7.5189 265.231 7.91566 264.04 8.63879C262.848 9.36191 261.914 10.3805 261.35 11.5717L262.719 12.099C263.17 11.146 263.918 10.3311 264.871 9.75262C265.824 9.17412 266.942 8.85671 268.091 8.83867C269.24 8.82063 270.37 9.10273 271.344 9.65095C272.319 10.1992 273.098 10.9901 273.585 11.9283L274.933 11.3584Z" stroke="black" stroke-width="1.85825"/>
<path d="M273.567 11.8682C274.123 13.0973 275.071 14.15 276.291 14.8931C277.511 15.6363 278.947 16.0366 280.419 16.0433C281.891 16.05 283.332 15.6629 284.56 14.9309C285.788 14.1989 286.748 13.1548 287.318 11.9309L285.946 11.4108C285.49 12.39 284.722 13.2252 283.74 13.8108C282.757 14.3964 281.604 14.7061 280.427 14.7008C279.249 14.6954 278.1 14.3752 277.124 13.7807C276.148 13.1861 275.39 12.344 274.945 11.3607L273.567 11.8682Z" stroke="black" stroke-width="1.85825"/>
<path d="M299.492 11.2534C298.882 10.0806 297.909 9.09199 296.691 8.40671C295.472 7.72144 294.059 7.36882 292.624 7.39137C291.188 7.41392 289.79 7.81068 288.598 8.5338C287.407 9.25693 286.473 10.2755 285.909 11.4667L287.278 11.994C287.729 11.041 288.476 10.2261 289.429 9.64764C290.382 9.06914 291.501 8.75173 292.65 8.73369C293.798 8.71565 294.928 8.99775 295.903 9.54597C296.878 10.0942 297.656 10.8851 298.144 11.8233L299.492 11.2534Z" stroke="black" stroke-width="1.85825"/>
<path d="M199.834 12.0773C200.391 13.3064 201.339 14.3592 202.559 15.1023C203.778 15.8455 205.215 16.2457 206.687 16.2524C208.159 16.2592 209.6 15.872 210.828 15.14C212.056 14.408 213.016 13.364 213.586 12.14L212.213 11.62C211.757 12.5992 210.99 13.4344 210.007 14.02C209.025 14.6056 207.872 14.9153 206.694 14.9099C205.517 14.9046 204.367 14.5844 203.392 13.9898C202.416 13.3953 201.658 12.5531 201.212 11.5698L199.834 12.0773Z" stroke="black" stroke-width="1.85825"/>
<path d="M225.763 11.4626C225.153 10.2898 224.181 9.30116 222.962 8.61589C221.743 7.93062 220.331 7.57799 218.895 7.60054C217.459 7.62309 216.061 8.01986 214.87 8.74298C213.678 9.4661 212.744 10.4847 212.18 11.6759L213.549 12.2032C214 11.2502 214.748 10.4353 215.701 9.85681C216.654 9.27831 217.772 8.9609 218.921 8.94286C220.07 8.92482 221.2 9.20692 222.175 9.75514C223.149 10.3034 223.928 11.0943 224.415 12.0325L225.763 11.4626Z" stroke="black" stroke-width="1.85825"/>
<path d="M224.393 11.973C224.949 13.2021 225.897 14.2548 227.117 14.998C228.337 15.7412 229.773 16.1414 231.245 16.1481C232.717 16.1548 234.158 15.7677 235.386 15.0357C236.614 14.3037 237.574 13.2597 238.144 12.0357L236.772 11.5157C236.316 12.4949 235.548 13.3301 234.566 13.9157C233.583 14.5013 232.43 14.811 231.253 14.8056C230.075 14.8003 228.926 14.4801 227.95 13.8855C226.975 13.291 226.216 12.4488 225.771 11.4655L224.393 11.973Z" stroke="black" stroke-width="1.85825"/>
<path d="M250.383 11.4843C249.796 10.2912 248.836 9.27842 247.62 8.56995C246.405 7.86148 244.987 7.48807 243.539 7.49544C242.092 7.50281 240.679 7.89064 239.472 8.61145C238.265 9.33226 237.318 10.3548 236.746 11.5538L238.113 12.0846C238.57 11.1254 239.328 10.3074 240.294 9.73075C241.259 9.1541 242.39 8.84384 243.548 8.83794C244.705 8.83205 245.84 9.13077 246.813 9.69755C247.785 10.2643 248.553 11.0746 249.023 12.0291L250.383 11.4843Z" stroke="black" stroke-width="1.85825"/>
</svg>
