<svg width="236" height="37" viewBox="0 0 236 37" fill="none" xmlns="http://www.w3.org/2000/svg">
<path fill-rule="evenodd" clip-rule="evenodd" d="M0 8.23569L6.984 27.9997H13.536L20.664 8.23569H13.932L10.944 19.0717C10.8 19.5517 10.68 20.0197 10.584 20.4757C10.512 20.9077 10.452 21.3157 10.404 21.6997C10.356 22.0837 10.32 22.4437 10.296 22.7797H10.152C10.152 22.4677 10.128 22.1197 10.08 21.7357C10.032 21.3277 9.96 20.8957 9.864 20.4397C9.792 19.9837 9.696 19.5037 9.576 18.9997L6.732 8.23569H0ZM29.3839 27.9997V8.23569H22.9399V27.9997H29.3839ZM28.5919 0.963694C27.9199 0.579695 27.1279 0.387695 26.2159 0.387695C25.2559 0.387695 24.4399 0.579695 23.7679 0.963694C23.0959 1.34769 22.7599 2.0917 22.7599 3.1957C22.7599 4.27569 23.0959 5.01969 23.7679 5.42769C24.4399 5.8117 25.2559 6.0037 26.2159 6.0037C27.1279 6.0037 27.9199 5.8117 28.5919 5.42769C29.2639 5.01969 29.5999 4.27569 29.5999 3.1957C29.5999 2.0917 29.2639 1.34769 28.5919 0.963694ZM48.5606 9.63969C47.2406 8.4397 45.3926 7.8397 43.0166 7.8397C41.3366 7.8397 39.8126 7.9957 38.4446 8.30769C37.0766 8.61969 35.8526 9.06369 34.7726 9.63969L36.6086 13.6717C37.5206 13.2637 38.4326 12.9277 39.3446 12.6637C40.2566 12.3757 41.0846 12.2317 41.8286 12.2317C42.5246 12.2317 43.0766 12.4477 43.4846 12.8797C43.8926 13.3117 44.0966 14.0077 44.0966 14.9677V15.5437L40.9646 15.6517C38.3486 15.7477 36.3446 16.3117 34.9526 17.3437C33.5606 18.3517 32.8646 19.9117 32.8646 22.0237C32.8646 23.4637 33.1166 24.6517 33.6206 25.5877C34.1246 26.5237 34.8086 27.2197 35.6726 27.6757C36.5366 28.1317 37.4966 28.3597 38.5526 28.3597C39.5846 28.3597 40.4606 28.2517 41.1806 28.0357C41.9006 27.8437 42.5366 27.5197 43.0886 27.0637C43.6406 26.6077 44.1806 26.0317 44.7086 25.3357H44.8886L46.1126 27.9997H50.5766V14.8957C50.5766 12.5677 49.9046 10.8157 48.5606 9.63969ZM40.1366 19.8997C40.6406 19.3957 41.4806 19.1197 42.6566 19.0717L44.1326 18.9997V20.5837C44.1326 21.6397 43.8566 22.4797 43.3046 23.1037C42.7526 23.7037 42.0806 24.0037 41.2886 24.0037C40.7366 24.0037 40.2806 23.8357 39.9206 23.4997C39.5846 23.1637 39.4166 22.6237 39.4166 21.8797C39.4166 21.0397 39.6566 20.3797 40.1366 19.8997ZM64.1464 8.63169C63.3304 8.1277 62.2744 7.8757 60.9784 7.8757C59.6344 7.8757 58.4464 8.2717 57.4144 9.06369C56.4064 9.85569 55.6144 11.0197 55.0384 12.5557C54.4624 14.0677 54.1744 15.9277 54.1744 18.1357C54.1744 21.3997 54.7864 23.9197 56.0104 25.6957C57.2344 27.4717 58.8544 28.3597 60.8704 28.3597C62.1664 28.3597 63.1984 28.1077 63.9664 27.6037C64.7584 27.0997 65.3704 26.3797 65.8024 25.4437H66.0184C65.9464 25.8517 65.8864 26.2717 65.8384 26.7037C65.8144 27.1357 65.8024 27.5317 65.8024 27.8917V28.2877C65.8024 29.5357 65.4784 30.4717 64.8304 31.0957C64.2064 31.7437 63.2224 32.0677 61.8784 32.0677C60.9184 32.0677 60.0544 32.0077 59.2864 31.8877C58.5424 31.7917 57.8224 31.6237 57.1264 31.3837C56.4544 31.1677 55.7344 30.8917 54.9664 30.5557V35.4877C56.0224 35.9197 57.1264 36.2197 58.2784 36.3877C59.4544 36.5557 60.7864 36.6397 62.2744 36.6397C64.5544 36.6397 66.4144 36.3037 67.8544 35.6317C69.3184 34.9837 70.4104 34.0237 71.1304 32.7517C71.8744 31.4797 72.2464 29.9077 72.2464 28.0357V8.23569H66.6664L66.1984 10.7197H66.0544C65.5984 9.8317 64.9624 9.13569 64.1464 8.63169ZM61.9144 13.3117C62.2984 12.8797 62.7904 12.6637 63.3904 12.6637C64.1584 12.6637 64.7464 12.8677 65.1544 13.2757C65.5864 13.6597 65.8864 14.2597 66.0544 15.0757C66.2224 15.8677 66.3064 16.8757 66.3064 18.0997V18.8557C66.3064 19.6957 66.2584 20.4157 66.1624 21.0157C66.0664 21.6157 65.9104 22.1197 65.6944 22.5277C65.4784 22.9117 65.1904 23.1997 64.8304 23.3917C64.4704 23.5597 64.0144 23.6437 63.4624 23.6437C62.5264 23.6437 61.8304 23.2117 61.3744 22.3477C60.9424 21.4597 60.7264 20.0917 60.7264 18.2437C60.7264 16.9957 60.8224 15.9637 61.0144 15.1477C61.2304 14.3317 61.5304 13.7197 61.9144 13.3117ZM85.9433 8.63169C85.1273 8.1277 84.0713 7.8757 82.7753 7.8757C81.4313 7.8757 80.2432 8.2717 79.2113 9.06369C78.2032 9.85569 77.4112 11.0197 76.8353 12.5557C76.2592 14.0677 75.9713 15.9277 75.9713 18.1357C75.9713 21.3997 76.5833 23.9197 77.8073 25.6957C79.0312 27.4717 80.6513 28.3597 82.6673 28.3597C83.9632 28.3597 84.9952 28.1077 85.7633 27.6037C86.5553 27.0997 87.1673 26.3797 87.5993 25.4437H87.8153C87.7432 25.8517 87.6833 26.2717 87.6353 26.7037C87.6113 27.1357 87.5993 27.5317 87.5993 27.8917V28.2877C87.5993 29.5357 87.2753 30.4717 86.6273 31.0957C86.0033 31.7437 85.0192 32.0677 83.6752 32.0677C82.7152 32.0677 81.8512 32.0077 81.0833 31.8877C80.3392 31.7917 79.6192 31.6237 78.9232 31.3837C78.2513 31.1677 77.5312 30.8917 76.7633 30.5557V35.4877C77.8193 35.9197 78.9232 36.2197 80.0752 36.3877C81.2513 36.5557 82.5833 36.6397 84.0713 36.6397C86.3512 36.6397 88.2113 36.3037 89.6513 35.6317C91.1152 34.9837 92.2073 34.0237 92.9273 32.7517C93.6712 31.4797 94.0433 29.9077 94.0433 28.0357V8.23569H88.4632L87.9952 10.7197H87.8512C87.3952 9.8317 86.7592 9.13569 85.9433 8.63169ZM83.7113 13.3117C84.0953 12.8797 84.5872 12.6637 85.1872 12.6637C85.9553 12.6637 86.5433 12.8677 86.9512 13.2757C87.3832 13.6597 87.6833 14.2597 87.8512 15.0757C88.0192 15.8677 88.1032 16.8757 88.1032 18.0997V18.8557C88.1032 19.6957 88.0553 20.4157 87.9593 21.0157C87.8633 21.6157 87.7073 22.1197 87.4912 22.5277C87.2753 22.9117 86.9873 23.1997 86.6273 23.3917C86.2673 23.5597 85.8112 23.6437 85.2592 23.6437C84.3232 23.6437 83.6273 23.2117 83.1712 22.3477C82.7393 21.4597 82.5233 20.0917 82.5233 18.2437C82.5233 16.9957 82.6192 15.9637 82.8112 15.1477C83.0273 14.3317 83.3272 13.7197 83.7113 13.3117ZM105.04 27.9997V8.23569H98.5961V27.9997H105.04ZM104.248 0.963694C103.576 0.579695 102.784 0.387695 101.872 0.387695C100.912 0.387695 100.096 0.579695 99.4241 0.963694C98.7521 1.34769 98.4161 2.0917 98.4161 3.1957C98.4161 4.27569 98.7521 5.01969 99.4241 5.42769C100.096 5.8117 100.912 6.0037 101.872 6.0037C102.784 6.0037 103.576 5.8117 104.248 5.42769C104.92 5.01969 105.256 4.27569 105.256 3.1957C105.256 2.0917 104.92 1.34769 104.248 0.963694ZM124.217 9.63969C122.897 8.4397 121.049 7.8397 118.673 7.8397C116.993 7.8397 115.469 7.9957 114.101 8.30769C112.733 8.61969 111.509 9.06369 110.429 9.63969L112.265 13.6717C113.177 13.2637 114.089 12.9277 115.001 12.6637C115.913 12.3757 116.741 12.2317 117.485 12.2317C118.181 12.2317 118.733 12.4477 119.141 12.8797C119.549 13.3117 119.753 14.0077 119.753 14.9677V15.5437L116.621 15.6517C114.005 15.7477 112.001 16.3117 110.609 17.3437C109.217 18.3517 108.521 19.9117 108.521 22.0237C108.521 23.4637 108.773 24.6517 109.277 25.5877C109.781 26.5237 110.465 27.2197 111.329 27.6757C112.193 28.1317 113.153 28.3597 114.209 28.3597C115.241 28.3597 116.117 28.2517 116.837 28.0357C117.557 27.8437 118.193 27.5197 118.745 27.0637C119.297 26.6077 119.837 26.0317 120.365 25.3357H120.545L121.769 27.9997H126.233V14.8957C126.233 12.5677 125.561 10.8157 124.217 9.63969ZM115.793 19.8997C116.297 19.3957 117.137 19.1197 118.313 19.0717L119.789 18.9997V20.5837C119.789 21.6397 119.513 22.4797 118.961 23.1037C118.409 23.7037 117.737 24.0037 116.945 24.0037C116.393 24.0037 115.937 23.8357 115.577 23.4997C115.241 23.1637 115.073 22.6237 115.073 21.8797C115.073 21.0397 115.313 20.3797 115.793 19.8997ZM146.931 10.5037C145.755 8.75169 144.135 7.8757 142.071 7.8757C141.207 7.8757 140.451 8.0077 139.803 8.27169C139.179 8.5357 138.651 8.8837 138.219 9.31569C137.787 9.74769 137.415 10.2277 137.103 10.7557H136.779L135.879 8.23569H130.623V36.6397H137.103V29.0077C137.103 28.4317 137.079 27.8917 137.031 27.3877C136.983 26.8837 136.935 26.4037 136.887 25.9477H137.103C137.391 26.3317 137.727 26.7157 138.111 27.0997C138.495 27.4597 138.999 27.7597 139.623 27.9997C140.247 28.2397 140.991 28.3597 141.855 28.3597C143.175 28.3597 144.351 27.9757 145.383 27.2077C146.415 26.4397 147.231 25.2877 147.831 23.7517C148.431 22.2157 148.731 20.3197 148.731 18.0637C148.731 14.7517 148.131 12.2317 146.931 10.5037ZM138.111 13.2037C138.495 12.8437 138.999 12.6637 139.623 12.6637C140.439 12.6637 141.063 13.0957 141.495 13.9597C141.927 14.7997 142.143 16.1437 142.143 17.9917C142.143 19.2157 142.047 20.2357 141.855 21.0517C141.687 21.8677 141.411 22.4797 141.027 22.8877C140.667 23.2717 140.223 23.4637 139.695 23.4637C139.023 23.4637 138.495 23.2597 138.111 22.8517C137.751 22.4197 137.487 21.8077 137.319 21.0157C137.175 20.1997 137.103 19.2037 137.103 18.0277V17.4877C137.103 16.4077 137.175 15.5197 137.319 14.8237C137.463 14.1037 137.727 13.5637 138.111 13.2037ZM168.728 10.5037C167.551 8.75169 165.932 7.8757 163.868 7.8757C163.003 7.8757 162.247 8.0077 161.6 8.27169C160.975 8.5357 160.447 8.8837 160.016 9.31569C159.583 9.74769 159.212 10.2277 158.9 10.7557H158.576L157.676 8.23569H152.419V36.6397H158.9V29.0077C158.9 28.4317 158.876 27.8917 158.827 27.3877C158.779 26.8837 158.732 26.4037 158.684 25.9477H158.9C159.188 26.3317 159.523 26.7157 159.908 27.0997C160.292 27.4597 160.796 27.7597 161.419 27.9997C162.044 28.2397 162.788 28.3597 163.652 28.3597C164.971 28.3597 166.148 27.9757 167.18 27.2077C168.212 26.4397 169.027 25.2877 169.628 23.7517C170.227 22.2157 170.527 20.3197 170.527 18.0637C170.527 14.7517 169.928 12.2317 168.728 10.5037ZM159.908 13.2037C160.292 12.8437 160.796 12.6637 161.419 12.6637C162.236 12.6637 162.859 13.0957 163.292 13.9597C163.723 14.7997 163.939 16.1437 163.939 17.9917C163.939 19.2157 163.844 20.2357 163.652 21.0517C163.484 21.8677 163.208 22.4797 162.824 22.8877C162.464 23.2717 162.02 23.4637 161.492 23.4637C160.82 23.4637 160.292 23.2597 159.908 22.8517C159.548 22.4197 159.284 21.8077 159.115 21.0157C158.971 20.1997 158.9 19.2037 158.9 18.0277V17.4877C158.9 16.4077 158.971 15.5197 159.115 14.8237C159.26 14.1037 159.523 13.5637 159.908 13.2037ZM191.424 22.4557C191.856 21.1837 192.072 19.7197 192.072 18.0637C192.072 15.8797 191.676 14.0317 190.884 12.5197C190.092 11.0077 189 9.85569 187.608 9.06369C186.216 8.2717 184.62 7.8757 182.82 7.8757C180.876 7.8757 179.196 8.2717 177.78 9.06369C176.364 9.85569 175.284 11.0077 174.54 12.5197C173.796 14.0317 173.424 15.8797 173.424 18.0637C173.424 19.7197 173.652 21.1957 174.108 22.4917C174.564 23.7637 175.2 24.8437 176.016 25.7317C176.832 26.5957 177.816 27.2557 178.968 27.7117C180.12 28.1437 181.368 28.3597 182.712 28.3597C184.176 28.3597 185.484 28.1437 186.636 27.7117C187.788 27.2557 188.772 26.5837 189.588 25.6957C190.404 24.8077 191.016 23.7277 191.424 22.4557ZM212.184 9.60369C210.96 8.4517 209.376 7.8757 207.432 7.8757C206.568 7.8757 205.776 7.9837 205.056 8.1997C204.336 8.4157 203.7 8.7397 203.148 9.1717C202.62 9.6037 202.14 10.1437 201.708 10.7917H201.492L200.592 8.23569H195.732V27.9997H202.212V18.9997C202.212 16.9597 202.416 15.3997 202.824 14.3197C203.232 13.2157 204.048 12.6637 205.272 12.6637C206.088 12.6637 206.676 13.0117 207.036 13.7077C207.396 14.4037 207.576 15.4357 207.576 16.8037V27.9997H214.02V15.1117C214.02 12.5677 213.408 10.7317 212.184 9.60369ZM231.548 8.91969C230.228 8.22369 228.668 7.8757 226.868 7.8757C225.02 7.8757 223.4 8.2597 222.008 9.0277C220.616 9.7717 219.536 10.9117 218.768 12.4477C218 13.9597 217.616 15.8917 217.616 18.2437C217.616 20.5477 218.036 22.4557 218.876 23.9677C219.74 25.4557 220.916 26.5597 222.404 27.2797C223.892 27.9997 225.572 28.3597 227.444 28.3597C229.076 28.3597 230.432 28.2397 231.512 27.9997C232.592 27.7837 233.576 27.4237 234.464 26.9197V22.4197C233.432 22.9477 232.424 23.3317 231.44 23.5717C230.48 23.8117 229.4 23.9317 228.2 23.9317C226.904 23.9317 225.908 23.5477 225.212 22.7797C224.54 22.0117 224.18 20.9797 224.132 19.6837H235.652V16.8757C235.652 14.9077 235.292 13.2637 234.572 11.9437C233.876 10.5997 232.868 9.59169 231.548 8.91969ZM225.14 12.9877C225.644 12.3877 226.28 12.0877 227.048 12.0877C227.672 12.0877 228.176 12.2557 228.56 12.5917C228.968 12.9037 229.28 13.3357 229.496 13.8877C229.712 14.4397 229.82 15.0637 229.82 15.7597H224.24C224.336 14.4877 224.636 13.5637 225.14 12.9877Z" fill="#C9363F"/>
</svg>
