<svg width="214" height="37" viewBox="0 0 214 37" fill="none" xmlns="http://www.w3.org/2000/svg">
<path d="M165 17.5C165 21.0899 162.761 24 160 24C157.239 24 155 21.0899 155 17.5C155 13.9102 157.239 11 160 11C162.761 11 165 13.9102 165 17.5Z" fill="#C9363F"/>
<path d="M6.984 28L0 8.236H6.732L9.576 19C9.696 19.504 9.792 19.984 9.864 20.44C9.96 20.896 10.032 21.328 10.08 21.736C10.128 22.12 10.152 22.468 10.152 22.78H10.296C10.32 22.444 10.356 22.084 10.404 21.7C10.452 21.316 10.512 20.908 10.584 20.476C10.68 20.02 10.8 19.552 10.944 19.072L13.932 8.236H20.664L13.536 28H6.984Z" fill="#C9363F"/>
<path d="M29.3839 8.236V28H22.9399V8.236H29.3839ZM26.2159 0.388C27.1279 0.388 27.9199 0.58 28.5919 0.964C29.2639 1.348 29.5999 2.092 29.5999 3.196C29.5999 4.276 29.2639 5.02 28.5919 5.428C27.9199 5.812 27.1279 6.004 26.2159 6.004C25.2559 6.004 24.4399 5.812 23.7679 5.428C23.0959 5.02 22.7599 4.276 22.7599 3.196C22.7599 2.092 23.0959 1.348 23.7679 0.964C24.4399 0.58 25.2559 0.388 26.2159 0.388Z" fill="#C9363F"/>
<path d="M43.0166 7.84C45.3926 7.84 47.2406 8.44 48.5606 9.64C49.9046 10.816 50.5766 12.568 50.5766 14.896V28H46.1126L44.8886 25.336H44.7086C44.1806 26.032 43.6406 26.608 43.0886 27.064C42.5366 27.52 41.9006 27.844 41.1806 28.036C40.4606 28.252 39.5846 28.36 38.5526 28.36C37.4966 28.36 36.5366 28.132 35.6726 27.676C34.8086 27.22 34.1246 26.524 33.6206 25.588C33.1166 24.652 32.8646 23.464 32.8646 22.024C32.8646 19.912 33.5606 18.352 34.9526 17.344C36.3446 16.312 38.3486 15.748 40.9646 15.652L44.0966 15.544V14.968C44.0966 14.008 43.8926 13.312 43.4846 12.88C43.0766 12.448 42.5246 12.232 41.8286 12.232C41.0846 12.232 40.2566 12.376 39.3446 12.664C38.4326 12.928 37.5206 13.264 36.6086 13.672L34.7726 9.64C35.8526 9.064 37.0766 8.62 38.4446 8.308C39.8126 7.996 41.3366 7.84 43.0166 7.84ZM42.6566 19.072C41.4806 19.12 40.6406 19.396 40.1366 19.9C39.6566 20.38 39.4166 21.04 39.4166 21.88C39.4166 22.624 39.5846 23.164 39.9206 23.5C40.2806 23.836 40.7366 24.004 41.2886 24.004C42.0806 24.004 42.7526 23.704 43.3046 23.104C43.8566 22.48 44.1326 21.64 44.1326 20.584V19L42.6566 19.072Z" fill="#C9363F"/>
<path d="M60.9784 7.876C62.2744 7.876 63.3304 8.128 64.1464 8.632C64.9624 9.136 65.5984 9.832 66.0544 10.72H66.1984L66.6664 8.236H72.2464V28.036C72.2464 29.908 71.8744 31.48 71.1304 32.752C70.4104 34.024 69.3184 34.984 67.8544 35.632C66.4144 36.304 64.5544 36.64 62.2744 36.64C60.7864 36.64 59.4544 36.556 58.2784 36.388C57.1264 36.22 56.0224 35.92 54.9664 35.488V30.556C55.7344 30.892 56.4544 31.168 57.1264 31.384C57.8224 31.624 58.5424 31.792 59.2864 31.888C60.0544 32.008 60.9184 32.068 61.8784 32.068C63.2224 32.068 64.2064 31.744 64.8304 31.096C65.4784 30.472 65.8024 29.536 65.8024 28.288V27.892C65.8024 27.532 65.8144 27.136 65.8384 26.704C65.8864 26.272 65.9464 25.852 66.0184 25.444H65.8024C65.3704 26.38 64.7584 27.1 63.9664 27.604C63.1984 28.108 62.1664 28.36 60.8704 28.36C58.8544 28.36 57.2344 27.472 56.0104 25.696C54.7864 23.92 54.1744 21.4 54.1744 18.136C54.1744 15.928 54.4624 14.068 55.0384 12.556C55.6144 11.02 56.4064 9.856 57.4144 9.064C58.4464 8.272 59.6344 7.876 60.9784 7.876ZM63.3904 12.664C62.7904 12.664 62.2984 12.88 61.9144 13.312C61.5304 13.72 61.2304 14.332 61.0144 15.148C60.8224 15.964 60.7264 16.996 60.7264 18.244C60.7264 20.092 60.9424 21.46 61.3744 22.348C61.8304 23.212 62.5264 23.644 63.4624 23.644C64.0144 23.644 64.4704 23.56 64.8304 23.392C65.1904 23.2 65.4784 22.912 65.6944 22.528C65.9104 22.12 66.0664 21.616 66.1624 21.016C66.2584 20.416 66.3064 19.696 66.3064 18.856V18.1C66.3064 16.876 66.2224 15.868 66.0544 15.076C65.8864 14.26 65.5864 13.66 65.1544 13.276C64.7464 12.868 64.1584 12.664 63.3904 12.664Z" fill="#C9363F"/>
<path d="M83.2432 8.236V28H76.7992V8.236H83.2432ZM80.0752 0.388C80.9872 0.388 81.7792 0.58 82.4512 0.964C83.1232 1.348 83.4593 2.092 83.4593 3.196C83.4593 4.276 83.1232 5.02 82.4512 5.428C81.7792 5.812 80.9872 6.004 80.0752 6.004C79.1152 6.004 78.2993 5.812 77.6273 5.428C76.9553 5.02 76.6192 4.276 76.6192 3.196C76.6192 2.092 76.9553 1.348 77.6273 0.964C78.2993 0.58 79.1152 0.388 80.0752 0.388Z" fill="#C9363F"/>
<path d="M96.876 7.84C99.252 7.84 101.1 8.44 102.42 9.64C103.764 10.816 104.436 12.568 104.436 14.896V28H99.972L98.748 25.336H98.568C98.04 26.032 97.5 26.608 96.948 27.064C96.396 27.52 95.76 27.844 95.04 28.036C94.32 28.252 93.444 28.36 92.412 28.36C91.356 28.36 90.396 28.132 89.532 27.676C88.668 27.22 87.984 26.524 87.48 25.588C86.976 24.652 86.724 23.464 86.724 22.024C86.724 19.912 87.42 18.352 88.812 17.344C90.204 16.312 92.208 15.748 94.824 15.652L97.956 15.544V14.968C97.956 14.008 97.752 13.312 97.344 12.88C96.936 12.448 96.384 12.232 95.688 12.232C94.944 12.232 94.116 12.376 93.204 12.664C92.292 12.928 91.38 13.264 90.468 13.672L88.632 9.64C89.712 9.064 90.936 8.62 92.304 8.308C93.672 7.996 95.196 7.84 96.876 7.84ZM96.516 19.072C95.34 19.12 94.5 19.396 93.996 19.9C93.516 20.38 93.276 21.04 93.276 21.88C93.276 22.624 93.444 23.164 93.78 23.5C94.14 23.836 94.596 24.004 95.148 24.004C95.94 24.004 96.612 23.704 97.164 23.104C97.716 22.48 97.992 21.64 97.992 20.584V19L96.516 19.072Z" fill="#C9363F"/>
<path d="M120.274 7.876C122.338 7.876 123.958 8.752 125.134 10.504C126.334 12.232 126.934 14.752 126.934 18.064C126.934 20.32 126.634 22.216 126.034 23.752C125.434 25.288 124.618 26.44 123.586 27.208C122.554 27.976 121.378 28.36 120.058 28.36C119.194 28.36 118.45 28.24 117.826 28C117.202 27.76 116.698 27.46 116.314 27.1C115.93 26.716 115.594 26.332 115.306 25.948H115.09C115.138 26.404 115.186 26.884 115.234 27.388C115.282 27.892 115.306 28.432 115.306 29.008V36.64H108.826V8.236H114.082L114.982 10.756H115.306C115.618 10.228 115.99 9.748 116.422 9.316C116.854 8.884 117.382 8.536 118.006 8.272C118.654 8.008 119.41 7.876 120.274 7.876ZM117.826 12.664C117.202 12.664 116.698 12.844 116.314 13.204C115.93 13.564 115.666 14.104 115.522 14.824C115.378 15.52 115.306 16.408 115.306 17.488V18.028C115.306 19.204 115.378 20.2 115.522 21.016C115.69 21.808 115.954 22.42 116.314 22.852C116.698 23.26 117.226 23.464 117.898 23.464C118.426 23.464 118.87 23.272 119.23 22.888C119.614 22.48 119.89 21.868 120.058 21.052C120.25 20.236 120.346 19.216 120.346 17.992C120.346 16.144 120.13 14.8 119.698 13.96C119.266 13.096 118.642 12.664 117.826 12.664Z" fill="#C9363F"/>
<path d="M142.071 7.876C144.135 7.876 145.755 8.752 146.931 10.504C148.131 12.232 148.731 14.752 148.731 18.064C148.731 20.32 148.431 22.216 147.831 23.752C147.231 25.288 146.415 26.44 145.383 27.208C144.351 27.976 143.175 28.36 141.855 28.36C140.991 28.36 140.247 28.24 139.623 28C138.999 27.76 138.495 27.46 138.111 27.1C137.727 26.716 137.391 26.332 137.103 25.948H136.887C136.935 26.404 136.983 26.884 137.031 27.388C137.079 27.892 137.103 28.432 137.103 29.008V36.64H130.623V8.236H135.879L136.779 10.756H137.103C137.415 10.228 137.787 9.748 138.219 9.316C138.651 8.884 139.179 8.536 139.803 8.272C140.451 8.008 141.207 7.876 142.071 7.876ZM139.623 12.664C138.999 12.664 138.495 12.844 138.111 13.204C137.727 13.564 137.463 14.104 137.319 14.824C137.175 15.52 137.103 16.408 137.103 17.488V18.028C137.103 19.204 137.175 20.2 137.319 21.016C137.487 21.808 137.751 22.42 138.111 22.852C138.495 23.26 139.023 23.464 139.695 23.464C140.223 23.464 140.667 23.272 141.027 22.888C141.411 22.48 141.687 21.868 141.855 21.052C142.047 20.236 142.143 19.216 142.143 17.992C142.143 16.144 141.927 14.8 141.495 13.96C141.063 13.096 140.439 12.664 139.623 12.664Z" fill="#C9363F"/>
<path d="M170.275 18.064C170.275 19.72 170.06 21.184 169.628 22.456C169.22 23.728 168.608 24.808 167.792 25.696C166.976 26.584 165.991 27.256 164.839 27.712C163.687 28.144 162.379 28.36 160.915 28.36C159.571 28.36 158.323 28.144 157.171 27.712C156.019 27.256 155.035 26.596 154.219 25.732C153.403 24.844 152.767 23.764 152.311 22.492C151.855 21.196 151.628 19.72 151.628 18.064C151.628 15.88 151.999 14.032 152.743 12.52C153.487 11.008 154.568 9.856 155.984 9.064C157.4 8.272 159.079 7.876 161.023 7.876C162.823 7.876 164.419 8.272 165.811 9.064C167.203 9.856 168.295 11.008 169.087 12.52C169.879 14.032 170.275 15.88 170.275 18.064ZM158.18 18.064C158.18 19.288 158.275 20.32 158.467 21.16C158.659 22 158.96 22.636 159.368 23.068C159.776 23.476 160.316 23.68 160.988 23.68C161.66 23.68 162.188 23.476 162.572 23.068C162.98 22.636 163.268 22 163.436 21.16C163.628 20.32 163.723 19.288 163.723 18.064C163.723 16.84 163.628 15.82 163.436 15.004C163.268 14.188 162.98 13.576 162.572 13.168C162.164 12.76 161.624 12.556 160.952 12.556C159.944 12.556 159.224 13.024 158.792 13.96C158.384 14.872 158.18 16.24 158.18 18.064Z" fill="#C9363F"/>
<path d="M185.635 7.876C187.579 7.876 189.163 8.452 190.387 9.604C191.611 10.732 192.223 12.568 192.223 15.112V28H185.779V16.804C185.779 15.436 185.599 14.404 185.239 13.708C184.879 13.012 184.291 12.664 183.475 12.664C182.251 12.664 181.435 13.216 181.027 14.32C180.619 15.4 180.415 16.96 180.415 19V28H173.935V8.236H178.795L179.695 10.792H179.911C180.343 10.144 180.823 9.604 181.351 9.172C181.903 8.74 182.539 8.416 183.259 8.2C183.979 7.984 184.771 7.876 185.635 7.876Z" fill="#C9363F"/>
<path d="M205.071 7.876C206.871 7.876 208.431 8.224 209.751 8.92C211.071 9.592 212.079 10.6 212.775 11.944C213.495 13.264 213.855 14.908 213.855 16.876V19.684H202.335C202.383 20.98 202.743 22.012 203.415 22.78C204.111 23.548 205.107 23.932 206.403 23.932C207.603 23.932 208.683 23.812 209.643 23.572C210.627 23.332 211.635 22.948 212.667 22.42V26.92C211.779 27.424 210.795 27.784 209.715 28C208.635 28.24 207.279 28.36 205.647 28.36C203.775 28.36 202.095 28 200.607 27.28C199.119 26.56 197.943 25.456 197.079 23.968C196.239 22.456 195.819 20.548 195.819 18.244C195.819 15.892 196.203 13.96 196.971 12.448C197.739 10.912 198.819 9.772 200.211 9.028C201.603 8.26 203.223 7.876 205.071 7.876ZM205.251 12.088C204.483 12.088 203.847 12.388 203.343 12.988C202.839 13.564 202.539 14.488 202.443 15.76H208.023C208.023 15.064 207.915 14.44 207.699 13.888C207.483 13.336 207.171 12.904 206.763 12.592C206.379 12.256 205.875 12.088 205.251 12.088Z" fill="#C9363F"/>
</svg>
