<?xml version="1.0" encoding="utf-8"?>
<!-- Generator: Adobe Illustrator 26.4.1, SVG Export Plug-In . SVG Version: 6.00 Build 0)  -->
<svg version="1.1" id="Livello_1" xmlns="http://www.w3.org/2000/svg" xmlns:xlink="http://www.w3.org/1999/xlink" x="0px" y="0px"
	 viewBox="0 0 588 456" style="enable-background:new 0 0 588 456;" xml:space="preserve">
<style type="text/css">
	.st0{fill:#1D1D1D;}
	.st1{fill:#282828;}
</style>
<g>
	<rect y="-0.5" class="st0" width="504.9" height="435"/>
	<path class="st1" d="M272.5,287.2l-0.1-0.1h82.8v-42.8H240c-4.3-7-8.3-14-11.9-21.3v-0.1h89.1v-41.5h-162
		c1.9-7.1,3.7-14.2,5.2-21.4l0,0h171.2v-42H167.7c1.2-8.8,2.2-17.6,3-26.5l-53.3-4.1c-0.7,10.2-1.6,20.4-2.9,30.6H0v42h106.9
		c-0.1,0.2-0.1,0.5-0.2,0.7s-0.1,0.5-0.2,0.7c-1.6,6.7-3.4,13.4-5.4,20H0v41.5h85.6v0.1c-0.1,0.2-0.2,0.4-0.2,0.5
		c-0.1,0.3-0.2,0.5-0.4,0.8c-3.1,6.8-6.5,13.4-10.1,20H0v42.8h45.6l-0.1,0.1c-13,15.7-28.1,30.3-45.5,43.7v64.2
		c13.9-8.6,26.8-17.7,38.7-27.5v66.9h51.6v-20.1h129.4v20.1h54.6v-73.6l0,0c17.6,14.1,36.8,26.2,57.7,35.9
		c7.4-13.1,23.6-33.2,35.4-43.7C330.6,338.4,298.5,315.5,272.5,287.2z M90.3,350.1h129.4v27.1H90.3V350.1z M94.5,309.5
		c5.4-7.3,10.5-14.7,15.3-22.3c0,0,0-0.1,0.1-0.1h98.4c0.1,0.1,0.2,0.3,0.3,0.4c4.9,7.6,10.2,14.9,15.7,22H94.5z M174.4,222.9
		c0.1,0.1,0.1,0.3,0.2,0.4c3,7.2,6.2,14.1,9.5,21h-51.3c3.2-7,6.2-14.1,9-21.3v-0.1L174.4,222.9L174.4,222.9z"/>
	<path class="st0" d="M558.1,358.5c0.8,2.9,2.3,6.8,2.3,6.8s-4.1-1.7-7.1-2.6c-5.3,6.3-4.7,15.1,1.4,21.2c6.7,6.7,22.2,11.3,29.4,5
		c7.2-6.2,3.3-21-3.4-27.6C574.7,355.2,565.3,354,558.1,358.5z"/>
</g>
</svg>
