<?xml version="1.0" encoding="utf-8"?>
<!-- Generator: Adobe Illustrator 26.4.1, SVG Export Plug-In . SVG Version: 6.00 Build 0)  -->
<svg version="1.1" id="Livello_1" xmlns="http://www.w3.org/2000/svg" xmlns:xlink="http://www.w3.org/1999/xlink" x="0px" y="0px"
	 viewBox="0 0 588 456" style="enable-background:new 0 0 588 456;" xml:space="preserve">
<style type="text/css">
	.st0{fill:#1D1D1D;}
	.st1{fill:#282828;}
	.st2{fill:#E2E2E2;}
	.st3{fill:#FFFFFF;}
</style>
<g>
	<rect y="-0.5" class="st0" width="504.9" height="435"/>
	<path class="st1" d="M272.5,287.2l-0.1-0.1h82.8v-42.8H240c-4.3-7-8.3-14-11.9-21.3v-0.1h89.1v-41.5h-162
		c1.9-7.1,3.7-14.2,5.2-21.4l0,0h171.2v-42H167.7c1.2-8.8,2.2-17.6,3-26.5l-53.3-4.1c-0.7,10.2-1.6,20.4-2.9,30.6H0v42h106.9
		c-0.1,0.2-0.1,0.5-0.2,0.7s-0.1,0.5-0.2,0.7c-1.6,6.7-3.4,13.4-5.4,20H0v41.5h85.6v0.1c-0.1,0.2-0.2,0.4-0.2,0.5
		c-0.1,0.3-0.2,0.5-0.4,0.8c-3.1,6.8-6.5,13.4-10.1,20H0v42.8h45.6l-0.1,0.1c-13,15.7-28.1,30.3-45.5,43.7v64.2
		c13.9-8.6,26.8-17.7,38.7-27.5v66.9h51.6v-20.1h129.4v20.1h54.6v-73.6l0,0c17.6,14.1,36.8,26.2,57.7,35.9
		c7.4-13.1,23.6-33.2,35.4-43.7C330.6,338.4,298.5,315.5,272.5,287.2z M90.3,350.1h129.4v27.1H90.3V350.1z M94.5,309.5
		c5.4-7.3,10.5-14.7,15.3-22.3c0,0,0-0.1,0.1-0.1h98.4c0.1,0.1,0.2,0.3,0.3,0.4c4.9,7.6,10.2,14.9,15.7,22H94.5z M174.4,222.9
		c0.1,0.1,0.1,0.3,0.2,0.4c3,7.2,6.2,14.1,9.5,21h-51.3c3.2-7,6.2-14.1,9-21.3v-0.1L174.4,222.9L174.4,222.9z"/>
	<path class="st2" d="M47.9,51.4c-1.7-1.6-4.2-2.4-7.5-2.4h-9.1v28.1h7.1v-9.7h2c1.9,0,3.5-0.3,4.7-0.8c1.3-0.5,2.3-1.2,3.1-2.1
		s1.3-1.9,1.7-3s0.5-2.4,0.5-3.6C50.4,55.1,49.6,52.9,47.9,51.4z M42.9,60.3c-0.3,0.6-0.7,1-1.3,1.3c-0.5,0.3-1.1,0.4-1.7,0.4h-1.4
		v-7.5h1.9c1,0,1.8,0.3,2.3,1c0.5,0.6,0.7,1.5,0.7,2.6C43.3,59,43.2,59.7,42.9,60.3z"/>
	<path class="st2" d="M69.6,64.9c0.9-0.5,1.7-1.1,2.4-1.8c0.7-0.7,1.2-1.5,1.6-2.5c0.4-0.9,0.6-2,0.6-3.2c0-1.9-0.4-3.4-1.2-4.6
		c-0.8-1.3-2-2.2-3.6-2.8s-3.6-0.9-5.9-0.9h-8.7v28.1h7.1V66.6h1.9l5.6,10.5h8L69.6,64.9z M66.4,59.7c-0.3,0.5-0.7,1-1.3,1.2
		c-0.5,0.2-1.2,0.4-1.9,0.4h-1.3v-7h1.4c0.9,0,1.6,0.1,2.1,0.4c0.5,0.2,0.9,0.6,1.2,1.1c0.3,0.5,0.4,1.1,0.4,1.8
		C66.9,58.5,66.7,59.2,66.4,59.7z"/>
	<path class="st2" d="M91.8,77.1H78.1v-3.8l3.3-1.5V54.3l-3.3-1.5V49h13.7v3.8l-3.3,1.5v17.5l3.3,1.5C91.8,73.3,91.8,77.1,91.8,77.1
		z"/>
	<path class="st2" d="M107.6,77.1l-5.5-21.4h-0.2c0.1,0.5,0.1,1.3,0.2,2.2c0.1,1,0.1,2,0.2,3.1s0.1,2.2,0.1,3.1v12.8H96V49h10
		l5,19.6h0.1l5-19.6h10v28.1h-6.6v-13c0-0.9,0-1.9,0-3s0.1-2.1,0.1-3.1c0.1-1,0.1-1.7,0.1-2.2h-0.1l-5.4,21.3H107.6z"/>
	<path class="st2" d="M147,48.9h-9.5l-8.6,28.2h7.8l1.3-6h8.6l1.3,6h7.8L147,48.9z M139.5,65.5l1.5-5.7c0.2-0.6,0.3-1.2,0.4-1.9
		c0.2-0.7,0.3-1.4,0.5-2.2s0.3-1.5,0.4-2.2c0.1,0.7,0.3,1.4,0.4,2.2c0.2,0.7,0.3,1.5,0.5,2.2s0.3,1.3,0.5,1.9l1.5,5.7H139.5z"/>
	<path class="st2" d="M179.9,49l-8.7,28.1h-8.3L154.2,49h8l3.6,15.6c0.1,0.4,0.2,1,0.4,1.8s0.4,1.6,0.5,2.4c0.2,0.8,0.3,1.5,0.3,2.1
		c0.1-0.6,0.2-1.2,0.3-2s0.3-1.7,0.4-2.4c0.2-0.8,0.3-1.4,0.4-1.8l3.8-15.6L179.9,49L179.9,49z"/>
	<path class="st2" d="M198.4,77.1h-15.7V49h15.7v5.4h-8.5v5.4h7.9v5.4h-7.9v6.3h8.5V77.1z"/>
	<path class="st2" d="M225.3,76.6L218,64.9c0.9-0.5,1.7-1.1,2.4-1.8s1.2-1.5,1.6-2.5c0.4-0.9,0.5-2,0.5-3.2c0-1.9-0.4-3.4-1.2-4.6
		c-0.8-1.3-2-2.2-3.6-2.8s-3.6-0.9-5.9-0.9H203v28.1h7.1V66.6h1.8l5.6,10.5h8L225.3,76.6z M214.7,59.7c-0.3,0.5-0.8,1-1.3,1.2
		s-1.2,0.4-1.9,0.4h-1.3v-7h1.4c0.9,0,1.6,0.1,2.1,0.4c0.5,0.2,0.9,0.6,1.2,1.1s0.4,1.1,0.4,1.8C215.2,58.5,215.1,59.2,214.7,59.7z"
		/>
	<path class="st2" d="M243.3,48.9h-9.5l-8.5,27.7l-0.1,0.5h7.8l1.3-6h8.6l1.3,6h7.8L243.3,48.9z M235.8,65.5l1.5-5.7
		c0.2-0.6,0.3-1.2,0.4-1.9c0.2-0.7,0.3-1.4,0.5-2.2s0.3-1.5,0.4-2.2c0.1,0.7,0.3,1.4,0.4,2.2c0.2,0.7,0.3,1.5,0.5,2.2
		s0.3,1.3,0.5,1.9l1.5,5.7H235.8z"/>
	<path class="st3" d="M32.1,127.4v-10.9H33v10.1h5.1v0.8H32.1z"/>
	<path class="st3" d="M44.7,119.8c-0.4-0.4-1.1-0.7-2-0.7c-0.5,0-1,0.1-1.4,0.2c-0.5,0.1-0.9,0.3-1.3,0.5l0.3,0.7
		c0.4-0.2,0.8-0.3,1.1-0.4c0.4-0.1,0.8-0.2,1.2-0.2c0.6,0,1.1,0.2,1.4,0.5c0.3,0.3,0.5,0.9,0.5,1.7v0.6l-1.5,0.1
		c-1.3,0.1-2.2,0.3-2.9,0.7c-0.7,0.4-1,1-1,1.8c0,0.5,0.1,0.9,0.3,1.2c0.2,0.3,0.5,0.6,0.9,0.8c0.4,0.2,0.8,0.3,1.3,0.3
		s0.9-0.1,1.3-0.2c0.4-0.1,0.7-0.3,0.9-0.5c0.3-0.2,0.5-0.5,0.7-0.8l0,0l0.2,1.4h0.7V122C45.4,120.9,45.2,120.2,44.7,119.8z
		 M44.6,124.1c0,0.9-0.3,1.5-0.7,2c-0.5,0.5-1.1,0.7-2,0.7c-0.5,0-1-0.1-1.3-0.4s-0.5-0.6-0.5-1.1c0-0.6,0.3-1.1,0.8-1.4
		s1.3-0.5,2.3-0.6l1.4-0.1V124.1z"/>
	<path class="st3" d="M58.1,120.1c-0.6-0.7-1.4-1-2.4-1c-0.5,0-0.9,0.1-1.3,0.2c-0.4,0.2-0.7,0.4-0.9,0.6c-0.3,0.3-0.4,0.5-0.6,0.8
		l0,0l-0.1-1.5H52V131h0.9v-3.4c0-0.3,0-0.5,0-0.8s0-0.6,0-0.8H53c0.1,0.3,0.3,0.5,0.5,0.8c0.2,0.2,0.5,0.4,0.9,0.6
		c0.4,0.1,0.8,0.2,1.3,0.2c0.7,0,1.3-0.2,1.8-0.5s0.9-0.8,1.2-1.4s0.4-1.4,0.4-2.3C59,121.9,58.7,120.8,58.1,120.1z M57.8,125.2
		c-0.2,0.5-0.5,0.9-0.9,1.2c-0.4,0.3-0.8,0.4-1.4,0.4c-0.6,0-1.1-0.1-1.5-0.4s-0.7-0.6-0.9-1.1s-0.3-1.2-0.3-1.9v-0.2
		c0-0.7,0.1-1.3,0.3-1.8s0.5-0.9,0.9-1.1c0.4-0.3,0.9-0.4,1.5-0.4c0.9,0,1.5,0.3,1.9,0.9s0.6,1.4,0.6,2.5
		C58.1,124,58,124.6,57.8,125.2z"/>
	<path class="st3" d="M64.5,119.1c0.2,0,0.4,0,0.6,0s0.4,0.1,0.5,0.1l-0.1,0.8c-0.2,0-0.3-0.1-0.5-0.1s-0.3,0-0.5,0
		c-0.4,0-0.7,0.1-1,0.2s-0.6,0.3-0.8,0.6c-0.2,0.3-0.4,0.6-0.5,0.9c-0.1,0.4-0.2,0.8-0.2,1.2v4.5h-0.9v-8.1h0.7l0.1,1.5l0,0
		c0.1-0.3,0.3-0.6,0.5-0.8c0.2-0.3,0.5-0.5,0.8-0.6C63.7,119.2,64.1,119.1,64.5,119.1z"/>
	<path class="st3" d="M68.1,116.4c-0.1-0.1-0.3-0.2-0.4-0.2c-0.2,0-0.3,0.1-0.4,0.2s-0.2,0.3-0.2,0.5s0.1,0.4,0.2,0.5
		s0.2,0.2,0.4,0.2c0.2,0,0.3-0.1,0.4-0.2s0.2-0.3,0.2-0.5C68.2,116.7,68.2,116.5,68.1,116.4z M67.2,119.2v8.1H68v-8.1H67.2z"/>
	<path class="st3" d="M79.2,119.1c0.8,0,1.4,0.2,1.9,0.7s0.7,1.2,0.7,2.2v5.4h-0.9V122c0-0.7-0.2-1.3-0.5-1.6
		c-0.3-0.4-0.8-0.5-1.3-0.5c-0.8,0-1.4,0.2-1.8,0.7c-0.4,0.4-0.6,1.1-0.6,2.1v4.8h-0.9V122c0-0.5-0.1-0.9-0.2-1.2
		c-0.1-0.3-0.4-0.6-0.6-0.7c-0.3-0.2-0.6-0.2-1-0.2c-0.5,0-0.9,0.1-1.3,0.3c-0.4,0.2-0.6,0.5-0.8,1c-0.2,0.4-0.3,1-0.3,1.6v4.6h-0.9
		v-8.1h0.7l0.1,1.3l0,0c0.1-0.3,0.3-0.5,0.6-0.7c0.2-0.2,0.5-0.4,0.8-0.5s0.7-0.2,1.1-0.2c0.6,0,1.1,0.1,1.5,0.4s0.7,0.6,0.9,1.1
		h0.1c0.2-0.5,0.6-0.9,1-1.1C78.1,119.2,78.6,119.1,79.2,119.1z"/>
	<path class="st3" d="M89.3,119.8c-0.4-0.4-1.1-0.7-2.1-0.7c-0.5,0-1,0.1-1.4,0.2s-0.9,0.3-1.3,0.5l0.3,0.7c0.4-0.2,0.8-0.3,1.1-0.4
		c0.4-0.1,0.8-0.2,1.2-0.2c0.6,0,1.1,0.2,1.4,0.5s0.5,0.9,0.5,1.7v0.6l-1.5,0.1c-1.3,0.1-2.2,0.3-2.9,0.7c-0.7,0.4-1,1-1,1.8
		c0,0.5,0.1,0.9,0.3,1.2c0.2,0.3,0.5,0.6,0.9,0.8c0.4,0.2,0.8,0.3,1.3,0.3s0.9-0.1,1.3-0.2s0.7-0.3,0.9-0.5c0.3-0.2,0.5-0.5,0.7-0.8
		l0,0l0.2,1.4H90V122C90,120.9,89.8,120.2,89.3,119.8z M89.1,124.1c0,0.9-0.3,1.5-0.7,2c-0.5,0.5-1.1,0.7-2,0.7
		c-0.5,0-1-0.1-1.3-0.4s-0.5-0.6-0.5-1.1c0-0.6,0.3-1.1,0.8-1.4s1.3-0.5,2.3-0.6l1.4-0.1C89.1,123.2,89.1,124.1,89.1,124.1z"/>
	<path class="st3" d="M94.4,127.4l-3.1-8.1h0.9l2,5.4c0.1,0.2,0.2,0.4,0.2,0.7c0.1,0.2,0.2,0.4,0.2,0.6c0.1,0.2,0.1,0.4,0.2,0.6l0,0
		c0.1-0.2,0.1-0.4,0.2-0.6s0.1-0.4,0.2-0.6s0.2-0.4,0.2-0.7l2-5.4h0.9l-3.1,8.1H94.4z"/>
	<path class="st3" d="M106,122.8c0-0.7-0.1-1.4-0.4-1.9c-0.2-0.6-0.6-1-1-1.3c-0.5-0.3-1-0.5-1.7-0.5c-0.8,0-1.4,0.2-1.9,0.6
		s-0.9,0.9-1.2,1.5c-0.3,0.6-0.4,1.4-0.4,2.2c0,0.8,0.2,1.6,0.4,2.2c0.3,0.6,0.7,1.1,1.3,1.4c0.6,0.3,1.3,0.5,2.1,0.5
		c0.5,0,1,0,1.4-0.1s0.8-0.2,1.2-0.4v-0.8c-0.4,0.2-0.9,0.3-1.2,0.4c-0.4,0.1-0.8,0.1-1.3,0.1c-0.9,0-1.7-0.3-2.2-0.9
		s-0.8-1.4-0.8-2.5h5.8v-0.5L106,122.8L106,122.8z M100.2,122.7c0.1-0.9,0.4-1.6,0.8-2.1s1.1-0.7,1.8-0.7c0.5,0,1,0.1,1.3,0.4
		s0.6,0.6,0.8,1c0.2,0.4,0.2,0.9,0.2,1.5h-4.9C100.2,122.8,100.2,122.7,100.2,122.7z"/>
	<path class="st3" d="M111.6,119.1c0.2,0,0.4,0,0.6,0s0.4,0.1,0.5,0.1l-0.1,0.8c-0.2,0-0.3-0.1-0.5-0.1s-0.3,0-0.5,0
		c-0.4,0-0.7,0.1-1,0.2s-0.6,0.3-0.8,0.6c-0.2,0.3-0.4,0.6-0.5,0.9c-0.1,0.4-0.2,0.8-0.2,1.2v4.5h-0.9v-8.1h0.7l0.1,1.5l0,0
		c0.1-0.3,0.3-0.6,0.5-0.8c0.2-0.3,0.5-0.5,0.8-0.6C110.8,119.2,111.2,119.1,111.6,119.1z"/>
	<path class="st3" d="M118.9,119.8c-0.4-0.4-1.1-0.7-2.1-0.7c-0.5,0-1,0.1-1.4,0.2s-0.8,0.3-1.2,0.4h-0.1l0.1,0.2l0.2,0.5
		c0.4-0.2,0.8-0.3,1.1-0.4c0.4-0.1,0.8-0.2,1.2-0.2c0.6,0,1.1,0.2,1.4,0.5s0.5,0.9,0.5,1.7v0.6l-1.5,0.1c-1.3,0.1-2.2,0.3-2.9,0.7
		c-0.3,0.2-0.5,0.4-0.7,0.7c-0.2,0.3-0.3,0.7-0.3,1.2c0,0.2,0,0.4,0.1,0.6c0,0.2,0.1,0.5,0.3,0.7c0.2,0.3,0.5,0.6,0.9,0.8
		c0.4,0.2,0.8,0.3,1.3,0.3s0.9-0.1,1.3-0.2c0.3-0.1,0.7-0.3,0.9-0.5c0.3-0.2,0.5-0.5,0.7-0.8l0,0l0.2,1.4h0.7v-5.5
		C119.5,120.9,119.3,120.2,118.9,119.8z M118.7,124.1c0,0.9-0.3,1.5-0.7,2c-0.5,0.5-1.1,0.7-2,0.7c-0.5,0-1-0.1-1.3-0.4
		s-0.5-0.6-0.5-1.1c0-0.6,0.3-1.1,0.8-1.4s1.3-0.5,2.3-0.6l1.4-0.1C118.7,123.2,118.7,124.1,118.7,124.1z"/>
	<path class="st3" d="M127,116.4c-0.1-0.1-0.3-0.2-0.4-0.2c-0.2,0-0.3,0.1-0.4,0.2s-0.2,0.3-0.2,0.5s0.1,0.4,0.2,0.5
		s0.3,0.2,0.4,0.2c0.2,0,0.3-0.1,0.4-0.2s0.2-0.3,0.2-0.5C127.1,116.7,127.1,116.5,127,116.4z M126.1,119.2v8.1h0.9v-8.1H126.1z"/>
	<path class="st3" d="M133.3,119.1c0.9,0,1.6,0.2,2.1,0.7s0.7,1.2,0.7,2.3v5.3h-0.9v-5.3c0-0.8-0.2-1.4-0.5-1.7
		c-0.4-0.4-0.9-0.6-1.6-0.6c-0.9,0-1.6,0.3-2,0.8s-0.7,1.3-0.7,2.3v4.4h-0.9v-8.1h0.7l0.1,1.4l0,0c0.2-0.3,0.4-0.6,0.6-0.8
		c0.3-0.2,0.6-0.4,0.9-0.6C132.4,119.2,132.9,119.1,133.3,119.1z"/>
	<path class="st3" d="M147.3,121.8h4v5.1c-0.5,0.2-1.1,0.4-1.7,0.5c-0.6,0.1-1.2,0.2-1.9,0.2c-1.2,0-2.1-0.2-2.9-0.7
		c-0.8-0.4-1.4-1.1-1.8-1.9c-0.4-0.8-0.6-1.8-0.6-3c0-1.1,0.2-2.1,0.7-2.9c0.4-0.8,1.1-1.5,1.9-2c0.8-0.5,1.8-0.7,3-0.7
		c0.6,0,1.2,0.1,1.7,0.2s1,0.3,1.5,0.5l-0.3,0.8c-0.5-0.2-0.9-0.4-1.4-0.5s-1-0.2-1.5-0.2c-1,0-1.8,0.2-2.5,0.6s-1.2,1-1.6,1.7
		c-0.4,0.7-0.6,1.6-0.6,2.5c0,1.1,0.2,1.9,0.5,2.6s0.9,1.3,1.5,1.6c0.7,0.4,1.5,0.6,2.5,0.6c0.4,0,0.7,0,1,0s0.6-0.1,0.8-0.2
		c0.3-0.1,0.5-0.1,0.7-0.2v-3.7h-3.1v-0.9H147.3z"/>
	<path class="st3" d="M154.7,116.4c-0.1-0.1-0.3-0.2-0.4-0.2c-0.2,0-0.3,0.1-0.4,0.2c-0.1,0.1-0.2,0.3-0.2,0.5s0.1,0.4,0.2,0.5
		c0.1,0.1,0.2,0.2,0.4,0.2s0.3-0.1,0.4-0.2c0.1-0.1,0.2-0.3,0.2-0.5C154.8,116.7,154.8,116.5,154.7,116.4z M153.8,119.2v8.1h0.9
		v-8.1H153.8z"/>
	<path class="st3" d="M162.3,119.8c-0.4-0.4-1.1-0.7-2.1-0.7c-0.5,0-1,0.1-1.4,0.2c-0.5,0.1-0.9,0.3-1.2,0.5l0.3,0.7
		c0.4-0.2,0.8-0.3,1.1-0.4c0.4-0.1,0.8-0.2,1.2-0.2c0.6,0,1.1,0.2,1.4,0.5c0.3,0.3,0.5,0.9,0.5,1.7v0.6l-1.5,0.1
		c-1.3,0.1-2.2,0.3-2.9,0.7c-0.7,0.4-1,1-1,1.8c0,0.5,0.1,0.9,0.3,1.2c0.2,0.3,0.5,0.6,0.9,0.8c0.4,0.2,0.8,0.3,1.3,0.3
		s0.9-0.1,1.3-0.2c0.4-0.1,0.7-0.3,0.9-0.5c0.3-0.2,0.5-0.5,0.7-0.8h0.1l0.1,1.4h0.7V122C163,120.9,162.7,120.2,162.3,119.8z
		 M162.1,124.1c0,0.9-0.3,1.5-0.7,2c-0.5,0.5-1.1,0.7-2,0.7c-0.5,0-1-0.1-1.3-0.4s-0.5-0.6-0.5-1.1c0-0.6,0.3-1.1,0.8-1.4
		s1.3-0.5,2.3-0.6l1.4-0.1V124.1z"/>
	<path class="st3" d="M171.7,120.1c-0.6-0.7-1.4-1-2.4-1c-0.5,0-0.9,0.1-1.3,0.2c-0.1,0.1-0.3,0.1-0.4,0.2c-0.2,0.1-0.4,0.3-0.5,0.4
		c-0.3,0.3-0.4,0.5-0.6,0.8l0,0l-0.1-1.5h-0.7V131h0.9v-3.4c0-0.1,0-0.2,0-0.4l0,0c0-0.1,0-0.3,0-0.4c0-0.3,0-0.6,0-0.8h0.1
		c0,0.1,0.1,0.2,0.2,0.3c0.1,0.2,0.2,0.4,0.4,0.5c0.2,0.2,0.5,0.4,0.9,0.6c0.4,0.1,0.8,0.2,1.3,0.2c0.7,0,1.3-0.2,1.8-0.5
		s0.9-0.8,1.2-1.4s0.4-1.4,0.4-2.3C172.5,121.9,172.2,120.8,171.7,120.1z M171.3,125.2c-0.2,0.5-0.5,0.9-0.9,1.2
		c-0.4,0.3-0.8,0.4-1.4,0.4c-0.6,0-1.1-0.1-1.5-0.4c-0.4-0.2-0.6-0.6-0.8-1.1l0,0c-0.2-0.5-0.3-1.2-0.3-1.9v-0.2
		c0-0.7,0.1-1.3,0.3-1.8c0.2-0.4,0.4-0.8,0.7-1c0.1-0.1,0.1-0.1,0.2-0.1c0.4-0.3,0.9-0.4,1.5-0.4c0.9,0,1.5,0.3,1.9,0.9
		s0.6,1.4,0.6,2.5C171.6,124,171.5,124.6,171.3,125.2z"/>
	<path class="st3" d="M180.8,120.1c-0.6-0.7-1.4-1-2.4-1c-0.5,0-0.9,0.1-1.3,0.2c-0.3,0.2-0.7,0.4-0.9,0.6c-0.3,0.3-0.4,0.5-0.6,0.8
		l0,0l-0.1-1.5h-0.7V131h0.9v-3.4c0-0.3,0-0.5,0-0.8s0-0.6,0-0.8h0.1c0.1,0.3,0.3,0.5,0.5,0.8c0.2,0.2,0.5,0.4,0.9,0.6
		c0.4,0.1,0.8,0.2,1.3,0.2c0.7,0,1.3-0.2,1.8-0.5s0.9-0.8,1.2-1.4s0.4-1.4,0.4-2.3C181.7,121.9,181.4,120.8,180.8,120.1z
		 M180.5,125.2c-0.2,0.5-0.5,0.9-0.9,1.2c-0.4,0.3-0.9,0.4-1.4,0.4c-0.6,0-1.1-0.1-1.5-0.4s-0.7-0.6-0.9-1.1s-0.3-1.2-0.3-1.9v-0.2
		c0-0.7,0.1-1.3,0.3-1.8s0.5-0.9,0.9-1.1c0.4-0.3,0.9-0.4,1.5-0.4c0.9,0,1.5,0.3,1.9,0.9s0.6,1.4,0.6,2.5
		C180.8,124,180.7,124.6,180.5,125.2z"/>
	<path class="st3" d="M190.3,121.1c-0.3-0.6-0.7-1.1-1.2-1.5s-1.2-0.5-2-0.5s-1.4,0.2-2,0.5c-0.5,0.3-1,0.8-1.3,1.5
		c-0.3,0.6-0.4,1.4-0.4,2.3c0,0.6,0.1,1.2,0.2,1.7c0.2,0.5,0.4,1,0.7,1.3c0.3,0.4,0.7,0.7,1.1,0.9c0.5,0.2,1,0.3,1.5,0.3
		c0.6,0,1.1-0.1,1.6-0.3c0.5-0.2,0.8-0.5,1.1-0.9s0.6-0.8,0.7-1.3c0.2-0.5,0.2-1.1,0.2-1.7C190.7,122.5,190.6,121.7,190.3,121.1z
		 M189.5,125.1c-0.2,0.5-0.5,0.9-0.9,1.2c-0.4,0.3-0.9,0.4-1.6,0.4c-0.6,0-1.1-0.1-1.5-0.4s-0.7-0.7-0.9-1.2s-0.3-1.1-0.3-1.8
		c0-1.1,0.2-1.9,0.7-2.6c0.5-0.6,1.2-0.9,2.1-0.9c0.6,0,1.2,0.2,1.6,0.4c0.4,0.3,0.7,0.7,0.9,1.2s0.3,1.1,0.3,1.8
		C189.8,124,189.7,124.6,189.5,125.1z"/>
	<path class="st3" d="M196.6,119.1c0.9,0,1.6,0.2,2.1,0.7s0.7,1.2,0.7,2.3v5.3h-0.9v-5.3c0-0.8-0.2-1.4-0.5-1.7
		c-0.4-0.4-0.9-0.6-1.6-0.6c-0.9,0-1.6,0.3-2,0.8s-0.7,1.3-0.7,2.3v4.4h-0.9v-8.1h0.7l0.1,1.4l0,0c0.2-0.3,0.4-0.6,0.6-0.8
		c0.3-0.2,0.6-0.4,0.9-0.6C195.7,119.2,196.1,119.1,196.6,119.1z"/>
	<path class="st3" d="M208.3,122.8c0-0.7-0.1-1.4-0.4-1.9c-0.2-0.6-0.6-1-1-1.3c-0.5-0.3-1-0.5-1.7-0.5c-0.8,0-1.4,0.2-1.9,0.6
		s-0.9,0.9-1.2,1.5s-0.4,1.4-0.4,2.2c0,0.8,0.1,1.6,0.4,2.2c0.3,0.6,0.7,1.1,1.3,1.4s1.3,0.5,2.1,0.5c0.5,0,1,0,1.4-0.1
		s0.8-0.2,1.2-0.4v-0.8c-0.4,0.2-0.9,0.3-1.2,0.4c-0.4,0.1-0.8,0.1-1.3,0.1c-0.9,0-1.7-0.3-2.2-0.9s-0.7-1.4-0.7-2.5h5.8v-0.5
		L208.3,122.8L208.3,122.8z M202.5,122.7c0.1-0.9,0.3-1.6,0.8-2.1s1.1-0.7,1.8-0.7c0.5,0,0.9,0.1,1.3,0.4c0.3,0.3,0.6,0.6,0.8,1
		s0.2,0.9,0.2,1.5h-4.9L202.5,122.7L202.5,122.7z"/>
	<path class="st3" d="M217.9,117.3c-0.2-0.3-0.4-0.6-0.7-0.8c-0.2-0.3-0.4-0.5-0.5-0.8h-1v0.1c0.1,0.2,0.3,0.3,0.4,0.6
		c0.2,0.2,0.4,0.4,0.6,0.6c0.2,0.2,0.4,0.4,0.6,0.6c0.2,0.1,0.3,0.3,0.4,0.4c0.1,0,0.1,0.1,0.2,0.1h0.6V118
		C218.3,117.8,218.1,117.5,217.9,117.3z M220.7,122.8c0-0.7-0.1-1.4-0.4-1.9c-0.2-0.6-0.6-1-1-1.3c-0.5-0.3-1-0.5-1.7-0.5
		c-0.8,0-1.4,0.2-1.9,0.6s-0.9,0.9-1.2,1.5s-0.4,1.4-0.4,2.2c0,0.8,0.1,1.6,0.4,2.2c0.3,0.6,0.7,1.1,1.3,1.4s1.3,0.5,2.1,0.5
		c0.5,0,1,0,1.4-0.1s0.8-0.2,1.2-0.4v-0.8c-0.4,0.2-0.9,0.3-1.2,0.4c-0.4,0.1-0.8,0.1-1.3,0.1c-0.9,0-1.7-0.3-2.2-0.9
		s-0.7-1.4-0.7-2.5h5.8v-0.5L220.7,122.8L220.7,122.8z M214.9,122.7c0.1-0.9,0.3-1.6,0.8-2.1s1.1-0.7,1.8-0.7c0.5,0,0.9,0.1,1.3,0.4
		c0.3,0.3,0.6,0.6,0.8,1s0.2,0.9,0.2,1.5h-4.9L214.9,122.7L214.9,122.7z"/>
	<path class="st3" d="M35.2,148.3c-0.8,0-1.5-0.2-2-0.5c-0.6-0.3-1-0.8-1.3-1.4c-0.3-0.6-0.4-1.4-0.4-2.2c0-0.9,0.2-1.7,0.5-2.3
		c0.3-0.6,0.8-1.1,1.4-1.4c0.6-0.3,1.3-0.5,2.1-0.5c0.4,0,0.7,0,1.1,0.1c0.3,0.1,0.7,0.2,0.9,0.3l-0.2,0.7c-0.3-0.1-0.6-0.2-0.9-0.3
		c-0.3-0.1-0.6-0.1-0.9-0.1c-0.7,0-1.2,0.1-1.7,0.4c-0.4,0.3-0.8,0.7-1,1.2s-0.3,1.1-0.3,1.9c0,0.7,0.1,1.3,0.3,1.8s0.5,0.9,0.9,1.2
		s1,0.4,1.6,0.4c0.4,0,0.8,0,1.1-0.1c0.4-0.1,0.7-0.2,1-0.3v0.8c-0.3,0.1-0.6,0.2-0.9,0.3C36,148.3,35.6,148.3,35.2,148.3z"/>
	<path class="st3" d="M45.5,143.6c0-0.7-0.1-1.4-0.4-1.9c-0.2-0.6-0.6-1-1.1-1.3s-1-0.5-1.7-0.5c-0.8,0-1.4,0.2-1.9,0.6
		c-0.5,0.4-0.9,0.9-1.2,1.5s-0.4,1.4-0.4,2.2s0.1,1.6,0.4,2.2c0.3,0.6,0.7,1.1,1.3,1.4c0.6,0.3,1.3,0.5,2.1,0.5c0.5,0,1,0,1.4-0.1
		s0.8-0.2,1.2-0.4V147c-0.4,0.2-0.9,0.3-1.2,0.4c-0.4,0.1-0.8,0.1-1.3,0.1c-0.9,0-1.7-0.3-2.2-0.9c-0.5-0.6-0.8-1.4-0.8-2.5h5.8
		C45.5,144.1,45.5,143.6,45.5,143.6z M39.7,143.5c0.1-0.9,0.3-1.6,0.8-2.1s1.1-0.7,1.8-0.7c0.5,0,1,0.1,1.3,0.4
		c0.3,0.3,0.6,0.6,0.7,1c0.2,0.4,0.3,0.9,0.3,1.5L39.7,143.5L39.7,143.5z"/>
	<path class="st3" d="M48.5,148.1h-0.9v-11.6h0.9V148.1z"/>
	<path class="st3" d="M57.5,143.6c0-0.7-0.1-1.4-0.4-1.9c-0.2-0.6-0.6-1-1-1.3c-0.5-0.3-1-0.5-1.7-0.5c-0.8,0-1.4,0.2-1.9,0.6
		c-0.5,0.4-0.9,0.9-1.2,1.5s-0.4,1.4-0.4,2.2s0.2,1.6,0.4,2.2c0.3,0.6,0.7,1.1,1.3,1.4c0.6,0.3,1.3,0.5,2.1,0.5c0.5,0,1,0,1.4-0.1
		s0.8-0.2,1.2-0.4V147c-0.4,0.2-0.9,0.3-1.2,0.4c-0.4,0.1-0.8,0.1-1.3,0.1c-0.9,0-1.7-0.3-2.2-0.9c-0.5-0.6-0.8-1.4-0.8-2.5h5.8
		L57.5,143.6L57.5,143.6z M51.7,143.5c0.1-0.9,0.4-1.6,0.8-2.1c0.5-0.5,1.1-0.7,1.8-0.7c0.5,0,1,0.1,1.3,0.4c0.3,0.3,0.6,0.6,0.8,1
		s0.2,0.9,0.2,1.5L51.7,143.5L51.7,143.5z"/>
	<path class="st3" d="M65.7,140.9c-0.6-0.7-1.4-1.1-2.4-1.1c-0.7,0-1.3,0.2-1.8,0.5s-0.8,0.7-1,1.2h-0.1c0-0.2,0-0.5,0-0.8
		s0-0.6,0-1v-3.2h-0.9v11.6h0.6l0.2-1.3h0.1c0.2,0.4,0.5,0.8,1,1c0.4,0.3,1,0.4,1.7,0.4s1.4-0.2,1.9-0.5c0.5-0.4,0.9-0.9,1.2-1.5
		c0.3-0.6,0.4-1.4,0.4-2.2C66.6,142.7,66.3,141.6,65.7,140.9z M65,146.6c-0.4,0.6-1.1,0.9-2,0.9s-1.6-0.3-2-0.9
		c-0.4-0.6-0.6-1.4-0.6-2.5V144c0-0.8,0.1-1.4,0.3-1.9s0.5-0.9,0.9-1.2s0.9-0.4,1.5-0.4c0.9,0,1.5,0.3,1.9,0.9
		c0.4,0.6,0.6,1.4,0.6,2.6C65.7,145.2,65.5,146,65,146.6z"/>
	<path class="st3" d="M72.2,139.9c0.2,0,0.4,0,0.6,0s0.4,0.1,0.5,0.1l-0.1,0.8c-0.2,0-0.3-0.1-0.5-0.1s-0.3,0-0.5,0
		c-0.4,0-0.7,0.1-1,0.2c-0.3,0.1-0.6,0.3-0.8,0.6c-0.2,0.3-0.4,0.6-0.5,0.9c-0.1,0.4-0.2,0.8-0.2,1.2v4.5h-0.9V140h0.7l0.1,1.5l0,0
		c0.1-0.3,0.3-0.6,0.5-0.8c0.2-0.3,0.5-0.5,0.8-0.6C71.4,139.9,71.8,139.9,72.2,139.9z"/>
	<path class="st3" d="M80.8,143.6c0-0.7-0.1-1.4-0.4-1.9c-0.2-0.6-0.6-1-1.1-1.3s-1-0.5-1.7-0.5c-0.8,0-1.4,0.2-1.9,0.6
		c-0.5,0.4-0.9,0.9-1.2,1.5c-0.3,0.6-0.4,1.4-0.4,2.2s0.1,1.6,0.4,2.2c0.3,0.6,0.7,1.1,1.3,1.4c0.6,0.3,1.3,0.5,2.1,0.5
		c0.5,0,1,0,1.4-0.1s0.8-0.2,1.2-0.4V147c-0.4,0.2-0.9,0.3-1.2,0.4c-0.4,0.1-0.8,0.1-1.3,0.1c-0.9,0-1.7-0.3-2.2-0.9
		c-0.5-0.6-0.8-1.4-0.8-2.5h5.8C80.8,144.1,80.8,143.6,80.8,143.6z M75,143.5c0.1-0.9,0.3-1.6,0.8-2.1s1.1-0.7,1.8-0.7
		c0.5,0,1,0.1,1.3,0.4c0.3,0.3,0.6,0.6,0.7,1c0.2,0.4,0.3,0.9,0.3,1.5L75,143.5L75,143.5z"/>
	<path class="st3" d="M93,140.9c-0.6-0.7-1.4-1-2.4-1c-0.5,0-0.9,0.1-1.3,0.2c-0.3,0.2-0.7,0.4-0.9,0.6c-0.3,0.3-0.4,0.5-0.6,0.8
		l0,0l-0.1-1.5H87v11.7h0.9v-3.4c0-0.3,0-0.5,0-0.8s0-0.6,0-0.8H88c0.1,0.3,0.3,0.5,0.5,0.8c0.2,0.2,0.5,0.4,0.9,0.6
		c0.4,0.1,0.8,0.2,1.3,0.2c0.7,0,1.3-0.2,1.8-0.5s0.9-0.8,1.2-1.4c0.3-0.6,0.4-1.4,0.4-2.3C93.9,142.6,93.6,141.6,93,140.9z
		 M92.7,145.9c-0.2,0.5-0.5,0.9-0.9,1.2s-0.9,0.4-1.4,0.4c-0.6,0-1.1-0.1-1.5-0.4c-0.4-0.3-0.7-0.6-0.9-1.1
		c-0.2-0.5-0.3-1.2-0.3-1.9v-0.2c0-0.7,0.1-1.3,0.3-1.8c0.2-0.5,0.5-0.9,0.9-1.1c0.4-0.3,0.9-0.4,1.5-0.4c0.9,0,1.5,0.3,1.9,0.9
		c0.4,0.6,0.6,1.4,0.6,2.5C93,144.8,92.9,145.4,92.7,145.9z"/>
	<path class="st3" d="M102.4,143.6c0-0.7-0.1-1.4-0.4-1.9c-0.2-0.6-0.6-1-1.1-1.3s-1-0.5-1.7-0.5c-0.8,0-1.4,0.2-1.9,0.6
		c-0.5,0.4-0.9,0.9-1.2,1.5c-0.3,0.6-0.4,1.4-0.4,2.2s0.1,1.6,0.4,2.2c0.3,0.6,0.7,1.1,1.3,1.4c0.6,0.3,1.3,0.5,2.1,0.5
		c0.5,0,1,0,1.4-0.1s0.8-0.2,1.2-0.4V147c-0.4,0.2-0.9,0.3-1.2,0.4c-0.4,0.1-0.8,0.1-1.3,0.1c-0.9,0-1.6-0.3-2.2-0.9
		c-0.5-0.6-0.8-1.4-0.8-2.5h5.8C102.4,144.1,102.4,143.6,102.4,143.6z M96.6,143.5c0.1-0.9,0.3-1.6,0.8-2.1s1.1-0.7,1.8-0.7
		c0.5,0,0.9,0.1,1.3,0.4c0.3,0.3,0.6,0.6,0.7,1c0.2,0.4,0.3,0.9,0.3,1.5L96.6,143.5L96.6,143.5z"/>
	<path class="st3" d="M107.9,139.9c0.2,0,0.4,0,0.6,0s0.4,0.1,0.5,0.1l-0.1,0.8c-0.2,0-0.3-0.1-0.5-0.1s-0.3,0-0.5,0
		c-0.4,0-0.7,0.1-1,0.2c-0.3,0.1-0.6,0.3-0.8,0.6s-0.4,0.6-0.5,0.9c-0.1,0.4-0.2,0.8-0.2,1.2v4.5h-0.9V140h0.7l0.1,1.5l0,0
		c0.1-0.3,0.3-0.6,0.5-0.8c0.2-0.3,0.5-0.5,0.8-0.6C107.1,139.9,107.5,139.9,107.9,139.9z"/>
	<path class="st3" d="M115.4,137.2c-0.1-0.1-0.3-0.2-0.4-0.2c-0.2,0-0.3,0.1-0.4,0.2c-0.1,0.1-0.2,0.3-0.2,0.5s0.1,0.4,0.2,0.5
		s0.3,0.2,0.4,0.2c0.2,0,0.3-0.1,0.4-0.2c0.1-0.1,0.2-0.3,0.2-0.5C115.6,137.4,115.5,137.3,115.4,137.2z M114.6,140v8.1h0.9V140
		H114.6z"/>
	<path class="st3" d="M127.7,137.2c-0.1-0.1-0.3-0.2-0.4-0.2c-0.2,0-0.3,0.1-0.4,0.2c-0.1,0.1-0.2,0.3-0.2,0.5s0.1,0.4,0.2,0.5
		s0.2,0.2,0.4,0.2c0.2,0,0.3-0.1,0.4-0.2c0.1-0.1,0.2-0.3,0.2-0.5C127.9,137.4,127.8,137.3,127.7,137.2z M126.8,140v8.1h0.9V140
		H126.8z M125.7,136.5c-0.2,0-0.5-0.1-0.8-0.1c-0.5,0-1,0.1-1.4,0.3s-0.6,0.5-0.8,0.9c-0.2,0.4-0.3,0.9-0.3,1.5v0.8l-1.5,0.3v0.5
		h1.5v7.4h0.9v-7.4h1.9V140h-1.9v-0.8c0-0.7,0.1-1.2,0.4-1.5c0.2-0.3,0.6-0.5,1.2-0.5c0.2,0,0.4,0,0.6,0.1c0.2,0,0.4,0.1,0.6,0.2
		l0.2-0.7C126.1,136.6,125.9,136.5,125.7,136.5z"/>
	<path class="st3" d="M136.8,141.9c-0.3-0.6-0.7-1.1-1.2-1.5s-1.2-0.5-2-0.5s-1.4,0.2-2,0.5s-1,0.8-1.3,1.5
		c-0.3,0.6-0.4,1.4-0.4,2.3c0,0.6,0.1,1.2,0.3,1.7s0.4,1,0.7,1.3c0.3,0.4,0.7,0.7,1.1,0.9c0.4,0.2,1,0.3,1.5,0.3
		c0.6,0,1.1-0.1,1.6-0.3s0.8-0.5,1.1-0.9s0.5-0.8,0.7-1.3s0.3-1.1,0.3-1.7C137.2,143.2,137,142.5,136.8,141.9z M136,145.9
		c-0.2,0.5-0.5,0.9-0.9,1.2s-0.9,0.4-1.6,0.4c-0.6,0-1.1-0.1-1.5-0.4c-0.4-0.3-0.7-0.7-0.9-1.2s-0.3-1.1-0.3-1.8
		c0-1.1,0.2-1.9,0.7-2.6s1.2-0.9,2.1-0.9c0.6,0,1.2,0.2,1.6,0.4c0.4,0.3,0.7,0.7,0.9,1.2s0.3,1.1,0.3,1.8
		C136.3,144.8,136.2,145.4,136,145.9z"/>
	<path class="st3" d="M142.7,139.9c0.2,0,0.4,0,0.6,0c0.2,0,0.4,0.1,0.5,0.1l-0.1,0.8c-0.2,0-0.3-0.1-0.5-0.1s-0.3,0-0.5,0
		c-0.4,0-0.7,0.1-1,0.2c-0.3,0.1-0.6,0.3-0.8,0.6s-0.4,0.6-0.5,0.9c-0.1,0.4-0.2,0.8-0.2,1.2v4.5h-0.9V140h0.7l0.1,1.5l0,0
		c0.1-0.3,0.3-0.6,0.5-0.8c0.2-0.3,0.5-0.5,0.8-0.6C142,139.9,142.3,139.9,142.7,139.9z"/>
	<path class="st3" d="M146.3,137.2c-0.1-0.1-0.3-0.2-0.4-0.2s-0.3,0.1-0.4,0.2c-0.1,0.1-0.2,0.3-0.2,0.5s0,0.4,0.2,0.5
		c0.1,0.1,0.2,0.2,0.4,0.2s0.3-0.1,0.4-0.2c0.1-0.1,0.2-0.3,0.2-0.5C146.4,137.4,146.4,137.3,146.3,137.2z M145.4,140v8.1h0.9V140
		H145.4z"/>
	<path class="st3" d="M158.6,136.5v3.3c0,0.2,0,0.5,0,0.8s0,0.5,0,0.8h-0.1c-0.1-0.3-0.3-0.6-0.6-0.8c-0.2-0.2-0.5-0.4-0.9-0.6
		c-0.3-0.1-0.7-0.2-1.2-0.2c-1.1,0-1.9,0.4-2.6,1.1c-0.6,0.7-0.9,1.8-0.9,3.2s0.3,2.4,0.9,3.1c0.6,0.7,1.4,1,2.5,1
		c0.5,0,0.9-0.1,1.3-0.2c0.3-0.1,0.6-0.3,0.9-0.6c0.2-0.2,0.4-0.5,0.6-0.8h0.1l0.1,1.4h0.7v-11.6h-0.8V136.5z M158.6,144.2
		c0,1.1-0.2,1.9-0.6,2.5c-0.4,0.6-1,0.9-2,0.9c-0.9,0-1.5-0.3-2-0.9c-0.4-0.6-0.6-1.4-0.6-2.5c0-1.2,0.2-2,0.7-2.6s1.1-0.9,2-0.9
		s1.6,0.3,1.9,0.9C158.4,142.2,158.6,143,158.6,144.2L158.6,144.2L158.6,144.2z"/>
	<path class="st3" d="M163,137.2c-0.1-0.1-0.2-0.2-0.4-0.2s-0.3,0.1-0.4,0.2c-0.1,0.1-0.2,0.3-0.2,0.5s0,0.4,0.2,0.5
		c0.1,0.1,0.2,0.2,0.4,0.2s0.3-0.1,0.4-0.2c0.1-0.1,0.2-0.3,0.2-0.5C163.1,137.4,163.1,137.3,163,137.2z M162.1,140v8.1h0.9V140
		H162.1z"/>
	<path class="st3" d="M172.9,148.3c-0.8,0-1.5-0.2-2-0.5c-0.6-0.3-1-0.8-1.3-1.4c-0.3-0.6-0.4-1.4-0.4-2.2c0-0.9,0.2-1.7,0.5-2.3
		s0.8-1.1,1.4-1.4c0.6-0.3,1.3-0.5,2.1-0.5c0.4,0,0.7,0,1.1,0.1c0.3,0.1,0.7,0.2,0.9,0.3l-0.2,0.7c-0.3-0.1-0.6-0.2-0.9-0.3
		c-0.3-0.1-0.6-0.1-0.9-0.1c-0.7,0-1.2,0.1-1.7,0.4c-0.4,0.3-0.8,0.7-1,1.2s-0.3,1.1-0.3,1.9c0,0.7,0.1,1.3,0.3,1.8s0.5,0.9,0.9,1.2
		s1,0.4,1.6,0.4c0.4,0,0.8,0,1.1-0.1c0.4-0.1,0.7-0.2,1-0.3v0.8c-0.3,0.1-0.6,0.2-0.9,0.3C173.7,148.3,173.3,148.3,172.9,148.3z"/>
	<path class="st3" d="M177.8,137.2c-0.1-0.1-0.2-0.2-0.4-0.2s-0.3,0.1-0.4,0.2c-0.1,0.1-0.2,0.3-0.2,0.5s0,0.4,0.2,0.5
		c0.1,0.1,0.2,0.2,0.4,0.2s0.3-0.1,0.4-0.2c0.1-0.1,0.2-0.3,0.2-0.5C177.9,137.4,177.9,137.3,177.8,137.2z M176.9,140v8.1h0.9V140
		H176.9z"/>
	<path class="st3" d="M181.3,148.1h-0.9v-11.6h0.9V148.1z"/>
	<path class="st3" d="M184.9,137.2c-0.1-0.1-0.3-0.2-0.4-0.2c-0.2,0-0.3,0.1-0.4,0.2c-0.1,0.1-0.2,0.3-0.2,0.5s0.1,0.4,0.2,0.5
		c0.1,0.1,0.3,0.2,0.4,0.2c0.2,0,0.3-0.1,0.4-0.2c0.1-0.1,0.2-0.3,0.2-0.5C185.1,137.4,185,137.3,184.9,137.2z M184,140v8.1h0.9V140
		H184z"/>
	<path class="st3" d="M193.8,143.6c0-0.7-0.1-1.4-0.4-1.9c-0.2-0.6-0.6-1-1-1.3c-0.5-0.3-1-0.5-1.7-0.5c-0.8,0-1.4,0.2-1.9,0.6
		c-0.5,0.4-0.9,0.9-1.2,1.5s-0.4,1.4-0.4,2.2s0.2,1.6,0.4,2.2c0.3,0.6,0.7,1.1,1.3,1.4c0.6,0.3,1.3,0.5,2.1,0.5c0.5,0,1,0,1.4-0.1
		s0.8-0.2,1.2-0.4V147c-0.4,0.2-0.9,0.3-1.2,0.4c-0.4,0.1-0.8,0.1-1.3,0.1c-0.9,0-1.7-0.3-2.2-0.9c-0.5-0.6-0.8-1.4-0.8-2.5h5.8
		v-0.5H193.8z M188,143.5c0.1-0.9,0.4-1.6,0.8-2.1c0.5-0.5,1.1-0.7,1.8-0.7c0.5,0,1,0.1,1.3,0.4c0.3,0.3,0.6,0.6,0.8,1
		s0.2,0.9,0.2,1.5L188,143.5L188,143.5z"/>
	<path class="st3" d="M201.8,140l-0.1,1.2h-0.1c-0.3-0.4-0.6-0.8-1-1c-0.4-0.3-1-0.4-1.6-0.4c-0.7,0-1.4,0.2-1.9,0.5
		s-0.9,0.8-1.2,1.5c-0.3,0.6-0.4,1.4-0.4,2.3c0,1.3,0.3,2.4,0.9,3.1c0.6,0.7,1.4,1.1,2.5,1.1c0.7,0,1.2-0.1,1.7-0.4
		c0.5-0.3,0.8-0.7,1-1.2l0,0c0,0.2,0,0.4,0,0.6v1.1c0,0.8-0.2,1.4-0.6,1.9c-0.4,0.5-1.1,0.7-2,0.7c-0.4,0-0.8,0-1.1-0.1
		s-0.7-0.1-1-0.2c-0.3-0.1-0.6-0.2-0.8-0.3v0.8c0.4,0.2,0.8,0.3,1.3,0.4c0.5,0.1,1,0.2,1.6,0.2c0.8,0,1.5-0.1,2-0.4
		c0.5-0.3,0.9-0.7,1.1-1.2c0.2-0.5,0.4-1.1,0.4-1.8V140H201.8z M201.6,144.4c0,0.4,0,0.9-0.1,1.3c-0.1,0.4-0.2,0.7-0.4,1
		s-0.5,0.5-0.8,0.7s-0.8,0.2-1.3,0.2c-0.8,0-1.4-0.3-1.9-0.9c-0.4-0.6-0.7-1.4-0.7-2.5c0-0.8,0.1-1.4,0.3-1.9s0.5-0.9,0.9-1.2
		s0.9-0.4,1.5-0.4s1.1,0.1,1.5,0.4c0.4,0.3,0.7,0.6,0.8,1.1c0.2,0.5,0.2,1.1,0.2,1.8V144.4z"/>
	<path class="st3" d="M206.1,137.2c-0.1-0.1-0.3-0.2-0.4-0.2c-0.2,0-0.3,0.1-0.4,0.2c-0.1,0.1-0.2,0.3-0.2,0.5s0.1,0.4,0.2,0.5
		c0.1,0.1,0.3,0.2,0.4,0.2c0.2,0,0.3-0.1,0.4-0.2c0.1-0.1,0.2-0.3,0.2-0.5C206.2,137.4,206.2,137.3,206.1,137.2z M205.2,140v8.1h0.9
		V140H205.2z"/>
	<path class="st3" d="M215.1,141.9c-0.3-0.6-0.7-1.1-1.2-1.5s-1.2-0.5-2-0.5s-1.4,0.2-2,0.5s-1,0.8-1.3,1.5
		c-0.3,0.6-0.4,1.4-0.4,2.3c0,0.6,0.1,1.2,0.3,1.7s0.4,1,0.7,1.3c0.3,0.4,0.7,0.7,1.1,0.9c0.4,0.2,1,0.3,1.5,0.3
		c0.6,0,1.1-0.1,1.6-0.3s0.8-0.5,1.1-0.9s0.5-0.8,0.7-1.3s0.3-1.1,0.3-1.7C215.6,143.2,215.4,142.5,215.1,141.9z M214.4,145.9
		c-0.2,0.5-0.5,0.9-0.9,1.2s-0.9,0.4-1.6,0.4c-0.6,0-1.1-0.1-1.5-0.4c-0.4-0.3-0.7-0.7-0.9-1.2s-0.3-1.1-0.3-1.8
		c0-1.1,0.2-1.9,0.7-2.6c0.5-0.6,1.1-0.9,2.1-0.9c0.6,0,1.2,0.2,1.6,0.4c0.4,0.3,0.7,0.7,0.9,1.2s0.3,1.1,0.3,1.8
		C214.7,144.8,214.6,145.4,214.4,145.9z"/>
	<path class="st3" d="M218.8,146.5c-0.1,0.4-0.2,0.8-0.3,1.2s-0.3,0.8-0.4,1.2c-0.1,0.4-0.3,0.8-0.4,1.1H217
		c0.1-0.4,0.3-0.9,0.4-1.3c0.1-0.4,0.2-0.8,0.3-1.3c0.1-0.4,0.1-0.8,0.2-1.2h0.9L218.8,146.5z"/>
	<path class="st3" d="M231.6,141.9c-0.3-0.6-0.7-1.1-1.2-1.5s-1.2-0.5-2-0.5s-1.4,0.2-2,0.5s-1,0.8-1.3,1.5
		c-0.3,0.6-0.4,1.4-0.4,2.3c0,0.6,0.1,1.2,0.3,1.7s0.4,1,0.7,1.3c0.3,0.4,0.7,0.7,1.1,0.9c0.4,0.2,1,0.3,1.5,0.3
		c0.6,0,1.1-0.1,1.6-0.3s0.8-0.5,1.1-0.9s0.5-0.8,0.7-1.3s0.3-1.1,0.3-1.7C232,143.2,231.9,142.5,231.6,141.9z M230.8,145.9
		c-0.2,0.5-0.5,0.9-0.9,1.2s-0.9,0.4-1.6,0.4c-0.6,0-1.1-0.1-1.5-0.4c-0.4-0.3-0.7-0.7-0.9-1.2s-0.3-1.1-0.3-1.8
		c0-1.1,0.2-1.9,0.7-2.6c0.5-0.6,1.1-0.9,2.1-0.9c0.6,0,1.2,0.2,1.6,0.4c0.4,0.3,0.7,0.7,0.9,1.2s0.3,1.1,0.3,1.8
		C231.1,144.8,231,145.4,230.8,145.9z"/>
	<path class="st3" d="M34.2,158l0.1,2l0.1,2H35l0.1-2l0.1-2H34.2z M31.7,158l0.1,2l0.1,2h0.6l0.1-2l0.1-2H31.7z"/>
	<path class="st3" d="M42.2,166.7c0,0.5-0.1,0.9-0.4,1.3s-0.6,0.6-1.1,0.8s-1,0.3-1.7,0.3c-0.6,0-1.1-0.1-1.5-0.2
		c-0.4-0.1-0.8-0.2-1.1-0.4v-0.8c0.4,0.2,0.8,0.3,1.2,0.5c0.5,0.1,0.9,0.2,1.4,0.2c0.8,0,1.4-0.1,1.8-0.4c0.4-0.3,0.5-0.6,0.5-1.1
		c0-0.3-0.1-0.6-0.3-0.7c-0.2-0.2-0.4-0.4-0.7-0.5c-0.3-0.2-0.7-0.3-1.2-0.5s-0.9-0.3-1.3-0.5c-0.4-0.2-0.7-0.4-0.9-0.7
		s-0.3-0.7-0.3-1.1c0-0.7,0.3-1.2,0.8-1.5c0.5-0.4,1.2-0.6,2.1-0.6c0.5,0,0.9,0,1.4,0.1c0.4,0.1,0.8,0.2,1.2,0.4l-0.3,0.7
		c-0.2-0.1-0.4-0.2-0.7-0.2c-0.3-0.1-0.5-0.1-0.8-0.2c-0.3,0-0.5-0.1-0.8-0.1c-0.6,0-1.1,0.1-1.5,0.3s-0.5,0.6-0.5,1
		c0,0.3,0.1,0.6,0.2,0.8c0.2,0.2,0.4,0.3,0.7,0.5c0.3,0.1,0.7,0.3,1.2,0.5s0.9,0.3,1.3,0.5c0.4,0.2,0.7,0.4,0.9,0.7
		C42.1,165.9,42.2,166.3,42.2,166.7z"/>
	<path class="st3" d="M49.1,161.3c-0.4-0.4-1.1-0.7-2-0.7c-0.5,0-1,0.1-1.4,0.2c-0.5,0.1-0.9,0.3-1.3,0.5l0.3,0.7
		c0.4-0.2,0.8-0.3,1.1-0.4c0.4-0.1,0.8-0.2,1.2-0.2c0.6,0,1.1,0.2,1.4,0.5c0.3,0.3,0.5,0.9,0.5,1.7v0.6l-1.5,0.1
		c-1.3,0.1-2.2,0.3-2.9,0.7s-1,1-1,1.8c0,0.5,0.1,0.9,0.3,1.2s0.5,0.6,0.9,0.8s0.8,0.3,1.3,0.3s0.9-0.1,1.3-0.2
		c0.4-0.1,0.7-0.3,0.9-0.5c0.3-0.2,0.5-0.5,0.7-0.8l0,0l0.2,1.4h0.7v-5.5C49.8,162.5,49.6,161.8,49.1,161.3z M49,165.6
		c0,0.9-0.3,1.5-0.7,2c-0.5,0.5-1.1,0.7-2,0.7c-0.5,0-1-0.1-1.3-0.4c-0.3-0.3-0.5-0.6-0.5-1.1c0-0.6,0.3-1.1,0.8-1.4
		c0.5-0.3,1.3-0.5,2.3-0.6l1.4-0.1V165.6z"/>
	<path class="st3" d="M53.3,163.2c0,0.3,0,0.7,0,1s0,0.7,0,1l0,0c0.1-0.1,0.2-0.2,0.3-0.4c0.1-0.1,0.2-0.3,0.3-0.4
		c0.1-0.1,0.2-0.3,0.3-0.4l3.1-3.4h1l-3.2,3.5l3.5,4.7h-1l-3.1-4.1l-1.2,1.3v2.8h-0.9v-11.6h0.9C53.3,157.2,53.3,163.2,53.3,163.2z"
		/>
	<path class="st3" d="M66.4,160.8v8.1h-0.7l-0.1-1.4l0,0c-0.1,0.3-0.3,0.6-0.6,0.8c-0.3,0.2-0.6,0.4-0.9,0.6
		c-0.4,0.1-0.8,0.2-1.2,0.2c-0.6,0-1.2-0.1-1.6-0.3c-0.4-0.2-0.7-0.6-0.9-1s-0.3-1-0.3-1.6v-5.3H61v5.3c0,0.8,0.2,1.4,0.5,1.7
		c0.4,0.4,0.9,0.6,1.6,0.6c0.6,0,1.1-0.1,1.5-0.3s0.7-0.6,0.9-1c0.2-0.5,0.3-1,0.3-1.7V161h0.6V160.8z"/>
	<path class="st3" d="M72.4,160.6c0.2,0,0.4,0,0.6,0s0.4,0.1,0.5,0.1l-0.1,0.8c-0.2,0-0.3-0.1-0.5-0.1s-0.3,0-0.5,0
		c-0.4,0-0.7,0.1-1,0.2c-0.3,0.1-0.6,0.3-0.8,0.6c-0.2,0.3-0.4,0.6-0.5,0.9c-0.1,0.4-0.2,0.8-0.2,1.2v4.5H69v-8.1h0.7l0.1,1.5l0,0
		c0.1-0.3,0.3-0.6,0.5-0.8c0.2-0.3,0.5-0.5,0.8-0.6C71.7,160.7,72,160.6,72.4,160.6z"/>
	<path class="st3" d="M79.7,161.3c-0.4-0.4-1.1-0.7-2.1-0.7c-0.5,0-1,0.1-1.4,0.2c-0.5,0.1-0.9,0.3-1.3,0.5l0.3,0.7
		c0.4-0.2,0.8-0.3,1.1-0.4c0.4-0.1,0.8-0.2,1.2-0.2c0.6,0,1.1,0.2,1.4,0.5s0.5,0.9,0.5,1.7v0.6l-1.5,0.1c-1.3,0.1-2.2,0.3-2.9,0.7
		c-0.7,0.4-1,1-1,1.8c0,0.5,0.1,0.9,0.3,1.2c0.2,0.3,0.5,0.6,0.9,0.8s0.8,0.3,1.3,0.3s0.9-0.1,1.3-0.2c0.4-0.1,0.7-0.3,0.9-0.5
		c0.3-0.2,0.5-0.5,0.7-0.8l0,0l0.2,1.4h0.7v-5.5C80.4,162.5,80.2,161.8,79.7,161.3z M79.5,165.6c0,0.9-0.3,1.5-0.7,2
		c-0.4,0.5-1.1,0.7-2,0.7c-0.5,0-1-0.1-1.3-0.4c-0.3-0.3-0.5-0.6-0.5-1.1c0-0.6,0.3-1.1,0.8-1.4c0.5-0.3,1.3-0.5,2.3-0.6l1.4-0.1
		C79.5,164.7,79.5,165.6,79.5,165.6z"/>
	<path class="st3" d="M85.1,158l0.1,2l0.1,2h0.6l0.1-2l0.1-2H85.1z M82.6,158l0.1,2l0.1,2h0.6l0.1-2l0.1-2H82.6z"/>
	<path class="st3" d="M89.5,167.3c-0.1,0.4-0.2,0.8-0.3,1.2c-0.1,0.4-0.3,0.8-0.4,1.2s-0.3,0.8-0.4,1.1h-0.7
		c0.1-0.4,0.3-0.9,0.4-1.3c0.1-0.4,0.2-0.8,0.3-1.3c0.1-0.4,0.1-0.8,0.2-1.2h0.9V167.3z"/>
	<path class="st3" d="M99.1,169.1c-0.8,0-1.5-0.2-2-0.5c-0.6-0.3-1-0.8-1.3-1.4c-0.3-0.6-0.4-1.4-0.4-2.2c0-0.9,0.2-1.7,0.5-2.3
		s0.8-1.1,1.4-1.4c0.6-0.3,1.3-0.5,2.1-0.5c0.4,0,0.7,0,1.1,0.1c0.3,0.1,0.7,0.2,0.9,0.3l-0.2,0.7c-0.3-0.1-0.6-0.2-0.9-0.3
		s-0.6-0.1-0.9-0.1c-0.7,0-1.2,0.1-1.7,0.4c-0.4,0.3-0.8,0.7-1,1.2s-0.3,1.1-0.3,1.9c0,0.7,0.1,1.3,0.3,1.8c0.2,0.5,0.5,0.9,0.9,1.2
		s1,0.4,1.6,0.4c0.4,0,0.8,0,1.1-0.1c0.4-0.1,0.7-0.2,1-0.3v0.8c-0.3,0.1-0.6,0.2-0.9,0.3C99.9,169,99.5,169.1,99.1,169.1z"/>
	<path class="st3" d="M104,161c0,0.2,0,0.4,0,0.6c0,0.2,0,0.4,0,0.6h0.1c0.1-0.3,0.3-0.6,0.6-0.8c0.3-0.2,0.6-0.4,0.9-0.6
		c0.4-0.1,0.8-0.2,1.2-0.2c0.6,0,1.1,0.1,1.6,0.3c0.4,0.2,0.7,0.5,1,1c0.2,0.4,0.3,1,0.3,1.7v5.3h-0.9v-5.3c0-0.8-0.2-1.4-0.5-1.7
		c-0.4-0.4-0.9-0.6-1.6-0.6c-0.6,0-1.1,0.1-1.5,0.4c-0.4,0.2-0.7,0.6-0.9,1c-0.2,0.5-0.3,1-0.3,1.7v4.4h-0.9v-11.6h0.9
		C104,157.2,104,161,104,161z"/>
	<path class="st3" d="M118.5,164.4c0-0.7-0.1-1.4-0.4-1.9c-0.2-0.6-0.6-1-1-1.3c-0.5-0.3-1-0.5-1.7-0.5c-0.8,0-1.4,0.2-1.9,0.6
		c-0.5,0.4-0.9,0.9-1.2,1.5c-0.3,0.6-0.4,1.4-0.4,2.2s0.1,1.6,0.4,2.2c0.3,0.6,0.7,1.1,1.3,1.4c0.6,0.3,1.3,0.5,2.1,0.5
		c0.5,0,1,0,1.4-0.1s0.8-0.2,1.2-0.4v-0.8c-0.4,0.2-0.9,0.3-1.2,0.4c-0.4,0.1-0.8,0.1-1.3,0.1c-0.9,0-1.7-0.3-2.2-0.9
		c-0.5-0.6-0.8-1.4-0.8-2.5h5.8v-0.5H118.5z M112.7,164.2c0.1-0.9,0.3-1.6,0.8-2.1s1.1-0.7,1.8-0.7c0.5,0,0.9,0.1,1.3,0.4
		c0.3,0.3,0.6,0.6,0.8,1c0.2,0.4,0.2,0.9,0.2,1.5L112.7,164.2L112.7,164.2z"/>
	<path class="st3" d="M126.9,168.3c0.2,0,0.4,0,0.6,0s0.4-0.1,0.5-0.1v0.7c-0.2,0.1-0.3,0.1-0.6,0.2c-0.2,0-0.5,0.1-0.7,0.1
		c-0.4,0-0.8-0.1-1.1-0.2c-0.3-0.2-0.6-0.4-0.7-0.8c-0.2-0.4-0.2-0.8-0.2-1.4v-5.2h-1.2V161l1.2-0.3l0.3-1.9h0.6v1.9h2.5v0.7h-2.5
		v5.1c0,0.6,0.1,1,0.3,1.3C126.1,168.2,126.5,168.3,126.9,168.3z"/>
	<path class="st3" d="M130.7,157.9c-0.1-0.1-0.2-0.2-0.4-0.2s-0.3,0.1-0.4,0.2c-0.1,0.1-0.2,0.3-0.2,0.5s0,0.4,0.2,0.5
		c0.1,0.1,0.2,0.2,0.4,0.2s0.3-0.1,0.4-0.2c0.1-0.1,0.2-0.3,0.2-0.5S130.8,158,130.7,157.9z M129.8,160.8v8.1h0.9v-8.1H129.8z"/>
	<path class="st3" d="M137,160.6c0.9,0,1.6,0.2,2.1,0.7s0.7,1.2,0.7,2.3v5.3H139v-5.3c0-0.8-0.2-1.4-0.5-1.7
		c-0.4-0.4-0.9-0.6-1.6-0.6c-0.9,0-1.6,0.3-2,0.8s-0.7,1.3-0.7,2.3v4.4h-0.9v-8.1h0.7l0.1,1.4l0,0c0.2-0.3,0.4-0.6,0.6-0.8
		c0.3-0.2,0.6-0.4,0.9-0.6C136.2,160.7,136.6,160.6,137,160.6z"/>
	<path class="st3" d="M148.3,160.8l-0.1,1.2h-0.1c-0.3-0.4-0.6-0.8-1-1c-0.4-0.3-1-0.4-1.6-0.4c-0.7,0-1.4,0.2-1.9,0.5
		s-0.9,0.8-1.2,1.5c-0.3,0.6-0.4,1.4-0.4,2.3c0,1.3,0.3,2.4,0.9,3.1c0.6,0.7,1.4,1.1,2.5,1.1c0.7,0,1.2-0.1,1.7-0.4
		c0.5-0.3,0.8-0.7,1-1.2l0,0c0,0.2,0,0.4,0,0.6v1.1c0,0.8-0.2,1.4-0.6,1.9c-0.4,0.5-1.1,0.7-2,0.7c-0.4,0-0.8,0-1.1-0.1
		s-0.7-0.1-1-0.2c-0.3-0.1-0.6-0.2-0.8-0.3v0.8c0.4,0.2,0.8,0.3,1.3,0.4c0.5,0.1,1,0.2,1.6,0.2c0.8,0,1.5-0.1,2-0.4
		c0.5-0.3,0.9-0.7,1.1-1.2c0.3-0.5,0.4-1.1,0.4-1.8v-8.4L148.3,160.8L148.3,160.8z M148.1,165.1c0,0.4,0,0.9-0.1,1.3
		c-0.1,0.4-0.2,0.7-0.4,1s-0.5,0.5-0.8,0.7s-0.8,0.2-1.3,0.2c-0.8,0-1.4-0.3-1.9-0.9c-0.4-0.6-0.7-1.4-0.7-2.5
		c0-0.8,0.1-1.4,0.3-1.9s0.5-0.9,0.9-1.2s0.9-0.4,1.5-0.4s1.1,0.1,1.5,0.4c0.4,0.3,0.6,0.6,0.8,1.1s0.2,1.1,0.2,1.8V165.1z"/>
	<path class="st3" d="M158,162.6c-0.3-0.6-0.7-1.1-1.2-1.5s-1.2-0.5-2-0.5s-1.4,0.2-2,0.5s-1,0.8-1.3,1.5c-0.3,0.6-0.4,1.4-0.4,2.3
		c0,0.6,0.1,1.2,0.3,1.7s0.4,1,0.7,1.3c0.3,0.4,0.7,0.7,1.1,0.9c0.4,0.2,1,0.3,1.5,0.3c0.6,0,1.1-0.1,1.6-0.3s0.8-0.5,1.1-0.9
		s0.5-0.8,0.7-1.3s0.3-1.1,0.3-1.7C158.5,164,158.3,163.3,158,162.6z M157.3,166.7c-0.2,0.5-0.5,0.9-0.9,1.2s-0.9,0.4-1.6,0.4
		c-0.6,0-1.1-0.1-1.5-0.4c-0.4-0.3-0.7-0.7-0.9-1.2s-0.3-1.1-0.3-1.8c0-1.1,0.2-1.9,0.7-2.6c0.5-0.6,1.1-0.9,2.1-0.9
		c0.6,0,1.2,0.2,1.6,0.4c0.4,0.3,0.7,0.7,0.9,1.2s0.3,1.1,0.3,1.8C157.6,165.5,157.5,166.1,157.3,166.7z"/>
	<path class="st3" d="M164.3,160.6c0.9,0,1.6,0.2,2.1,0.7s0.7,1.2,0.7,2.3v5.3h-0.9v-5.3c0-0.8-0.2-1.4-0.5-1.7
		c-0.4-0.4-0.9-0.6-1.6-0.6c-0.9,0-1.6,0.3-2,0.8s-0.7,1.3-0.7,2.3v4.4h-0.9v-8.1h0.7l0.1,1.4l0,0c0.2-0.3,0.4-0.6,0.6-0.8
		c0.3-0.2,0.6-0.4,0.9-0.6C163.4,160.7,163.9,160.6,164.3,160.6z"/>
	<path class="st3" d="M176.2,162.6c-0.3-0.6-0.7-1.1-1.2-1.5s-1.2-0.5-2-0.5s-1.4,0.2-2,0.5c-0.5,0.3-1,0.8-1.3,1.5
		c-0.3,0.6-0.4,1.4-0.4,2.3c0,0.6,0.1,1.2,0.2,1.7c0.2,0.5,0.4,1,0.7,1.3c0.3,0.4,0.7,0.7,1.1,0.9c0.5,0.2,1,0.3,1.5,0.3
		c0.6,0,1.1-0.1,1.6-0.3s0.8-0.5,1.1-0.9s0.6-0.8,0.7-1.3c0.2-0.5,0.2-1.1,0.2-1.7C176.6,164,176.5,163.3,176.2,162.6z M175.4,166.7
		c-0.2,0.5-0.5,0.9-0.9,1.2s-0.9,0.4-1.6,0.4s-1.1-0.1-1.5-0.4c-0.4-0.3-0.7-0.7-0.9-1.2s-0.3-1.1-0.3-1.8c0-1.1,0.2-1.9,0.7-2.6
		c0.5-0.6,1.2-0.9,2.1-0.9c0.6,0,1.2,0.2,1.6,0.4c0.4,0.3,0.7,0.7,0.9,1.2s0.3,1.1,0.3,1.8C175.7,165.5,175.6,166.1,175.4,166.7z"/>
	<path class="st3" d="M183.6,157.9c-0.1-0.1-0.3-0.2-0.4-0.2c-0.2,0-0.3,0.1-0.4,0.2c-0.1,0.1-0.2,0.3-0.2,0.5s0,0.4,0.2,0.5
		c0.1,0.1,0.2,0.2,0.4,0.2s0.3-0.1,0.4-0.2c0.1-0.1,0.2-0.3,0.2-0.5S183.8,158,183.6,157.9z M182.8,160.8v8.1h0.9v-8.1H182.8z"/>
	<path class="st3" d="M187.2,168.9h-0.9v-11.6h0.9V168.9z"/>
	<path class="st3" d="M38,182.4c-0.6-0.7-1.4-1-2.4-1c-0.5,0-0.9,0.1-1.3,0.2c-0.3,0.2-0.7,0.4-0.9,0.6c-0.3,0.3-0.4,0.5-0.6,0.8
		l0,0l-0.1-1.5H32v11.7h0.9v-3.4c0-0.3,0-0.5,0-0.8s0-0.6-0.1-0.8h0.1c0.1,0.3,0.3,0.5,0.5,0.8c0.2,0.2,0.5,0.4,0.9,0.6
		c0.3,0.1,0.8,0.2,1.2,0.2c0.7,0,1.3-0.2,1.8-0.5s0.9-0.8,1.2-1.4c0.3-0.6,0.4-1.4,0.4-2.3C38.9,184.2,38.6,183.1,38,182.4z
		 M37.7,187.4c-0.2,0.5-0.5,0.9-0.9,1.2s-0.9,0.4-1.4,0.4c-0.6,0-1.1-0.1-1.5-0.4c-0.4-0.3-0.7-0.6-0.9-1.1s-0.3-1.2-0.3-1.9v-0.2
		c0-0.7,0.1-1.3,0.3-1.8s0.5-0.9,0.9-1.1c0.4-0.3,0.9-0.4,1.5-0.4c0.9,0,1.5,0.3,1.9,0.9c0.4,0.6,0.6,1.4,0.6,2.5
		C38,186.3,37.9,186.9,37.7,187.4z"/>
	<path class="st3" d="M46,182.1c-0.4-0.4-1.1-0.7-2.1-0.7c-0.5,0-1,0.1-1.4,0.2s-0.9,0.3-1.3,0.5l0.3,0.7c0.4-0.2,0.8-0.3,1.1-0.4
		c0.4-0.1,0.8-0.2,1.2-0.2c0.6,0,1.1,0.2,1.4,0.5c0.3,0.3,0.5,0.9,0.5,1.7v0.6l-1.5,0.1c-1.3,0.1-2.2,0.3-2.9,0.7s-1,1-1,1.8
		c0,0.5,0.1,0.9,0.3,1.2s0.5,0.6,0.9,0.8s0.8,0.3,1.3,0.3s0.9-0.1,1.3-0.2c0.4-0.1,0.7-0.3,0.9-0.5c0.3-0.2,0.5-0.5,0.7-0.8l0,0
		l0.2,1.4h0.7v-5.5C46.7,183.2,46.5,182.5,46,182.1z M45.8,186.4c0,0.9-0.3,1.5-0.7,2c-0.5,0.5-1.1,0.7-2,0.7c-0.5,0-1-0.1-1.3-0.4
		c-0.3-0.3-0.5-0.6-0.5-1.1c0-0.6,0.3-1.1,0.8-1.4c0.5-0.3,1.3-0.5,2.3-0.6l1.4-0.1V186.4z"/>
	<path class="st3" d="M55.6,185.1c0-0.7-0.1-1.4-0.4-1.9c-0.2-0.6-0.6-1-1-1.3c-0.5-0.3-1-0.5-1.7-0.5c-0.8,0-1.4,0.2-1.9,0.6
		c-0.5,0.4-0.9,0.9-1.2,1.5s-0.4,1.4-0.4,2.2s0.2,1.6,0.4,2.2c0.3,0.6,0.7,1.1,1.3,1.4c0.6,0.3,1.3,0.5,2.1,0.5c0.5,0,1,0,1.4-0.1
		s0.8-0.2,1.2-0.4v-0.8c-0.4,0.2-0.9,0.3-1.2,0.4c-0.4,0.1-0.8,0.1-1.3,0.1c-0.9,0-1.7-0.3-2.2-0.9c-0.5-0.6-0.8-1.4-0.8-2.5h5.8
		L55.6,185.1L55.6,185.1z M49.8,185c0.1-0.9,0.4-1.6,0.8-2.1c0.5-0.5,1.1-0.7,1.8-0.7c0.5,0,1,0.1,1.3,0.4c0.3,0.3,0.6,0.6,0.8,1
		s0.2,0.9,0.2,1.5L49.8,185L49.8,185z"/>
	<path class="st3" d="M62.9,187.5c0,0.5-0.1,0.9-0.4,1.3c-0.2,0.3-0.6,0.6-1.1,0.8s-1,0.3-1.7,0.3c-0.6,0-1.1-0.1-1.5-0.2
		c-0.4-0.1-0.8-0.2-1.1-0.4v-0.8c0.4,0.2,0.8,0.3,1.2,0.5c0.5,0.1,0.9,0.2,1.4,0.2c0.8,0,1.4-0.1,1.8-0.4c0.4-0.3,0.5-0.6,0.5-1.1
		c0-0.3-0.1-0.6-0.3-0.7c-0.2-0.2-0.4-0.4-0.7-0.5c-0.3-0.2-0.7-0.3-1.2-0.5s-0.9-0.3-1.3-0.5c-0.4-0.2-0.7-0.4-0.9-0.7
		s-0.3-0.7-0.3-1.1c0-0.7,0.3-1.2,0.8-1.5c0.5-0.4,1.2-0.6,2.1-0.6c0.5,0,0.9,0,1.4,0.1c0.4,0.1,0.8,0.2,1.2,0.4l-0.3,0.7
		c-0.2-0.1-0.4-0.2-0.7-0.2c-0.3-0.1-0.5-0.1-0.8-0.2c-0.3,0-0.5-0.1-0.8-0.1c-0.6,0-1.1,0.1-1.5,0.3s-0.5,0.6-0.5,1
		c0,0.3,0.1,0.6,0.2,0.8c0.2,0.2,0.4,0.3,0.7,0.5c0.3,0.1,0.7,0.3,1.2,0.5s0.9,0.3,1.3,0.5c0.4,0.2,0.7,0.4,0.9,0.7
		C62.7,186.7,62.9,187,62.9,187.5z"/>
	<path class="st3" d="M69.8,182.1c-0.4-0.4-1.1-0.7-2.1-0.7c-0.5,0-1,0.1-1.4,0.2c-0.5,0.1-0.9,0.3-1.3,0.5l0.3,0.7
		c0.4-0.2,0.8-0.3,1.1-0.4c0.4-0.1,0.8-0.2,1.2-0.2c0.6,0,1.1,0.2,1.4,0.5s0.5,0.9,0.5,1.7v0.6l-1.5,0.1c-1.3,0.1-2.2,0.3-2.9,0.7
		c-0.7,0.4-1,1-1,1.8c0,0.5,0.1,0.9,0.3,1.2c0.2,0.3,0.5,0.6,0.9,0.8s0.8,0.3,1.3,0.3s0.9-0.1,1.3-0.2c0.4-0.1,0.7-0.3,0.9-0.5
		c0.3-0.2,0.5-0.5,0.7-0.8l0,0l0.2,1.4h0.7v-5.5C70.5,183.2,70.3,182.5,69.8,182.1z M69.7,186.4c0,0.9-0.3,1.5-0.7,2
		c-0.5,0.5-1.1,0.7-2,0.7c-0.5,0-1-0.1-1.3-0.4c-0.3-0.3-0.5-0.6-0.5-1.1c0-0.6,0.3-1.1,0.8-1.4c0.5-0.3,1.3-0.5,2.3-0.6l1.4-0.1
		C69.7,185.5,69.7,186.4,69.7,186.4z"/>
	<path class="st3" d="M78.9,181.5l-0.1,1.2h-0.1c-0.3-0.4-0.6-0.8-1-1c-0.4-0.3-0.9-0.4-1.6-0.4s-1.4,0.2-1.9,0.5s-0.9,0.8-1.2,1.5
		c-0.3,0.6-0.4,1.4-0.4,2.3c0,1.3,0.3,2.4,0.9,3.1c0.6,0.7,1.4,1.1,2.5,1.1c0.7,0,1.2-0.1,1.7-0.4c0.5-0.3,0.8-0.7,1-1.2l0,0
		c0,0.2,0,0.4,0,0.6v1.1c0,0.8-0.2,1.4-0.6,1.9s-1.1,0.7-2,0.7c-0.4,0-0.8,0-1.1-0.1c-0.3-0.1-0.7-0.1-1-0.2
		c-0.3-0.1-0.6-0.2-0.8-0.3v0.8c0.4,0.2,0.8,0.3,1.3,0.4c0.5,0.1,1,0.2,1.6,0.2c0.8,0,1.5-0.1,2-0.4c0.5-0.3,0.9-0.7,1.1-1.2
		c0.3-0.5,0.4-1.1,0.4-1.8v-8.4L78.9,181.5L78.9,181.5z M78.7,185.9c0,0.4-0.1,0.9-0.1,1.3c-0.1,0.4-0.2,0.7-0.4,1
		c-0.2,0.3-0.5,0.5-0.8,0.7s-0.8,0.2-1.3,0.2c-0.8,0-1.4-0.3-1.9-0.9c-0.4-0.6-0.7-1.4-0.7-2.5c0-0.8,0.1-1.4,0.3-1.9
		c0.2-0.5,0.5-0.9,0.9-1.2s0.9-0.4,1.5-0.4s1.1,0.1,1.5,0.4c0.4,0.3,0.6,0.6,0.8,1.1c0.2,0.5,0.3,1.1,0.3,1.8v0.4L78.7,185.9
		L78.7,185.9z"/>
	<path class="st3" d="M88,181.5l-0.1,1.2h-0.1c-0.3-0.4-0.6-0.8-1-1c-0.4-0.3-0.9-0.4-1.6-0.4s-1.4,0.2-1.9,0.5s-0.9,0.8-1.2,1.5
		c-0.3,0.6-0.4,1.4-0.4,2.3c0,1.3,0.3,2.4,0.9,3.1c0.6,0.7,1.4,1.1,2.5,1.1c0.7,0,1.2-0.1,1.7-0.4c0.5-0.3,0.8-0.7,1-1.2l0,0
		c0,0.2,0,0.4,0,0.6v1.1c0,0.8-0.2,1.4-0.6,1.9s-1.1,0.7-2,0.7c-0.4,0-0.8,0-1.1-0.1c-0.3-0.1-0.7-0.1-1-0.2
		c-0.3-0.1-0.6-0.2-0.8-0.3v0.8c0.4,0.2,0.8,0.3,1.3,0.4c0.5,0.1,1,0.2,1.6,0.2c0.8,0,1.5-0.1,2-0.4c0.5-0.3,0.9-0.7,1.1-1.2
		c0.3-0.5,0.4-1.1,0.4-1.8v-8.4L88,181.5L88,181.5z M87.9,185.9c0,0.4-0.1,0.9-0.1,1.3c-0.1,0.4-0.2,0.7-0.4,1
		c-0.2,0.3-0.5,0.5-0.8,0.7s-0.8,0.2-1.3,0.2c-0.8,0-1.4-0.3-1.9-0.9c-0.4-0.6-0.7-1.4-0.7-2.5c0-0.8,0.1-1.4,0.3-1.9
		c0.2-0.5,0.5-0.9,0.9-1.2s0.9-0.4,1.5-0.4s1.1,0.1,1.5,0.4c0.4,0.3,0.6,0.6,0.8,1.1c0.2,0.5,0.3,1.1,0.3,1.8v0.4L87.9,185.9
		L87.9,185.9z"/>
	<path class="st3" d="M92.3,178.7c-0.1-0.1-0.3-0.2-0.4-0.2c-0.2,0-0.3,0.1-0.4,0.2c-0.1,0.1-0.2,0.3-0.2,0.5s0.1,0.4,0.2,0.5
		s0.2,0.2,0.4,0.2c0.2,0,0.3-0.1,0.4-0.2c0.1-0.1,0.2-0.3,0.2-0.5S92.4,178.8,92.3,178.7z M91.4,181.5v8.1h0.9v-8.1H91.4z"/>
	<path class="st3" d="M101.4,183.4c-0.1-0.3-0.3-0.6-0.5-0.9c-0.2-0.2-0.4-0.4-0.7-0.6c-0.5-0.4-1.2-0.5-2-0.5s-1.4,0.2-2,0.5
		c-0.5,0.3-1,0.8-1.3,1.5c-0.3,0.6-0.4,1.4-0.4,2.3c0,0.6,0.1,1.2,0.2,1.7c0.2,0.5,0.4,1,0.7,1.3c0.3,0.4,0.7,0.7,1.1,0.9
		s1,0.3,1.5,0.3c0.1,0,0.3,0,0.4,0c0.4,0,0.8-0.1,1.2-0.3c0.5-0.2,0.8-0.5,1.1-0.9c0.3-0.4,0.6-0.8,0.7-1.3c0.2-0.5,0.2-1.1,0.2-1.7
		C101.8,184.8,101.7,184,101.4,183.4z M100.6,187.4c-0.2,0.5-0.5,0.9-0.9,1.2c-0.3,0.2-0.6,0.3-0.9,0.4c-0.2,0-0.4,0.1-0.7,0.1
		c-0.6,0-1.1-0.1-1.5-0.4c-0.4-0.3-0.7-0.7-0.9-1.2c-0.2-0.5-0.3-1.1-0.3-1.8c0-1.1,0.2-1.9,0.7-2.6s1.2-0.9,2.1-0.9
		c0.6,0,1.2,0.2,1.6,0.4c0.3,0.3,0.6,0.6,0.8,1c0,0.1,0.1,0.2,0.1,0.2c0.2,0.5,0.3,1.1,0.3,1.8C100.9,186.3,100.8,186.9,100.6,187.4
		z"/>
	<path class="st3" d="M113.6,178v3.3c0,0.2,0,0.5,0,0.8s0,0.5,0,0.8h-0.1c-0.1-0.3-0.3-0.6-0.6-0.8c-0.2-0.2-0.5-0.4-0.9-0.6
		c-0.3-0.1-0.7-0.2-1.2-0.2c-1.1,0-1.9,0.4-2.6,1.1c-0.6,0.7-0.9,1.8-0.9,3.2s0.3,2.4,0.9,3.1c0.6,0.7,1.4,1,2.5,1
		c0.5,0,0.9-0.1,1.3-0.2s0.6-0.3,0.9-0.6c0.2-0.2,0.4-0.5,0.6-0.8l0,0l0.1,1.4h0.7V178H113.6z M113.6,185.7c0,1.1-0.2,1.9-0.6,2.5
		s-1,0.9-2,0.9c-0.9,0-1.5-0.3-2-0.9c-0.4-0.6-0.6-1.4-0.6-2.5c0-1.2,0.2-2,0.7-2.6c0.4-0.6,1.1-0.9,2-0.9s1.6,0.3,1.9,0.9
		C113.4,183.7,113.6,184.5,113.6,185.7L113.6,185.7z"/>
	<path class="st3" d="M118,178.7c-0.1-0.1-0.3-0.2-0.4-0.2c-0.2,0-0.3,0.1-0.4,0.2c-0.1,0.1-0.2,0.3-0.2,0.5s0.1,0.4,0.2,0.5
		s0.2,0.2,0.4,0.2c0.2,0,0.3-0.1,0.4-0.2c0.1-0.1,0.2-0.3,0.2-0.5S118.1,178.8,118,178.7z M117.2,181.5v8.1h0.9v-8.1H117.2z"/>
	<path class="st3" d="M128,181.4c0.2,0,0.4,0,0.6,0c0.2,0,0.4,0.1,0.5,0.1l-0.1,0.8c-0.2,0-0.3-0.1-0.5-0.1s-0.3,0-0.5,0
		c-0.4,0-0.7,0.1-1,0.2c-0.3,0.1-0.6,0.3-0.8,0.6c-0.2,0.3-0.4,0.6-0.5,0.9c-0.1,0.4-0.2,0.8-0.2,1.2v4.5h-0.9v-8.1h0.7l0.1,1.5l0,0
		c0.1-0.3,0.3-0.6,0.5-0.8c0.2-0.3,0.5-0.5,0.8-0.6C127.3,181.5,127.6,181.4,128,181.4z"/>
	<path class="st3" d="M136.8,183.4c-0.3-0.6-0.7-1.1-1.2-1.5s-1.2-0.5-2-0.5s-1.4,0.2-2,0.5s-1,0.8-1.3,1.5
		c-0.3,0.6-0.4,1.4-0.4,2.3c0,0.6,0.1,1.2,0.3,1.7s0.4,1,0.7,1.3c0.3,0.4,0.7,0.7,1.1,0.9c0.4,0.2,1,0.3,1.5,0.3
		c0.6,0,1.1-0.1,1.6-0.3s0.8-0.5,1.1-0.9s0.5-0.8,0.7-1.3s0.3-1.1,0.3-1.7C137.2,184.8,137.1,184,136.8,183.4z M136,187.4
		c-0.2,0.5-0.5,0.9-0.9,1.2s-0.9,0.4-1.6,0.4c-0.6,0-1.1-0.1-1.5-0.4c-0.4-0.3-0.7-0.7-0.9-1.2s-0.3-1.1-0.3-1.8
		c0-1.1,0.2-1.9,0.7-2.6c0.5-0.6,1.1-0.9,2.1-0.9c0.6,0,1.2,0.2,1.6,0.4c0.4,0.3,0.7,0.7,0.9,1.2s0.3,1.1,0.3,1.8
		C136.3,186.3,136.2,186.9,136,187.4z"/>
	<path class="st3" d="M144.5,187.5c0,0.5-0.1,0.9-0.4,1.3c-0.2,0.3-0.6,0.6-1.1,0.8s-1,0.3-1.7,0.3c-0.6,0-1.1-0.1-1.5-0.2
		c-0.4-0.1-0.8-0.2-1.1-0.4v-0.8c0.4,0.2,0.8,0.3,1.2,0.5c0.5,0.1,0.9,0.2,1.4,0.2c0.8,0,1.4-0.1,1.8-0.4c0.4-0.3,0.5-0.6,0.5-1.1
		c0-0.3-0.1-0.6-0.3-0.7c-0.2-0.2-0.4-0.4-0.7-0.5c-0.3-0.2-0.7-0.3-1.2-0.5s-0.9-0.3-1.3-0.5c-0.4-0.2-0.7-0.4-0.9-0.7
		s-0.3-0.7-0.3-1.1c0-0.7,0.3-1.2,0.8-1.5c0.5-0.4,1.2-0.6,2.1-0.6c0.5,0,0.9,0,1.4,0.1c0.4,0.1,0.8,0.2,1.2,0.4l-0.3,0.7
		c-0.2-0.1-0.4-0.2-0.7-0.2c-0.3-0.1-0.5-0.1-0.8-0.2c-0.3,0-0.5-0.1-0.8-0.1c-0.6,0-1.1,0.1-1.5,0.3s-0.5,0.6-0.5,1
		c0,0.3,0.1,0.6,0.2,0.8c0.2,0.2,0.4,0.3,0.7,0.5c0.3,0.1,0.7,0.3,1.2,0.5s0.9,0.3,1.3,0.5c0.4,0.2,0.7,0.4,0.9,0.7
		C144.4,186.7,144.5,187,144.5,187.5z"/>
	<path class="st3" d="M151.5,182.1c-0.4-0.4-1.1-0.7-2.1-0.7c-0.5,0-1,0.1-1.4,0.2s-0.9,0.3-1.3,0.5l0.3,0.7
		c0.4-0.2,0.8-0.3,1.1-0.4c0.4-0.1,0.8-0.2,1.2-0.2c0.6,0,1.1,0.2,1.4,0.5c0.3,0.3,0.5,0.9,0.5,1.7v0.6l-1.5,0.1
		c-1.3,0.1-2.2,0.3-2.9,0.7s-1,1-1,1.8c0,0.5,0.1,0.9,0.3,1.2s0.5,0.6,0.9,0.8s0.8,0.3,1.3,0.3s0.9-0.1,1.3-0.2
		c0.4-0.1,0.7-0.3,0.9-0.5c0.3-0.2,0.5-0.5,0.7-0.8l0,0l0.2,1.4h0.7v-5.5C152.2,183.2,152,182.5,151.5,182.1z M151.3,186.4
		c0,0.9-0.3,1.5-0.7,2c-0.5,0.5-1.1,0.7-2,0.7c-0.5,0-1-0.1-1.3-0.4c-0.3-0.3-0.5-0.6-0.5-1.1c0-0.6,0.3-1.1,0.8-1.4
		c0.5-0.3,1.3-0.5,2.3-0.6l1.4-0.1V186.4z"/>
	<path class="st3" d="M165,185.1c0-0.7-0.1-1.4-0.4-1.9c-0.2-0.6-0.6-1-1-1.3c-0.5-0.3-1-0.5-1.7-0.5c-0.8,0-1.4,0.2-1.9,0.6
		c-0.5,0.4-0.9,0.9-1.2,1.5s-0.4,1.4-0.4,2.2s0.1,1.6,0.4,2.2c0.3,0.6,0.7,1.1,1.3,1.4c0.6,0.3,1.3,0.5,2.1,0.5c0.5,0,1,0,1.4-0.1
		s0.8-0.2,1.2-0.4v-0.8c-0.4,0.2-0.9,0.3-1.2,0.4c-0.4,0.1-0.8,0.1-1.3,0.1c-0.9,0-1.7-0.3-2.2-0.9c-0.5-0.6-0.7-1.4-0.7-2.5h5.8
		v-0.5H165z M159.2,185c0.1-0.9,0.3-1.6,0.8-2.1s1.1-0.7,1.8-0.7c0.5,0,0.9,0.1,1.3,0.4c0.3,0.3,0.6,0.6,0.8,1s0.2,0.9,0.2,1.5
		L159.2,185L159.2,185z"/>
	<path class="st3" d="M177.2,182.5c-0.6-0.7-1.4-1.1-2.4-1.1c-0.7,0-1.3,0.2-1.8,0.5s-0.8,0.7-1,1.2l0,0c0-0.2,0-0.5,0.1-0.8
		c0-0.3,0-0.6,0-0.8V178h-0.9v11.6h0.6l0.2-1.3h0.1c0.2,0.4,0.5,0.8,1,1c0.4,0.3,1,0.4,1.7,0.4s1.4-0.2,1.9-0.5
		c0.5-0.4,0.9-0.9,1.2-1.5s0.4-1.4,0.4-2.2C178.1,184.2,177.8,183.2,177.2,182.5z M176.6,188.2c-0.4,0.6-1.1,0.9-2,0.9
		s-1.6-0.3-2-0.9c-0.4-0.6-0.6-1.4-0.6-2.5v-0.1c0-0.8,0.1-1.4,0.3-1.9s0.5-0.9,0.9-1.2s0.9-0.4,1.5-0.4c0.9,0,1.5,0.3,1.9,0.9
		c0.4,0.6,0.6,1.4,0.6,2.6C177.2,186.7,177,187.6,176.6,188.2z"/>
	<path class="st3" d="M181.2,178.7c-0.1-0.1-0.2-0.2-0.4-0.2s-0.3,0.1-0.4,0.2c-0.1,0.1-0.2,0.3-0.2,0.5s0,0.4,0.2,0.5
		c0.1,0.1,0.2,0.2,0.4,0.2s0.3-0.1,0.4-0.2c0.1-0.1,0.2-0.3,0.2-0.5S181.3,178.8,181.2,178.7z M180.3,181.5v8.1h0.9v-8.1H180.3z"/>
	<path class="st3" d="M188.8,182.1c-0.4-0.4-1.1-0.7-2.1-0.7c-0.5,0-1,0.1-1.4,0.2c-0.5,0.1-0.9,0.3-1.3,0.5l0.3,0.7
		c0.4-0.2,0.8-0.3,1.1-0.4c0.4-0.1,0.8-0.2,1.2-0.2c0.6,0,1.1,0.2,1.4,0.5c0.3,0.3,0.5,0.9,0.5,1.7v0.6l-1.5,0.1
		c-1.3,0.1-2.2,0.3-2.9,0.7s-1,1-1,1.8c0,0.5,0.1,0.9,0.3,1.2s0.5,0.6,0.9,0.8s0.8,0.3,1.3,0.3s0.9-0.1,1.3-0.2
		c0.4-0.1,0.7-0.3,0.9-0.5c0.3-0.2,0.5-0.5,0.7-0.8l0,0l0.2,1.4h0.7v-5.5C189.5,183.2,189.3,182.5,188.8,182.1z M188.6,186.4
		c0,0.9-0.3,1.5-0.7,2c-0.5,0.5-1.1,0.7-2,0.7c-0.5,0-1-0.1-1.3-0.4c-0.3-0.3-0.5-0.6-0.5-1.1c0-0.6,0.3-1.1,0.8-1.4
		c0.5-0.3,1.3-0.5,2.3-0.6l1.4-0.1V186.4z"/>
	<path class="st3" d="M195.7,181.4c0.9,0,1.6,0.2,2.1,0.7s0.7,1.2,0.7,2.3v5.3h-0.9v-5.3c0-0.8-0.2-1.4-0.5-1.7
		c-0.4-0.4-0.9-0.6-1.6-0.6c-0.9,0-1.6,0.3-2,0.8s-0.7,1.3-0.7,2.3v4.4h-0.9v-8.1h0.7l0.1,1.4l0,0c0.2-0.3,0.4-0.6,0.6-0.8
		c0.3-0.2,0.6-0.4,0.9-0.6C194.9,181.4,195.3,181.4,195.7,181.4z"/>
	<path class="st3" d="M204.5,189.8c-0.8,0-1.5-0.2-2-0.5c-0.6-0.3-1-0.8-1.3-1.4c-0.3-0.6-0.4-1.4-0.4-2.2c0-0.9,0.2-1.7,0.5-2.3
		s0.8-1.1,1.4-1.4c0.6-0.3,1.3-0.5,2.1-0.5c0.4,0,0.7,0,1.1,0.1c0.3,0.1,0.7,0.2,0.9,0.3l-0.2,0.7c-0.3-0.1-0.6-0.2-0.9-0.3
		c-0.3-0.1-0.6-0.1-0.9-0.1c-0.7,0-1.2,0.1-1.7,0.4c-0.4,0.3-0.8,0.7-1,1.2s-0.3,1.1-0.3,1.9c0,0.7,0.1,1.3,0.3,1.8s0.5,0.9,0.9,1.2
		s1,0.4,1.6,0.4c0.4,0,0.8,0,1.1-0.1c0.4-0.1,0.7-0.2,1-0.3v0.8c-0.3,0.1-0.6,0.2-0.9,0.3C205.3,189.8,204.9,189.8,204.5,189.8z"/>
	<path class="st3" d="M214.9,183.4c-0.3-0.6-0.7-1.1-1.2-1.5s-1.2-0.5-2-0.5s-1.4,0.2-2,0.5c-0.5,0.3-1,0.8-1.3,1.5
		c-0.3,0.6-0.4,1.4-0.4,2.3c0,0.6,0.1,1.2,0.2,1.7c0.2,0.5,0.4,1,0.7,1.3c0.3,0.4,0.7,0.7,1.1,0.9c0.4,0.2,1,0.3,1.5,0.3
		c0.6,0,1.1-0.1,1.6-0.3s0.8-0.5,1.1-0.9s0.6-0.8,0.7-1.3c0.2-0.5,0.2-1.1,0.2-1.7C215.3,184.8,215.1,184,214.9,183.4z M214.1,187.4
		c-0.2,0.5-0.5,0.9-0.9,1.2s-0.9,0.4-1.6,0.4c-0.6,0-1.1-0.1-1.5-0.4c-0.4-0.3-0.7-0.7-0.9-1.2s-0.3-1.1-0.3-1.8
		c0-1.1,0.2-1.9,0.7-2.6c0.5-0.6,1.2-0.9,2.1-0.9c0.6,0,1.2,0.2,1.6,0.4c0.4,0.3,0.7,0.7,0.9,1.2s0.3,1.1,0.3,1.8
		C214.4,186.3,214.3,186.9,214.1,187.4z"/>
	<path class="st3" d="M37.6,198.8v3.3c0,0.2,0,0.5,0,0.8s0,0.5,0.1,0.8h-0.1c-0.1-0.3-0.3-0.6-0.6-0.8c-0.2-0.2-0.5-0.4-0.9-0.6
		c-0.3-0.1-0.7-0.2-1.2-0.2c-1.1,0-1.9,0.4-2.6,1.1c-0.6,0.7-0.9,1.8-0.9,3.2s0.3,2.4,0.9,3.1c0.6,0.7,1.4,1,2.5,1
		c0.5,0,0.9-0.1,1.2-0.2c0.3-0.1,0.6-0.3,0.9-0.6c0.2-0.2,0.4-0.5,0.6-0.8l0,0l0.1,1.4h0.7v-11.6h-0.7V198.8z M37.6,206.5
		c0,1.1-0.2,1.9-0.6,2.5c-0.4,0.6-1.1,0.9-2,0.9s-1.5-0.3-2-0.9c-0.4-0.6-0.6-1.4-0.6-2.5c0-1.2,0.2-2,0.7-2.6
		c0.4-0.6,1.1-0.9,2-0.9s1.6,0.3,1.9,0.9C37.4,204.5,37.6,205.3,37.6,206.5L37.6,206.5z"/>
	<path class="st3" d="M47.5,202.3v8.1h-0.7l-0.1-1.4l0,0c-0.1,0.3-0.3,0.6-0.6,0.8s-0.6,0.4-0.9,0.6c-0.4,0.1-0.8,0.2-1.2,0.2
		c-0.6,0-1.2-0.1-1.6-0.3c-0.4-0.2-0.7-0.6-0.9-1s-0.3-1-0.3-1.6v-5.3h0.9v5.3c0,0.8,0.2,1.4,0.5,1.7c0.4,0.4,0.9,0.6,1.6,0.6
		c0.6,0,1.1-0.1,1.5-0.3s0.7-0.6,0.9-1c0.2-0.5,0.3-1,0.3-1.7v-4.5h0.6V202.3z"/>
	<path class="st3" d="M53.5,202.2c0.2,0,0.4,0,0.6,0c0.2,0,0.4,0.1,0.5,0.1l-0.1,0.8c-0.2,0-0.3-0.1-0.5-0.1s-0.3,0-0.5,0
		c-0.4,0-0.7,0.1-1,0.2c-0.3,0.1-0.6,0.3-0.8,0.6s-0.4,0.6-0.5,0.9c-0.1,0.4-0.2,0.8-0.2,1.2v4.5h-0.9v-8.1h0.7l0.1,1.5l0,0
		c0.1-0.3,0.3-0.6,0.5-0.8c0.2-0.3,0.5-0.5,0.8-0.6C52.8,202.2,53.1,202.2,53.5,202.2z"/>
	<path class="st3" d="M60.9,202.8c-0.4-0.4-1.1-0.7-2-0.7c-0.5,0-1,0.1-1.4,0.2c-0.5,0.1-0.9,0.3-1.2,0.5l0.3,0.7
		c0.4-0.2,0.8-0.3,1.1-0.4c0.4-0.1,0.8-0.2,1.2-0.2c0.6,0,1.1,0.2,1.4,0.5c0.3,0.3,0.5,0.9,0.5,1.7v0.6l-1.5,0.1
		c-1.3,0.1-2.2,0.3-2.9,0.7s-1,1-1,1.8c0,0.5,0.1,0.9,0.3,1.2s0.5,0.6,0.9,0.8s0.8,0.3,1.3,0.3s0.9-0.1,1.3-0.2
		c0.4-0.1,0.7-0.3,0.9-0.5c0.3-0.2,0.5-0.5,0.7-0.8h0.1l0.2,1.4h0.7V205C61.5,204,61.3,203.3,60.9,202.8z M60.7,207.1
		c0,0.9-0.2,1.5-0.7,2s-1.1,0.7-2,0.7c-0.5,0-1-0.1-1.3-0.4c-0.3-0.3-0.5-0.6-0.5-1.1c0-0.6,0.3-1.1,0.8-1.4
		c0.5-0.3,1.3-0.5,2.3-0.6l1.4-0.1V207.1z"/>
	<path class="st3" d="M67.8,202.1c0.9,0,1.6,0.2,2.1,0.7s0.7,1.2,0.7,2.3v5.3h-0.9v-5.3c0-0.8-0.2-1.4-0.5-1.7
		c-0.4-0.4-0.9-0.6-1.6-0.6c-0.9,0-1.6,0.3-2,0.8s-0.7,1.3-0.7,2.3v4.4H64v-8.1h0.7l0.1,1.4l0,0c0.2-0.3,0.4-0.6,0.6-0.8
		c0.3-0.2,0.6-0.4,0.9-0.6C66.9,202.2,67.3,202.1,67.8,202.1z"/>
	<path class="st3" d="M75.5,209.9c0.2,0,0.4,0,0.6,0s0.4-0.1,0.5-0.1v0.7c-0.2,0.1-0.3,0.1-0.6,0.2c-0.2,0-0.5,0.1-0.7,0.1
		c-0.4,0-0.8-0.1-1.1-0.2c-0.3-0.2-0.6-0.4-0.7-0.8c-0.2-0.4-0.2-0.8-0.2-1.4V203h-1.2v-0.5l1.2-0.3l0.3-1.9h0.6v1.9h2.5v0.7h-2.5
		v5.1c0,0.6,0.1,1,0.3,1.3C74.7,209.7,75.1,209.9,75.5,209.9z"/>
	<path class="st3" d="M84.7,205.9c0-0.7-0.1-1.4-0.4-1.9c-0.2-0.6-0.6-1-1-1.3c-0.5-0.3-1-0.5-1.7-0.5c-0.8,0-1.4,0.2-1.9,0.6
		c-0.5,0.4-0.9,0.9-1.2,1.5c-0.3,0.6-0.4,1.4-0.4,2.2s0.1,1.6,0.4,2.2c0.3,0.6,0.7,1.1,1.3,1.4c0.6,0.3,1.3,0.5,2.1,0.5
		c0.5,0,1,0,1.4-0.1s0.8-0.2,1.2-0.4v-0.8c-0.4,0.2-0.9,0.3-1.2,0.4c-0.4,0.1-0.8,0.1-1.3,0.1c-0.9,0-1.7-0.3-2.2-0.9
		c-0.5-0.6-0.7-1.4-0.7-2.5h5.8v-0.5H84.7z M78.9,205.8c0.1-0.9,0.3-1.6,0.8-2.1s1.1-0.7,1.8-0.7c0.5,0,0.9,0.1,1.3,0.4
		c0.3,0.3,0.6,0.6,0.8,1c0.2,0.4,0.2,0.9,0.2,1.5L78.9,205.8L78.9,205.8z"/>
	<path class="st3" d="M91.7,210.4h-0.9v-11.6h0.9V210.4z"/>
	<path class="st3" d="M95.1,199.5l-0.2,3.9h-0.6l-0.2-3.9H95.1z"/>
	<path class="st3" d="M102.8,205.9c0-0.7-0.1-1.4-0.4-1.9c-0.2-0.6-0.6-1-1.1-1.3s-1-0.5-1.7-0.5s-1.4,0.2-1.9,0.6
		c-0.5,0.4-0.9,0.9-1.2,1.5c-0.3,0.6-0.4,1.4-0.4,2.2s0.1,1.6,0.4,2.2c0.3,0.6,0.7,1.1,1.3,1.4c0.6,0.3,1.3,0.5,2.1,0.5
		c0.5,0,1,0,1.4-0.1s0.8-0.2,1.2-0.4v-0.8c-0.4,0.2-0.9,0.3-1.2,0.4c-0.4,0.1-0.8,0.1-1.3,0.1c-0.9,0-1.6-0.3-2.2-0.9
		c-0.5-0.6-0.8-1.4-0.8-2.5h5.8C102.8,206.4,102.8,205.9,102.8,205.9z M97,205.8c0.1-0.9,0.3-1.6,0.8-2.1s1.1-0.7,1.8-0.7
		c0.5,0,1,0.1,1.3,0.4c0.3,0.3,0.6,0.6,0.7,1c0.2,0.4,0.3,0.9,0.3,1.5L97,205.8L97,205.8z"/>
	<path class="st3" d="M106.4,210.4l-3.1-8.1h0.9l2,5.4c0.1,0.2,0.2,0.4,0.2,0.7c0.1,0.2,0.2,0.4,0.2,0.6c0.1,0.2,0.1,0.4,0.2,0.6
		l0,0c0.1-0.2,0.1-0.4,0.2-0.6c0.1-0.2,0.1-0.4,0.2-0.6c0.1-0.2,0.2-0.4,0.2-0.7l2-5.4h0.9l-3.1,8.1H106.4z"/>
	<path class="st3" d="M118.1,205.9c0-0.7-0.1-1.4-0.4-1.9c-0.2-0.6-0.6-1-1.1-1.3s-1-0.5-1.7-0.5c-0.8,0-1.4,0.2-1.9,0.6
		c-0.5,0.4-0.9,0.9-1.2,1.5c-0.3,0.6-0.4,1.4-0.4,2.2s0.1,1.6,0.4,2.2c0.3,0.6,0.7,1.1,1.3,1.4c0.6,0.3,1.3,0.5,2.1,0.5
		c0.5,0,1,0,1.4-0.1s0.8-0.2,1.2-0.4v-0.8c-0.4,0.2-0.9,0.3-1.2,0.4c-0.4,0.1-0.8,0.1-1.3,0.1c-0.9,0-1.7-0.3-2.2-0.9
		c-0.5-0.6-0.7-1.4-0.7-2.5h5.8v-0.5H118.1z M112.3,205.8c0.1-0.9,0.3-1.6,0.8-2.1s1.1-0.7,1.8-0.7c0.5,0,0.9,0.1,1.3,0.4
		c0.3,0.3,0.6,0.6,0.8,1c0.2,0.4,0.2,0.9,0.2,1.5L112.3,205.8L112.3,205.8z"/>
	<path class="st3" d="M123.9,202.1c0.9,0,1.6,0.2,2.1,0.7s0.7,1.2,0.7,2.3v5.3h-0.9v-5.3c0-0.8-0.2-1.4-0.5-1.7
		c-0.4-0.4-0.9-0.6-1.6-0.6c-0.9,0-1.6,0.3-2,0.8s-0.7,1.3-0.7,2.3v4.4h-0.9v-8.1h0.7l0.1,1.4l0,0c0.2-0.3,0.4-0.6,0.6-0.8
		c0.3-0.2,0.6-0.4,0.9-0.6C123.1,202.2,123.5,202.1,123.9,202.1z"/>
	<path class="st3" d="M131.7,209.9c0.2,0,0.4,0,0.6,0c0.2,0,0.4-0.1,0.5-0.1v0.7c-0.2,0.1-0.3,0.1-0.6,0.2c-0.2,0-0.5,0.1-0.7,0.1
		c-0.4,0-0.8-0.1-1.1-0.2c-0.3-0.2-0.6-0.4-0.7-0.8c-0.2-0.4-0.2-0.8-0.2-1.4V203h-1.2v-0.5l1.2-0.3l0.3-1.9h0.6v1.9h2.5v0.7h-2.5
		v5.1c0,0.6,0.1,1,0.3,1.3C130.9,209.7,131.2,209.9,131.7,209.9z"/>
	<path class="st3" d="M141,204.1c-0.3-0.6-0.7-1.1-1.2-1.5s-1.2-0.5-2-0.5s-1.4,0.2-2,0.5c-0.5,0.3-1,0.8-1.3,1.5
		c-0.3,0.6-0.4,1.4-0.4,2.3c0,0.6,0.1,1.2,0.2,1.7c0.2,0.5,0.4,1,0.7,1.3c0.3,0.4,0.7,0.7,1.1,0.9c0.4,0.2,1,0.3,1.5,0.3
		c0.6,0,1.1-0.1,1.6-0.3s0.8-0.5,1.1-0.9s0.5-0.8,0.7-1.3s0.2-1.1,0.2-1.7C141.4,205.5,141.3,204.8,141,204.1z M140.2,208.2
		c-0.2,0.5-0.5,0.9-0.9,1.2s-0.9,0.4-1.6,0.4c-0.6,0-1.1-0.1-1.5-0.4c-0.4-0.3-0.7-0.7-0.9-1.2s-0.3-1.1-0.3-1.8
		c0-1.1,0.2-1.9,0.7-2.6c0.5-0.6,1.1-0.9,2.1-0.9c0.6,0,1.2,0.2,1.6,0.4c0.4,0.3,0.7,0.7,0.9,1.2s0.3,1.1,0.3,1.8
		C140.5,207.1,140.4,207.7,140.2,208.2z"/>
	<path class="st3" d="M150.8,210.6c-0.8,0-1.5-0.2-2-0.5c-0.6-0.3-1-0.8-1.3-1.4c-0.3-0.6-0.4-1.4-0.4-2.2c0-0.9,0.2-1.7,0.5-2.3
		s0.8-1.1,1.4-1.4c0.6-0.3,1.3-0.5,2.1-0.5c0.4,0,0.7,0,1.1,0.1c0.3,0.1,0.7,0.2,0.9,0.3l-0.2,0.7c-0.3-0.1-0.6-0.2-0.9-0.3
		c-0.3-0.1-0.6-0.1-0.9-0.1c-0.7,0-1.2,0.1-1.7,0.4c-0.4,0.3-0.8,0.7-1,1.2s-0.3,1.1-0.3,1.9c0,0.7,0.1,1.3,0.3,1.8s0.5,0.9,0.9,1.2
		s1,0.4,1.6,0.4c0.4,0,0.8,0,1.1-0.1c0.4-0.1,0.7-0.2,1-0.3v0.8c-0.3,0.1-0.6,0.2-0.9,0.3C151.7,210.5,151.3,210.6,150.8,210.6z"/>
	<path class="st3" d="M161.3,204.1c-0.3-0.6-0.7-1.1-1.2-1.5s-1.2-0.5-2-0.5s-1.4,0.2-2,0.5s-1,0.8-1.3,1.5
		c-0.3,0.6-0.4,1.4-0.4,2.3c0,0.6,0.1,1.2,0.3,1.7s0.4,1,0.7,1.3c0.3,0.4,0.7,0.7,1.1,0.9c0.4,0.2,1,0.3,1.5,0.3
		c0.6,0,1.1-0.1,1.6-0.3s0.8-0.5,1.1-0.9s0.5-0.8,0.7-1.3s0.3-1.1,0.3-1.7C161.7,205.5,161.5,204.8,161.3,204.1z M160.5,208.2
		c-0.2,0.5-0.5,0.9-0.9,1.2s-0.9,0.4-1.6,0.4c-0.6,0-1.1-0.1-1.5-0.4c-0.4-0.3-0.7-0.7-0.9-1.2s-0.3-1.1-0.3-1.8
		c0-1.1,0.2-1.9,0.7-2.6c0.5-0.6,1.1-0.9,2.1-0.9c0.6,0,1.2,0.2,1.6,0.4c0.4,0.3,0.7,0.7,0.9,1.2s0.3,1.1,0.3,1.8
		C160.8,207.1,160.7,207.7,160.5,208.2z"/>
	<path class="st3" d="M167.5,202.1c0.9,0,1.6,0.2,2.1,0.7s0.7,1.2,0.7,2.3v5.3h-0.9v-5.3c0-0.8-0.2-1.4-0.5-1.7
		c-0.4-0.4-0.9-0.6-1.6-0.6c-0.9,0-1.6,0.3-2,0.8s-0.7,1.3-0.7,2.3v4.4h-0.9v-8.1h0.7l0.1,1.4l0,0c0.2-0.3,0.4-0.6,0.6-0.8
		c0.3-0.2,0.6-0.4,0.9-0.6C166.7,202.2,167.1,202.1,167.5,202.1z"/>
	<path class="st3" d="M179.8,205.7c-0.1-0.6-0.2-1.1-0.4-1.5c-0.3-0.6-0.7-1.1-1.2-1.5s-1.2-0.5-2-0.5s-1.4,0.2-2,0.5
		c-0.5,0.3-1,0.8-1.3,1.5c-0.3,0.6-0.4,1.4-0.4,2.3c0,0.5,0.1,1,0.2,1.4c0,0.1,0.1,0.2,0.1,0.3c0.2,0.5,0.4,1,0.7,1.3
		c0.3,0.4,0.7,0.7,1.1,0.9c0.5,0.2,1,0.3,1.5,0.3c0.6,0,1.1-0.1,1.6-0.3s0.8-0.5,1.1-0.9s0.6-0.8,0.7-1.3c0.2-0.5,0.2-1.1,0.2-1.7
		C179.8,206.1,179.8,205.9,179.8,205.7z M178.6,208.2c-0.2,0.5-0.5,0.9-0.9,1.2s-0.9,0.4-1.6,0.4c-0.6,0-1.1-0.1-1.5-0.4
		c-0.4-0.3-0.7-0.7-0.9-1.2c-0.1-0.2-0.1-0.4-0.2-0.7c-0.1-0.4-0.1-0.7-0.1-1.2c0-1.1,0.2-1.9,0.7-2.6s1.2-0.9,2.1-0.9
		c0.6,0,1.2,0.2,1.6,0.4c0.4,0.3,0.7,0.7,0.9,1.2c0.1,0.4,0.2,0.9,0.3,1.4c0,0.1,0,0.3,0,0.4C178.9,207.1,178.8,207.7,178.6,208.2z"
		/>
	<path class="st3" d="M187.1,208.3c0,0.5-0.1,0.9-0.4,1.3c-0.2,0.3-0.6,0.6-1.1,0.8s-1,0.3-1.7,0.3c-0.6,0-1.1-0.1-1.5-0.2
		c-0.4-0.1-0.8-0.2-1.1-0.4v-0.8c0.4,0.2,0.8,0.3,1.2,0.5c0.5,0.1,0.9,0.2,1.4,0.2c0.8,0,1.4-0.1,1.8-0.4c0.4-0.3,0.5-0.6,0.5-1.1
		c0-0.3-0.1-0.6-0.3-0.7c-0.2-0.2-0.4-0.4-0.7-0.5c-0.3-0.2-0.7-0.3-1.2-0.5s-0.9-0.3-1.3-0.5c-0.4-0.2-0.7-0.4-0.9-0.7
		s-0.3-0.7-0.3-1.1c0-0.7,0.3-1.2,0.8-1.5c0.5-0.4,1.2-0.6,2.1-0.6c0.5,0,0.9,0,1.4,0.1c0.4,0.1,0.8,0.2,1.2,0.4l-0.3,0.7
		c-0.2-0.1-0.4-0.2-0.7-0.2c-0.3-0.1-0.5-0.1-0.8-0.2c-0.3,0-0.5-0.1-0.8-0.1c-0.6,0-1.1,0.1-1.5,0.3s-0.5,0.6-0.5,1
		c0,0.3,0.1,0.6,0.2,0.8c0.2,0.2,0.4,0.3,0.7,0.5c0.3,0.1,0.7,0.3,1.2,0.5s0.9,0.3,1.3,0.5c0.4,0.2,0.7,0.4,0.9,0.7
		C187,207.4,187.1,207.8,187.1,208.3z"/>
	<path class="st3" d="M192.4,210.6c-0.8,0-1.5-0.2-2-0.5c-0.6-0.3-1-0.8-1.3-1.4c-0.3-0.6-0.4-1.4-0.4-2.2c0-0.9,0.2-1.7,0.5-2.3
		s0.8-1.1,1.4-1.4c0.6-0.3,1.3-0.5,2.1-0.5c0.4,0,0.7,0,1.1,0.1c0.3,0.1,0.7,0.2,0.9,0.3l-0.2,0.7c-0.3-0.1-0.6-0.2-0.9-0.3
		c-0.3-0.1-0.6-0.1-0.9-0.1c-0.7,0-1.2,0.1-1.7,0.4c-0.4,0.3-0.8,0.7-1,1.2s-0.3,1.1-0.3,1.9c0,0.7,0.1,1.3,0.3,1.8s0.5,0.9,0.9,1.2
		s1,0.4,1.6,0.4c0.4,0,0.8,0,1.1-0.1c0.4-0.1,0.7-0.2,1-0.3v0.8c-0.3,0.1-0.6,0.2-0.9,0.3C193.3,210.5,192.9,210.6,192.4,210.6z"/>
	<path class="st3" d="M197.3,199.5c-0.1-0.1-0.2-0.2-0.4-0.2s-0.3,0.1-0.4,0.2c-0.1,0.1-0.2,0.3-0.2,0.5s0.1,0.4,0.2,0.5
		c0.1,0.1,0.2,0.1,0.3,0.2c0,0,0.1,0,0.2,0c0.2,0,0.3-0.1,0.4-0.2l0,0c0.1-0.1,0.1-0.3,0.1-0.5C197.5,199.7,197.4,199.6,197.3,199.5
		z M196.4,202.3v8.1h0.9v-8.1H196.4z"/>
	<path class="st3" d="M206.4,202.3v8.1h-0.7l-0.1-1.4l0,0c-0.1,0.3-0.3,0.6-0.6,0.8s-0.6,0.4-0.9,0.6c-0.4,0.1-0.8,0.2-1.2,0.2
		c-0.6,0-1.2-0.1-1.6-0.3c-0.4-0.2-0.7-0.6-0.9-1s-0.3-1-0.3-1.6v-5.3h0.9v5.3c0,0.8,0.2,1.4,0.5,1.7c0.4,0.4,0.9,0.6,1.6,0.6
		c0.6,0,1.1-0.1,1.5-0.3s0.7-0.6,0.9-1c0.2-0.5,0.3-1,0.3-1.7v-4.5h0.6V202.3z"/>
	<path class="st3" d="M211.4,209.9c0.2,0,0.4,0,0.6,0c0.2,0,0.4-0.1,0.5-0.1v0.7c-0.2,0.1-0.3,0.1-0.6,0.2c-0.2,0-0.5,0.1-0.7,0.1
		c-0.4,0-0.8-0.1-1.1-0.2c-0.3-0.2-0.6-0.4-0.7-0.8c-0.2-0.4-0.2-0.8-0.2-1.4V203H208v-0.5l1.2-0.3l0.3-1.9h0.6v1.9h2.5v0.7H210v5.1
		c0,0.6,0.1,1,0.3,1.3C210.6,209.7,210.9,209.9,211.4,209.9z"/>
	<path class="st3" d="M220.7,204.1c-0.3-0.6-0.7-1.1-1.2-1.5c-0.3-0.2-0.5-0.3-0.8-0.4c-0.3-0.1-0.7-0.2-1.1-0.2
		c-0.8,0-1.4,0.2-2,0.5c-0.5,0.3-1,0.8-1.3,1.5c-0.3,0.6-0.4,1.4-0.4,2.3c0,0.6,0.1,1.2,0.2,1.7c0.2,0.5,0.4,1,0.7,1.3
		c0.3,0.4,0.7,0.7,1.1,0.9c0.4,0.2,1,0.3,1.5,0.3c0.6,0,1.1-0.1,1.6-0.3s0.8-0.5,1.1-0.9s0.5-0.8,0.7-1.3c0-0.1,0.1-0.2,0.1-0.3
		c0.1-0.4,0.2-0.9,0.2-1.4C221.1,205.5,221,204.8,220.7,204.1z M220.2,206.4c0,0.7-0.1,1.3-0.3,1.8s-0.5,0.9-0.9,1.2
		s-0.9,0.4-1.6,0.4c-0.6,0-1.1-0.1-1.5-0.4c-0.4-0.3-0.7-0.7-0.9-1.2s-0.3-1.1-0.3-1.8c0-1.1,0.2-1.9,0.7-2.6
		c0.5-0.6,1.2-0.9,2.1-0.9c0.6,0,1.2,0.2,1.6,0.4l0,0c0.4,0.3,0.7,0.7,0.9,1.2c0.1,0.4,0.2,0.9,0.3,1.4
		C220.2,206.1,220.2,206.2,220.2,206.4z"/>
	<path class="st3" d="M35.2,231.4c-0.8,0-1.5-0.2-2-0.5c-0.6-0.3-1-0.8-1.3-1.4c-0.3-0.6-0.4-1.4-0.4-2.2c0-0.9,0.2-1.7,0.5-2.3
		c0.3-0.6,0.8-1.1,1.4-1.4c0.6-0.3,1.3-0.5,2.1-0.5c0.4,0,0.7,0,1.1,0.1c0.3,0.1,0.7,0.2,0.9,0.3l-0.2,0.7c-0.3-0.1-0.6-0.2-0.9-0.3
		c-0.3-0.1-0.6-0.1-0.9-0.1c-0.7,0-1.2,0.1-1.7,0.4c-0.4,0.3-0.8,0.7-1,1.2s-0.3,1.1-0.3,1.9c0,0.7,0.1,1.3,0.3,1.8s0.5,0.9,0.9,1.2
		s1,0.4,1.6,0.4c0.4,0,0.8,0,1.1-0.1c0.4-0.1,0.7-0.2,1-0.3v0.8c-0.3,0.1-0.6,0.2-0.9,0.3C36,231.3,35.6,231.4,35.2,231.4z"/>
	<path class="st3" d="M45.6,224.9c-0.3-0.6-0.7-1.1-1.2-1.5s-1.2-0.5-2-0.5s-1.4,0.2-2,0.5c-0.5,0.3-1,0.8-1.3,1.5
		c-0.3,0.6-0.4,1.4-0.4,2.3c0,0.6,0.1,1.2,0.2,1.7c0.2,0.5,0.4,1,0.7,1.3c0.3,0.4,0.7,0.7,1.1,0.9c0.4,0.2,1,0.3,1.5,0.3
		c0.6,0,1.1-0.1,1.6-0.3s0.8-0.5,1.1-0.9s0.6-0.8,0.7-1.3c0.2-0.5,0.2-1.1,0.2-1.7C46,226.3,45.9,225.5,45.6,224.9z M44.8,229
		c-0.2,0.5-0.5,0.9-0.9,1.2s-0.9,0.4-1.6,0.4c-0.6,0-1.1-0.1-1.5-0.4c-0.4-0.3-0.7-0.7-0.9-1.2s-0.3-1.1-0.3-1.8
		c0-1.1,0.2-1.9,0.7-2.6c0.5-0.6,1.2-0.9,2.1-0.9c0.6,0,1.2,0.2,1.6,0.4c0.4,0.3,0.7,0.7,0.9,1.2s0.3,1.1,0.3,1.8
		C45.1,227.8,45,228.4,44.8,229z"/>
	<path class="st3" d="M56.7,222.9c0.8,0,1.4,0.2,1.9,0.7s0.7,1.2,0.7,2.2v5.4h-0.9v-5.4c0-0.7-0.2-1.3-0.5-1.6
		c-0.3-0.4-0.8-0.5-1.3-0.5c-0.8,0-1.4,0.2-1.8,0.7c-0.4,0.4-0.6,1.1-0.6,2.1v4.8h-0.9v-5.4c0-0.5-0.1-0.9-0.2-1.2
		c-0.1-0.3-0.4-0.6-0.6-0.7c-0.3-0.2-0.6-0.2-1-0.2c-0.5,0-0.9,0.1-1.3,0.3c-0.4,0.2-0.6,0.5-0.8,1c-0.2,0.4-0.3,1-0.3,1.6v4.6h-0.9
		v-8.1h0.7l0.1,1.3l0,0c0.1-0.3,0.3-0.5,0.6-0.7c0.2-0.2,0.5-0.4,0.8-0.5s0.7-0.2,1.1-0.2c0.6,0,1.1,0.1,1.5,0.4
		c0.4,0.3,0.7,0.6,0.9,1.1H54c0.2-0.5,0.6-0.9,1-1.1C55.6,223,56.1,222.9,56.7,222.9z"/>
	<path class="st3" d="M68.2,226.7c0-0.7-0.1-1.4-0.4-1.9c-0.2-0.6-0.6-1-1.1-1.3s-1-0.5-1.7-0.5c-0.8,0-1.4,0.2-1.9,0.6
		c-0.5,0.4-0.9,0.9-1.2,1.5s-0.4,1.4-0.4,2.2s0.1,1.6,0.4,2.2c0.3,0.6,0.7,1.1,1.3,1.4c0.6,0.3,1.3,0.5,2.1,0.5c0.5,0,1,0,1.4-0.1
		s0.8-0.2,1.2-0.4V230c-0.4,0.2-0.9,0.3-1.2,0.4c-0.4,0.1-0.8,0.1-1.3,0.1c-0.9,0-1.7-0.3-2.2-0.9c-0.5-0.6-0.7-1.4-0.7-2.5h5.8
		L68.2,226.7L68.2,226.7z M62.4,226.5c0.1-0.9,0.3-1.6,0.8-2.1s1.1-0.7,1.8-0.7c0.5,0,0.9,0.1,1.3,0.4c0.3,0.3,0.6,0.6,0.8,1
		c0.2,0.4,0.2,0.9,0.2,1.5L62.4,226.5L62.4,226.5z"/>
	<path class="st3" d="M76.5,220.3l0.1,2.6l0.1,1.3h0.6l0.1-1.3l0.1-2.6H76.5z M74,220.3l0.1,2.6l0.1,1.3h0.6l0.1-1.3l0.1-2.6H74z"/>
	<path class="st3" d="M80.8,223.3c0,0.2,0,0.4,0,0.6c0,0.2,0,0.4,0,0.6h0.1c0.1-0.3,0.3-0.6,0.6-0.8c0.3-0.2,0.6-0.4,0.9-0.6
		c0.4-0.1,0.8-0.2,1.2-0.2c0.6,0,1.1,0.1,1.6,0.3c0.4,0.2,0.7,0.5,1,1c0.2,0.4,0.3,1,0.3,1.7v5.3h-0.9v-5.3c0-0.8-0.2-1.4-0.5-1.7
		c-0.4-0.4-0.9-0.6-1.6-0.6c-0.6,0-1.1,0.1-1.5,0.4c-0.4,0.2-0.7,0.6-0.9,1c-0.2,0.5-0.3,1-0.3,1.7v4.4h-0.9v-11.6h0.9
		C80.8,219.5,80.8,223.3,80.8,223.3z"/>
	<path class="st3" d="M93.9,223.6c-0.4-0.4-1.1-0.7-2.1-0.7c-0.5,0-1,0.1-1.4,0.2s-0.9,0.3-1.3,0.5l0.3,0.7c0.4-0.2,0.8-0.3,1.1-0.4
		c0.4-0.1,0.8-0.2,1.2-0.2c0.6,0,1.1,0.2,1.4,0.5s0.5,0.9,0.5,1.7v0.6l-1.5,0.1c-1.3,0.1-2.2,0.3-2.9,0.7c-0.7,0.4-1,1-1,1.8
		c0,0.5,0.1,0.9,0.3,1.2c0.2,0.3,0.5,0.6,0.9,0.8s0.8,0.3,1.3,0.3s0.9-0.1,1.3-0.2c0.3-0.1,0.7-0.3,0.9-0.5c0.3-0.2,0.5-0.5,0.7-0.8
		l0,0l0.2,1.4h0.7v-5.5C94.6,224.8,94.4,224.1,93.9,223.6z M93.7,227.9c0,0.9-0.3,1.5-0.7,2c-0.5,0.5-1.1,0.7-2,0.7
		c-0.5,0-1-0.1-1.3-0.4c-0.3-0.3-0.5-0.6-0.5-1.1c0-0.6,0.3-1.1,0.8-1.4c0.5-0.3,1.3-0.5,2.3-0.6l1.4-0.1
		C93.7,227,93.7,227.9,93.7,227.9z"/>
	<path class="st3" d="M100.8,222.9c0.9,0,1.6,0.2,2.1,0.7s0.7,1.2,0.7,2.3v5.3h-0.9v-5.3c0-0.8-0.2-1.4-0.5-1.7
		c-0.4-0.4-0.9-0.6-1.6-0.6c-0.9,0-1.6,0.3-2,0.8s-0.7,1.3-0.7,2.3v4.4H97V223h0.7l0.1,1.4l0,0c0.2-0.3,0.4-0.6,0.6-0.8
		c0.3-0.2,0.6-0.4,0.9-0.6C100,223,100.4,222.9,100.8,222.9z"/>
	<path class="st3" d="M111.2,223.6c-0.4-0.4-1.1-0.7-2-0.7c-0.5,0-1,0.1-1.4,0.2c-0.5,0.1-0.9,0.3-1.2,0.5l0.3,0.7
		c0.4-0.2,0.8-0.3,1.1-0.4c0.4-0.1,0.8-0.2,1.2-0.2c0.6,0,1.1,0.2,1.4,0.5s0.5,0.9,0.5,1.7v0.6l-1.5,0.1c-1.3,0.1-2.2,0.3-2.9,0.7
		c-0.7,0.4-1,1-1,1.8c0,0.5,0.1,0.9,0.3,1.2c0.2,0.3,0.5,0.6,0.9,0.8s0.8,0.3,1.3,0.3s0.9-0.1,1.3-0.2c0.4-0.1,0.7-0.3,0.9-0.5
		c0.3-0.2,0.5-0.5,0.7-0.8h0.1l0.2,1.4h0.7v-5.5C111.9,224.8,111.7,224.1,111.2,223.6z M111,227.9c0,0.9-0.3,1.5-0.7,2
		c-0.5,0.5-1.1,0.7-2,0.7c-0.5,0-1-0.1-1.3-0.4c-0.3-0.3-0.5-0.6-0.5-1.1c0-0.6,0.3-1.1,0.8-1.4c0.5-0.3,1.3-0.5,2.3-0.6l1.4-0.1
		C111,227,111,227.9,111,227.9z"/>
	<path class="st3" d="M123,222.9c0.8,0,1.4,0.2,1.9,0.7s0.7,1.2,0.7,2.2v5.4h-0.9v-5.4c0-0.7-0.2-1.3-0.5-1.6
		c-0.3-0.4-0.8-0.5-1.3-0.5c-0.8,0-1.4,0.2-1.8,0.7c-0.4,0.4-0.6,1.1-0.6,2.1v4.8h-0.9v-5.4c0-0.5-0.1-0.9-0.2-1.2s-0.4-0.6-0.6-0.7
		c-0.3-0.2-0.6-0.2-1-0.2c-0.5,0-0.9,0.1-1.3,0.3s-0.6,0.5-0.8,1c-0.2,0.4-0.3,1-0.3,1.6v4.6h-0.9v-8.1h0.7l0.1,1.3l0,0
		c0.1-0.3,0.3-0.5,0.6-0.7c0.2-0.2,0.5-0.4,0.8-0.5s0.7-0.2,1.1-0.2c0.6,0,1.1,0.1,1.5,0.4c0.4,0.3,0.7,0.6,0.9,1.1h0.1
		c0.2-0.5,0.6-0.9,1-1.1C121.8,223,122.4,222.9,123,222.9z"/>
	<path class="st3" d="M129,220.2c-0.1-0.1-0.3-0.2-0.4-0.2c-0.2,0-0.3,0.1-0.4,0.2c-0.1,0.1-0.2,0.3-0.2,0.5s0.1,0.4,0.2,0.5
		c0.1,0.1,0.3,0.2,0.4,0.2c0.2,0,0.3-0.1,0.4-0.2c0.1-0.1,0.2-0.3,0.2-0.5S129.1,220.3,129,220.2z M128.2,223.1v8.1h0.9v-8.1H128.2z
		"/>
	<path class="st3" d="M133.9,220.3l0.1,2.6l0.1,1.3h0.6l0.1-1.3l0.1-2.6H133.9z M131.4,220.3l0.1,2.6l0.1,1.3h0.6l0.1-1.3l0.1-2.6
		H131.4z"/>
	<path class="st3" d="M137.2,230.6c0-0.3,0.1-0.4,0.2-0.6c0.1-0.1,0.3-0.2,0.5-0.2s0.4,0.1,0.5,0.2c0.1,0.1,0.2,0.3,0.2,0.6
		c0,0.2-0.1,0.4-0.2,0.6c-0.1,0.1-0.3,0.2-0.5,0.2s-0.4-0.1-0.5-0.2C137.2,231.1,137.2,230.9,137.2,230.6z"/>
	<path class="st0" d="M558.1,358.5c0.8,2.9,2.3,6.8,2.3,6.8s-4.1-1.7-7.1-2.6c-5.3,6.3-4.7,15.1,1.4,21.2c6.7,6.7,22.2,11.3,29.4,5
		c7.2-6.2,3.3-21-3.4-27.6C574.7,355.2,565.3,354,558.1,358.5z"/>
</g>
</svg>
