<svg width="17" height="16" viewBox="0 0 17 16" fill="none" xmlns="http://www.w3.org/2000/svg">
<mask id="path-1-outside-1_217_2" maskUnits="userSpaceOnUse" x="0" y="-1" width="17" height="18" fill="black">
<rect fill="white" y="-1" width="17" height="18"/>
<path d="M8.764 0.144C13.084 0.144 16.54 3.6 16.54 7.872C16.54 12.192 13.084 15.648 8.764 15.648C4.492 15.648 0.988 12.192 0.988 7.872C0.988 3.6 4.492 0.144 8.764 0.144ZM8.764 12.192C11.164 12.192 13.084 10.272 13.084 7.872C13.084 5.52 11.164 3.6 8.764 3.6C6.412 3.6 4.444 5.52 4.444 7.872C4.444 10.272 6.412 12.192 8.764 12.192Z"/>
</mask>
<path d="M8.764 0.144C13.084 0.144 16.54 3.6 16.54 7.872C16.54 12.192 13.084 15.648 8.764 15.648C4.492 15.648 0.988 12.192 0.988 7.872C0.988 3.6 4.492 0.144 8.764 0.144ZM8.764 12.192C11.164 12.192 13.084 10.272 13.084 7.872C13.084 5.52 11.164 3.6 8.764 3.6C6.412 3.6 4.444 5.52 4.444 7.872C4.444 10.272 6.412 12.192 8.764 12.192Z" fill="#1D1D1D"/>
<path d="M8.764 0.515649C12.8802 0.515649 16.1684 3.80675 16.1684 7.872H16.9117C16.9117 3.39324 13.2878 -0.22765 8.764 -0.22765V0.515649ZM16.1684 7.872C16.1684 11.9867 12.8787 15.2764 8.764 15.2764V16.0196C13.2893 16.0196 16.9117 12.3973 16.9117 7.872H16.1684ZM8.764 15.2764C4.69576 15.2764 1.35965 11.9853 1.35965 7.872H0.616351C0.616351 12.3987 4.28824 16.0196 8.764 16.0196V15.2764ZM1.35965 7.872C1.35965 3.80824 4.69426 0.515649 8.764 0.515649V-0.22765C4.28974 -0.22765 0.616351 3.39175 0.616351 7.872H1.35965ZM8.764 12.5636C11.3693 12.5636 13.4557 10.4773 13.4557 7.872H12.7124C12.7124 10.0667 10.9587 11.8204 8.764 11.8204V12.5636ZM13.4557 7.872C13.4557 5.31204 11.3665 3.22835 8.764 3.22835V3.97165C10.9615 3.97165 12.7124 5.72796 12.7124 7.872H13.4557ZM8.764 3.22835C6.21216 3.22835 4.07235 5.30937 4.07235 7.872H4.81565C4.81565 5.73063 6.61185 3.97165 8.764 3.97165V3.22835ZM4.07235 7.872C4.07235 10.4799 6.20943 12.5636 8.764 12.5636V11.8204C6.61457 11.8204 4.81565 10.0641 4.81565 7.872H4.07235Z" fill="black" mask="url(#path-1-outside-1_217_2)"/>
</svg>
